<?xml version="1.0" encoding="utf-8" standalone="no"?>
<!DOCTYPE svg PUBLIC "-//W3C//DTD SVG 1.1//EN"
  "http://www.w3.org/Graphics/SVG/1.1/DTD/svg11.dtd">
<svg xmlns:xlink="http://www.w3.org/1999/xlink" width="864pt" height="360pt" viewBox="0 0 864 360" xmlns="http://www.w3.org/2000/svg" version="1.1">
 <metadata>
  <rdf:RDF xmlns:dc="http://purl.org/dc/elements/1.1/" xmlns:cc="http://creativecommons.org/ns#" xmlns:rdf="http://www.w3.org/1999/02/22-rdf-syntax-ns#">
   <cc:Work>
    <dc:type rdf:resource="http://purl.org/dc/dcmitype/StillImage"/>
    <dc:date>2024-05-02T20:05:59.380688</dc:date>
    <dc:format>image/svg+xml</dc:format>
    <dc:creator>
     <cc:Agent>
      <dc:title>Matplotlib v3.8.4, https://matplotlib.org/</dc:title>
     </cc:Agent>
    </dc:creator>
   </cc:Work>
  </rdf:RDF>
 </metadata>
 <defs>
  <style type="text/css">*{stroke-linejoin: round; stroke-linecap: butt}</style>
 </defs>
 <g id="figure_1">
  <g id="patch_1">
   <path d="M 0 360 
L 864 360 
L 864 0 
L 0 0 
L 0 360 
z
" style="fill: none; opacity: 0"/>
  </g>
  <g id="axes_1">
   <g id="patch_2">
    <path d="M 108 320.4 
L 777.6 320.4 
L 777.6 43.2 
L 108 43.2 
L 108 320.4 
z
" style="fill: none; opacity: 0"/>
   </g>
   <g id="matplotlib.axis_1">
    <g id="xtick_1">
     <g id="line2d_1">
      <path d="M 161.872063 320.4 
L 161.872063 43.2 
" clip-path="url(#p3bcf0fe57a)" style="fill: none; stroke-dasharray: 5.12,1.28,0.8,1.28; stroke-dashoffset: 0; stroke: #b0b0b0; stroke-width: 0.8"/>
     </g>
     <g id="line2d_2">
      <defs>
       <path id="m0afffd8d77" d="M 0 0 
L 0 3.5 
" style="stroke: #a9a9a9; stroke-width: 0.8"/>
      </defs>
      <g>
       <use xlink:href="#m0afffd8d77" x="161.872063" y="320.4" style="fill: #a9a9a9; stroke: #a9a9a9; stroke-width: 0.8"/>
      </g>
     </g>
     <g id="text_1">
      <!-- 2021-09 -->
      <g style="fill: #a9a9a9" transform="translate(140.980657 334.998438) scale(0.1 -0.1)">
       <defs>
        <path id="DejaVuSans-32" d="M 1228 531 
L 3431 531 
L 3431 0 
L 469 0 
L 469 531 
Q 828 903 1448 1529 
Q 2069 2156 2228 2338 
Q 2531 2678 2651 2914 
Q 2772 3150 2772 3378 
Q 2772 3750 2511 3984 
Q 2250 4219 1831 4219 
Q 1534 4219 1204 4116 
Q 875 4013 500 3803 
L 500 4441 
Q 881 4594 1212 4672 
Q 1544 4750 1819 4750 
Q 2544 4750 2975 4387 
Q 3406 4025 3406 3419 
Q 3406 3131 3298 2873 
Q 3191 2616 2906 2266 
Q 2828 2175 2409 1742 
Q 1991 1309 1228 531 
z
" transform="scale(0.015625)"/>
        <path id="DejaVuSans-30" d="M 2034 4250 
Q 1547 4250 1301 3770 
Q 1056 3291 1056 2328 
Q 1056 1369 1301 889 
Q 1547 409 2034 409 
Q 2525 409 2770 889 
Q 3016 1369 3016 2328 
Q 3016 3291 2770 3770 
Q 2525 4250 2034 4250 
z
M 2034 4750 
Q 2819 4750 3233 4129 
Q 3647 3509 3647 2328 
Q 3647 1150 3233 529 
Q 2819 -91 2034 -91 
Q 1250 -91 836 529 
Q 422 1150 422 2328 
Q 422 3509 836 4129 
Q 1250 4750 2034 4750 
z
" transform="scale(0.015625)"/>
        <path id="DejaVuSans-31" d="M 794 531 
L 1825 531 
L 1825 4091 
L 703 3866 
L 703 4441 
L 1819 4666 
L 2450 4666 
L 2450 531 
L 3481 531 
L 3481 0 
L 794 0 
L 794 531 
z
" transform="scale(0.015625)"/>
        <path id="DejaVuSans-2d" d="M 313 2009 
L 1997 2009 
L 1997 1497 
L 313 1497 
L 313 2009 
z
" transform="scale(0.015625)"/>
        <path id="DejaVuSans-39" d="M 703 97 
L 703 672 
Q 941 559 1184 500 
Q 1428 441 1663 441 
Q 2288 441 2617 861 
Q 2947 1281 2994 2138 
Q 2813 1869 2534 1725 
Q 2256 1581 1919 1581 
Q 1219 1581 811 2004 
Q 403 2428 403 3163 
Q 403 3881 828 4315 
Q 1253 4750 1959 4750 
Q 2769 4750 3195 4129 
Q 3622 3509 3622 2328 
Q 3622 1225 3098 567 
Q 2575 -91 1691 -91 
Q 1453 -91 1209 -44 
Q 966 3 703 97 
z
M 1959 2075 
Q 2384 2075 2632 2365 
Q 2881 2656 2881 3163 
Q 2881 3666 2632 3958 
Q 2384 4250 1959 4250 
Q 1534 4250 1286 3958 
Q 1038 3666 1038 3163 
Q 1038 2656 1286 2365 
Q 1534 2075 1959 2075 
z
" transform="scale(0.015625)"/>
       </defs>
       <use xlink:href="#DejaVuSans-32"/>
       <use xlink:href="#DejaVuSans-30" x="63.623047"/>
       <use xlink:href="#DejaVuSans-32" x="127.246094"/>
       <use xlink:href="#DejaVuSans-31" x="190.869141"/>
       <use xlink:href="#DejaVuSans-2d" x="254.492188"/>
       <use xlink:href="#DejaVuSans-30" x="290.576172"/>
       <use xlink:href="#DejaVuSans-39" x="354.199219"/>
      </g>
     </g>
    </g>
    <g id="xtick_2">
     <g id="line2d_3">
      <path d="M 235.183739 320.4 
L 235.183739 43.2 
" clip-path="url(#p3bcf0fe57a)" style="fill: none; stroke-dasharray: 5.12,1.28,0.8,1.28; stroke-dashoffset: 0; stroke: #b0b0b0; stroke-width: 0.8"/>
     </g>
     <g id="line2d_4">
      <g>
       <use xlink:href="#m0afffd8d77" x="235.183739" y="320.4" style="fill: #a9a9a9; stroke: #a9a9a9; stroke-width: 0.8"/>
      </g>
     </g>
     <g id="text_2">
      <!-- 2022-01 -->
      <g style="fill: #a9a9a9" transform="translate(214.292332 334.998438) scale(0.1 -0.1)">
       <use xlink:href="#DejaVuSans-32"/>
       <use xlink:href="#DejaVuSans-30" x="63.623047"/>
       <use xlink:href="#DejaVuSans-32" x="127.246094"/>
       <use xlink:href="#DejaVuSans-32" x="190.869141"/>
       <use xlink:href="#DejaVuSans-2d" x="254.492188"/>
       <use xlink:href="#DejaVuSans-30" x="290.576172"/>
       <use xlink:href="#DejaVuSans-31" x="354.199219"/>
      </g>
     </g>
    </g>
    <g id="xtick_3">
     <g id="line2d_5">
      <path d="M 307.293583 320.4 
L 307.293583 43.2 
" clip-path="url(#p3bcf0fe57a)" style="fill: none; stroke-dasharray: 5.12,1.28,0.8,1.28; stroke-dashoffset: 0; stroke: #b0b0b0; stroke-width: 0.8"/>
     </g>
     <g id="line2d_6">
      <g>
       <use xlink:href="#m0afffd8d77" x="307.293583" y="320.4" style="fill: #a9a9a9; stroke: #a9a9a9; stroke-width: 0.8"/>
      </g>
     </g>
     <g id="text_3">
      <!-- 2022-05 -->
      <g style="fill: #a9a9a9" transform="translate(286.402177 334.998438) scale(0.1 -0.1)">
       <defs>
        <path id="DejaVuSans-35" d="M 691 4666 
L 3169 4666 
L 3169 4134 
L 1269 4134 
L 1269 2991 
Q 1406 3038 1543 3061 
Q 1681 3084 1819 3084 
Q 2600 3084 3056 2656 
Q 3513 2228 3513 1497 
Q 3513 744 3044 326 
Q 2575 -91 1722 -91 
Q 1428 -91 1123 -41 
Q 819 9 494 109 
L 494 744 
Q 775 591 1075 516 
Q 1375 441 1709 441 
Q 2250 441 2565 725 
Q 2881 1009 2881 1497 
Q 2881 1984 2565 2268 
Q 2250 2553 1709 2553 
Q 1456 2553 1204 2497 
Q 953 2441 691 2322 
L 691 4666 
z
" transform="scale(0.015625)"/>
       </defs>
       <use xlink:href="#DejaVuSans-32"/>
       <use xlink:href="#DejaVuSans-30" x="63.623047"/>
       <use xlink:href="#DejaVuSans-32" x="127.246094"/>
       <use xlink:href="#DejaVuSans-32" x="190.869141"/>
       <use xlink:href="#DejaVuSans-2d" x="254.492188"/>
       <use xlink:href="#DejaVuSans-30" x="290.576172"/>
       <use xlink:href="#DejaVuSans-35" x="354.199219"/>
      </g>
     </g>
    </g>
    <g id="xtick_4">
     <g id="line2d_7">
      <path d="M 381.206174 320.4 
L 381.206174 43.2 
" clip-path="url(#p3bcf0fe57a)" style="fill: none; stroke-dasharray: 5.12,1.28,0.8,1.28; stroke-dashoffset: 0; stroke: #b0b0b0; stroke-width: 0.8"/>
     </g>
     <g id="line2d_8">
      <g>
       <use xlink:href="#m0afffd8d77" x="381.206174" y="320.4" style="fill: #a9a9a9; stroke: #a9a9a9; stroke-width: 0.8"/>
      </g>
     </g>
     <g id="text_4">
      <!-- 2022-09 -->
      <g style="fill: #a9a9a9" transform="translate(360.314768 334.998438) scale(0.1 -0.1)">
       <use xlink:href="#DejaVuSans-32"/>
       <use xlink:href="#DejaVuSans-30" x="63.623047"/>
       <use xlink:href="#DejaVuSans-32" x="127.246094"/>
       <use xlink:href="#DejaVuSans-32" x="190.869141"/>
       <use xlink:href="#DejaVuSans-2d" x="254.492188"/>
       <use xlink:href="#DejaVuSans-30" x="290.576172"/>
       <use xlink:href="#DejaVuSans-39" x="354.199219"/>
      </g>
     </g>
    </g>
    <g id="xtick_5">
     <g id="line2d_9">
      <path d="M 454.51785 320.4 
L 454.51785 43.2 
" clip-path="url(#p3bcf0fe57a)" style="fill: none; stroke-dasharray: 5.12,1.28,0.8,1.28; stroke-dashoffset: 0; stroke: #b0b0b0; stroke-width: 0.8"/>
     </g>
     <g id="line2d_10">
      <g>
       <use xlink:href="#m0afffd8d77" x="454.51785" y="320.4" style="fill: #a9a9a9; stroke: #a9a9a9; stroke-width: 0.8"/>
      </g>
     </g>
     <g id="text_5">
      <!-- 2023-01 -->
      <g style="fill: #a9a9a9" transform="translate(433.626444 334.998438) scale(0.1 -0.1)">
       <defs>
        <path id="DejaVuSans-33" d="M 2597 2516 
Q 3050 2419 3304 2112 
Q 3559 1806 3559 1356 
Q 3559 666 3084 287 
Q 2609 -91 1734 -91 
Q 1441 -91 1130 -33 
Q 819 25 488 141 
L 488 750 
Q 750 597 1062 519 
Q 1375 441 1716 441 
Q 2309 441 2620 675 
Q 2931 909 2931 1356 
Q 2931 1769 2642 2001 
Q 2353 2234 1838 2234 
L 1294 2234 
L 1294 2753 
L 1863 2753 
Q 2328 2753 2575 2939 
Q 2822 3125 2822 3475 
Q 2822 3834 2567 4026 
Q 2313 4219 1838 4219 
Q 1578 4219 1281 4162 
Q 984 4106 628 3988 
L 628 4550 
Q 988 4650 1302 4700 
Q 1616 4750 1894 4750 
Q 2613 4750 3031 4423 
Q 3450 4097 3450 3541 
Q 3450 3153 3228 2886 
Q 3006 2619 2597 2516 
z
" transform="scale(0.015625)"/>
       </defs>
       <use xlink:href="#DejaVuSans-32"/>
       <use xlink:href="#DejaVuSans-30" x="63.623047"/>
       <use xlink:href="#DejaVuSans-32" x="127.246094"/>
       <use xlink:href="#DejaVuSans-33" x="190.869141"/>
       <use xlink:href="#DejaVuSans-2d" x="254.492188"/>
       <use xlink:href="#DejaVuSans-30" x="290.576172"/>
       <use xlink:href="#DejaVuSans-31" x="354.199219"/>
      </g>
     </g>
    </g>
    <g id="xtick_6">
     <g id="line2d_11">
      <path d="M 526.627695 320.4 
L 526.627695 43.2 
" clip-path="url(#p3bcf0fe57a)" style="fill: none; stroke-dasharray: 5.12,1.28,0.8,1.28; stroke-dashoffset: 0; stroke: #b0b0b0; stroke-width: 0.8"/>
     </g>
     <g id="line2d_12">
      <g>
       <use xlink:href="#m0afffd8d77" x="526.627695" y="320.4" style="fill: #a9a9a9; stroke: #a9a9a9; stroke-width: 0.8"/>
      </g>
     </g>
     <g id="text_6">
      <!-- 2023-05 -->
      <g style="fill: #a9a9a9" transform="translate(505.736288 334.998438) scale(0.1 -0.1)">
       <use xlink:href="#DejaVuSans-32"/>
       <use xlink:href="#DejaVuSans-30" x="63.623047"/>
       <use xlink:href="#DejaVuSans-32" x="127.246094"/>
       <use xlink:href="#DejaVuSans-33" x="190.869141"/>
       <use xlink:href="#DejaVuSans-2d" x="254.492188"/>
       <use xlink:href="#DejaVuSans-30" x="290.576172"/>
       <use xlink:href="#DejaVuSans-35" x="354.199219"/>
      </g>
     </g>
    </g>
    <g id="xtick_7">
     <g id="line2d_13">
      <path d="M 600.540285 320.4 
L 600.540285 43.2 
" clip-path="url(#p3bcf0fe57a)" style="fill: none; stroke-dasharray: 5.12,1.28,0.8,1.28; stroke-dashoffset: 0; stroke: #b0b0b0; stroke-width: 0.8"/>
     </g>
     <g id="line2d_14">
      <g>
       <use xlink:href="#m0afffd8d77" x="600.540285" y="320.4" style="fill: #a9a9a9; stroke: #a9a9a9; stroke-width: 0.8"/>
      </g>
     </g>
     <g id="text_7">
      <!-- 2023-09 -->
      <g style="fill: #a9a9a9" transform="translate(579.648879 334.998438) scale(0.1 -0.1)">
       <use xlink:href="#DejaVuSans-32"/>
       <use xlink:href="#DejaVuSans-30" x="63.623047"/>
       <use xlink:href="#DejaVuSans-32" x="127.246094"/>
       <use xlink:href="#DejaVuSans-33" x="190.869141"/>
       <use xlink:href="#DejaVuSans-2d" x="254.492188"/>
       <use xlink:href="#DejaVuSans-30" x="290.576172"/>
       <use xlink:href="#DejaVuSans-39" x="354.199219"/>
      </g>
     </g>
    </g>
    <g id="xtick_8">
     <g id="line2d_15">
      <path d="M 673.851961 320.4 
L 673.851961 43.2 
" clip-path="url(#p3bcf0fe57a)" style="fill: none; stroke-dasharray: 5.12,1.28,0.8,1.28; stroke-dashoffset: 0; stroke: #b0b0b0; stroke-width: 0.8"/>
     </g>
     <g id="line2d_16">
      <g>
       <use xlink:href="#m0afffd8d77" x="673.851961" y="320.4" style="fill: #a9a9a9; stroke: #a9a9a9; stroke-width: 0.8"/>
      </g>
     </g>
     <g id="text_8">
      <!-- 2024-01 -->
      <g style="fill: #a9a9a9" transform="translate(652.960555 334.998438) scale(0.1 -0.1)">
       <defs>
        <path id="DejaVuSans-34" d="M 2419 4116 
L 825 1625 
L 2419 1625 
L 2419 4116 
z
M 2253 4666 
L 3047 4666 
L 3047 1625 
L 3713 1625 
L 3713 1100 
L 3047 1100 
L 3047 0 
L 2419 0 
L 2419 1100 
L 313 1100 
L 313 1709 
L 2253 4666 
z
" transform="scale(0.015625)"/>
       </defs>
       <use xlink:href="#DejaVuSans-32"/>
       <use xlink:href="#DejaVuSans-30" x="63.623047"/>
       <use xlink:href="#DejaVuSans-32" x="127.246094"/>
       <use xlink:href="#DejaVuSans-34" x="190.869141"/>
       <use xlink:href="#DejaVuSans-2d" x="254.492188"/>
       <use xlink:href="#DejaVuSans-30" x="290.576172"/>
       <use xlink:href="#DejaVuSans-31" x="354.199219"/>
      </g>
     </g>
    </g>
    <g id="xtick_9">
     <g id="line2d_17">
      <path d="M 746.562721 320.4 
L 746.562721 43.2 
" clip-path="url(#p3bcf0fe57a)" style="fill: none; stroke-dasharray: 5.12,1.28,0.8,1.28; stroke-dashoffset: 0; stroke: #b0b0b0; stroke-width: 0.8"/>
     </g>
     <g id="line2d_18">
      <g>
       <use xlink:href="#m0afffd8d77" x="746.562721" y="320.4" style="fill: #a9a9a9; stroke: #a9a9a9; stroke-width: 0.8"/>
      </g>
     </g>
     <g id="text_9">
      <!-- 2024-05 -->
      <g style="fill: #a9a9a9" transform="translate(725.671315 334.998438) scale(0.1 -0.1)">
       <use xlink:href="#DejaVuSans-32"/>
       <use xlink:href="#DejaVuSans-30" x="63.623047"/>
       <use xlink:href="#DejaVuSans-32" x="127.246094"/>
       <use xlink:href="#DejaVuSans-34" x="190.869141"/>
       <use xlink:href="#DejaVuSans-2d" x="254.492188"/>
       <use xlink:href="#DejaVuSans-30" x="290.576172"/>
       <use xlink:href="#DejaVuSans-35" x="354.199219"/>
      </g>
     </g>
    </g>
   </g>
   <g id="matplotlib.axis_2">
    <g id="ytick_1">
     <g id="line2d_19">
      <path d="M 108 307.841798 
L 777.6 307.841798 
" clip-path="url(#p3bcf0fe57a)" style="fill: none; stroke-dasharray: 5.12,1.28,0.8,1.28; stroke-dashoffset: 0; stroke: #b0b0b0; stroke-width: 0.8"/>
     </g>
     <g id="line2d_20">
      <defs>
       <path id="m799afda1f2" d="M 0 0 
L -3.5 0 
" style="stroke: #a9a9a9; stroke-width: 0.8"/>
      </defs>
      <g>
       <use xlink:href="#m799afda1f2" x="108" y="307.841798" style="fill: #a9a9a9; stroke: #a9a9a9; stroke-width: 0.8"/>
      </g>
     </g>
     <g id="text_10">
      <!-- 0 -->
      <g style="fill: #a9a9a9" transform="translate(94.6375 311.641017) scale(0.1 -0.1)">
       <use xlink:href="#DejaVuSans-30"/>
      </g>
     </g>
    </g>
    <g id="ytick_2">
     <g id="line2d_21">
      <path d="M 108 274.403417 
L 777.6 274.403417 
" clip-path="url(#p3bcf0fe57a)" style="fill: none; stroke-dasharray: 5.12,1.28,0.8,1.28; stroke-dashoffset: 0; stroke: #b0b0b0; stroke-width: 0.8"/>
     </g>
     <g id="line2d_22">
      <g>
       <use xlink:href="#m799afda1f2" x="108" y="274.403417" style="fill: #a9a9a9; stroke: #a9a9a9; stroke-width: 0.8"/>
      </g>
     </g>
     <g id="text_11">
      <!-- 800 -->
      <g style="fill: #a9a9a9" transform="translate(81.9125 278.202636) scale(0.1 -0.1)">
       <defs>
        <path id="DejaVuSans-38" d="M 2034 2216 
Q 1584 2216 1326 1975 
Q 1069 1734 1069 1313 
Q 1069 891 1326 650 
Q 1584 409 2034 409 
Q 2484 409 2743 651 
Q 3003 894 3003 1313 
Q 3003 1734 2745 1975 
Q 2488 2216 2034 2216 
z
M 1403 2484 
Q 997 2584 770 2862 
Q 544 3141 544 3541 
Q 544 4100 942 4425 
Q 1341 4750 2034 4750 
Q 2731 4750 3128 4425 
Q 3525 4100 3525 3541 
Q 3525 3141 3298 2862 
Q 3072 2584 2669 2484 
Q 3125 2378 3379 2068 
Q 3634 1759 3634 1313 
Q 3634 634 3220 271 
Q 2806 -91 2034 -91 
Q 1263 -91 848 271 
Q 434 634 434 1313 
Q 434 1759 690 2068 
Q 947 2378 1403 2484 
z
M 1172 3481 
Q 1172 3119 1398 2916 
Q 1625 2713 2034 2713 
Q 2441 2713 2670 2916 
Q 2900 3119 2900 3481 
Q 2900 3844 2670 4047 
Q 2441 4250 2034 4250 
Q 1625 4250 1398 4047 
Q 1172 3844 1172 3481 
z
" transform="scale(0.015625)"/>
       </defs>
       <use xlink:href="#DejaVuSans-38"/>
       <use xlink:href="#DejaVuSans-30" x="63.623047"/>
       <use xlink:href="#DejaVuSans-30" x="127.246094"/>
      </g>
     </g>
    </g>
    <g id="ytick_3">
     <g id="line2d_23">
      <path d="M 108 240.965036 
L 777.6 240.965036 
" clip-path="url(#p3bcf0fe57a)" style="fill: none; stroke-dasharray: 5.12,1.28,0.8,1.28; stroke-dashoffset: 0; stroke: #b0b0b0; stroke-width: 0.8"/>
     </g>
     <g id="line2d_24">
      <g>
       <use xlink:href="#m799afda1f2" x="108" y="240.965036" style="fill: #a9a9a9; stroke: #a9a9a9; stroke-width: 0.8"/>
      </g>
     </g>
     <g id="text_12">
      <!-- 1600 -->
      <g style="fill: #a9a9a9" transform="translate(75.55 244.764254) scale(0.1 -0.1)">
       <defs>
        <path id="DejaVuSans-36" d="M 2113 2584 
Q 1688 2584 1439 2293 
Q 1191 2003 1191 1497 
Q 1191 994 1439 701 
Q 1688 409 2113 409 
Q 2538 409 2786 701 
Q 3034 994 3034 1497 
Q 3034 2003 2786 2293 
Q 2538 2584 2113 2584 
z
M 3366 4563 
L 3366 3988 
Q 3128 4100 2886 4159 
Q 2644 4219 2406 4219 
Q 1781 4219 1451 3797 
Q 1122 3375 1075 2522 
Q 1259 2794 1537 2939 
Q 1816 3084 2150 3084 
Q 2853 3084 3261 2657 
Q 3669 2231 3669 1497 
Q 3669 778 3244 343 
Q 2819 -91 2113 -91 
Q 1303 -91 875 529 
Q 447 1150 447 2328 
Q 447 3434 972 4092 
Q 1497 4750 2381 4750 
Q 2619 4750 2861 4703 
Q 3103 4656 3366 4563 
z
" transform="scale(0.015625)"/>
       </defs>
       <use xlink:href="#DejaVuSans-31"/>
       <use xlink:href="#DejaVuSans-36" x="63.623047"/>
       <use xlink:href="#DejaVuSans-30" x="127.246094"/>
       <use xlink:href="#DejaVuSans-30" x="190.869141"/>
      </g>
     </g>
    </g>
    <g id="ytick_4">
     <g id="line2d_25">
      <path d="M 108 207.526655 
L 777.6 207.526655 
" clip-path="url(#p3bcf0fe57a)" style="fill: none; stroke-dasharray: 5.12,1.28,0.8,1.28; stroke-dashoffset: 0; stroke: #b0b0b0; stroke-width: 0.8"/>
     </g>
     <g id="line2d_26">
      <g>
       <use xlink:href="#m799afda1f2" x="108" y="207.526655" style="fill: #a9a9a9; stroke: #a9a9a9; stroke-width: 0.8"/>
      </g>
     </g>
     <g id="text_13">
      <!-- 2400 -->
      <g style="fill: #a9a9a9" transform="translate(75.55 211.325873) scale(0.1 -0.1)">
       <use xlink:href="#DejaVuSans-32"/>
       <use xlink:href="#DejaVuSans-34" x="63.623047"/>
       <use xlink:href="#DejaVuSans-30" x="127.246094"/>
       <use xlink:href="#DejaVuSans-30" x="190.869141"/>
      </g>
     </g>
    </g>
    <g id="ytick_5">
     <g id="line2d_27">
      <path d="M 108 174.088273 
L 777.6 174.088273 
" clip-path="url(#p3bcf0fe57a)" style="fill: none; stroke-dasharray: 5.12,1.28,0.8,1.28; stroke-dashoffset: 0; stroke: #b0b0b0; stroke-width: 0.8"/>
     </g>
     <g id="line2d_28">
      <g>
       <use xlink:href="#m799afda1f2" x="108" y="174.088273" style="fill: #a9a9a9; stroke: #a9a9a9; stroke-width: 0.8"/>
      </g>
     </g>
     <g id="text_14">
      <!-- 3200 -->
      <g style="fill: #a9a9a9" transform="translate(75.55 177.887492) scale(0.1 -0.1)">
       <use xlink:href="#DejaVuSans-33"/>
       <use xlink:href="#DejaVuSans-32" x="63.623047"/>
       <use xlink:href="#DejaVuSans-30" x="127.246094"/>
       <use xlink:href="#DejaVuSans-30" x="190.869141"/>
      </g>
     </g>
    </g>
    <g id="ytick_6">
     <g id="line2d_29">
      <path d="M 108 140.649892 
L 777.6 140.649892 
" clip-path="url(#p3bcf0fe57a)" style="fill: none; stroke-dasharray: 5.12,1.28,0.8,1.28; stroke-dashoffset: 0; stroke: #b0b0b0; stroke-width: 0.8"/>
     </g>
     <g id="line2d_30">
      <g>
       <use xlink:href="#m799afda1f2" x="108" y="140.649892" style="fill: #a9a9a9; stroke: #a9a9a9; stroke-width: 0.8"/>
      </g>
     </g>
     <g id="text_15">
      <!-- 4000 -->
      <g style="fill: #a9a9a9" transform="translate(75.55 144.449111) scale(0.1 -0.1)">
       <use xlink:href="#DejaVuSans-34"/>
       <use xlink:href="#DejaVuSans-30" x="63.623047"/>
       <use xlink:href="#DejaVuSans-30" x="127.246094"/>
       <use xlink:href="#DejaVuSans-30" x="190.869141"/>
      </g>
     </g>
    </g>
    <g id="ytick_7">
     <g id="line2d_31">
      <path d="M 108 107.211511 
L 777.6 107.211511 
" clip-path="url(#p3bcf0fe57a)" style="fill: none; stroke-dasharray: 5.12,1.28,0.8,1.28; stroke-dashoffset: 0; stroke: #b0b0b0; stroke-width: 0.8"/>
     </g>
     <g id="line2d_32">
      <g>
       <use xlink:href="#m799afda1f2" x="108" y="107.211511" style="fill: #a9a9a9; stroke: #a9a9a9; stroke-width: 0.8"/>
      </g>
     </g>
     <g id="text_16">
      <!-- 4800 -->
      <g style="fill: #a9a9a9" transform="translate(75.55 111.01073) scale(0.1 -0.1)">
       <use xlink:href="#DejaVuSans-34"/>
       <use xlink:href="#DejaVuSans-38" x="63.623047"/>
       <use xlink:href="#DejaVuSans-30" x="127.246094"/>
       <use xlink:href="#DejaVuSans-30" x="190.869141"/>
      </g>
     </g>
    </g>
    <g id="ytick_8">
     <g id="line2d_33">
      <path d="M 108 73.77313 
L 777.6 73.77313 
" clip-path="url(#p3bcf0fe57a)" style="fill: none; stroke-dasharray: 5.12,1.28,0.8,1.28; stroke-dashoffset: 0; stroke: #b0b0b0; stroke-width: 0.8"/>
     </g>
     <g id="line2d_34">
      <g>
       <use xlink:href="#m799afda1f2" x="108" y="73.77313" style="fill: #a9a9a9; stroke: #a9a9a9; stroke-width: 0.8"/>
      </g>
     </g>
     <g id="text_17">
      <!-- 5600 -->
      <g style="fill: #a9a9a9" transform="translate(75.55 77.572349) scale(0.1 -0.1)">
       <use xlink:href="#DejaVuSans-35"/>
       <use xlink:href="#DejaVuSans-36" x="63.623047"/>
       <use xlink:href="#DejaVuSans-30" x="127.246094"/>
       <use xlink:href="#DejaVuSans-30" x="190.869141"/>
      </g>
     </g>
    </g>
   </g>
   <g id="line2d_35">
    <path d="M 138.436364 307.716404 
L 142.041856 307.423818 
L 142.642771 307.17303 
L 144.445517 306.96404 
L 148.05101 306.253475 
L 151.656502 305.960889 
L 152.257417 305.668303 
L 152.858333 305.501111 
L 153.459248 304.748748 
L 154.060163 304.330768 
L 154.661079 303.035031 
L 155.261994 302.951435 
L 155.862909 302.491657 
L 157.06474 301.906485 
L 159.468402 300.067374 
L 160.670232 299.565799 
L 161.271148 299.147819 
L 163.674809 298.102869 
L 164.275725 297.183314 
L 165.477555 296.347354 
L 166.078471 296.054769 
L 172.087625 295.218809 
L 172.68854 294.926223 
L 176.894948 294.591839 
L 178.697694 294.132062 
L 184.105932 293.421496 
L 184.706847 293.087112 
L 185.307763 293.003516 
L 185.908678 292.752728 
L 187.110509 292.543739 
L 187.711424 292.501941 
L 188.913255 292.251153 
L 189.51417 292.209355 
L 191.917832 291.624183 
L 193.720578 291.456991 
L 194.922409 291.331597 
L 195.523324 291.164405 
L 196.124239 291.122607 
L 197.926986 290.579234 
L 199.128816 290.495638 
L 200.330647 290.328446 
L 201.532478 290.077658 
L 202.133393 289.910466 
L 202.734309 289.116305 
L 204.537055 288.447537 
L 206.339801 287.987759 
L 206.940716 287.695173 
L 207.541632 287.653375 
L 210.546208 286.817416 
L 211.748039 286.73382 
L 212.348955 286.650224 
L 214.151701 286.10685 
L 216.555362 285.521679 
L 217.156277 285.270891 
L 217.757193 285.187295 
L 218.358108 284.894709 
L 224.367262 284.016951 
L 227.371839 283.180992 
L 227.972754 282.80481 
L 230.376416 282.17784 
L 232.780077 280.965699 
L 234.582823 280.547719 
L 235.183739 280.464123 
L 235.784654 280.171538 
L 236.986485 279.962548 
L 238.188316 279.419174 
L 241.192892 278.66681 
L 242.995639 278.207033 
L 243.596554 277.956245 
L 244.197469 277.830851 
L 244.798385 277.580063 
L 245.3993 277.496467 
L 246.000215 277.203881 
L 246.601131 277.036689 
L 247.802962 276.953093 
L 249.004792 276.535114 
L 250.206623 276.451518 
L 250.807538 276.158932 
L 252.009369 275.99174 
L 252.610284 275.78275 
L 253.812115 275.740952 
L 256.215777 275.448366 
L 257.417607 274.863195 
L 264.027677 272.06273 
L 264.628592 271.728346 
L 265.229507 271.101377 
L 266.431338 269.345862 
L 267.032253 269.17867 
L 267.633169 269.17867 
L 268.835 268.300912 
L 269.435915 268.13372 
L 270.03683 267.841135 
L 270.637746 267.715741 
L 271.238661 267.172367 
L 271.839576 267.005175 
L 273.642323 266.127417 
L 274.844153 264.455498 
L 275.445069 264.079317 
L 276.045984 263.076165 
L 276.646899 262.449196 
L 277.247815 262.15661 
L 277.84873 261.989418 
L 280.252392 260.568287 
L 281.454222 259.606933 
L 282.055138 259.230751 
L 282.656053 258.352994 
L 283.256969 257.015459 
L 283.857884 256.137701 
L 284.458799 255.677923 
L 285.059715 255.427136 
L 287.463376 253.337237 
L 288.665207 252.375883 
L 289.266122 251.874308 
L 289.867038 251.080146 
L 291.068868 250.035197 
L 293.47253 248.488671 
L 294.073445 247.987096 
L 294.674361 247.861702 
L 295.275276 247.610914 
L 297.078022 246.607762 
L 298.880768 245.479217 
L 300.683514 243.723702 
L 301.28443 243.34752 
L 301.885345 243.180328 
L 302.48626 242.887743 
L 303.688091 242.093581 
L 304.289007 241.759197 
L 304.889922 241.675601 
L 309.697245 238.791541 
L 311.499991 237.830187 
L 312.100906 237.286814 
L 314.504568 236.53445 
L 315.105483 236.11647 
L 315.706399 235.991076 
L 316.908229 235.573097 
L 318.710976 234.862531 
L 320.513722 234.193763 
L 321.715552 233.984774 
L 322.917383 232.939824 
L 324.720129 232.103865 
L 325.92196 231.393299 
L 327.123791 231.058915 
L 327.724706 230.682733 
L 328.325621 230.515542 
L 330.128368 229.386996 
L 333.132944 228.676431 
L 334.935691 227.631481 
L 335.536606 227.547885 
L 336.137521 227.338895 
L 337.339352 227.088107 
L 339.142098 225.750572 
L 340.944844 225.332592 
L 341.54576 225.123603 
L 342.146675 224.663825 
L 345.752167 223.493482 
L 346.353083 223.451684 
L 346.953998 223.284492 
L 348.155829 222.782916 
L 352.362236 221.319987 
L 353.564067 221.152795 
L 354.164983 220.985603 
L 354.765898 220.693017 
L 355.366813 220.567623 
L 357.169559 219.731664 
L 358.972305 218.853906 
L 359.573221 218.435926 
L 360.174136 218.268734 
L 361.976882 217.307381 
L 363.178713 217.014795 
L 364.380544 216.387826 
L 365.582375 216.053442 
L 366.18329 215.969846 
L 367.385121 215.25928 
L 367.986036 215.133886 
L 369.187867 214.63231 
L 369.788782 214.506917 
L 370.389698 214.172533 
L 372.793359 213.796351 
L 373.99519 213.211179 
L 374.596105 212.709604 
L 375.197021 211.664654 
L 376.999767 211.33027 
L 379.403428 210.076331 
L 380.004344 209.950937 
L 384.210751 207.944634 
L 385.412582 207.61025 
L 386.614413 207.359463 
L 387.816243 206.774291 
L 388.417159 206.523503 
L 389.018074 206.439907 
L 391.421736 205.394958 
L 393.224482 204.266412 
L 393.825397 204.182816 
L 394.426312 203.973827 
L 395.027228 203.932029 
L 397.430889 203.263261 
L 398.031805 203.221463 
L 398.63272 202.761685 
L 399.834551 202.343705 
L 401.637297 201.758534 
L 402.238212 201.382352 
L 402.839128 201.21516 
L 403.440043 200.79718 
L 404.040958 200.546392 
L 405.242789 199.919423 
L 407.646451 199.208857 
L 408.247366 198.916271 
L 410.050112 197.536938 
L 410.651028 197.411544 
L 411.852858 196.491989 
L 412.453774 196.366595 
L 413.054689 195.447039 
L 413.655604 195.196251 
L 414.25652 194.736474 
L 414.857435 194.652878 
L 416.059266 193.942312 
L 416.660181 193.816918 
L 417.261097 193.56613 
L 417.862012 193.106353 
L 418.462927 192.897363 
L 420.265674 191.685221 
L 422.669335 190.47308 
L 423.27025 190.389484 
L 424.472081 189.84611 
L 425.072997 189.511727 
L 425.673912 188.508575 
L 426.274827 187.965202 
L 426.875743 187.630818 
L 427.476658 187.505424 
L 428.678489 186.75306 
L 429.279404 186.627666 
L 430.481235 186.042495 
L 432.283981 185.290131 
L 433.485812 184.454172 
L 434.687642 183.200232 
L 437.692219 181.026737 
L 438.89405 180.065384 
L 439.494965 179.814596 
L 440.095881 179.145828 
L 440.696796 178.686051 
L 441.898627 178.268071 
L 443.100458 177.473909 
L 443.701373 177.181324 
L 444.302288 177.014132 
L 444.903204 176.596152 
L 445.504119 176.512556 
L 447.306865 175.551203 
L 448.508696 174.840637 
L 454.51785 172.70894 
L 455.118765 172.165566 
L 456.921511 171.496799 
L 458.123342 171.120617 
L 458.724257 170.660839 
L 461.127919 169.4069 
L 461.728834 169.072516 
L 462.930665 166.731829 
L 464.132496 165.310698 
L 465.334326 164.600133 
L 467.137073 163.889567 
L 467.737988 163.805971 
L 468.338903 163.471587 
L 470.141649 162.928214 
L 472.545311 161.841466 
L 473.146226 161.465284 
L 474.348057 161.047305 
L 477.953549 158.957406 
L 478.554465 158.330436 
L 479.756295 157.703467 
L 483.361788 155.822558 
L 483.962703 155.57177 
L 484.563618 155.195588 
L 485.164534 155.070194 
L 485.765449 154.610416 
L 488.770026 153.649063 
L 489.370941 153.481871 
L 489.971857 153.189285 
L 490.572772 152.771305 
L 491.774603 152.436922 
L 492.976434 151.977144 
L 493.577349 151.517366 
L 494.77918 151.141184 
L 495.380095 150.848598 
L 495.98101 150.681407 
L 497.182841 149.845447 
L 498.384672 149.343871 
L 499.586503 148.424316 
L 500.788333 148.006336 
L 501.389249 147.50476 
L 501.990164 147.421164 
L 503.191995 146.543407 
L 504.393826 145.958235 
L 504.994741 145.707447 
L 505.595656 145.122276 
L 509.201149 143.826538 
L 511.003895 143.032377 
L 512.806641 142.489003 
L 514.008472 142.321811 
L 514.609387 142.071023 
L 515.210302 141.987427 
L 516.412133 141.485852 
L 517.013049 141.444054 
L 519.41671 140.566296 
L 521.219456 139.354155 
L 521.820372 139.103367 
L 523.022202 138.476397 
L 523.623118 138.267408 
L 527.22861 136.302903 
L 527.829525 136.177509 
L 529.632271 135.174357 
L 531.435017 134.589186 
L 532.035933 134.338398 
L 533.237764 134.045812 
L 536.24234 133.084458 
L 538.045087 132.791873 
L 540.448748 132.039509 
L 541.049663 131.788721 
L 541.650579 131.705125 
L 542.251494 131.412539 
L 543.453325 131.161752 
L 544.655156 130.743772 
L 545.256071 130.534782 
L 546.457902 130.409388 
L 547.659733 130.116802 
L 549.462479 129.824216 
L 550.063394 129.615226 
L 551.265225 129.489832 
L 554.269802 128.737469 
L 555.471632 128.444883 
L 556.072548 128.110499 
L 559.077125 127.358136 
L 559.67804 127.232742 
L 560.879871 126.814762 
L 562.682617 126.187792 
L 563.283532 126.104196 
L 565.086278 125.477227 
L 565.687194 125.477227 
L 566.889024 125.059247 
L 567.48994 124.474075 
L 568.090855 124.181489 
L 569.292686 123.805308 
L 571.696347 122.885752 
L 572.297263 122.760358 
L 572.898178 122.384176 
L 573.499094 122.258783 
L 574.100009 121.924399 
L 577.104586 121.046641 
L 577.705501 120.670459 
L 578.306417 120.545066 
L 578.907332 120.04349 
L 580.710078 119.709106 
L 581.911909 119.040338 
L 582.512824 118.371571 
L 583.714655 118.120783 
L 587.921063 117.159429 
L 588.521978 116.992238 
L 589.723809 116.95044 
L 590.324724 116.699652 
L 592.728386 116.281672 
L 593.329301 116.030884 
L 595.132047 115.780096 
L 597.535709 115.027733 
L 599.338455 114.609753 
L 601.141201 114.149975 
L 602.943947 113.606601 
L 605.948524 112.728844 
L 607.150354 112.18547 
L 608.352185 111.76749 
L 608.953101 111.307713 
L 610.154931 110.973329 
L 610.755847 110.722541 
L 611.957677 110.388157 
L 614.361339 109.30141 
L 616.164085 109.176016 
L 618.567747 108.507248 
L 619.168662 108.131067 
L 620.370493 107.796683 
L 622.173239 106.877127 
L 622.774154 106.751733 
L 623.37507 106.459147 
L 623.975985 106.417349 
L 630.586054 104.202057 
L 632.989716 103.616885 
L 633.590631 103.449693 
L 634.792462 102.906319 
L 635.393377 102.822724 
L 636.595208 102.48834 
L 637.196123 102.028562 
L 637.797038 101.735976 
L 638.397954 101.025411 
L 638.998869 100.607431 
L 640.2007 100.231249 
L 640.801615 99.771471 
L 645.608938 97.806966 
L 646.209854 97.639774 
L 646.810769 97.263593 
L 649.214431 96.553027 
L 650.416261 95.967855 
L 651.618092 95.25729 
L 652.219007 95.131896 
L 653.420838 94.42133 
L 654.021754 94.170542 
L 655.223584 93.418179 
L 657.02633 92.582219 
L 657.627246 92.16424 
L 658.829077 91.74626 
L 660.030907 91.035694 
L 660.631823 90.826704 
L 661.232738 90.408724 
L 662.434569 89.990745 
L 663.035484 89.865351 
L 665.439146 88.778603 
L 668.443723 87.733654 
L 669.044638 87.691856 
L 669.645553 87.524664 
L 670.246469 87.148482 
L 670.847384 87.064886 
L 671.448299 86.855897 
L 673.251045 86.521513 
L 677.457453 84.389816 
L 678.058368 84.30622 
L 679.861115 83.344866 
L 681.663861 82.676099 
L 683.466607 81.881937 
L 685.870268 80.920584 
L 686.471184 80.753392 
L 687.072099 80.37721 
L 688.27393 80.210018 
L 688.874845 79.833836 
L 689.475761 79.792038 
L 690.677591 79.415857 
L 691.879422 78.830685 
L 692.480337 78.747089 
L 693.081253 78.496301 
L 693.682168 78.370907 
L 695.484914 77.576746 
L 696.08583 77.451352 
L 696.686745 77.200564 
L 699.691322 76.489998 
L 701.494068 75.821231 
L 703.89773 74.441897 
L 705.09956 73.98212 
L 705.700476 73.605938 
L 706.902306 73.35515 
L 707.503222 73.020766 
L 708.104137 72.895372 
L 709.305968 72.226605 
L 712.91146 70.554686 
L 714.714206 69.969514 
L 715.916037 69.551534 
L 716.516952 69.342544 
L 717.718783 68.757373 
L 718.920614 68.381191 
L 719.521529 68.255797 
L 720.72336 67.712423 
L 721.324275 67.503433 
L 721.925191 67.16905 
L 722.526106 67.085454 
L 723.127021 66.876464 
L 724.328852 66.207696 
L 726.732514 65.120949 
L 727.934344 64.702969 
L 729.136175 64.075999 
L 729.737091 63.992403 
L 732.741667 62.696666 
L 733.342583 62.278686 
L 735.746244 61.484525 
L 736.34716 61.484525 
L 737.54899 60.941151 
L 738.149906 60.481373 
L 738.750821 59.812606 
L 739.351737 59.31103 
L 739.952652 59.018444 
L 740.553567 58.851252 
L 741.154483 58.47507 
L 741.755398 58.349677 
L 742.356313 58.057091 
L 742.957229 57.973495 
L 743.558144 57.555515 
L 744.159059 57.430121 
L 744.759975 57.137535 
L 746.562721 55.925394 
L 747.163636 55.8 
L 747.163636 55.8 
" clip-path="url(#p3bcf0fe57a)" style="fill: none; stroke: #1f77b4; stroke-width: 1.5; stroke-linecap: square"/>
   </g>
   <g id="line2d_36">
    <path d="M 139.037279 307.8 
L 140.840025 307.716404 
L 142.642771 307.674606 
L 146.248263 307.59101 
L 149.25284 307.465616 
L 151.656502 307.465616 
L 152.257417 307.298424 
L 154.661079 307.214828 
L 156.463825 307.005838 
L 158.266571 306.838647 
L 161.872063 306.671455 
L 162.472979 306.671455 
L 163.073894 306.546061 
L 165.477555 306.462465 
L 166.679386 306.378869 
L 171.486709 306.295273 
L 174.491286 306.169879 
L 181.70227 306.086283 
L 184.706847 305.960889 
L 188.31234 305.877293 
L 190.716001 305.793697 
L 196.124239 305.710101 
L 197.926986 305.668303 
L 199.729732 305.626505 
L 201.532478 305.417515 
L 205.13797 305.375717 
L 206.339801 305.292121 
L 210.546208 305.208525 
L 217.156277 304.832344 
L 221.362685 304.748748 
L 222.564516 304.665152 
L 224.367262 304.581556 
L 227.972754 304.414364 
L 230.376416 304.372566 
L 232.179162 304.205374 
L 239.991062 303.745596 
L 242.995639 303.662 
L 248.403877 303.369414 
L 250.206623 303.285819 
L 256.215777 302.951435 
L 262.825846 302.867839 
L 265.229507 302.617051 
L 266.431338 302.533455 
L 274.243238 301.906485 
L 277.84873 301.446708 
L 280.252392 301.363112 
L 285.059715 300.736142 
L 288.665207 300.652546 
L 290.467953 300.485354 
L 291.669784 300.443556 
L 292.871614 300.318162 
L 294.674361 300.234566 
L 295.876191 300.067374 
L 298.880768 299.732991 
L 301.28443 299.649395 
L 302.48626 299.565799 
L 304.889922 299.482203 
L 306.091753 299.398607 
L 309.09633 299.106021 
L 309.697245 298.938829 
L 313.302737 298.771637 
L 316.307314 298.688041 
L 324.119214 298.228263 
L 325.92196 298.144667 
L 333.73386 297.68489 
L 337.940267 297.601294 
L 338.541183 297.4759 
L 343.348506 297.392304 
L 347.554913 297.183314 
L 354.164983 297.099718 
L 358.37139 296.890728 
L 363.178713 296.807132 
L 367.986036 296.556344 
L 372.192444 296.472748 
L 383.609836 295.762183 
L 388.417159 295.678587 
L 404.040958 294.675435 
L 407.646451 294.591839 
L 409.449197 294.550041 
L 411.251943 294.508243 
L 413.054689 294.341052 
L 417.862012 294.257456 
L 419.063843 294.048466 
L 420.265674 293.96487 
L 423.27025 293.839476 
L 424.472081 293.75588 
L 425.673912 293.672284 
L 431.08215 293.588688 
L 432.283981 293.463294 
L 434.687642 293.421496 
L 435.288558 293.296102 
L 436.490389 293.212506 
L 437.091304 293.087112 
L 438.89405 293.003516 
L 448.508696 292.418345 
L 450.912358 292.334749 
L 453.916934 292.209355 
L 462.32975 292.125759 
L 466.536157 291.916769 
L 471.34348 291.833173 
L 473.747142 291.749577 
L 476.150803 291.707779 
L 477.352634 291.582385 
L 479.756295 291.498789 
L 485.765449 291.164405 
L 489.370941 291.122607 
L 491.173688 290.955415 
L 492.976434 290.913618 
L 497.182841 290.830022 
L 499.586503 290.746426 
L 506.797487 290.66283 
L 509.802064 290.537436 
L 513.407556 290.45384 
L 515.210302 290.24485 
L 518.815795 290.203052 
L 520.618541 290.03586 
L 523.022202 289.952264 
L 530.233187 289.868668 
L 533.237764 289.743274 
L 543.453325 289.701476 
L 544.655156 289.61788 
L 546.457902 289.576082 
L 554.269802 289.492486 
L 555.471632 289.40889 
L 562.081702 289.325294 
L 564.485363 289.241698 
L 571.696347 289.1999 
L 572.898178 289.116305 
L 581.911909 289.074507 
L 583.714655 288.907315 
L 598.737539 288.823719 
L 600.540285 288.781921 
L 616.765 288.698325 
L 619.168662 288.614729 
L 629.384223 288.531133 
L 630.586054 288.447537 
L 633.590631 288.363941 
L 635.393377 288.196749 
L 638.397954 288.113153 
L 640.801615 288.029557 
L 644.407108 287.945961 
L 646.209854 287.904163 
L 648.613515 287.820567 
L 650.416261 287.778769 
L 653.420838 287.695173 
L 654.622669 287.611577 
L 658.228161 287.527981 
L 661.232738 287.402587 
L 662.434569 287.36079 
L 663.6364 287.277194 
L 665.439146 287.235396 
L 667.842807 287.1518 
L 670.246469 287.068204 
L 678.058368 286.984608 
L 680.46203 286.901012 
L 685.269353 286.817416 
L 689.475761 286.608426 
L 694.883999 286.52483 
L 696.08583 286.441234 
L 706.902306 286.357638 
L 708.705052 286.31584 
L 711.709629 286.274042 
L 714.113291 286.023254 
L 715.916037 285.981456 
L 719.521529 285.89786 
L 726.131598 285.521679 
L 728.53526 285.438083 
L 730.938921 285.354487 
L 734.544414 285.270891 
L 735.746244 285.187295 
L 738.149906 285.103699 
L 740.553567 284.852911 
L 742.957229 284.769315 
L 745.36089 284.727517 
L 746.562721 284.643921 
L 747.163636 284.643921 
L 747.163636 284.643921 
" clip-path="url(#p3bcf0fe57a)" style="fill: none; stroke: #ff7f0e; stroke-width: 1.5; stroke-linecap: square"/>
   </g>
   <g id="patch_3">
    <path d="M 108 320.4 
L 108 43.2 
" style="fill: none; stroke: #a9a9a9; stroke-width: 0.8; stroke-linejoin: miter; stroke-linecap: square"/>
   </g>
   <g id="patch_4">
    <path d="M 777.6 320.4 
L 777.6 43.2 
" style="fill: none"/>
   </g>
   <g id="patch_5">
    <path d="M 108 320.4 
L 777.6 320.4 
" style="fill: none; stroke: #a9a9a9; stroke-width: 0.8; stroke-linejoin: miter; stroke-linecap: square"/>
   </g>
   <g id="patch_6">
    <path d="M 108 43.2 
L 777.6 43.2 
" style="fill: none"/>
   </g>
   <g id="text_18">
    <!-- get_subscribe history -->
    <g style="fill: #a9a9a9" transform="translate(378.6075 37.2) scale(0.12 -0.12)">
     <defs>
      <path id="DejaVuSans-67" d="M 2906 1791 
Q 2906 2416 2648 2759 
Q 2391 3103 1925 3103 
Q 1463 3103 1205 2759 
Q 947 2416 947 1791 
Q 947 1169 1205 825 
Q 1463 481 1925 481 
Q 2391 481 2648 825 
Q 2906 1169 2906 1791 
z
M 3481 434 
Q 3481 -459 3084 -895 
Q 2688 -1331 1869 -1331 
Q 1566 -1331 1297 -1286 
Q 1028 -1241 775 -1147 
L 775 -588 
Q 1028 -725 1275 -790 
Q 1522 -856 1778 -856 
Q 2344 -856 2625 -561 
Q 2906 -266 2906 331 
L 2906 616 
Q 2728 306 2450 153 
Q 2172 0 1784 0 
Q 1141 0 747 490 
Q 353 981 353 1791 
Q 353 2603 747 3093 
Q 1141 3584 1784 3584 
Q 2172 3584 2450 3431 
Q 2728 3278 2906 2969 
L 2906 3500 
L 3481 3500 
L 3481 434 
z
" transform="scale(0.015625)"/>
      <path id="DejaVuSans-65" d="M 3597 1894 
L 3597 1613 
L 953 1613 
Q 991 1019 1311 708 
Q 1631 397 2203 397 
Q 2534 397 2845 478 
Q 3156 559 3463 722 
L 3463 178 
Q 3153 47 2828 -22 
Q 2503 -91 2169 -91 
Q 1331 -91 842 396 
Q 353 884 353 1716 
Q 353 2575 817 3079 
Q 1281 3584 2069 3584 
Q 2775 3584 3186 3129 
Q 3597 2675 3597 1894 
z
M 3022 2063 
Q 3016 2534 2758 2815 
Q 2500 3097 2075 3097 
Q 1594 3097 1305 2825 
Q 1016 2553 972 2059 
L 3022 2063 
z
" transform="scale(0.015625)"/>
      <path id="DejaVuSans-74" d="M 1172 4494 
L 1172 3500 
L 2356 3500 
L 2356 3053 
L 1172 3053 
L 1172 1153 
Q 1172 725 1289 603 
Q 1406 481 1766 481 
L 2356 481 
L 2356 0 
L 1766 0 
Q 1100 0 847 248 
Q 594 497 594 1153 
L 594 3053 
L 172 3053 
L 172 3500 
L 594 3500 
L 594 4494 
L 1172 4494 
z
" transform="scale(0.015625)"/>
      <path id="DejaVuSans-5f" d="M 3263 -1063 
L 3263 -1509 
L -63 -1509 
L -63 -1063 
L 3263 -1063 
z
" transform="scale(0.015625)"/>
      <path id="DejaVuSans-73" d="M 2834 3397 
L 2834 2853 
Q 2591 2978 2328 3040 
Q 2066 3103 1784 3103 
Q 1356 3103 1142 2972 
Q 928 2841 928 2578 
Q 928 2378 1081 2264 
Q 1234 2150 1697 2047 
L 1894 2003 
Q 2506 1872 2764 1633 
Q 3022 1394 3022 966 
Q 3022 478 2636 193 
Q 2250 -91 1575 -91 
Q 1294 -91 989 -36 
Q 684 19 347 128 
L 347 722 
Q 666 556 975 473 
Q 1284 391 1588 391 
Q 1994 391 2212 530 
Q 2431 669 2431 922 
Q 2431 1156 2273 1281 
Q 2116 1406 1581 1522 
L 1381 1569 
Q 847 1681 609 1914 
Q 372 2147 372 2553 
Q 372 3047 722 3315 
Q 1072 3584 1716 3584 
Q 2034 3584 2315 3537 
Q 2597 3491 2834 3397 
z
" transform="scale(0.015625)"/>
      <path id="DejaVuSans-75" d="M 544 1381 
L 544 3500 
L 1119 3500 
L 1119 1403 
Q 1119 906 1312 657 
Q 1506 409 1894 409 
Q 2359 409 2629 706 
Q 2900 1003 2900 1516 
L 2900 3500 
L 3475 3500 
L 3475 0 
L 2900 0 
L 2900 538 
Q 2691 219 2414 64 
Q 2138 -91 1772 -91 
Q 1169 -91 856 284 
Q 544 659 544 1381 
z
M 1991 3584 
L 1991 3584 
z
" transform="scale(0.015625)"/>
      <path id="DejaVuSans-62" d="M 3116 1747 
Q 3116 2381 2855 2742 
Q 2594 3103 2138 3103 
Q 1681 3103 1420 2742 
Q 1159 2381 1159 1747 
Q 1159 1113 1420 752 
Q 1681 391 2138 391 
Q 2594 391 2855 752 
Q 3116 1113 3116 1747 
z
M 1159 2969 
Q 1341 3281 1617 3432 
Q 1894 3584 2278 3584 
Q 2916 3584 3314 3078 
Q 3713 2572 3713 1747 
Q 3713 922 3314 415 
Q 2916 -91 2278 -91 
Q 1894 -91 1617 61 
Q 1341 213 1159 525 
L 1159 0 
L 581 0 
L 581 4863 
L 1159 4863 
L 1159 2969 
z
" transform="scale(0.015625)"/>
      <path id="DejaVuSans-63" d="M 3122 3366 
L 3122 2828 
Q 2878 2963 2633 3030 
Q 2388 3097 2138 3097 
Q 1578 3097 1268 2742 
Q 959 2388 959 1747 
Q 959 1106 1268 751 
Q 1578 397 2138 397 
Q 2388 397 2633 464 
Q 2878 531 3122 666 
L 3122 134 
Q 2881 22 2623 -34 
Q 2366 -91 2075 -91 
Q 1284 -91 818 406 
Q 353 903 353 1747 
Q 353 2603 823 3093 
Q 1294 3584 2113 3584 
Q 2378 3584 2631 3529 
Q 2884 3475 3122 3366 
z
" transform="scale(0.015625)"/>
      <path id="DejaVuSans-72" d="M 2631 2963 
Q 2534 3019 2420 3045 
Q 2306 3072 2169 3072 
Q 1681 3072 1420 2755 
Q 1159 2438 1159 1844 
L 1159 0 
L 581 0 
L 581 3500 
L 1159 3500 
L 1159 2956 
Q 1341 3275 1631 3429 
Q 1922 3584 2338 3584 
Q 2397 3584 2469 3576 
Q 2541 3569 2628 3553 
L 2631 2963 
z
" transform="scale(0.015625)"/>
      <path id="DejaVuSans-69" d="M 603 3500 
L 1178 3500 
L 1178 0 
L 603 0 
L 603 3500 
z
M 603 4863 
L 1178 4863 
L 1178 4134 
L 603 4134 
L 603 4863 
z
" transform="scale(0.015625)"/>
      <path id="DejaVuSans-20" transform="scale(0.015625)"/>
      <path id="DejaVuSans-68" d="M 3513 2113 
L 3513 0 
L 2938 0 
L 2938 2094 
Q 2938 2591 2744 2837 
Q 2550 3084 2163 3084 
Q 1697 3084 1428 2787 
Q 1159 2491 1159 1978 
L 1159 0 
L 581 0 
L 581 4863 
L 1159 4863 
L 1159 2956 
Q 1366 3272 1645 3428 
Q 1925 3584 2291 3584 
Q 2894 3584 3203 3211 
Q 3513 2838 3513 2113 
z
" transform="scale(0.015625)"/>
      <path id="DejaVuSans-6f" d="M 1959 3097 
Q 1497 3097 1228 2736 
Q 959 2375 959 1747 
Q 959 1119 1226 758 
Q 1494 397 1959 397 
Q 2419 397 2687 759 
Q 2956 1122 2956 1747 
Q 2956 2369 2687 2733 
Q 2419 3097 1959 3097 
z
M 1959 3584 
Q 2709 3584 3137 3096 
Q 3566 2609 3566 1747 
Q 3566 888 3137 398 
Q 2709 -91 1959 -91 
Q 1206 -91 779 398 
Q 353 888 353 1747 
Q 353 2609 779 3096 
Q 1206 3584 1959 3584 
z
" transform="scale(0.015625)"/>
      <path id="DejaVuSans-79" d="M 2059 -325 
Q 1816 -950 1584 -1140 
Q 1353 -1331 966 -1331 
L 506 -1331 
L 506 -850 
L 844 -850 
Q 1081 -850 1212 -737 
Q 1344 -625 1503 -206 
L 1606 56 
L 191 3500 
L 800 3500 
L 1894 763 
L 2988 3500 
L 3597 3500 
L 2059 -325 
z
" transform="scale(0.015625)"/>
     </defs>
     <use xlink:href="#DejaVuSans-67"/>
     <use xlink:href="#DejaVuSans-65" x="63.476562"/>
     <use xlink:href="#DejaVuSans-74" x="125"/>
     <use xlink:href="#DejaVuSans-5f" x="164.208984"/>
     <use xlink:href="#DejaVuSans-73" x="214.208984"/>
     <use xlink:href="#DejaVuSans-75" x="266.308594"/>
     <use xlink:href="#DejaVuSans-62" x="329.6875"/>
     <use xlink:href="#DejaVuSans-73" x="393.164062"/>
     <use xlink:href="#DejaVuSans-63" x="445.263672"/>
     <use xlink:href="#DejaVuSans-72" x="500.244141"/>
     <use xlink:href="#DejaVuSans-69" x="541.357422"/>
     <use xlink:href="#DejaVuSans-62" x="569.140625"/>
     <use xlink:href="#DejaVuSans-65" x="632.617188"/>
     <use xlink:href="#DejaVuSans-20" x="694.140625"/>
     <use xlink:href="#DejaVuSans-68" x="725.927734"/>
     <use xlink:href="#DejaVuSans-69" x="789.306641"/>
     <use xlink:href="#DejaVuSans-73" x="817.089844"/>
     <use xlink:href="#DejaVuSans-74" x="869.189453"/>
     <use xlink:href="#DejaVuSans-6f" x="908.398438"/>
     <use xlink:href="#DejaVuSans-72" x="969.580078"/>
     <use xlink:href="#DejaVuSans-79" x="1010.693359"/>
    </g>
   </g>
   <g id="legend_1">
    <g id="line2d_37">
     <path d="M 815.08 328.498438 
L 825.08 328.498438 
L 835.08 328.498438 
" style="fill: none; stroke: #1f77b4; stroke-width: 1.5; stroke-linecap: square"/>
    </g>
    <g id="text_19">
     <!-- star -->
     <g style="fill: #a9a9a9" transform="translate(843.08 331.998438) scale(0.1 -0.1)">
      <defs>
       <path id="DejaVuSans-61" d="M 2194 1759 
Q 1497 1759 1228 1600 
Q 959 1441 959 1056 
Q 959 750 1161 570 
Q 1363 391 1709 391 
Q 2188 391 2477 730 
Q 2766 1069 2766 1631 
L 2766 1759 
L 2194 1759 
z
M 3341 1997 
L 3341 0 
L 2766 0 
L 2766 531 
Q 2569 213 2275 61 
Q 1981 -91 1556 -91 
Q 1019 -91 701 211 
Q 384 513 384 1019 
Q 384 1609 779 1909 
Q 1175 2209 1959 2209 
L 2766 2209 
L 2766 2266 
Q 2766 2663 2505 2880 
Q 2244 3097 1772 3097 
Q 1472 3097 1187 3025 
Q 903 2953 641 2809 
L 641 3341 
Q 956 3463 1253 3523 
Q 1550 3584 1831 3584 
Q 2591 3584 2966 3190 
Q 3341 2797 3341 1997 
z
" transform="scale(0.015625)"/>
      </defs>
      <use xlink:href="#DejaVuSans-73"/>
      <use xlink:href="#DejaVuSans-74" x="52.099609"/>
      <use xlink:href="#DejaVuSans-61" x="91.308594"/>
      <use xlink:href="#DejaVuSans-72" x="152.587891"/>
     </g>
    </g>
    <g id="line2d_38">
     <path d="M 815.08 343.176562 
L 825.08 343.176562 
L 835.08 343.176562 
" style="fill: none; stroke: #ff7f0e; stroke-width: 1.5; stroke-linecap: square"/>
    </g>
    <g id="text_20">
     <!-- fork -->
     <g style="fill: #a9a9a9" transform="translate(843.08 346.676562) scale(0.1 -0.1)">
      <defs>
       <path id="DejaVuSans-66" d="M 2375 4863 
L 2375 4384 
L 1825 4384 
Q 1516 4384 1395 4259 
Q 1275 4134 1275 3809 
L 1275 3500 
L 2222 3500 
L 2222 3053 
L 1275 3053 
L 1275 0 
L 697 0 
L 697 3053 
L 147 3053 
L 147 3500 
L 697 3500 
L 697 3744 
Q 697 4328 969 4595 
Q 1241 4863 1831 4863 
L 2375 4863 
z
" transform="scale(0.015625)"/>
       <path id="DejaVuSans-6b" d="M 581 4863 
L 1159 4863 
L 1159 1991 
L 2875 3500 
L 3609 3500 
L 1753 1863 
L 3688 0 
L 2938 0 
L 1159 1709 
L 1159 0 
L 581 0 
L 581 4863 
z
" transform="scale(0.015625)"/>
      </defs>
      <use xlink:href="#DejaVuSans-66"/>
      <use xlink:href="#DejaVuSans-6f" x="35.205078"/>
      <use xlink:href="#DejaVuSans-72" x="96.386719"/>
      <use xlink:href="#DejaVuSans-6b" x="137.5"/>
     </g>
    </g>
   </g>
  </g>
 </g>
 <defs>
  <clipPath id="p3bcf0fe57a">
   <rect x="108" y="43.2" width="669.6" height="277.2"/>
  </clipPath>
 </defs>
</svg>
