<?xml version="1.0" encoding="utf-8" standalone="no"?>
<!DOCTYPE svg PUBLIC "-//W3C//DTD SVG 1.1//EN"
  "http://www.w3.org/Graphics/SVG/1.1/DTD/svg11.dtd">
<svg xmlns:xlink="http://www.w3.org/1999/xlink" width="864pt" height="360pt" viewBox="0 0 864 360" xmlns="http://www.w3.org/2000/svg" version="1.1">
 <metadata>
  <rdf:RDF xmlns:dc="http://purl.org/dc/elements/1.1/" xmlns:cc="http://creativecommons.org/ns#" xmlns:rdf="http://www.w3.org/1999/02/22-rdf-syntax-ns#">
   <cc:Work>
    <dc:type rdf:resource="http://purl.org/dc/dcmitype/StillImage"/>
    <dc:date>2024-05-02T08:11:20.025571</dc:date>
    <dc:format>image/svg+xml</dc:format>
    <dc:creator>
     <cc:Agent>
      <dc:title>Matplotlib v3.8.4, https://matplotlib.org/</dc:title>
     </cc:Agent>
    </dc:creator>
   </cc:Work>
  </rdf:RDF>
 </metadata>
 <defs>
  <style type="text/css">*{stroke-linejoin: round; stroke-linecap: butt}</style>
 </defs>
 <g id="figure_1">
  <g id="patch_1">
   <path d="M 0 360 
L 864 360 
L 864 0 
L 0 0 
L 0 360 
z
" style="fill: none; opacity: 0"/>
  </g>
  <g id="axes_1">
   <g id="patch_2">
    <path d="M 108 320.4 
L 777.6 320.4 
L 777.6 43.2 
L 108 43.2 
L 108 320.4 
z
" style="fill: none; opacity: 0"/>
   </g>
   <g id="matplotlib.axis_1">
    <g id="xtick_1">
     <g id="line2d_1">
      <path d="M 161.872063 320.4 
L 161.872063 43.2 
" clip-path="url(#p8fa7061cf1)" style="fill: none; stroke-dasharray: 5.12,1.28,0.8,1.28; stroke-dashoffset: 0; stroke: #b0b0b0; stroke-width: 0.8"/>
     </g>
     <g id="line2d_2">
      <defs>
       <path id="m5b872d807d" d="M 0 0 
L 0 3.5 
" style="stroke: #a9a9a9; stroke-width: 0.8"/>
      </defs>
      <g>
       <use xlink:href="#m5b872d807d" x="161.872063" y="320.4" style="fill: #a9a9a9; stroke: #a9a9a9; stroke-width: 0.8"/>
      </g>
     </g>
     <g id="text_1">
      <!-- 2021-09 -->
      <g style="fill: #a9a9a9" transform="translate(140.980657 334.998438) scale(0.1 -0.1)">
       <defs>
        <path id="DejaVuSans-32" d="M 1228 531 
L 3431 531 
L 3431 0 
L 469 0 
L 469 531 
Q 828 903 1448 1529 
Q 2069 2156 2228 2338 
Q 2531 2678 2651 2914 
Q 2772 3150 2772 3378 
Q 2772 3750 2511 3984 
Q 2250 4219 1831 4219 
Q 1534 4219 1204 4116 
Q 875 4013 500 3803 
L 500 4441 
Q 881 4594 1212 4672 
Q 1544 4750 1819 4750 
Q 2544 4750 2975 4387 
Q 3406 4025 3406 3419 
Q 3406 3131 3298 2873 
Q 3191 2616 2906 2266 
Q 2828 2175 2409 1742 
Q 1991 1309 1228 531 
z
" transform="scale(0.015625)"/>
        <path id="DejaVuSans-30" d="M 2034 4250 
Q 1547 4250 1301 3770 
Q 1056 3291 1056 2328 
Q 1056 1369 1301 889 
Q 1547 409 2034 409 
Q 2525 409 2770 889 
Q 3016 1369 3016 2328 
Q 3016 3291 2770 3770 
Q 2525 4250 2034 4250 
z
M 2034 4750 
Q 2819 4750 3233 4129 
Q 3647 3509 3647 2328 
Q 3647 1150 3233 529 
Q 2819 -91 2034 -91 
Q 1250 -91 836 529 
Q 422 1150 422 2328 
Q 422 3509 836 4129 
Q 1250 4750 2034 4750 
z
" transform="scale(0.015625)"/>
        <path id="DejaVuSans-31" d="M 794 531 
L 1825 531 
L 1825 4091 
L 703 3866 
L 703 4441 
L 1819 4666 
L 2450 4666 
L 2450 531 
L 3481 531 
L 3481 0 
L 794 0 
L 794 531 
z
" transform="scale(0.015625)"/>
        <path id="DejaVuSans-2d" d="M 313 2009 
L 1997 2009 
L 1997 1497 
L 313 1497 
L 313 2009 
z
" transform="scale(0.015625)"/>
        <path id="DejaVuSans-39" d="M 703 97 
L 703 672 
Q 941 559 1184 500 
Q 1428 441 1663 441 
Q 2288 441 2617 861 
Q 2947 1281 2994 2138 
Q 2813 1869 2534 1725 
Q 2256 1581 1919 1581 
Q 1219 1581 811 2004 
Q 403 2428 403 3163 
Q 403 3881 828 4315 
Q 1253 4750 1959 4750 
Q 2769 4750 3195 4129 
Q 3622 3509 3622 2328 
Q 3622 1225 3098 567 
Q 2575 -91 1691 -91 
Q 1453 -91 1209 -44 
Q 966 3 703 97 
z
M 1959 2075 
Q 2384 2075 2632 2365 
Q 2881 2656 2881 3163 
Q 2881 3666 2632 3958 
Q 2384 4250 1959 4250 
Q 1534 4250 1286 3958 
Q 1038 3666 1038 3163 
Q 1038 2656 1286 2365 
Q 1534 2075 1959 2075 
z
" transform="scale(0.015625)"/>
       </defs>
       <use xlink:href="#DejaVuSans-32"/>
       <use xlink:href="#DejaVuSans-30" x="63.623047"/>
       <use xlink:href="#DejaVuSans-32" x="127.246094"/>
       <use xlink:href="#DejaVuSans-31" x="190.869141"/>
       <use xlink:href="#DejaVuSans-2d" x="254.492188"/>
       <use xlink:href="#DejaVuSans-30" x="290.576172"/>
       <use xlink:href="#DejaVuSans-39" x="354.199219"/>
      </g>
     </g>
    </g>
    <g id="xtick_2">
     <g id="line2d_3">
      <path d="M 235.183739 320.4 
L 235.183739 43.2 
" clip-path="url(#p8fa7061cf1)" style="fill: none; stroke-dasharray: 5.12,1.28,0.8,1.28; stroke-dashoffset: 0; stroke: #b0b0b0; stroke-width: 0.8"/>
     </g>
     <g id="line2d_4">
      <g>
       <use xlink:href="#m5b872d807d" x="235.183739" y="320.4" style="fill: #a9a9a9; stroke: #a9a9a9; stroke-width: 0.8"/>
      </g>
     </g>
     <g id="text_2">
      <!-- 2022-01 -->
      <g style="fill: #a9a9a9" transform="translate(214.292332 334.998438) scale(0.1 -0.1)">
       <use xlink:href="#DejaVuSans-32"/>
       <use xlink:href="#DejaVuSans-30" x="63.623047"/>
       <use xlink:href="#DejaVuSans-32" x="127.246094"/>
       <use xlink:href="#DejaVuSans-32" x="190.869141"/>
       <use xlink:href="#DejaVuSans-2d" x="254.492188"/>
       <use xlink:href="#DejaVuSans-30" x="290.576172"/>
       <use xlink:href="#DejaVuSans-31" x="354.199219"/>
      </g>
     </g>
    </g>
    <g id="xtick_3">
     <g id="line2d_5">
      <path d="M 307.293583 320.4 
L 307.293583 43.2 
" clip-path="url(#p8fa7061cf1)" style="fill: none; stroke-dasharray: 5.12,1.28,0.8,1.28; stroke-dashoffset: 0; stroke: #b0b0b0; stroke-width: 0.8"/>
     </g>
     <g id="line2d_6">
      <g>
       <use xlink:href="#m5b872d807d" x="307.293583" y="320.4" style="fill: #a9a9a9; stroke: #a9a9a9; stroke-width: 0.8"/>
      </g>
     </g>
     <g id="text_3">
      <!-- 2022-05 -->
      <g style="fill: #a9a9a9" transform="translate(286.402177 334.998438) scale(0.1 -0.1)">
       <defs>
        <path id="DejaVuSans-35" d="M 691 4666 
L 3169 4666 
L 3169 4134 
L 1269 4134 
L 1269 2991 
Q 1406 3038 1543 3061 
Q 1681 3084 1819 3084 
Q 2600 3084 3056 2656 
Q 3513 2228 3513 1497 
Q 3513 744 3044 326 
Q 2575 -91 1722 -91 
Q 1428 -91 1123 -41 
Q 819 9 494 109 
L 494 744 
Q 775 591 1075 516 
Q 1375 441 1709 441 
Q 2250 441 2565 725 
Q 2881 1009 2881 1497 
Q 2881 1984 2565 2268 
Q 2250 2553 1709 2553 
Q 1456 2553 1204 2497 
Q 953 2441 691 2322 
L 691 4666 
z
" transform="scale(0.015625)"/>
       </defs>
       <use xlink:href="#DejaVuSans-32"/>
       <use xlink:href="#DejaVuSans-30" x="63.623047"/>
       <use xlink:href="#DejaVuSans-32" x="127.246094"/>
       <use xlink:href="#DejaVuSans-32" x="190.869141"/>
       <use xlink:href="#DejaVuSans-2d" x="254.492188"/>
       <use xlink:href="#DejaVuSans-30" x="290.576172"/>
       <use xlink:href="#DejaVuSans-35" x="354.199219"/>
      </g>
     </g>
    </g>
    <g id="xtick_4">
     <g id="line2d_7">
      <path d="M 381.206174 320.4 
L 381.206174 43.2 
" clip-path="url(#p8fa7061cf1)" style="fill: none; stroke-dasharray: 5.12,1.28,0.8,1.28; stroke-dashoffset: 0; stroke: #b0b0b0; stroke-width: 0.8"/>
     </g>
     <g id="line2d_8">
      <g>
       <use xlink:href="#m5b872d807d" x="381.206174" y="320.4" style="fill: #a9a9a9; stroke: #a9a9a9; stroke-width: 0.8"/>
      </g>
     </g>
     <g id="text_4">
      <!-- 2022-09 -->
      <g style="fill: #a9a9a9" transform="translate(360.314768 334.998438) scale(0.1 -0.1)">
       <use xlink:href="#DejaVuSans-32"/>
       <use xlink:href="#DejaVuSans-30" x="63.623047"/>
       <use xlink:href="#DejaVuSans-32" x="127.246094"/>
       <use xlink:href="#DejaVuSans-32" x="190.869141"/>
       <use xlink:href="#DejaVuSans-2d" x="254.492188"/>
       <use xlink:href="#DejaVuSans-30" x="290.576172"/>
       <use xlink:href="#DejaVuSans-39" x="354.199219"/>
      </g>
     </g>
    </g>
    <g id="xtick_5">
     <g id="line2d_9">
      <path d="M 454.51785 320.4 
L 454.51785 43.2 
" clip-path="url(#p8fa7061cf1)" style="fill: none; stroke-dasharray: 5.12,1.28,0.8,1.28; stroke-dashoffset: 0; stroke: #b0b0b0; stroke-width: 0.8"/>
     </g>
     <g id="line2d_10">
      <g>
       <use xlink:href="#m5b872d807d" x="454.51785" y="320.4" style="fill: #a9a9a9; stroke: #a9a9a9; stroke-width: 0.8"/>
      </g>
     </g>
     <g id="text_5">
      <!-- 2023-01 -->
      <g style="fill: #a9a9a9" transform="translate(433.626444 334.998438) scale(0.1 -0.1)">
       <defs>
        <path id="DejaVuSans-33" d="M 2597 2516 
Q 3050 2419 3304 2112 
Q 3559 1806 3559 1356 
Q 3559 666 3084 287 
Q 2609 -91 1734 -91 
Q 1441 -91 1130 -33 
Q 819 25 488 141 
L 488 750 
Q 750 597 1062 519 
Q 1375 441 1716 441 
Q 2309 441 2620 675 
Q 2931 909 2931 1356 
Q 2931 1769 2642 2001 
Q 2353 2234 1838 2234 
L 1294 2234 
L 1294 2753 
L 1863 2753 
Q 2328 2753 2575 2939 
Q 2822 3125 2822 3475 
Q 2822 3834 2567 4026 
Q 2313 4219 1838 4219 
Q 1578 4219 1281 4162 
Q 984 4106 628 3988 
L 628 4550 
Q 988 4650 1302 4700 
Q 1616 4750 1894 4750 
Q 2613 4750 3031 4423 
Q 3450 4097 3450 3541 
Q 3450 3153 3228 2886 
Q 3006 2619 2597 2516 
z
" transform="scale(0.015625)"/>
       </defs>
       <use xlink:href="#DejaVuSans-32"/>
       <use xlink:href="#DejaVuSans-30" x="63.623047"/>
       <use xlink:href="#DejaVuSans-32" x="127.246094"/>
       <use xlink:href="#DejaVuSans-33" x="190.869141"/>
       <use xlink:href="#DejaVuSans-2d" x="254.492188"/>
       <use xlink:href="#DejaVuSans-30" x="290.576172"/>
       <use xlink:href="#DejaVuSans-31" x="354.199219"/>
      </g>
     </g>
    </g>
    <g id="xtick_6">
     <g id="line2d_11">
      <path d="M 526.627695 320.4 
L 526.627695 43.2 
" clip-path="url(#p8fa7061cf1)" style="fill: none; stroke-dasharray: 5.12,1.28,0.8,1.28; stroke-dashoffset: 0; stroke: #b0b0b0; stroke-width: 0.8"/>
     </g>
     <g id="line2d_12">
      <g>
       <use xlink:href="#m5b872d807d" x="526.627695" y="320.4" style="fill: #a9a9a9; stroke: #a9a9a9; stroke-width: 0.8"/>
      </g>
     </g>
     <g id="text_6">
      <!-- 2023-05 -->
      <g style="fill: #a9a9a9" transform="translate(505.736288 334.998438) scale(0.1 -0.1)">
       <use xlink:href="#DejaVuSans-32"/>
       <use xlink:href="#DejaVuSans-30" x="63.623047"/>
       <use xlink:href="#DejaVuSans-32" x="127.246094"/>
       <use xlink:href="#DejaVuSans-33" x="190.869141"/>
       <use xlink:href="#DejaVuSans-2d" x="254.492188"/>
       <use xlink:href="#DejaVuSans-30" x="290.576172"/>
       <use xlink:href="#DejaVuSans-35" x="354.199219"/>
      </g>
     </g>
    </g>
    <g id="xtick_7">
     <g id="line2d_13">
      <path d="M 600.540285 320.4 
L 600.540285 43.2 
" clip-path="url(#p8fa7061cf1)" style="fill: none; stroke-dasharray: 5.12,1.28,0.8,1.28; stroke-dashoffset: 0; stroke: #b0b0b0; stroke-width: 0.8"/>
     </g>
     <g id="line2d_14">
      <g>
       <use xlink:href="#m5b872d807d" x="600.540285" y="320.4" style="fill: #a9a9a9; stroke: #a9a9a9; stroke-width: 0.8"/>
      </g>
     </g>
     <g id="text_7">
      <!-- 2023-09 -->
      <g style="fill: #a9a9a9" transform="translate(579.648879 334.998438) scale(0.1 -0.1)">
       <use xlink:href="#DejaVuSans-32"/>
       <use xlink:href="#DejaVuSans-30" x="63.623047"/>
       <use xlink:href="#DejaVuSans-32" x="127.246094"/>
       <use xlink:href="#DejaVuSans-33" x="190.869141"/>
       <use xlink:href="#DejaVuSans-2d" x="254.492188"/>
       <use xlink:href="#DejaVuSans-30" x="290.576172"/>
       <use xlink:href="#DejaVuSans-39" x="354.199219"/>
      </g>
     </g>
    </g>
    <g id="xtick_8">
     <g id="line2d_15">
      <path d="M 673.851961 320.4 
L 673.851961 43.2 
" clip-path="url(#p8fa7061cf1)" style="fill: none; stroke-dasharray: 5.12,1.28,0.8,1.28; stroke-dashoffset: 0; stroke: #b0b0b0; stroke-width: 0.8"/>
     </g>
     <g id="line2d_16">
      <g>
       <use xlink:href="#m5b872d807d" x="673.851961" y="320.4" style="fill: #a9a9a9; stroke: #a9a9a9; stroke-width: 0.8"/>
      </g>
     </g>
     <g id="text_8">
      <!-- 2024-01 -->
      <g style="fill: #a9a9a9" transform="translate(652.960555 334.998438) scale(0.1 -0.1)">
       <defs>
        <path id="DejaVuSans-34" d="M 2419 4116 
L 825 1625 
L 2419 1625 
L 2419 4116 
z
M 2253 4666 
L 3047 4666 
L 3047 1625 
L 3713 1625 
L 3713 1100 
L 3047 1100 
L 3047 0 
L 2419 0 
L 2419 1100 
L 313 1100 
L 313 1709 
L 2253 4666 
z
" transform="scale(0.015625)"/>
       </defs>
       <use xlink:href="#DejaVuSans-32"/>
       <use xlink:href="#DejaVuSans-30" x="63.623047"/>
       <use xlink:href="#DejaVuSans-32" x="127.246094"/>
       <use xlink:href="#DejaVuSans-34" x="190.869141"/>
       <use xlink:href="#DejaVuSans-2d" x="254.492188"/>
       <use xlink:href="#DejaVuSans-30" x="290.576172"/>
       <use xlink:href="#DejaVuSans-31" x="354.199219"/>
      </g>
     </g>
    </g>
    <g id="xtick_9">
     <g id="line2d_17">
      <path d="M 746.562721 320.4 
L 746.562721 43.2 
" clip-path="url(#p8fa7061cf1)" style="fill: none; stroke-dasharray: 5.12,1.28,0.8,1.28; stroke-dashoffset: 0; stroke: #b0b0b0; stroke-width: 0.8"/>
     </g>
     <g id="line2d_18">
      <g>
       <use xlink:href="#m5b872d807d" x="746.562721" y="320.4" style="fill: #a9a9a9; stroke: #a9a9a9; stroke-width: 0.8"/>
      </g>
     </g>
     <g id="text_9">
      <!-- 2024-05 -->
      <g style="fill: #a9a9a9" transform="translate(725.671315 334.998438) scale(0.1 -0.1)">
       <use xlink:href="#DejaVuSans-32"/>
       <use xlink:href="#DejaVuSans-30" x="63.623047"/>
       <use xlink:href="#DejaVuSans-32" x="127.246094"/>
       <use xlink:href="#DejaVuSans-34" x="190.869141"/>
       <use xlink:href="#DejaVuSans-2d" x="254.492188"/>
       <use xlink:href="#DejaVuSans-30" x="290.576172"/>
       <use xlink:href="#DejaVuSans-35" x="354.199219"/>
      </g>
     </g>
    </g>
   </g>
   <g id="matplotlib.axis_2">
    <g id="ytick_1">
     <g id="line2d_19">
      <path d="M 108 307.841819 
L 777.6 307.841819 
" clip-path="url(#p8fa7061cf1)" style="fill: none; stroke-dasharray: 5.12,1.28,0.8,1.28; stroke-dashoffset: 0; stroke: #b0b0b0; stroke-width: 0.8"/>
     </g>
     <g id="line2d_20">
      <defs>
       <path id="mdeeb987ba6" d="M 0 0 
L -3.5 0 
" style="stroke: #a9a9a9; stroke-width: 0.8"/>
      </defs>
      <g>
       <use xlink:href="#mdeeb987ba6" x="108" y="307.841819" style="fill: #a9a9a9; stroke: #a9a9a9; stroke-width: 0.8"/>
      </g>
     </g>
     <g id="text_10">
      <!-- 0 -->
      <g style="fill: #a9a9a9" transform="translate(94.6375 311.641038) scale(0.1 -0.1)">
       <use xlink:href="#DejaVuSans-30"/>
      </g>
     </g>
    </g>
    <g id="ytick_2">
     <g id="line2d_21">
      <path d="M 108 274.386791 
L 777.6 274.386791 
" clip-path="url(#p8fa7061cf1)" style="fill: none; stroke-dasharray: 5.12,1.28,0.8,1.28; stroke-dashoffset: 0; stroke: #b0b0b0; stroke-width: 0.8"/>
     </g>
     <g id="line2d_22">
      <g>
       <use xlink:href="#mdeeb987ba6" x="108" y="274.386791" style="fill: #a9a9a9; stroke: #a9a9a9; stroke-width: 0.8"/>
      </g>
     </g>
     <g id="text_11">
      <!-- 800 -->
      <g style="fill: #a9a9a9" transform="translate(81.9125 278.186009) scale(0.1 -0.1)">
       <defs>
        <path id="DejaVuSans-38" d="M 2034 2216 
Q 1584 2216 1326 1975 
Q 1069 1734 1069 1313 
Q 1069 891 1326 650 
Q 1584 409 2034 409 
Q 2484 409 2743 651 
Q 3003 894 3003 1313 
Q 3003 1734 2745 1975 
Q 2488 2216 2034 2216 
z
M 1403 2484 
Q 997 2584 770 2862 
Q 544 3141 544 3541 
Q 544 4100 942 4425 
Q 1341 4750 2034 4750 
Q 2731 4750 3128 4425 
Q 3525 4100 3525 3541 
Q 3525 3141 3298 2862 
Q 3072 2584 2669 2484 
Q 3125 2378 3379 2068 
Q 3634 1759 3634 1313 
Q 3634 634 3220 271 
Q 2806 -91 2034 -91 
Q 1263 -91 848 271 
Q 434 634 434 1313 
Q 434 1759 690 2068 
Q 947 2378 1403 2484 
z
M 1172 3481 
Q 1172 3119 1398 2916 
Q 1625 2713 2034 2713 
Q 2441 2713 2670 2916 
Q 2900 3119 2900 3481 
Q 2900 3844 2670 4047 
Q 2441 4250 2034 4250 
Q 1625 4250 1398 4047 
Q 1172 3844 1172 3481 
z
" transform="scale(0.015625)"/>
       </defs>
       <use xlink:href="#DejaVuSans-38"/>
       <use xlink:href="#DejaVuSans-30" x="63.623047"/>
       <use xlink:href="#DejaVuSans-30" x="127.246094"/>
      </g>
     </g>
    </g>
    <g id="ytick_3">
     <g id="line2d_23">
      <path d="M 108 240.931762 
L 777.6 240.931762 
" clip-path="url(#p8fa7061cf1)" style="fill: none; stroke-dasharray: 5.12,1.28,0.8,1.28; stroke-dashoffset: 0; stroke: #b0b0b0; stroke-width: 0.8"/>
     </g>
     <g id="line2d_24">
      <g>
       <use xlink:href="#mdeeb987ba6" x="108" y="240.931762" style="fill: #a9a9a9; stroke: #a9a9a9; stroke-width: 0.8"/>
      </g>
     </g>
     <g id="text_12">
      <!-- 1600 -->
      <g style="fill: #a9a9a9" transform="translate(75.55 244.730981) scale(0.1 -0.1)">
       <defs>
        <path id="DejaVuSans-36" d="M 2113 2584 
Q 1688 2584 1439 2293 
Q 1191 2003 1191 1497 
Q 1191 994 1439 701 
Q 1688 409 2113 409 
Q 2538 409 2786 701 
Q 3034 994 3034 1497 
Q 3034 2003 2786 2293 
Q 2538 2584 2113 2584 
z
M 3366 4563 
L 3366 3988 
Q 3128 4100 2886 4159 
Q 2644 4219 2406 4219 
Q 1781 4219 1451 3797 
Q 1122 3375 1075 2522 
Q 1259 2794 1537 2939 
Q 1816 3084 2150 3084 
Q 2853 3084 3261 2657 
Q 3669 2231 3669 1497 
Q 3669 778 3244 343 
Q 2819 -91 2113 -91 
Q 1303 -91 875 529 
Q 447 1150 447 2328 
Q 447 3434 972 4092 
Q 1497 4750 2381 4750 
Q 2619 4750 2861 4703 
Q 3103 4656 3366 4563 
z
" transform="scale(0.015625)"/>
       </defs>
       <use xlink:href="#DejaVuSans-31"/>
       <use xlink:href="#DejaVuSans-36" x="63.623047"/>
       <use xlink:href="#DejaVuSans-30" x="127.246094"/>
       <use xlink:href="#DejaVuSans-30" x="190.869141"/>
      </g>
     </g>
    </g>
    <g id="ytick_4">
     <g id="line2d_25">
      <path d="M 108 207.476734 
L 777.6 207.476734 
" clip-path="url(#p8fa7061cf1)" style="fill: none; stroke-dasharray: 5.12,1.28,0.8,1.28; stroke-dashoffset: 0; stroke: #b0b0b0; stroke-width: 0.8"/>
     </g>
     <g id="line2d_26">
      <g>
       <use xlink:href="#mdeeb987ba6" x="108" y="207.476734" style="fill: #a9a9a9; stroke: #a9a9a9; stroke-width: 0.8"/>
      </g>
     </g>
     <g id="text_13">
      <!-- 2400 -->
      <g style="fill: #a9a9a9" transform="translate(75.55 211.275953) scale(0.1 -0.1)">
       <use xlink:href="#DejaVuSans-32"/>
       <use xlink:href="#DejaVuSans-34" x="63.623047"/>
       <use xlink:href="#DejaVuSans-30" x="127.246094"/>
       <use xlink:href="#DejaVuSans-30" x="190.869141"/>
      </g>
     </g>
    </g>
    <g id="ytick_5">
     <g id="line2d_27">
      <path d="M 108 174.021706 
L 777.6 174.021706 
" clip-path="url(#p8fa7061cf1)" style="fill: none; stroke-dasharray: 5.12,1.28,0.8,1.28; stroke-dashoffset: 0; stroke: #b0b0b0; stroke-width: 0.8"/>
     </g>
     <g id="line2d_28">
      <g>
       <use xlink:href="#mdeeb987ba6" x="108" y="174.021706" style="fill: #a9a9a9; stroke: #a9a9a9; stroke-width: 0.8"/>
      </g>
     </g>
     <g id="text_14">
      <!-- 3200 -->
      <g style="fill: #a9a9a9" transform="translate(75.55 177.820925) scale(0.1 -0.1)">
       <use xlink:href="#DejaVuSans-33"/>
       <use xlink:href="#DejaVuSans-32" x="63.623047"/>
       <use xlink:href="#DejaVuSans-30" x="127.246094"/>
       <use xlink:href="#DejaVuSans-30" x="190.869141"/>
      </g>
     </g>
    </g>
    <g id="ytick_6">
     <g id="line2d_29">
      <path d="M 108 140.566678 
L 777.6 140.566678 
" clip-path="url(#p8fa7061cf1)" style="fill: none; stroke-dasharray: 5.12,1.28,0.8,1.28; stroke-dashoffset: 0; stroke: #b0b0b0; stroke-width: 0.8"/>
     </g>
     <g id="line2d_30">
      <g>
       <use xlink:href="#mdeeb987ba6" x="108" y="140.566678" style="fill: #a9a9a9; stroke: #a9a9a9; stroke-width: 0.8"/>
      </g>
     </g>
     <g id="text_15">
      <!-- 4000 -->
      <g style="fill: #a9a9a9" transform="translate(75.55 144.365896) scale(0.1 -0.1)">
       <use xlink:href="#DejaVuSans-34"/>
       <use xlink:href="#DejaVuSans-30" x="63.623047"/>
       <use xlink:href="#DejaVuSans-30" x="127.246094"/>
       <use xlink:href="#DejaVuSans-30" x="190.869141"/>
      </g>
     </g>
    </g>
    <g id="ytick_7">
     <g id="line2d_31">
      <path d="M 108 107.11165 
L 777.6 107.11165 
" clip-path="url(#p8fa7061cf1)" style="fill: none; stroke-dasharray: 5.12,1.28,0.8,1.28; stroke-dashoffset: 0; stroke: #b0b0b0; stroke-width: 0.8"/>
     </g>
     <g id="line2d_32">
      <g>
       <use xlink:href="#mdeeb987ba6" x="108" y="107.11165" style="fill: #a9a9a9; stroke: #a9a9a9; stroke-width: 0.8"/>
      </g>
     </g>
     <g id="text_16">
      <!-- 4800 -->
      <g style="fill: #a9a9a9" transform="translate(75.55 110.910868) scale(0.1 -0.1)">
       <use xlink:href="#DejaVuSans-34"/>
       <use xlink:href="#DejaVuSans-38" x="63.623047"/>
       <use xlink:href="#DejaVuSans-30" x="127.246094"/>
       <use xlink:href="#DejaVuSans-30" x="190.869141"/>
      </g>
     </g>
    </g>
    <g id="ytick_8">
     <g id="line2d_33">
      <path d="M 108 73.656621 
L 777.6 73.656621 
" clip-path="url(#p8fa7061cf1)" style="fill: none; stroke-dasharray: 5.12,1.28,0.8,1.28; stroke-dashoffset: 0; stroke: #b0b0b0; stroke-width: 0.8"/>
     </g>
     <g id="line2d_34">
      <g>
       <use xlink:href="#mdeeb987ba6" x="108" y="73.656621" style="fill: #a9a9a9; stroke: #a9a9a9; stroke-width: 0.8"/>
      </g>
     </g>
     <g id="text_17">
      <!-- 5600 -->
      <g style="fill: #a9a9a9" transform="translate(75.55 77.45584) scale(0.1 -0.1)">
       <use xlink:href="#DejaVuSans-35"/>
       <use xlink:href="#DejaVuSans-36" x="63.623047"/>
       <use xlink:href="#DejaVuSans-30" x="127.246094"/>
       <use xlink:href="#DejaVuSans-30" x="190.869141"/>
      </g>
     </g>
    </g>
   </g>
   <g id="line2d_35">
    <path d="M 138.436364 307.716362 
L 142.041856 307.423631 
L 142.642771 307.172718 
L 144.445517 306.963624 
L 148.05101 306.252705 
L 151.656502 305.959973 
L 152.257417 305.667242 
L 152.858333 305.499967 
L 153.459248 304.747229 
L 154.060163 304.329041 
L 154.661079 303.032658 
L 155.261994 302.949021 
L 155.862909 302.489014 
L 157.06474 301.903551 
L 159.468402 300.063525 
L 160.670232 299.561699 
L 161.271148 299.143511 
L 163.674809 298.098042 
L 164.275725 297.178029 
L 165.477555 296.341653 
L 166.078471 296.048921 
L 172.087625 295.212546 
L 172.68854 294.919814 
L 176.894948 294.585264 
L 178.697694 294.125257 
L 184.105932 293.414338 
L 184.706847 293.079788 
L 185.307763 292.99615 
L 185.908678 292.745237 
L 187.110509 292.536143 
L 187.711424 292.494325 
L 188.913255 292.243412 
L 189.51417 292.201593 
L 191.917832 291.61613 
L 193.720578 291.448855 
L 194.922409 291.323399 
L 195.523324 291.156123 
L 196.124239 291.114305 
L 197.926986 290.57066 
L 199.128816 290.487023 
L 200.330647 290.319748 
L 201.532478 290.068835 
L 202.133393 289.90156 
L 202.734309 289.107003 
L 204.537055 288.437902 
L 206.339801 287.977896 
L 206.940716 287.685164 
L 207.541632 287.643346 
L 210.546208 286.80697 
L 211.748039 286.723332 
L 212.348955 286.639695 
L 214.151701 286.09605 
L 216.555362 285.510587 
L 217.156277 285.259675 
L 217.757193 285.176037 
L 218.358108 284.883306 
L 224.367262 284.005111 
L 227.371839 283.168735 
L 227.972754 282.792366 
L 230.376416 282.165085 
L 232.780077 280.95234 
L 234.582823 280.534152 
L 235.183739 280.450514 
L 235.784654 280.157783 
L 236.986485 279.948689 
L 238.188316 279.405045 
L 241.192892 278.652307 
L 242.995639 278.1923 
L 243.596554 277.941387 
L 244.197469 277.815931 
L 244.798385 277.565018 
L 245.3993 277.481381 
L 246.000215 277.188649 
L 246.601131 277.021374 
L 247.802962 276.937736 
L 249.004792 276.519549 
L 250.206623 276.435911 
L 250.807538 276.14318 
L 252.009369 275.975904 
L 252.610284 275.76681 
L 253.812115 275.724992 
L 256.215777 275.43226 
L 257.417607 274.846797 
L 264.027677 272.044939 
L 264.628592 271.710388 
L 265.229507 271.083107 
L 266.431338 269.326718 
L 267.032253 269.159442 
L 267.633169 269.159442 
L 268.835 268.281248 
L 269.435915 268.113973 
L 270.03683 267.821241 
L 270.637746 267.695785 
L 271.238661 267.152141 
L 271.839576 266.984866 
L 273.642323 266.106671 
L 274.844153 264.43392 
L 275.445069 264.057551 
L 276.045984 263.0539 
L 276.646899 262.426618 
L 277.247815 262.133886 
L 277.84873 261.966611 
L 280.252392 260.544773 
L 281.454222 259.582941 
L 282.055138 259.206572 
L 282.656053 258.328377 
L 283.256969 256.990176 
L 283.857884 256.111981 
L 284.458799 255.651975 
L 285.059715 255.401062 
L 287.463376 253.310123 
L 288.665207 252.348291 
L 289.266122 251.846465 
L 289.867038 251.051908 
L 291.068868 250.006439 
L 293.47253 248.459144 
L 294.073445 247.957318 
L 294.674361 247.831862 
L 295.275276 247.580949 
L 297.078022 246.577298 
L 298.880768 245.448191 
L 300.683514 243.691802 
L 301.28443 243.315433 
L 301.885345 243.148158 
L 302.48626 242.855426 
L 303.688091 242.06087 
L 304.289007 241.726319 
L 304.889922 241.642682 
L 309.697245 238.757186 
L 311.499991 237.795353 
L 312.100906 237.251709 
L 314.504568 236.498971 
L 315.105483 236.080783 
L 315.706399 235.955327 
L 316.908229 235.537139 
L 318.710976 234.82622 
L 320.513722 234.157119 
L 321.715552 233.948025 
L 322.917383 232.902556 
L 324.720129 232.06618 
L 325.92196 231.355261 
L 327.123791 231.02071 
L 327.724706 230.644341 
L 328.325621 230.477066 
L 330.128368 229.347959 
L 333.132944 228.637039 
L 334.935691 227.59157 
L 335.536606 227.507932 
L 336.137521 227.298838 
L 337.339352 227.047926 
L 339.142098 225.709725 
L 340.944844 225.291537 
L 341.54576 225.082443 
L 342.146675 224.622436 
L 345.752167 223.45151 
L 346.353083 223.409691 
L 346.953998 223.242416 
L 348.155829 222.740591 
L 352.362236 221.276933 
L 353.564067 221.109658 
L 354.164983 220.942383 
L 354.765898 220.649652 
L 355.366813 220.524195 
L 357.169559 219.687819 
L 358.972305 218.809625 
L 359.573221 218.391437 
L 360.174136 218.224162 
L 361.976882 217.26233 
L 363.178713 216.969598 
L 364.380544 216.342317 
L 365.582375 216.007766 
L 366.18329 215.924129 
L 367.385121 215.213209 
L 367.986036 215.087753 
L 369.187867 214.585928 
L 369.788782 214.460471 
L 370.389698 214.125921 
L 372.793359 213.749552 
L 373.99519 213.164089 
L 374.596105 212.662264 
L 375.197021 211.616794 
L 376.999767 211.282244 
L 379.403428 210.02768 
L 380.004344 209.902224 
L 384.210751 207.894922 
L 385.412582 207.560372 
L 386.614413 207.309459 
L 387.816243 206.723996 
L 388.417159 206.473083 
L 389.018074 206.389446 
L 391.421736 205.343976 
L 393.224482 204.214869 
L 393.825397 204.131231 
L 394.426312 203.922137 
L 395.027228 203.880319 
L 397.430889 203.211218 
L 398.031805 203.169399 
L 398.63272 202.709393 
L 399.834551 202.291205 
L 401.637297 201.705742 
L 402.238212 201.329373 
L 402.839128 201.162098 
L 403.440043 200.74391 
L 404.040958 200.492997 
L 405.242789 199.865715 
L 407.646451 199.154796 
L 408.247366 198.862064 
L 410.050112 197.482044 
L 410.651028 197.356588 
L 411.852858 196.436575 
L 412.453774 196.311118 
L 413.054689 195.391105 
L 413.655604 195.140192 
L 414.25652 194.680186 
L 414.857435 194.596548 
L 416.059266 193.885629 
L 416.660181 193.760173 
L 417.261097 193.50926 
L 417.862012 193.049253 
L 418.462927 192.840159 
L 420.265674 191.627415 
L 422.669335 190.41467 
L 423.27025 190.331032 
L 424.472081 189.787388 
L 425.072997 189.452838 
L 425.673912 188.449187 
L 426.274827 187.905543 
L 426.875743 187.570992 
L 427.476658 187.445536 
L 428.678489 186.692798 
L 429.279404 186.567342 
L 430.481235 185.981879 
L 432.283981 185.22914 
L 433.485812 184.392765 
L 434.687642 183.138201 
L 437.692219 180.963624 
L 438.89405 180.001792 
L 439.494965 179.75088 
L 440.095881 179.081779 
L 440.696796 178.621772 
L 441.898627 178.203584 
L 443.100458 177.409028 
L 443.701373 177.116296 
L 444.302288 176.949021 
L 444.903204 176.530833 
L 445.504119 176.447195 
L 447.306865 175.485363 
L 448.508696 174.774444 
L 454.51785 172.641686 
L 455.118765 172.098042 
L 456.921511 171.428941 
L 458.123342 171.052572 
L 458.724257 170.592566 
L 461.127919 169.338002 
L 461.728834 169.003452 
L 462.930665 166.6616 
L 464.132496 165.239761 
L 465.334326 164.528842 
L 467.137073 163.817922 
L 467.737988 163.734285 
L 468.338903 163.399734 
L 470.141649 162.85609 
L 472.545311 161.768802 
L 473.146226 161.392433 
L 474.348057 160.974245 
L 477.953549 158.883306 
L 478.554465 158.256024 
L 479.756295 157.628742 
L 483.361788 155.746897 
L 483.962703 155.495984 
L 484.563618 155.119615 
L 485.164534 154.994159 
L 485.765449 154.534152 
L 488.770026 153.57232 
L 489.370941 153.405045 
L 489.971857 153.112313 
L 490.572772 152.694125 
L 491.774603 152.359575 
L 492.976434 151.899569 
L 493.577349 151.439562 
L 494.77918 151.063193 
L 495.380095 150.770461 
L 495.98101 150.603186 
L 497.182841 149.76681 
L 498.384672 149.264985 
L 499.586503 148.344972 
L 500.788333 147.926784 
L 501.389249 147.424959 
L 501.990164 147.341321 
L 503.191995 146.463126 
L 504.393826 145.877663 
L 504.994741 145.626751 
L 505.595656 145.041288 
L 509.201149 143.744905 
L 511.003895 142.950348 
L 512.806641 142.406704 
L 514.008472 142.239429 
L 514.609387 141.988516 
L 515.210302 141.904879 
L 516.412133 141.403053 
L 517.013049 141.361235 
L 519.41671 140.48304 
L 521.219456 139.270295 
L 521.820372 139.019383 
L 523.022202 138.392101 
L 523.623118 138.183007 
L 527.22861 136.217524 
L 527.829525 136.092068 
L 529.632271 135.088417 
L 531.435017 134.502954 
L 532.035933 134.252041 
L 533.237764 133.95931 
L 536.24234 132.997478 
L 538.045087 132.704746 
L 540.448748 131.952008 
L 541.049663 131.701095 
L 541.650579 131.617458 
L 542.251494 131.324726 
L 543.453325 131.073813 
L 544.655156 130.655626 
L 545.256071 130.446532 
L 546.457902 130.321075 
L 547.659733 130.028344 
L 549.462479 129.735612 
L 550.063394 129.526518 
L 551.265225 129.401062 
L 554.269802 128.648324 
L 555.471632 128.355592 
L 556.072548 128.021042 
L 559.077125 127.268304 
L 559.67804 127.142848 
L 560.879871 126.72466 
L 562.682617 126.097378 
L 563.283532 126.01374 
L 565.086278 125.386459 
L 565.687194 125.386459 
L 566.889024 124.968271 
L 567.48994 124.382808 
L 568.090855 124.090076 
L 569.292686 123.713707 
L 571.696347 122.793694 
L 572.297263 122.668238 
L 572.898178 122.291869 
L 573.499094 122.166412 
L 574.100009 121.831862 
L 577.104586 120.953667 
L 577.705501 120.577298 
L 578.306417 120.451842 
L 578.907332 119.950017 
L 580.710078 119.615466 
L 581.911909 118.946366 
L 582.512824 118.277265 
L 583.714655 118.026352 
L 587.921063 117.06452 
L 588.521978 116.897245 
L 589.723809 116.855426 
L 590.324724 116.604514 
L 592.728386 116.186326 
L 593.329301 115.935413 
L 595.132047 115.6845 
L 597.535709 114.931762 
L 599.338455 114.513575 
L 601.141201 114.053568 
L 602.943947 113.509924 
L 605.948524 112.631729 
L 607.150354 112.088085 
L 608.352185 111.669897 
L 608.953101 111.20989 
L 610.154931 110.87534 
L 610.755847 110.624427 
L 611.957677 110.289877 
L 614.361339 109.202589 
L 616.164085 109.077132 
L 618.567747 108.408032 
L 619.168662 108.031663 
L 620.370493 107.697113 
L 622.173239 106.777099 
L 622.774154 106.651643 
L 623.37507 106.358911 
L 623.975985 106.317093 
L 630.586054 104.100697 
L 632.989716 103.515234 
L 633.590631 103.347959 
L 634.792462 102.804315 
L 635.393377 102.720677 
L 636.595208 102.386127 
L 637.196123 101.92612 
L 637.797038 101.633389 
L 638.397954 100.922469 
L 638.998869 100.504281 
L 640.2007 100.127912 
L 640.801615 99.667906 
L 645.608938 97.702423 
L 646.209854 97.535148 
L 646.810769 97.158779 
L 649.214431 96.447859 
L 650.416261 95.862396 
L 651.618092 95.151477 
L 652.219007 95.026021 
L 653.420838 94.315101 
L 654.021754 94.064189 
L 655.223584 93.31145 
L 657.02633 92.475075 
L 657.627246 92.056887 
L 658.829077 91.638699 
L 660.030907 90.92778 
L 660.631823 90.718686 
L 661.232738 90.300498 
L 662.434569 89.88231 
L 663.035484 89.756854 
L 665.439146 88.669565 
L 668.443723 87.624096 
L 669.044638 87.582277 
L 669.645553 87.415002 
L 670.246469 87.038633 
L 670.847384 86.954995 
L 671.448299 86.745901 
L 673.251045 86.411351 
L 677.457453 84.278593 
L 678.058368 84.194955 
L 679.861115 83.233123 
L 681.663861 82.564023 
L 683.466607 81.769466 
L 685.870268 80.807634 
L 686.471184 80.640358 
L 687.072099 80.263989 
L 688.27393 80.096714 
L 688.874845 79.720345 
L 689.475761 79.678526 
L 690.677591 79.302157 
L 691.879422 78.716694 
L 692.480337 78.633057 
L 693.081253 78.382144 
L 693.682168 78.256688 
L 695.484914 77.462131 
L 696.08583 77.336674 
L 696.686745 77.085762 
L 699.691322 76.374842 
L 701.494068 75.705742 
L 703.89773 74.325722 
L 705.09956 73.865715 
L 705.700476 73.489346 
L 706.902306 73.238433 
L 707.503222 72.903883 
L 708.104137 72.778427 
L 709.305968 72.109326 
L 712.91146 70.436575 
L 714.714206 69.851112 
L 715.916037 69.432924 
L 716.516952 69.22383 
L 717.718783 68.638367 
L 718.920614 68.261998 
L 719.521529 68.136542 
L 720.72336 67.592897 
L 721.324275 67.383804 
L 721.925191 67.049253 
L 722.526106 66.965616 
L 723.127021 66.756522 
L 724.328852 66.087421 
L 726.732514 65.000133 
L 727.934344 64.581945 
L 729.136175 63.954663 
L 729.737091 63.871026 
L 732.741667 62.574643 
L 733.342583 62.156455 
L 735.746244 61.361898 
L 736.34716 61.361898 
L 737.54899 60.818254 
L 738.149906 60.358248 
L 738.750821 59.689147 
L 739.351737 59.187322 
L 739.952652 58.89459 
L 740.553567 58.727315 
L 741.154483 58.350946 
L 741.755398 58.22549 
L 742.356313 57.932758 
L 742.957229 57.84912 
L 743.558144 57.430933 
L 744.159059 57.305476 
L 744.759975 57.012745 
L 746.562721 55.8 
L 747.163636 55.8 
L 747.163636 55.8 
" clip-path="url(#p8fa7061cf1)" style="fill: none; stroke: #1f77b4; stroke-width: 1.5; stroke-linecap: square"/>
   </g>
   <g id="line2d_36">
    <path d="M 139.037279 307.8 
L 140.840025 307.716362 
L 142.642771 307.674544 
L 146.248263 307.590906 
L 149.25284 307.46545 
L 151.656502 307.46545 
L 152.257417 307.298175 
L 154.661079 307.214537 
L 156.463825 307.005443 
L 158.266571 306.838168 
L 161.872063 306.670893 
L 162.472979 306.670893 
L 163.073894 306.545436 
L 165.477555 306.461799 
L 166.679386 306.378161 
L 171.486709 306.294524 
L 174.491286 306.169067 
L 181.70227 306.08543 
L 184.706847 305.959973 
L 188.31234 305.876336 
L 190.716001 305.792698 
L 196.124239 305.709061 
L 197.926986 305.667242 
L 199.729732 305.625423 
L 201.532478 305.416329 
L 205.13797 305.37451 
L 206.339801 305.290873 
L 210.546208 305.207235 
L 217.156277 304.830866 
L 221.362685 304.747229 
L 222.564516 304.663591 
L 224.367262 304.579954 
L 227.972754 304.412678 
L 230.376416 304.37086 
L 232.179162 304.203584 
L 239.991062 303.743578 
L 242.995639 303.65994 
L 248.403877 303.367209 
L 250.206623 303.283571 
L 256.215777 302.949021 
L 262.825846 302.865383 
L 265.229507 302.614471 
L 266.431338 302.530833 
L 274.243238 301.903551 
L 277.84873 301.443545 
L 280.252392 301.359907 
L 285.059715 300.732625 
L 288.665207 300.648988 
L 290.467953 300.481713 
L 291.669784 300.439894 
L 292.871614 300.314437 
L 294.674361 300.2308 
L 295.876191 300.063525 
L 298.880768 299.728974 
L 301.28443 299.645337 
L 302.48626 299.561699 
L 304.889922 299.478062 
L 306.091753 299.394424 
L 309.09633 299.101693 
L 309.697245 298.934418 
L 313.302737 298.767142 
L 316.307314 298.683505 
L 324.119214 298.223498 
L 325.92196 298.139861 
L 333.73386 297.679854 
L 337.940267 297.596216 
L 338.541183 297.47076 
L 343.348506 297.387122 
L 347.554913 297.178029 
L 354.164983 297.094391 
L 358.37139 296.885297 
L 363.178713 296.801659 
L 367.986036 296.550747 
L 372.192444 296.467109 
L 383.609836 295.75619 
L 388.417159 295.672552 
L 404.040958 294.668901 
L 407.646451 294.585264 
L 409.449197 294.543445 
L 411.251943 294.501626 
L 413.054689 294.334351 
L 417.862012 294.250714 
L 419.063843 294.04162 
L 420.265674 293.957982 
L 423.27025 293.832526 
L 424.472081 293.748888 
L 425.673912 293.665251 
L 431.08215 293.581613 
L 432.283981 293.456157 
L 434.687642 293.414338 
L 435.288558 293.288882 
L 436.490389 293.205244 
L 437.091304 293.079788 
L 438.89405 292.99615 
L 448.508696 292.410687 
L 450.912358 292.327049 
L 453.916934 292.201593 
L 462.32975 292.117956 
L 466.536157 291.908862 
L 471.34348 291.825224 
L 473.747142 291.741586 
L 476.150803 291.699768 
L 477.352634 291.574311 
L 479.756295 291.490674 
L 485.765449 291.156123 
L 489.370941 291.114305 
L 491.173688 290.94703 
L 492.976434 290.905211 
L 497.182841 290.821573 
L 499.586503 290.737936 
L 506.797487 290.654298 
L 509.802064 290.528842 
L 513.407556 290.445204 
L 515.210302 290.23611 
L 518.815795 290.194291 
L 520.618541 290.027016 
L 523.022202 289.943379 
L 530.233187 289.859741 
L 533.237764 289.734285 
L 543.453325 289.692466 
L 544.655156 289.608828 
L 546.457902 289.56701 
L 554.269802 289.483372 
L 555.471632 289.399734 
L 562.081702 289.316097 
L 564.485363 289.232459 
L 571.696347 289.190641 
L 572.898178 289.107003 
L 581.911909 289.065184 
L 583.714655 288.897909 
L 598.737539 288.814271 
L 600.540285 288.772453 
L 616.765 288.688815 
L 619.168662 288.605178 
L 629.384223 288.52154 
L 630.586054 288.437902 
L 633.590631 288.354265 
L 635.393377 288.18699 
L 638.397954 288.103352 
L 640.801615 288.019715 
L 644.407108 287.936077 
L 646.209854 287.894258 
L 648.613515 287.810621 
L 650.416261 287.768802 
L 653.420838 287.685164 
L 654.622669 287.601527 
L 658.228161 287.517889 
L 661.232738 287.392433 
L 662.434569 287.350614 
L 663.6364 287.266976 
L 665.439146 287.225158 
L 667.842807 287.14152 
L 670.246469 287.057883 
L 678.058368 286.974245 
L 680.46203 286.890607 
L 685.269353 286.80697 
L 689.475761 286.597876 
L 694.883999 286.514238 
L 696.08583 286.430601 
L 706.902306 286.346963 
L 708.705052 286.305144 
L 711.709629 286.263326 
L 714.113291 286.012413 
L 715.916037 285.970594 
L 719.521529 285.886957 
L 726.131598 285.510587 
L 728.53526 285.42695 
L 730.938921 285.343312 
L 734.544414 285.259675 
L 735.746244 285.176037 
L 738.149906 285.0924 
L 740.553567 284.841487 
L 742.957229 284.757849 
L 745.36089 284.716031 
L 746.562721 284.632393 
L 747.163636 284.632393 
L 747.163636 284.632393 
" clip-path="url(#p8fa7061cf1)" style="fill: none; stroke: #ff7f0e; stroke-width: 1.5; stroke-linecap: square"/>
   </g>
   <g id="patch_3">
    <path d="M 108 320.4 
L 108 43.2 
" style="fill: none; stroke: #a9a9a9; stroke-width: 0.8; stroke-linejoin: miter; stroke-linecap: square"/>
   </g>
   <g id="patch_4">
    <path d="M 777.6 320.4 
L 777.6 43.2 
" style="fill: none"/>
   </g>
   <g id="patch_5">
    <path d="M 108 320.4 
L 777.6 320.4 
" style="fill: none; stroke: #a9a9a9; stroke-width: 0.8; stroke-linejoin: miter; stroke-linecap: square"/>
   </g>
   <g id="patch_6">
    <path d="M 108 43.2 
L 777.6 43.2 
" style="fill: none"/>
   </g>
   <g id="text_18">
    <!-- get_subscribe history -->
    <g style="fill: #a9a9a9" transform="translate(378.6075 37.2) scale(0.12 -0.12)">
     <defs>
      <path id="DejaVuSans-67" d="M 2906 1791 
Q 2906 2416 2648 2759 
Q 2391 3103 1925 3103 
Q 1463 3103 1205 2759 
Q 947 2416 947 1791 
Q 947 1169 1205 825 
Q 1463 481 1925 481 
Q 2391 481 2648 825 
Q 2906 1169 2906 1791 
z
M 3481 434 
Q 3481 -459 3084 -895 
Q 2688 -1331 1869 -1331 
Q 1566 -1331 1297 -1286 
Q 1028 -1241 775 -1147 
L 775 -588 
Q 1028 -725 1275 -790 
Q 1522 -856 1778 -856 
Q 2344 -856 2625 -561 
Q 2906 -266 2906 331 
L 2906 616 
Q 2728 306 2450 153 
Q 2172 0 1784 0 
Q 1141 0 747 490 
Q 353 981 353 1791 
Q 353 2603 747 3093 
Q 1141 3584 1784 3584 
Q 2172 3584 2450 3431 
Q 2728 3278 2906 2969 
L 2906 3500 
L 3481 3500 
L 3481 434 
z
" transform="scale(0.015625)"/>
      <path id="DejaVuSans-65" d="M 3597 1894 
L 3597 1613 
L 953 1613 
Q 991 1019 1311 708 
Q 1631 397 2203 397 
Q 2534 397 2845 478 
Q 3156 559 3463 722 
L 3463 178 
Q 3153 47 2828 -22 
Q 2503 -91 2169 -91 
Q 1331 -91 842 396 
Q 353 884 353 1716 
Q 353 2575 817 3079 
Q 1281 3584 2069 3584 
Q 2775 3584 3186 3129 
Q 3597 2675 3597 1894 
z
M 3022 2063 
Q 3016 2534 2758 2815 
Q 2500 3097 2075 3097 
Q 1594 3097 1305 2825 
Q 1016 2553 972 2059 
L 3022 2063 
z
" transform="scale(0.015625)"/>
      <path id="DejaVuSans-74" d="M 1172 4494 
L 1172 3500 
L 2356 3500 
L 2356 3053 
L 1172 3053 
L 1172 1153 
Q 1172 725 1289 603 
Q 1406 481 1766 481 
L 2356 481 
L 2356 0 
L 1766 0 
Q 1100 0 847 248 
Q 594 497 594 1153 
L 594 3053 
L 172 3053 
L 172 3500 
L 594 3500 
L 594 4494 
L 1172 4494 
z
" transform="scale(0.015625)"/>
      <path id="DejaVuSans-5f" d="M 3263 -1063 
L 3263 -1509 
L -63 -1509 
L -63 -1063 
L 3263 -1063 
z
" transform="scale(0.015625)"/>
      <path id="DejaVuSans-73" d="M 2834 3397 
L 2834 2853 
Q 2591 2978 2328 3040 
Q 2066 3103 1784 3103 
Q 1356 3103 1142 2972 
Q 928 2841 928 2578 
Q 928 2378 1081 2264 
Q 1234 2150 1697 2047 
L 1894 2003 
Q 2506 1872 2764 1633 
Q 3022 1394 3022 966 
Q 3022 478 2636 193 
Q 2250 -91 1575 -91 
Q 1294 -91 989 -36 
Q 684 19 347 128 
L 347 722 
Q 666 556 975 473 
Q 1284 391 1588 391 
Q 1994 391 2212 530 
Q 2431 669 2431 922 
Q 2431 1156 2273 1281 
Q 2116 1406 1581 1522 
L 1381 1569 
Q 847 1681 609 1914 
Q 372 2147 372 2553 
Q 372 3047 722 3315 
Q 1072 3584 1716 3584 
Q 2034 3584 2315 3537 
Q 2597 3491 2834 3397 
z
" transform="scale(0.015625)"/>
      <path id="DejaVuSans-75" d="M 544 1381 
L 544 3500 
L 1119 3500 
L 1119 1403 
Q 1119 906 1312 657 
Q 1506 409 1894 409 
Q 2359 409 2629 706 
Q 2900 1003 2900 1516 
L 2900 3500 
L 3475 3500 
L 3475 0 
L 2900 0 
L 2900 538 
Q 2691 219 2414 64 
Q 2138 -91 1772 -91 
Q 1169 -91 856 284 
Q 544 659 544 1381 
z
M 1991 3584 
L 1991 3584 
z
" transform="scale(0.015625)"/>
      <path id="DejaVuSans-62" d="M 3116 1747 
Q 3116 2381 2855 2742 
Q 2594 3103 2138 3103 
Q 1681 3103 1420 2742 
Q 1159 2381 1159 1747 
Q 1159 1113 1420 752 
Q 1681 391 2138 391 
Q 2594 391 2855 752 
Q 3116 1113 3116 1747 
z
M 1159 2969 
Q 1341 3281 1617 3432 
Q 1894 3584 2278 3584 
Q 2916 3584 3314 3078 
Q 3713 2572 3713 1747 
Q 3713 922 3314 415 
Q 2916 -91 2278 -91 
Q 1894 -91 1617 61 
Q 1341 213 1159 525 
L 1159 0 
L 581 0 
L 581 4863 
L 1159 4863 
L 1159 2969 
z
" transform="scale(0.015625)"/>
      <path id="DejaVuSans-63" d="M 3122 3366 
L 3122 2828 
Q 2878 2963 2633 3030 
Q 2388 3097 2138 3097 
Q 1578 3097 1268 2742 
Q 959 2388 959 1747 
Q 959 1106 1268 751 
Q 1578 397 2138 397 
Q 2388 397 2633 464 
Q 2878 531 3122 666 
L 3122 134 
Q 2881 22 2623 -34 
Q 2366 -91 2075 -91 
Q 1284 -91 818 406 
Q 353 903 353 1747 
Q 353 2603 823 3093 
Q 1294 3584 2113 3584 
Q 2378 3584 2631 3529 
Q 2884 3475 3122 3366 
z
" transform="scale(0.015625)"/>
      <path id="DejaVuSans-72" d="M 2631 2963 
Q 2534 3019 2420 3045 
Q 2306 3072 2169 3072 
Q 1681 3072 1420 2755 
Q 1159 2438 1159 1844 
L 1159 0 
L 581 0 
L 581 3500 
L 1159 3500 
L 1159 2956 
Q 1341 3275 1631 3429 
Q 1922 3584 2338 3584 
Q 2397 3584 2469 3576 
Q 2541 3569 2628 3553 
L 2631 2963 
z
" transform="scale(0.015625)"/>
      <path id="DejaVuSans-69" d="M 603 3500 
L 1178 3500 
L 1178 0 
L 603 0 
L 603 3500 
z
M 603 4863 
L 1178 4863 
L 1178 4134 
L 603 4134 
L 603 4863 
z
" transform="scale(0.015625)"/>
      <path id="DejaVuSans-20" transform="scale(0.015625)"/>
      <path id="DejaVuSans-68" d="M 3513 2113 
L 3513 0 
L 2938 0 
L 2938 2094 
Q 2938 2591 2744 2837 
Q 2550 3084 2163 3084 
Q 1697 3084 1428 2787 
Q 1159 2491 1159 1978 
L 1159 0 
L 581 0 
L 581 4863 
L 1159 4863 
L 1159 2956 
Q 1366 3272 1645 3428 
Q 1925 3584 2291 3584 
Q 2894 3584 3203 3211 
Q 3513 2838 3513 2113 
z
" transform="scale(0.015625)"/>
      <path id="DejaVuSans-6f" d="M 1959 3097 
Q 1497 3097 1228 2736 
Q 959 2375 959 1747 
Q 959 1119 1226 758 
Q 1494 397 1959 397 
Q 2419 397 2687 759 
Q 2956 1122 2956 1747 
Q 2956 2369 2687 2733 
Q 2419 3097 1959 3097 
z
M 1959 3584 
Q 2709 3584 3137 3096 
Q 3566 2609 3566 1747 
Q 3566 888 3137 398 
Q 2709 -91 1959 -91 
Q 1206 -91 779 398 
Q 353 888 353 1747 
Q 353 2609 779 3096 
Q 1206 3584 1959 3584 
z
" transform="scale(0.015625)"/>
      <path id="DejaVuSans-79" d="M 2059 -325 
Q 1816 -950 1584 -1140 
Q 1353 -1331 966 -1331 
L 506 -1331 
L 506 -850 
L 844 -850 
Q 1081 -850 1212 -737 
Q 1344 -625 1503 -206 
L 1606 56 
L 191 3500 
L 800 3500 
L 1894 763 
L 2988 3500 
L 3597 3500 
L 2059 -325 
z
" transform="scale(0.015625)"/>
     </defs>
     <use xlink:href="#DejaVuSans-67"/>
     <use xlink:href="#DejaVuSans-65" x="63.476562"/>
     <use xlink:href="#DejaVuSans-74" x="125"/>
     <use xlink:href="#DejaVuSans-5f" x="164.208984"/>
     <use xlink:href="#DejaVuSans-73" x="214.208984"/>
     <use xlink:href="#DejaVuSans-75" x="266.308594"/>
     <use xlink:href="#DejaVuSans-62" x="329.6875"/>
     <use xlink:href="#DejaVuSans-73" x="393.164062"/>
     <use xlink:href="#DejaVuSans-63" x="445.263672"/>
     <use xlink:href="#DejaVuSans-72" x="500.244141"/>
     <use xlink:href="#DejaVuSans-69" x="541.357422"/>
     <use xlink:href="#DejaVuSans-62" x="569.140625"/>
     <use xlink:href="#DejaVuSans-65" x="632.617188"/>
     <use xlink:href="#DejaVuSans-20" x="694.140625"/>
     <use xlink:href="#DejaVuSans-68" x="725.927734"/>
     <use xlink:href="#DejaVuSans-69" x="789.306641"/>
     <use xlink:href="#DejaVuSans-73" x="817.089844"/>
     <use xlink:href="#DejaVuSans-74" x="869.189453"/>
     <use xlink:href="#DejaVuSans-6f" x="908.398438"/>
     <use xlink:href="#DejaVuSans-72" x="969.580078"/>
     <use xlink:href="#DejaVuSans-79" x="1010.693359"/>
    </g>
   </g>
   <g id="legend_1">
    <g id="line2d_37">
     <path d="M 815.08 328.498438 
L 825.08 328.498438 
L 835.08 328.498438 
" style="fill: none; stroke: #1f77b4; stroke-width: 1.5; stroke-linecap: square"/>
    </g>
    <g id="text_19">
     <!-- star -->
     <g style="fill: #a9a9a9" transform="translate(843.08 331.998438) scale(0.1 -0.1)">
      <defs>
       <path id="DejaVuSans-61" d="M 2194 1759 
Q 1497 1759 1228 1600 
Q 959 1441 959 1056 
Q 959 750 1161 570 
Q 1363 391 1709 391 
Q 2188 391 2477 730 
Q 2766 1069 2766 1631 
L 2766 1759 
L 2194 1759 
z
M 3341 1997 
L 3341 0 
L 2766 0 
L 2766 531 
Q 2569 213 2275 61 
Q 1981 -91 1556 -91 
Q 1019 -91 701 211 
Q 384 513 384 1019 
Q 384 1609 779 1909 
Q 1175 2209 1959 2209 
L 2766 2209 
L 2766 2266 
Q 2766 2663 2505 2880 
Q 2244 3097 1772 3097 
Q 1472 3097 1187 3025 
Q 903 2953 641 2809 
L 641 3341 
Q 956 3463 1253 3523 
Q 1550 3584 1831 3584 
Q 2591 3584 2966 3190 
Q 3341 2797 3341 1997 
z
" transform="scale(0.015625)"/>
      </defs>
      <use xlink:href="#DejaVuSans-73"/>
      <use xlink:href="#DejaVuSans-74" x="52.099609"/>
      <use xlink:href="#DejaVuSans-61" x="91.308594"/>
      <use xlink:href="#DejaVuSans-72" x="152.587891"/>
     </g>
    </g>
    <g id="line2d_38">
     <path d="M 815.08 343.176562 
L 825.08 343.176562 
L 835.08 343.176562 
" style="fill: none; stroke: #ff7f0e; stroke-width: 1.5; stroke-linecap: square"/>
    </g>
    <g id="text_20">
     <!-- fork -->
     <g style="fill: #a9a9a9" transform="translate(843.08 346.676562) scale(0.1 -0.1)">
      <defs>
       <path id="DejaVuSans-66" d="M 2375 4863 
L 2375 4384 
L 1825 4384 
Q 1516 4384 1395 4259 
Q 1275 4134 1275 3809 
L 1275 3500 
L 2222 3500 
L 2222 3053 
L 1275 3053 
L 1275 0 
L 697 0 
L 697 3053 
L 147 3053 
L 147 3500 
L 697 3500 
L 697 3744 
Q 697 4328 969 4595 
Q 1241 4863 1831 4863 
L 2375 4863 
z
" transform="scale(0.015625)"/>
       <path id="DejaVuSans-6b" d="M 581 4863 
L 1159 4863 
L 1159 1991 
L 2875 3500 
L 3609 3500 
L 1753 1863 
L 3688 0 
L 2938 0 
L 1159 1709 
L 1159 0 
L 581 0 
L 581 4863 
z
" transform="scale(0.015625)"/>
      </defs>
      <use xlink:href="#DejaVuSans-66"/>
      <use xlink:href="#DejaVuSans-6f" x="35.205078"/>
      <use xlink:href="#DejaVuSans-72" x="96.386719"/>
      <use xlink:href="#DejaVuSans-6b" x="137.5"/>
     </g>
    </g>
   </g>
  </g>
 </g>
 <defs>
  <clipPath id="p8fa7061cf1">
   <rect x="108" y="43.2" width="669.6" height="277.2"/>
  </clipPath>
 </defs>
</svg>
