<?xml version="1.0" encoding="utf-8" standalone="no"?>
<!DOCTYPE svg PUBLIC "-//W3C//DTD SVG 1.1//EN"
  "http://www.w3.org/Graphics/SVG/1.1/DTD/svg11.dtd">
<svg xmlns:xlink="http://www.w3.org/1999/xlink" width="864pt" height="360pt" viewBox="0 0 864 360" xmlns="http://www.w3.org/2000/svg" version="1.1">
 <metadata>
  <rdf:RDF xmlns:dc="http://purl.org/dc/elements/1.1/" xmlns:cc="http://creativecommons.org/ns#" xmlns:rdf="http://www.w3.org/1999/02/22-rdf-syntax-ns#">
   <cc:Work>
    <dc:type rdf:resource="http://purl.org/dc/dcmitype/StillImage"/>
    <dc:date>2024-04-30T20:05:17.004563</dc:date>
    <dc:format>image/svg+xml</dc:format>
    <dc:creator>
     <cc:Agent>
      <dc:title>Matplotlib v3.8.4, https://matplotlib.org/</dc:title>
     </cc:Agent>
    </dc:creator>
   </cc:Work>
  </rdf:RDF>
 </metadata>
 <defs>
  <style type="text/css">*{stroke-linejoin: round; stroke-linecap: butt}</style>
 </defs>
 <g id="figure_1">
  <g id="patch_1">
   <path d="M 0 360 
L 864 360 
L 864 0 
L 0 0 
L 0 360 
z
" style="fill: none; opacity: 0"/>
  </g>
  <g id="axes_1">
   <g id="patch_2">
    <path d="M 108 320.4 
L 777.6 320.4 
L 777.6 43.2 
L 108 43.2 
L 108 320.4 
z
" style="fill: none; opacity: 0"/>
   </g>
   <g id="matplotlib.axis_1">
    <g id="xtick_1">
     <g id="line2d_1">
      <path d="M 161.918425 320.4 
L 161.918425 43.2 
" clip-path="url(#p1765a6773b)" style="fill: none; stroke-dasharray: 5.12,1.28,0.8,1.28; stroke-dashoffset: 0; stroke: #b0b0b0; stroke-width: 0.8"/>
     </g>
     <g id="line2d_2">
      <defs>
       <path id="m33f823e1fc" d="M 0 0 
L 0 3.5 
" style="stroke: #a9a9a9; stroke-width: 0.8"/>
      </defs>
      <g>
       <use xlink:href="#m33f823e1fc" x="161.918425" y="320.4" style="fill: #a9a9a9; stroke: #a9a9a9; stroke-width: 0.8"/>
      </g>
     </g>
     <g id="text_1">
      <!-- 2021-09 -->
      <g style="fill: #a9a9a9" transform="translate(141.027018 334.998438) scale(0.1 -0.1)">
       <defs>
        <path id="DejaVuSans-32" d="M 1228 531 
L 3431 531 
L 3431 0 
L 469 0 
L 469 531 
Q 828 903 1448 1529 
Q 2069 2156 2228 2338 
Q 2531 2678 2651 2914 
Q 2772 3150 2772 3378 
Q 2772 3750 2511 3984 
Q 2250 4219 1831 4219 
Q 1534 4219 1204 4116 
Q 875 4013 500 3803 
L 500 4441 
Q 881 4594 1212 4672 
Q 1544 4750 1819 4750 
Q 2544 4750 2975 4387 
Q 3406 4025 3406 3419 
Q 3406 3131 3298 2873 
Q 3191 2616 2906 2266 
Q 2828 2175 2409 1742 
Q 1991 1309 1228 531 
z
" transform="scale(0.015625)"/>
        <path id="DejaVuSans-30" d="M 2034 4250 
Q 1547 4250 1301 3770 
Q 1056 3291 1056 2328 
Q 1056 1369 1301 889 
Q 1547 409 2034 409 
Q 2525 409 2770 889 
Q 3016 1369 3016 2328 
Q 3016 3291 2770 3770 
Q 2525 4250 2034 4250 
z
M 2034 4750 
Q 2819 4750 3233 4129 
Q 3647 3509 3647 2328 
Q 3647 1150 3233 529 
Q 2819 -91 2034 -91 
Q 1250 -91 836 529 
Q 422 1150 422 2328 
Q 422 3509 836 4129 
Q 1250 4750 2034 4750 
z
" transform="scale(0.015625)"/>
        <path id="DejaVuSans-31" d="M 794 531 
L 1825 531 
L 1825 4091 
L 703 3866 
L 703 4441 
L 1819 4666 
L 2450 4666 
L 2450 531 
L 3481 531 
L 3481 0 
L 794 0 
L 794 531 
z
" transform="scale(0.015625)"/>
        <path id="DejaVuSans-2d" d="M 313 2009 
L 1997 2009 
L 1997 1497 
L 313 1497 
L 313 2009 
z
" transform="scale(0.015625)"/>
        <path id="DejaVuSans-39" d="M 703 97 
L 703 672 
Q 941 559 1184 500 
Q 1428 441 1663 441 
Q 2288 441 2617 861 
Q 2947 1281 2994 2138 
Q 2813 1869 2534 1725 
Q 2256 1581 1919 1581 
Q 1219 1581 811 2004 
Q 403 2428 403 3163 
Q 403 3881 828 4315 
Q 1253 4750 1959 4750 
Q 2769 4750 3195 4129 
Q 3622 3509 3622 2328 
Q 3622 1225 3098 567 
Q 2575 -91 1691 -91 
Q 1453 -91 1209 -44 
Q 966 3 703 97 
z
M 1959 2075 
Q 2384 2075 2632 2365 
Q 2881 2656 2881 3163 
Q 2881 3666 2632 3958 
Q 2384 4250 1959 4250 
Q 1534 4250 1286 3958 
Q 1038 3666 1038 3163 
Q 1038 2656 1286 2365 
Q 1534 2075 1959 2075 
z
" transform="scale(0.015625)"/>
       </defs>
       <use xlink:href="#DejaVuSans-32"/>
       <use xlink:href="#DejaVuSans-30" x="63.623047"/>
       <use xlink:href="#DejaVuSans-32" x="127.246094"/>
       <use xlink:href="#DejaVuSans-31" x="190.869141"/>
       <use xlink:href="#DejaVuSans-2d" x="254.492188"/>
       <use xlink:href="#DejaVuSans-30" x="290.576172"/>
       <use xlink:href="#DejaVuSans-39" x="354.199219"/>
      </g>
     </g>
    </g>
    <g id="xtick_2">
     <g id="line2d_3">
      <path d="M 235.375128 320.4 
L 235.375128 43.2 
" clip-path="url(#p1765a6773b)" style="fill: none; stroke-dasharray: 5.12,1.28,0.8,1.28; stroke-dashoffset: 0; stroke: #b0b0b0; stroke-width: 0.8"/>
     </g>
     <g id="line2d_4">
      <g>
       <use xlink:href="#m33f823e1fc" x="235.375128" y="320.4" style="fill: #a9a9a9; stroke: #a9a9a9; stroke-width: 0.8"/>
      </g>
     </g>
     <g id="text_2">
      <!-- 2022-01 -->
      <g style="fill: #a9a9a9" transform="translate(214.483722 334.998438) scale(0.1 -0.1)">
       <use xlink:href="#DejaVuSans-32"/>
       <use xlink:href="#DejaVuSans-30" x="63.623047"/>
       <use xlink:href="#DejaVuSans-32" x="127.246094"/>
       <use xlink:href="#DejaVuSans-32" x="190.869141"/>
       <use xlink:href="#DejaVuSans-2d" x="254.492188"/>
       <use xlink:href="#DejaVuSans-30" x="290.576172"/>
       <use xlink:href="#DejaVuSans-31" x="354.199219"/>
      </g>
     </g>
    </g>
    <g id="xtick_3">
     <g id="line2d_5">
      <path d="M 307.627623 320.4 
L 307.627623 43.2 
" clip-path="url(#p1765a6773b)" style="fill: none; stroke-dasharray: 5.12,1.28,0.8,1.28; stroke-dashoffset: 0; stroke: #b0b0b0; stroke-width: 0.8"/>
     </g>
     <g id="line2d_6">
      <g>
       <use xlink:href="#m33f823e1fc" x="307.627623" y="320.4" style="fill: #a9a9a9; stroke: #a9a9a9; stroke-width: 0.8"/>
      </g>
     </g>
     <g id="text_3">
      <!-- 2022-05 -->
      <g style="fill: #a9a9a9" transform="translate(286.736217 334.998438) scale(0.1 -0.1)">
       <defs>
        <path id="DejaVuSans-35" d="M 691 4666 
L 3169 4666 
L 3169 4134 
L 1269 4134 
L 1269 2991 
Q 1406 3038 1543 3061 
Q 1681 3084 1819 3084 
Q 2600 3084 3056 2656 
Q 3513 2228 3513 1497 
Q 3513 744 3044 326 
Q 2575 -91 1722 -91 
Q 1428 -91 1123 -41 
Q 819 9 494 109 
L 494 744 
Q 775 591 1075 516 
Q 1375 441 1709 441 
Q 2250 441 2565 725 
Q 2881 1009 2881 1497 
Q 2881 1984 2565 2268 
Q 2250 2553 1709 2553 
Q 1456 2553 1204 2497 
Q 953 2441 691 2322 
L 691 4666 
z
" transform="scale(0.015625)"/>
       </defs>
       <use xlink:href="#DejaVuSans-32"/>
       <use xlink:href="#DejaVuSans-30" x="63.623047"/>
       <use xlink:href="#DejaVuSans-32" x="127.246094"/>
       <use xlink:href="#DejaVuSans-32" x="190.869141"/>
       <use xlink:href="#DejaVuSans-2d" x="254.492188"/>
       <use xlink:href="#DejaVuSans-30" x="290.576172"/>
       <use xlink:href="#DejaVuSans-35" x="354.199219"/>
      </g>
     </g>
    </g>
    <g id="xtick_4">
     <g id="line2d_7">
      <path d="M 381.686431 320.4 
L 381.686431 43.2 
" clip-path="url(#p1765a6773b)" style="fill: none; stroke-dasharray: 5.12,1.28,0.8,1.28; stroke-dashoffset: 0; stroke: #b0b0b0; stroke-width: 0.8"/>
     </g>
     <g id="line2d_8">
      <g>
       <use xlink:href="#m33f823e1fc" x="381.686431" y="320.4" style="fill: #a9a9a9; stroke: #a9a9a9; stroke-width: 0.8"/>
      </g>
     </g>
     <g id="text_4">
      <!-- 2022-09 -->
      <g style="fill: #a9a9a9" transform="translate(360.795025 334.998438) scale(0.1 -0.1)">
       <use xlink:href="#DejaVuSans-32"/>
       <use xlink:href="#DejaVuSans-30" x="63.623047"/>
       <use xlink:href="#DejaVuSans-32" x="127.246094"/>
       <use xlink:href="#DejaVuSans-32" x="190.869141"/>
       <use xlink:href="#DejaVuSans-2d" x="254.492188"/>
       <use xlink:href="#DejaVuSans-30" x="290.576172"/>
       <use xlink:href="#DejaVuSans-39" x="354.199219"/>
      </g>
     </g>
    </g>
    <g id="xtick_5">
     <g id="line2d_9">
      <path d="M 455.143135 320.4 
L 455.143135 43.2 
" clip-path="url(#p1765a6773b)" style="fill: none; stroke-dasharray: 5.12,1.28,0.8,1.28; stroke-dashoffset: 0; stroke: #b0b0b0; stroke-width: 0.8"/>
     </g>
     <g id="line2d_10">
      <g>
       <use xlink:href="#m33f823e1fc" x="455.143135" y="320.4" style="fill: #a9a9a9; stroke: #a9a9a9; stroke-width: 0.8"/>
      </g>
     </g>
     <g id="text_5">
      <!-- 2023-01 -->
      <g style="fill: #a9a9a9" transform="translate(434.251728 334.998438) scale(0.1 -0.1)">
       <defs>
        <path id="DejaVuSans-33" d="M 2597 2516 
Q 3050 2419 3304 2112 
Q 3559 1806 3559 1356 
Q 3559 666 3084 287 
Q 2609 -91 1734 -91 
Q 1441 -91 1130 -33 
Q 819 25 488 141 
L 488 750 
Q 750 597 1062 519 
Q 1375 441 1716 441 
Q 2309 441 2620 675 
Q 2931 909 2931 1356 
Q 2931 1769 2642 2001 
Q 2353 2234 1838 2234 
L 1294 2234 
L 1294 2753 
L 1863 2753 
Q 2328 2753 2575 2939 
Q 2822 3125 2822 3475 
Q 2822 3834 2567 4026 
Q 2313 4219 1838 4219 
Q 1578 4219 1281 4162 
Q 984 4106 628 3988 
L 628 4550 
Q 988 4650 1302 4700 
Q 1616 4750 1894 4750 
Q 2613 4750 3031 4423 
Q 3450 4097 3450 3541 
Q 3450 3153 3228 2886 
Q 3006 2619 2597 2516 
z
" transform="scale(0.015625)"/>
       </defs>
       <use xlink:href="#DejaVuSans-32"/>
       <use xlink:href="#DejaVuSans-30" x="63.623047"/>
       <use xlink:href="#DejaVuSans-32" x="127.246094"/>
       <use xlink:href="#DejaVuSans-33" x="190.869141"/>
       <use xlink:href="#DejaVuSans-2d" x="254.492188"/>
       <use xlink:href="#DejaVuSans-30" x="290.576172"/>
       <use xlink:href="#DejaVuSans-31" x="354.199219"/>
      </g>
     </g>
    </g>
    <g id="xtick_6">
     <g id="line2d_11">
      <path d="M 527.39563 320.4 
L 527.39563 43.2 
" clip-path="url(#p1765a6773b)" style="fill: none; stroke-dasharray: 5.12,1.28,0.8,1.28; stroke-dashoffset: 0; stroke: #b0b0b0; stroke-width: 0.8"/>
     </g>
     <g id="line2d_12">
      <g>
       <use xlink:href="#m33f823e1fc" x="527.39563" y="320.4" style="fill: #a9a9a9; stroke: #a9a9a9; stroke-width: 0.8"/>
      </g>
     </g>
     <g id="text_6">
      <!-- 2023-05 -->
      <g style="fill: #a9a9a9" transform="translate(506.504224 334.998438) scale(0.1 -0.1)">
       <use xlink:href="#DejaVuSans-32"/>
       <use xlink:href="#DejaVuSans-30" x="63.623047"/>
       <use xlink:href="#DejaVuSans-32" x="127.246094"/>
       <use xlink:href="#DejaVuSans-33" x="190.869141"/>
       <use xlink:href="#DejaVuSans-2d" x="254.492188"/>
       <use xlink:href="#DejaVuSans-30" x="290.576172"/>
       <use xlink:href="#DejaVuSans-35" x="354.199219"/>
      </g>
     </g>
    </g>
    <g id="xtick_7">
     <g id="line2d_13">
      <path d="M 601.454438 320.4 
L 601.454438 43.2 
" clip-path="url(#p1765a6773b)" style="fill: none; stroke-dasharray: 5.12,1.28,0.8,1.28; stroke-dashoffset: 0; stroke: #b0b0b0; stroke-width: 0.8"/>
     </g>
     <g id="line2d_14">
      <g>
       <use xlink:href="#m33f823e1fc" x="601.454438" y="320.4" style="fill: #a9a9a9; stroke: #a9a9a9; stroke-width: 0.8"/>
      </g>
     </g>
     <g id="text_7">
      <!-- 2023-09 -->
      <g style="fill: #a9a9a9" transform="translate(580.563031 334.998438) scale(0.1 -0.1)">
       <use xlink:href="#DejaVuSans-32"/>
       <use xlink:href="#DejaVuSans-30" x="63.623047"/>
       <use xlink:href="#DejaVuSans-32" x="127.246094"/>
       <use xlink:href="#DejaVuSans-33" x="190.869141"/>
       <use xlink:href="#DejaVuSans-2d" x="254.492188"/>
       <use xlink:href="#DejaVuSans-30" x="290.576172"/>
       <use xlink:href="#DejaVuSans-39" x="354.199219"/>
      </g>
     </g>
    </g>
    <g id="xtick_8">
     <g id="line2d_15">
      <path d="M 674.911141 320.4 
L 674.911141 43.2 
" clip-path="url(#p1765a6773b)" style="fill: none; stroke-dasharray: 5.12,1.28,0.8,1.28; stroke-dashoffset: 0; stroke: #b0b0b0; stroke-width: 0.8"/>
     </g>
     <g id="line2d_16">
      <g>
       <use xlink:href="#m33f823e1fc" x="674.911141" y="320.4" style="fill: #a9a9a9; stroke: #a9a9a9; stroke-width: 0.8"/>
      </g>
     </g>
     <g id="text_8">
      <!-- 2024-01 -->
      <g style="fill: #a9a9a9" transform="translate(654.019735 334.998438) scale(0.1 -0.1)">
       <defs>
        <path id="DejaVuSans-34" d="M 2419 4116 
L 825 1625 
L 2419 1625 
L 2419 4116 
z
M 2253 4666 
L 3047 4666 
L 3047 1625 
L 3713 1625 
L 3713 1100 
L 3047 1100 
L 3047 0 
L 2419 0 
L 2419 1100 
L 313 1100 
L 313 1709 
L 2253 4666 
z
" transform="scale(0.015625)"/>
       </defs>
       <use xlink:href="#DejaVuSans-32"/>
       <use xlink:href="#DejaVuSans-30" x="63.623047"/>
       <use xlink:href="#DejaVuSans-32" x="127.246094"/>
       <use xlink:href="#DejaVuSans-34" x="190.869141"/>
       <use xlink:href="#DejaVuSans-2d" x="254.492188"/>
       <use xlink:href="#DejaVuSans-30" x="290.576172"/>
       <use xlink:href="#DejaVuSans-31" x="354.199219"/>
      </g>
     </g>
    </g>
    <g id="xtick_9">
     <g id="line2d_17">
      <path d="M 747.76574 320.4 
L 747.76574 43.2 
" clip-path="url(#p1765a6773b)" style="fill: none; stroke-dasharray: 5.12,1.28,0.8,1.28; stroke-dashoffset: 0; stroke: #b0b0b0; stroke-width: 0.8"/>
     </g>
     <g id="line2d_18">
      <g>
       <use xlink:href="#m33f823e1fc" x="747.76574" y="320.4" style="fill: #a9a9a9; stroke: #a9a9a9; stroke-width: 0.8"/>
      </g>
     </g>
     <g id="text_9">
      <!-- 2024-05 -->
      <g style="fill: #a9a9a9" transform="translate(726.874334 334.998438) scale(0.1 -0.1)">
       <use xlink:href="#DejaVuSans-32"/>
       <use xlink:href="#DejaVuSans-30" x="63.623047"/>
       <use xlink:href="#DejaVuSans-32" x="127.246094"/>
       <use xlink:href="#DejaVuSans-34" x="190.869141"/>
       <use xlink:href="#DejaVuSans-2d" x="254.492188"/>
       <use xlink:href="#DejaVuSans-30" x="290.576172"/>
       <use xlink:href="#DejaVuSans-35" x="354.199219"/>
      </g>
     </g>
    </g>
   </g>
   <g id="matplotlib.axis_2">
    <g id="ytick_1">
     <g id="line2d_19">
      <path d="M 108 307.841902 
L 777.6 307.841902 
" clip-path="url(#p1765a6773b)" style="fill: none; stroke-dasharray: 5.12,1.28,0.8,1.28; stroke-dashoffset: 0; stroke: #b0b0b0; stroke-width: 0.8"/>
     </g>
     <g id="line2d_20">
      <defs>
       <path id="m4f25185dfc" d="M 0 0 
L -3.5 0 
" style="stroke: #a9a9a9; stroke-width: 0.8"/>
      </defs>
      <g>
       <use xlink:href="#m4f25185dfc" x="108" y="307.841902" style="fill: #a9a9a9; stroke: #a9a9a9; stroke-width: 0.8"/>
      </g>
     </g>
     <g id="text_10">
      <!-- 0 -->
      <g style="fill: #a9a9a9" transform="translate(94.6375 311.641121) scale(0.1 -0.1)">
       <use xlink:href="#DejaVuSans-30"/>
      </g>
     </g>
    </g>
    <g id="ytick_2">
     <g id="line2d_21">
      <path d="M 108 274.32012 
L 777.6 274.32012 
" clip-path="url(#p1765a6773b)" style="fill: none; stroke-dasharray: 5.12,1.28,0.8,1.28; stroke-dashoffset: 0; stroke: #b0b0b0; stroke-width: 0.8"/>
     </g>
     <g id="line2d_22">
      <g>
       <use xlink:href="#m4f25185dfc" x="108" y="274.32012" style="fill: #a9a9a9; stroke: #a9a9a9; stroke-width: 0.8"/>
      </g>
     </g>
     <g id="text_11">
      <!-- 800 -->
      <g style="fill: #a9a9a9" transform="translate(81.9125 278.119338) scale(0.1 -0.1)">
       <defs>
        <path id="DejaVuSans-38" d="M 2034 2216 
Q 1584 2216 1326 1975 
Q 1069 1734 1069 1313 
Q 1069 891 1326 650 
Q 1584 409 2034 409 
Q 2484 409 2743 651 
Q 3003 894 3003 1313 
Q 3003 1734 2745 1975 
Q 2488 2216 2034 2216 
z
M 1403 2484 
Q 997 2584 770 2862 
Q 544 3141 544 3541 
Q 544 4100 942 4425 
Q 1341 4750 2034 4750 
Q 2731 4750 3128 4425 
Q 3525 4100 3525 3541 
Q 3525 3141 3298 2862 
Q 3072 2584 2669 2484 
Q 3125 2378 3379 2068 
Q 3634 1759 3634 1313 
Q 3634 634 3220 271 
Q 2806 -91 2034 -91 
Q 1263 -91 848 271 
Q 434 634 434 1313 
Q 434 1759 690 2068 
Q 947 2378 1403 2484 
z
M 1172 3481 
Q 1172 3119 1398 2916 
Q 1625 2713 2034 2713 
Q 2441 2713 2670 2916 
Q 2900 3119 2900 3481 
Q 2900 3844 2670 4047 
Q 2441 4250 2034 4250 
Q 1625 4250 1398 4047 
Q 1172 3844 1172 3481 
z
" transform="scale(0.015625)"/>
       </defs>
       <use xlink:href="#DejaVuSans-38"/>
       <use xlink:href="#DejaVuSans-30" x="63.623047"/>
       <use xlink:href="#DejaVuSans-30" x="127.246094"/>
      </g>
     </g>
    </g>
    <g id="ytick_3">
     <g id="line2d_23">
      <path d="M 108 240.798337 
L 777.6 240.798337 
" clip-path="url(#p1765a6773b)" style="fill: none; stroke-dasharray: 5.12,1.28,0.8,1.28; stroke-dashoffset: 0; stroke: #b0b0b0; stroke-width: 0.8"/>
     </g>
     <g id="line2d_24">
      <g>
       <use xlink:href="#m4f25185dfc" x="108" y="240.798337" style="fill: #a9a9a9; stroke: #a9a9a9; stroke-width: 0.8"/>
      </g>
     </g>
     <g id="text_12">
      <!-- 1600 -->
      <g style="fill: #a9a9a9" transform="translate(75.55 244.597556) scale(0.1 -0.1)">
       <defs>
        <path id="DejaVuSans-36" d="M 2113 2584 
Q 1688 2584 1439 2293 
Q 1191 2003 1191 1497 
Q 1191 994 1439 701 
Q 1688 409 2113 409 
Q 2538 409 2786 701 
Q 3034 994 3034 1497 
Q 3034 2003 2786 2293 
Q 2538 2584 2113 2584 
z
M 3366 4563 
L 3366 3988 
Q 3128 4100 2886 4159 
Q 2644 4219 2406 4219 
Q 1781 4219 1451 3797 
Q 1122 3375 1075 2522 
Q 1259 2794 1537 2939 
Q 1816 3084 2150 3084 
Q 2853 3084 3261 2657 
Q 3669 2231 3669 1497 
Q 3669 778 3244 343 
Q 2819 -91 2113 -91 
Q 1303 -91 875 529 
Q 447 1150 447 2328 
Q 447 3434 972 4092 
Q 1497 4750 2381 4750 
Q 2619 4750 2861 4703 
Q 3103 4656 3366 4563 
z
" transform="scale(0.015625)"/>
       </defs>
       <use xlink:href="#DejaVuSans-31"/>
       <use xlink:href="#DejaVuSans-36" x="63.623047"/>
       <use xlink:href="#DejaVuSans-30" x="127.246094"/>
       <use xlink:href="#DejaVuSans-30" x="190.869141"/>
      </g>
     </g>
    </g>
    <g id="ytick_4">
     <g id="line2d_25">
      <path d="M 108 207.276555 
L 777.6 207.276555 
" clip-path="url(#p1765a6773b)" style="fill: none; stroke-dasharray: 5.12,1.28,0.8,1.28; stroke-dashoffset: 0; stroke: #b0b0b0; stroke-width: 0.8"/>
     </g>
     <g id="line2d_26">
      <g>
       <use xlink:href="#m4f25185dfc" x="108" y="207.276555" style="fill: #a9a9a9; stroke: #a9a9a9; stroke-width: 0.8"/>
      </g>
     </g>
     <g id="text_13">
      <!-- 2400 -->
      <g style="fill: #a9a9a9" transform="translate(75.55 211.075773) scale(0.1 -0.1)">
       <use xlink:href="#DejaVuSans-32"/>
       <use xlink:href="#DejaVuSans-34" x="63.623047"/>
       <use xlink:href="#DejaVuSans-30" x="127.246094"/>
       <use xlink:href="#DejaVuSans-30" x="190.869141"/>
      </g>
     </g>
    </g>
    <g id="ytick_5">
     <g id="line2d_27">
      <path d="M 108 173.754772 
L 777.6 173.754772 
" clip-path="url(#p1765a6773b)" style="fill: none; stroke-dasharray: 5.12,1.28,0.8,1.28; stroke-dashoffset: 0; stroke: #b0b0b0; stroke-width: 0.8"/>
     </g>
     <g id="line2d_28">
      <g>
       <use xlink:href="#m4f25185dfc" x="108" y="173.754772" style="fill: #a9a9a9; stroke: #a9a9a9; stroke-width: 0.8"/>
      </g>
     </g>
     <g id="text_14">
      <!-- 3200 -->
      <g style="fill: #a9a9a9" transform="translate(75.55 177.553991) scale(0.1 -0.1)">
       <use xlink:href="#DejaVuSans-33"/>
       <use xlink:href="#DejaVuSans-32" x="63.623047"/>
       <use xlink:href="#DejaVuSans-30" x="127.246094"/>
       <use xlink:href="#DejaVuSans-30" x="190.869141"/>
      </g>
     </g>
    </g>
    <g id="ytick_6">
     <g id="line2d_29">
      <path d="M 108 140.23299 
L 777.6 140.23299 
" clip-path="url(#p1765a6773b)" style="fill: none; stroke-dasharray: 5.12,1.28,0.8,1.28; stroke-dashoffset: 0; stroke: #b0b0b0; stroke-width: 0.8"/>
     </g>
     <g id="line2d_30">
      <g>
       <use xlink:href="#m4f25185dfc" x="108" y="140.23299" style="fill: #a9a9a9; stroke: #a9a9a9; stroke-width: 0.8"/>
      </g>
     </g>
     <g id="text_15">
      <!-- 4000 -->
      <g style="fill: #a9a9a9" transform="translate(75.55 144.032208) scale(0.1 -0.1)">
       <use xlink:href="#DejaVuSans-34"/>
       <use xlink:href="#DejaVuSans-30" x="63.623047"/>
       <use xlink:href="#DejaVuSans-30" x="127.246094"/>
       <use xlink:href="#DejaVuSans-30" x="190.869141"/>
      </g>
     </g>
    </g>
    <g id="ytick_7">
     <g id="line2d_31">
      <path d="M 108 106.711207 
L 777.6 106.711207 
" clip-path="url(#p1765a6773b)" style="fill: none; stroke-dasharray: 5.12,1.28,0.8,1.28; stroke-dashoffset: 0; stroke: #b0b0b0; stroke-width: 0.8"/>
     </g>
     <g id="line2d_32">
      <g>
       <use xlink:href="#m4f25185dfc" x="108" y="106.711207" style="fill: #a9a9a9; stroke: #a9a9a9; stroke-width: 0.8"/>
      </g>
     </g>
     <g id="text_16">
      <!-- 4800 -->
      <g style="fill: #a9a9a9" transform="translate(75.55 110.510426) scale(0.1 -0.1)">
       <use xlink:href="#DejaVuSans-34"/>
       <use xlink:href="#DejaVuSans-38" x="63.623047"/>
       <use xlink:href="#DejaVuSans-30" x="127.246094"/>
       <use xlink:href="#DejaVuSans-30" x="190.869141"/>
      </g>
     </g>
    </g>
    <g id="ytick_8">
     <g id="line2d_33">
      <path d="M 108 73.189425 
L 777.6 73.189425 
" clip-path="url(#p1765a6773b)" style="fill: none; stroke-dasharray: 5.12,1.28,0.8,1.28; stroke-dashoffset: 0; stroke: #b0b0b0; stroke-width: 0.8"/>
     </g>
     <g id="line2d_34">
      <g>
       <use xlink:href="#m4f25185dfc" x="108" y="73.189425" style="fill: #a9a9a9; stroke: #a9a9a9; stroke-width: 0.8"/>
      </g>
     </g>
     <g id="text_17">
      <!-- 5600 -->
      <g style="fill: #a9a9a9" transform="translate(75.55 76.988643) scale(0.1 -0.1)">
       <use xlink:href="#DejaVuSans-35"/>
       <use xlink:href="#DejaVuSans-36" x="63.623047"/>
       <use xlink:href="#DejaVuSans-30" x="127.246094"/>
       <use xlink:href="#DejaVuSans-30" x="190.869141"/>
      </g>
     </g>
    </g>
   </g>
   <g id="line2d_35">
    <path d="M 138.436364 307.716196 
L 142.048988 307.42288 
L 142.651093 307.171467 
L 144.457405 306.961955 
L 148.07003 306.249618 
L 151.682654 305.956302 
L 152.284759 305.662986 
L 152.886863 305.495377 
L 153.488967 304.741137 
L 154.091071 304.322115 
L 154.693175 303.023146 
L 155.295279 302.939342 
L 155.897383 302.478417 
L 157.101592 301.891786 
L 159.510008 300.048088 
L 160.714216 299.545261 
L 161.31632 299.126239 
L 163.724737 298.078683 
L 164.326841 297.156834 
L 165.531049 296.318789 
L 166.133153 296.025474 
L 172.154195 295.187429 
L 172.756299 294.894114 
L 176.971028 294.558896 
L 178.77734 294.097971 
L 184.196277 293.385634 
L 184.798381 293.050416 
L 185.400486 292.966611 
L 186.00259 292.715198 
L 187.206798 292.505687 
L 187.808902 292.463785 
L 189.01311 292.212371 
L 189.615214 292.170469 
L 192.023631 291.583838 
L 193.829943 291.416229 
L 195.034152 291.290522 
L 195.636256 291.122913 
L 196.23836 291.081011 
L 198.044672 290.536282 
L 199.24888 290.452478 
L 200.453089 290.284869 
L 201.657297 290.033455 
L 202.259401 289.865846 
L 202.861505 289.069704 
L 204.667818 288.399268 
L 206.47413 287.938344 
L 207.076234 287.645028 
L 207.678338 287.603126 
L 210.688859 286.765081 
L 211.893067 286.681277 
L 212.495171 286.597473 
L 214.301484 286.052744 
L 216.7099 285.466112 
L 217.312004 285.214699 
L 217.914108 285.130895 
L 218.516213 284.837579 
L 224.537254 283.957632 
L 227.547774 283.119588 
L 228.149879 282.742468 
L 230.558295 282.113934 
L 232.966712 280.89877 
L 234.773024 280.479747 
L 235.375128 280.395943 
L 235.977232 280.102627 
L 237.181441 279.893116 
L 238.385649 279.348387 
L 241.396169 278.594147 
L 243.202482 278.133222 
L 243.804586 277.881809 
L 244.40669 277.756102 
L 245.008794 277.504689 
L 245.610898 277.420885 
L 246.213002 277.127569 
L 246.815107 276.95996 
L 248.019315 276.876156 
L 249.223523 276.457133 
L 250.427731 276.373329 
L 251.029835 276.080013 
L 252.234044 275.912404 
L 252.836148 275.702893 
L 254.040356 275.660991 
L 256.448773 275.367675 
L 257.652981 274.781044 
L 264.276126 271.973595 
L 264.87823 271.638377 
L 265.480335 271.009844 
L 266.684543 269.24995 
L 267.286647 269.082341 
L 267.888751 269.082341 
L 269.092959 268.202394 
L 269.695063 268.034786 
L 270.297168 267.74147 
L 270.899272 267.615763 
L 271.501376 267.071034 
L 272.10348 266.903425 
L 273.909792 266.023479 
L 275.114001 264.347389 
L 275.716105 263.970269 
L 276.318209 262.964616 
L 276.920313 262.336082 
L 277.522417 262.042767 
L 278.124521 261.875158 
L 280.532938 260.450482 
L 281.737146 259.486731 
L 282.33925 259.109611 
L 282.941354 258.229664 
L 283.543458 256.888793 
L 284.145562 256.008846 
L 284.747667 255.547922 
L 285.349771 255.296508 
L 287.758187 253.201397 
L 288.962395 252.237645 
L 289.5645 251.734819 
L 290.166604 250.938676 
L 291.370812 249.891121 
L 293.779228 248.340738 
L 294.381333 247.837912 
L 294.983437 247.712205 
L 295.585541 247.460791 
L 297.391853 246.455138 
L 299.198166 245.323778 
L 301.004478 243.563884 
L 301.606582 243.186764 
L 302.208686 243.019155 
L 302.81079 242.72584 
L 304.014999 241.929697 
L 304.617103 241.59448 
L 305.219207 241.510675 
L 310.03604 238.619421 
L 311.842352 237.65567 
L 312.444456 237.110941 
L 314.852873 236.356701 
L 315.454977 235.937679 
L 316.057081 235.811972 
L 317.261289 235.39295 
L 319.067602 234.680612 
L 320.873914 234.010176 
L 322.078122 233.800665 
L 323.282331 232.753109 
L 325.088643 231.915065 
L 326.292851 231.202727 
L 327.49706 230.867509 
L 328.099164 230.490389 
L 328.701268 230.32278 
L 330.50758 229.19142 
L 333.518101 228.479082 
L 335.324413 227.431526 
L 335.926517 227.347722 
L 336.528622 227.138211 
L 337.73283 226.886797 
L 339.539142 225.545926 
L 341.345455 225.126904 
L 341.947559 224.917393 
L 342.549663 224.456468 
L 346.162288 223.283206 
L 346.764392 223.241304 
L 347.366496 223.073695 
L 348.570704 222.570868 
L 352.785433 221.10429 
L 353.989641 220.936681 
L 354.591745 220.769072 
L 355.193849 220.475757 
L 355.795954 220.35005 
L 357.602266 219.512005 
L 359.408578 218.632059 
L 360.010682 218.213036 
L 360.612787 218.045427 
L 362.419099 217.081676 
L 363.623307 216.78836 
L 364.827516 216.159827 
L 366.031724 215.824609 
L 366.633828 215.740805 
L 367.838036 215.028467 
L 368.44014 214.90276 
L 369.644349 214.399933 
L 370.246453 214.274227 
L 370.848557 213.939009 
L 373.256973 213.561889 
L 374.461182 212.975258 
L 375.063286 212.472431 
L 375.66539 211.424875 
L 377.471702 211.089657 
L 379.880119 209.832591 
L 380.482223 209.706884 
L 384.696952 207.695577 
L 385.90116 207.360359 
L 387.105368 207.108946 
L 388.309576 206.522315 
L 388.911681 206.270901 
L 389.513785 206.187097 
L 391.922201 205.139541 
L 393.728514 204.008181 
L 394.330618 203.924376 
L 394.932722 203.714865 
L 395.534826 203.672963 
L 397.943243 203.002527 
L 398.545347 202.960625 
L 399.147451 202.499701 
L 400.351659 202.080678 
L 402.157971 201.494047 
L 402.760076 201.116927 
L 403.36218 200.949318 
L 403.964284 200.530296 
L 404.566388 200.278883 
L 405.770596 199.650349 
L 408.179013 198.938011 
L 408.781117 198.644696 
L 410.587429 197.261922 
L 411.189533 197.136215 
L 412.393742 196.214366 
L 412.995846 196.08866 
L 413.59795 195.166811 
L 414.200054 194.915397 
L 414.802158 194.454473 
L 415.404262 194.370668 
L 416.60847 193.658331 
L 417.210575 193.532624 
L 417.812679 193.281211 
L 418.414783 192.820286 
L 419.016887 192.610775 
L 420.823199 191.39561 
L 423.231616 190.180446 
L 423.83372 190.096641 
L 425.037928 189.551912 
L 425.640032 189.216694 
L 426.242136 188.211041 
L 426.844241 187.666312 
L 427.446345 187.331094 
L 428.048449 187.205387 
L 429.252657 186.451147 
L 429.854761 186.325441 
L 431.05897 185.738809 
L 432.865282 184.984569 
L 434.06949 184.146525 
L 435.273698 182.889458 
L 438.284219 180.710542 
L 439.488427 179.746791 
L 440.090531 179.495377 
L 440.692636 178.824942 
L 441.29474 178.364017 
L 442.498948 177.944995 
L 443.703156 177.148853 
L 444.30526 176.855537 
L 444.907364 176.687928 
L 445.509469 176.268906 
L 446.111573 176.185101 
L 447.917885 175.22135 
L 449.122093 174.509012 
L 455.143135 172.371999 
L 455.745239 171.82727 
L 457.551551 171.156834 
L 458.755759 170.779714 
L 459.357864 170.318789 
L 461.76628 169.061723 
L 462.368384 168.726505 
L 463.572592 166.37998 
L 464.776801 164.955304 
L 465.981009 164.242966 
L 467.787321 163.530629 
L 468.389425 163.446824 
L 468.99153 163.111606 
L 470.797842 162.566877 
L 473.206258 161.477419 
L 473.808363 161.100299 
L 475.012571 160.681277 
L 478.625196 158.586166 
L 479.2273 157.957632 
L 480.431508 157.329099 
L 484.044133 155.443499 
L 484.646237 155.192085 
L 485.248341 154.814965 
L 485.850445 154.689258 
L 486.452549 154.228334 
L 489.46307 153.264583 
L 490.065174 153.096974 
L 490.667278 152.803658 
L 491.269382 152.384636 
L 492.473591 152.049418 
L 493.677799 151.588494 
L 494.279903 151.127569 
L 495.484111 150.750449 
L 496.086215 150.457133 
L 496.688319 150.289524 
L 497.892528 149.45148 
L 499.096736 148.948653 
L 500.300944 148.026804 
L 501.505152 147.607782 
L 502.107257 147.104955 
L 502.709361 147.021151 
L 503.913569 146.141204 
L 505.117777 145.554573 
L 505.719881 145.303159 
L 506.321985 144.716528 
L 509.93461 143.417559 
L 511.740923 142.621417 
L 513.547235 142.076688 
L 514.751443 141.909079 
L 515.353547 141.657665 
L 515.955651 141.573861 
L 517.15986 141.071034 
L 517.761964 141.029132 
L 520.17038 140.149185 
L 521.976693 138.934021 
L 522.578797 138.682607 
L 523.783005 138.054074 
L 524.385109 137.844563 
L 527.997734 135.875158 
L 528.599838 135.749451 
L 530.406151 134.743798 
L 532.212463 134.157167 
L 532.814567 133.905753 
L 534.018775 133.612438 
L 537.029296 132.648686 
L 538.835608 132.355371 
L 541.244025 131.601131 
L 541.846129 131.349717 
L 542.448233 131.265913 
L 543.050337 130.972597 
L 544.254545 130.721184 
L 545.458754 130.302162 
L 546.060858 130.09265 
L 547.265066 129.966944 
L 548.469274 129.673628 
L 550.275587 129.380313 
L 550.877691 129.170801 
L 552.081899 129.045095 
L 555.09242 128.290855 
L 556.296628 127.997539 
L 556.898732 127.662321 
L 559.909253 126.908081 
L 560.511357 126.782374 
L 561.715565 126.363352 
L 563.521878 125.734819 
L 564.123982 125.651014 
L 565.930294 125.022481 
L 566.532398 125.022481 
L 567.736606 124.603459 
L 568.338711 124.016827 
L 568.940815 123.723512 
L 570.145023 123.346392 
L 572.553439 122.424543 
L 573.155544 122.298836 
L 573.757648 121.921716 
L 574.359752 121.796009 
L 574.961856 121.460791 
L 577.972377 120.580845 
L 578.574481 120.203725 
L 579.176585 120.078018 
L 579.778689 119.575191 
L 581.585001 119.239973 
L 582.78921 118.569538 
L 583.391314 117.899102 
L 584.595522 117.647689 
L 588.810251 116.683937 
L 589.412355 116.516329 
L 590.616563 116.474426 
L 591.218667 116.181111 
L 593.627084 115.762088 
L 594.229188 115.510675 
L 596.0355 115.259262 
L 598.443917 114.505022 
L 600.250229 114.085999 
L 602.056542 113.625075 
L 603.862854 113.080346 
L 606.873375 112.200399 
L 608.077583 111.65567 
L 609.281791 111.236648 
L 609.883895 110.775723 
L 611.088104 110.440505 
L 611.690208 110.189092 
L 612.894416 109.853874 
L 615.302832 108.764416 
L 617.109145 108.63871 
L 619.517561 107.968274 
L 620.119665 107.591154 
L 621.323874 107.255936 
L 623.130186 106.334087 
L 623.73229 106.20838 
L 624.334394 105.915065 
L 624.936499 105.873163 
L 631.559644 103.652345 
L 633.96806 103.065713 
L 634.570165 102.898104 
L 635.774373 102.353375 
L 636.376477 102.269571 
L 637.580685 101.934353 
L 638.182789 101.473429 
L 638.784893 101.180113 
L 639.386998 100.467775 
L 639.989102 100.048753 
L 641.19331 99.671633 
L 641.795414 99.210708 
L 646.612247 97.241304 
L 647.214351 97.073695 
L 647.816455 96.696575 
L 650.224872 95.984237 
L 651.42908 95.397606 
L 652.633288 94.685268 
L 653.235393 94.559561 
L 654.439601 93.847223 
L 655.041705 93.59581 
L 656.245913 92.84157 
L 658.052226 92.003525 
L 658.65433 91.584503 
L 659.858538 91.165481 
L 661.062746 90.453143 
L 661.66485 90.243632 
L 662.266954 89.824609 
L 663.471163 89.405587 
L 664.073267 89.27988 
L 666.481683 88.190422 
L 669.492204 87.142867 
L 670.094308 87.100964 
L 670.696412 86.933356 
L 671.298516 86.556235 
L 671.90062 86.472431 
L 672.502725 86.26292 
L 674.309037 85.927702 
L 678.523766 83.790688 
L 679.12587 83.706884 
L 680.932182 82.743133 
L 682.738495 82.072697 
L 684.544807 81.276555 
L 686.953224 80.312803 
L 687.555328 80.145195 
L 688.157432 79.768074 
L 689.36164 79.600466 
L 689.963744 79.223346 
L 690.565848 79.181443 
L 691.770057 78.804323 
L 692.974265 78.217692 
L 693.576369 78.133888 
L 694.178473 77.882474 
L 694.780577 77.756768 
L 696.58689 76.960625 
L 697.188994 76.834919 
L 697.791098 76.583505 
L 700.801619 75.871167 
L 702.607931 75.200732 
L 705.016347 73.817958 
L 706.220556 73.357034 
L 706.82266 72.979914 
L 708.026868 72.7285 
L 708.628972 72.393282 
L 709.231076 72.267576 
L 710.435285 71.59714 
L 714.047909 69.921051 
L 715.854222 69.33442 
L 717.05843 68.915397 
L 717.660534 68.705886 
L 718.864742 68.119255 
L 720.068951 67.742135 
L 720.671055 67.616428 
L 721.875263 67.071699 
L 722.477367 66.862188 
L 723.079471 66.52697 
L 723.681575 66.443166 
L 724.28368 66.233655 
L 725.487888 65.563219 
L 727.896304 64.473761 
L 729.100513 64.054739 
L 730.304721 63.426206 
L 730.906825 63.342401 
L 733.917346 62.043432 
L 734.51945 61.62441 
L 736.927866 60.828267 
L 737.52997 60.828267 
L 738.734179 60.283538 
L 739.336283 59.822614 
L 739.938387 59.152178 
L 740.540491 58.649352 
L 741.142595 58.356036 
L 741.744699 58.188427 
L 742.346803 57.811307 
L 742.948907 57.6856 
L 743.551012 57.392285 
L 744.153116 57.30848 
L 744.75522 56.889458 
L 745.357324 56.763751 
L 745.959428 56.470436 
L 746.561532 56.051413 
L 747.163636 55.8 
L 747.163636 55.8 
" clip-path="url(#p1765a6773b)" style="fill: none; stroke: #1f77b4; stroke-width: 1.5; stroke-linecap: square"/>
   </g>
   <g id="line2d_36">
    <path d="M 139.038468 307.8 
L 140.84478 307.716196 
L 142.651093 307.674293 
L 146.263717 307.590489 
L 149.274238 307.464782 
L 151.682654 307.464782 
L 152.284759 307.297173 
L 154.693175 307.213369 
L 156.499487 307.003858 
L 158.3058 306.836249 
L 161.918425 306.66864 
L 162.520529 306.66864 
L 163.122633 306.542933 
L 165.531049 306.459129 
L 166.735258 306.375324 
L 171.552091 306.29152 
L 174.562611 306.165813 
L 181.787861 306.082009 
L 184.798381 305.956302 
L 188.411006 305.872498 
L 190.819423 305.788693 
L 196.23836 305.704889 
L 198.044672 305.662986 
L 199.850985 305.621084 
L 201.657297 305.411573 
L 205.269922 305.369671 
L 206.47413 305.285866 
L 210.688859 305.202062 
L 217.312004 304.824942 
L 221.526733 304.741137 
L 222.730941 304.657333 
L 224.537254 304.573528 
L 228.149879 304.40592 
L 230.558295 304.364017 
L 232.364607 304.196408 
L 240.191961 303.735484 
L 243.202482 303.651679 
L 248.621419 303.358364 
L 250.427731 303.274559 
L 256.448773 302.939342 
L 263.071918 302.855537 
L 265.480335 302.604124 
L 266.684543 302.520319 
L 274.511896 301.891786 
L 278.124521 301.430861 
L 280.532938 301.347057 
L 285.349771 300.718523 
L 288.962395 300.634719 
L 290.768708 300.46711 
L 291.972916 300.425208 
L 293.177124 300.299501 
L 294.983437 300.215697 
L 296.187645 300.048088 
L 299.198166 299.71287 
L 301.606582 299.629066 
L 302.81079 299.545261 
L 305.219207 299.461457 
L 306.423415 299.377652 
L 309.433936 299.084337 
L 310.03604 298.916728 
L 313.648665 298.749119 
L 316.659185 298.665314 
L 324.486539 298.20439 
L 326.292851 298.120585 
L 334.120205 297.659661 
L 338.334934 297.575856 
L 338.937038 297.45015 
L 343.753871 297.366345 
L 347.9686 297.156834 
L 354.591745 297.07303 
L 358.806474 296.863518 
L 363.623307 296.779714 
L 368.44014 296.528301 
L 372.654869 296.444496 
L 384.094848 295.732158 
L 388.911681 295.648354 
L 404.566388 294.6427 
L 408.179013 294.558896 
L 409.985325 294.516994 
L 411.791637 294.475091 
L 413.59795 294.307483 
L 418.414783 294.223678 
L 419.618991 294.014167 
L 420.823199 293.930362 
L 423.83372 293.804656 
L 425.037928 293.720851 
L 426.242136 293.637047 
L 431.661074 293.553242 
L 432.865282 293.427536 
L 435.273698 293.385634 
L 435.875803 293.259927 
L 437.080011 293.176122 
L 437.682115 293.050416 
L 439.488427 292.966611 
L 449.122093 292.37998 
L 451.53051 292.296176 
L 454.54103 292.170469 
L 462.970488 292.086664 
L 467.185217 291.877153 
L 472.00205 291.793349 
L 474.410467 291.709544 
L 476.818883 291.667642 
L 478.023091 291.541935 
L 480.431508 291.458131 
L 486.452549 291.122913 
L 490.065174 291.081011 
L 491.871486 290.913402 
L 493.677799 290.8715 
L 497.892528 290.787695 
L 500.300944 290.703891 
L 507.526194 290.620086 
L 510.536714 290.49438 
L 514.149339 290.410575 
L 515.955651 290.201064 
L 519.568276 290.159162 
L 521.374589 289.991553 
L 523.783005 289.907749 
L 531.008255 289.823944 
L 534.018775 289.698237 
L 544.254545 289.656335 
L 545.458754 289.572531 
L 547.265066 289.530629 
L 555.09242 289.446824 
L 556.296628 289.36302 
L 562.919773 289.279215 
L 565.32819 289.195411 
L 572.553439 289.153508 
L 573.757648 289.069704 
L 582.78921 289.027802 
L 584.595522 288.860193 
L 599.648125 288.776388 
L 601.454438 288.734486 
L 617.711249 288.650682 
L 620.119665 288.566877 
L 630.355436 288.483073 
L 631.559644 288.399268 
L 634.570165 288.315464 
L 636.376477 288.147855 
L 639.386998 288.064051 
L 641.795414 287.980246 
L 645.408039 287.896442 
L 647.214351 287.854539 
L 649.622768 287.770735 
L 651.42908 287.728833 
L 654.439601 287.645028 
L 655.643809 287.561224 
L 659.256434 287.477419 
L 662.266954 287.351713 
L 663.471163 287.30981 
L 664.675371 287.226006 
L 666.481683 287.184104 
L 668.8901 287.100299 
L 671.298516 287.016495 
L 679.12587 286.93269 
L 681.534286 286.848886 
L 686.35112 286.765081 
L 690.565848 286.55557 
L 695.984786 286.471766 
L 697.188994 286.387961 
L 708.026868 286.304157 
L 709.83318 286.262255 
L 712.843701 286.220353 
L 715.252118 285.968939 
L 717.05843 285.927037 
L 720.671055 285.843232 
L 727.2942 285.466112 
L 729.702617 285.382308 
L 732.111033 285.298503 
L 735.723658 285.214699 
L 736.927866 285.130895 
L 739.336283 285.04709 
L 741.744699 284.795677 
L 744.153116 284.711872 
L 746.561532 284.628068 
L 747.163636 284.586166 
L 747.163636 284.586166 
" clip-path="url(#p1765a6773b)" style="fill: none; stroke: #ff7f0e; stroke-width: 1.5; stroke-linecap: square"/>
   </g>
   <g id="patch_3">
    <path d="M 108 320.4 
L 108 43.2 
" style="fill: none; stroke: #a9a9a9; stroke-width: 0.8; stroke-linejoin: miter; stroke-linecap: square"/>
   </g>
   <g id="patch_4">
    <path d="M 777.6 320.4 
L 777.6 43.2 
" style="fill: none"/>
   </g>
   <g id="patch_5">
    <path d="M 108 320.4 
L 777.6 320.4 
" style="fill: none; stroke: #a9a9a9; stroke-width: 0.8; stroke-linejoin: miter; stroke-linecap: square"/>
   </g>
   <g id="patch_6">
    <path d="M 108 43.2 
L 777.6 43.2 
" style="fill: none"/>
   </g>
   <g id="text_18">
    <!-- get_subscribe history -->
    <g style="fill: #a9a9a9" transform="translate(378.6075 37.2) scale(0.12 -0.12)">
     <defs>
      <path id="DejaVuSans-67" d="M 2906 1791 
Q 2906 2416 2648 2759 
Q 2391 3103 1925 3103 
Q 1463 3103 1205 2759 
Q 947 2416 947 1791 
Q 947 1169 1205 825 
Q 1463 481 1925 481 
Q 2391 481 2648 825 
Q 2906 1169 2906 1791 
z
M 3481 434 
Q 3481 -459 3084 -895 
Q 2688 -1331 1869 -1331 
Q 1566 -1331 1297 -1286 
Q 1028 -1241 775 -1147 
L 775 -588 
Q 1028 -725 1275 -790 
Q 1522 -856 1778 -856 
Q 2344 -856 2625 -561 
Q 2906 -266 2906 331 
L 2906 616 
Q 2728 306 2450 153 
Q 2172 0 1784 0 
Q 1141 0 747 490 
Q 353 981 353 1791 
Q 353 2603 747 3093 
Q 1141 3584 1784 3584 
Q 2172 3584 2450 3431 
Q 2728 3278 2906 2969 
L 2906 3500 
L 3481 3500 
L 3481 434 
z
" transform="scale(0.015625)"/>
      <path id="DejaVuSans-65" d="M 3597 1894 
L 3597 1613 
L 953 1613 
Q 991 1019 1311 708 
Q 1631 397 2203 397 
Q 2534 397 2845 478 
Q 3156 559 3463 722 
L 3463 178 
Q 3153 47 2828 -22 
Q 2503 -91 2169 -91 
Q 1331 -91 842 396 
Q 353 884 353 1716 
Q 353 2575 817 3079 
Q 1281 3584 2069 3584 
Q 2775 3584 3186 3129 
Q 3597 2675 3597 1894 
z
M 3022 2063 
Q 3016 2534 2758 2815 
Q 2500 3097 2075 3097 
Q 1594 3097 1305 2825 
Q 1016 2553 972 2059 
L 3022 2063 
z
" transform="scale(0.015625)"/>
      <path id="DejaVuSans-74" d="M 1172 4494 
L 1172 3500 
L 2356 3500 
L 2356 3053 
L 1172 3053 
L 1172 1153 
Q 1172 725 1289 603 
Q 1406 481 1766 481 
L 2356 481 
L 2356 0 
L 1766 0 
Q 1100 0 847 248 
Q 594 497 594 1153 
L 594 3053 
L 172 3053 
L 172 3500 
L 594 3500 
L 594 4494 
L 1172 4494 
z
" transform="scale(0.015625)"/>
      <path id="DejaVuSans-5f" d="M 3263 -1063 
L 3263 -1509 
L -63 -1509 
L -63 -1063 
L 3263 -1063 
z
" transform="scale(0.015625)"/>
      <path id="DejaVuSans-73" d="M 2834 3397 
L 2834 2853 
Q 2591 2978 2328 3040 
Q 2066 3103 1784 3103 
Q 1356 3103 1142 2972 
Q 928 2841 928 2578 
Q 928 2378 1081 2264 
Q 1234 2150 1697 2047 
L 1894 2003 
Q 2506 1872 2764 1633 
Q 3022 1394 3022 966 
Q 3022 478 2636 193 
Q 2250 -91 1575 -91 
Q 1294 -91 989 -36 
Q 684 19 347 128 
L 347 722 
Q 666 556 975 473 
Q 1284 391 1588 391 
Q 1994 391 2212 530 
Q 2431 669 2431 922 
Q 2431 1156 2273 1281 
Q 2116 1406 1581 1522 
L 1381 1569 
Q 847 1681 609 1914 
Q 372 2147 372 2553 
Q 372 3047 722 3315 
Q 1072 3584 1716 3584 
Q 2034 3584 2315 3537 
Q 2597 3491 2834 3397 
z
" transform="scale(0.015625)"/>
      <path id="DejaVuSans-75" d="M 544 1381 
L 544 3500 
L 1119 3500 
L 1119 1403 
Q 1119 906 1312 657 
Q 1506 409 1894 409 
Q 2359 409 2629 706 
Q 2900 1003 2900 1516 
L 2900 3500 
L 3475 3500 
L 3475 0 
L 2900 0 
L 2900 538 
Q 2691 219 2414 64 
Q 2138 -91 1772 -91 
Q 1169 -91 856 284 
Q 544 659 544 1381 
z
M 1991 3584 
L 1991 3584 
z
" transform="scale(0.015625)"/>
      <path id="DejaVuSans-62" d="M 3116 1747 
Q 3116 2381 2855 2742 
Q 2594 3103 2138 3103 
Q 1681 3103 1420 2742 
Q 1159 2381 1159 1747 
Q 1159 1113 1420 752 
Q 1681 391 2138 391 
Q 2594 391 2855 752 
Q 3116 1113 3116 1747 
z
M 1159 2969 
Q 1341 3281 1617 3432 
Q 1894 3584 2278 3584 
Q 2916 3584 3314 3078 
Q 3713 2572 3713 1747 
Q 3713 922 3314 415 
Q 2916 -91 2278 -91 
Q 1894 -91 1617 61 
Q 1341 213 1159 525 
L 1159 0 
L 581 0 
L 581 4863 
L 1159 4863 
L 1159 2969 
z
" transform="scale(0.015625)"/>
      <path id="DejaVuSans-63" d="M 3122 3366 
L 3122 2828 
Q 2878 2963 2633 3030 
Q 2388 3097 2138 3097 
Q 1578 3097 1268 2742 
Q 959 2388 959 1747 
Q 959 1106 1268 751 
Q 1578 397 2138 397 
Q 2388 397 2633 464 
Q 2878 531 3122 666 
L 3122 134 
Q 2881 22 2623 -34 
Q 2366 -91 2075 -91 
Q 1284 -91 818 406 
Q 353 903 353 1747 
Q 353 2603 823 3093 
Q 1294 3584 2113 3584 
Q 2378 3584 2631 3529 
Q 2884 3475 3122 3366 
z
" transform="scale(0.015625)"/>
      <path id="DejaVuSans-72" d="M 2631 2963 
Q 2534 3019 2420 3045 
Q 2306 3072 2169 3072 
Q 1681 3072 1420 2755 
Q 1159 2438 1159 1844 
L 1159 0 
L 581 0 
L 581 3500 
L 1159 3500 
L 1159 2956 
Q 1341 3275 1631 3429 
Q 1922 3584 2338 3584 
Q 2397 3584 2469 3576 
Q 2541 3569 2628 3553 
L 2631 2963 
z
" transform="scale(0.015625)"/>
      <path id="DejaVuSans-69" d="M 603 3500 
L 1178 3500 
L 1178 0 
L 603 0 
L 603 3500 
z
M 603 4863 
L 1178 4863 
L 1178 4134 
L 603 4134 
L 603 4863 
z
" transform="scale(0.015625)"/>
      <path id="DejaVuSans-20" transform="scale(0.015625)"/>
      <path id="DejaVuSans-68" d="M 3513 2113 
L 3513 0 
L 2938 0 
L 2938 2094 
Q 2938 2591 2744 2837 
Q 2550 3084 2163 3084 
Q 1697 3084 1428 2787 
Q 1159 2491 1159 1978 
L 1159 0 
L 581 0 
L 581 4863 
L 1159 4863 
L 1159 2956 
Q 1366 3272 1645 3428 
Q 1925 3584 2291 3584 
Q 2894 3584 3203 3211 
Q 3513 2838 3513 2113 
z
" transform="scale(0.015625)"/>
      <path id="DejaVuSans-6f" d="M 1959 3097 
Q 1497 3097 1228 2736 
Q 959 2375 959 1747 
Q 959 1119 1226 758 
Q 1494 397 1959 397 
Q 2419 397 2687 759 
Q 2956 1122 2956 1747 
Q 2956 2369 2687 2733 
Q 2419 3097 1959 3097 
z
M 1959 3584 
Q 2709 3584 3137 3096 
Q 3566 2609 3566 1747 
Q 3566 888 3137 398 
Q 2709 -91 1959 -91 
Q 1206 -91 779 398 
Q 353 888 353 1747 
Q 353 2609 779 3096 
Q 1206 3584 1959 3584 
z
" transform="scale(0.015625)"/>
      <path id="DejaVuSans-79" d="M 2059 -325 
Q 1816 -950 1584 -1140 
Q 1353 -1331 966 -1331 
L 506 -1331 
L 506 -850 
L 844 -850 
Q 1081 -850 1212 -737 
Q 1344 -625 1503 -206 
L 1606 56 
L 191 3500 
L 800 3500 
L 1894 763 
L 2988 3500 
L 3597 3500 
L 2059 -325 
z
" transform="scale(0.015625)"/>
     </defs>
     <use xlink:href="#DejaVuSans-67"/>
     <use xlink:href="#DejaVuSans-65" x="63.476562"/>
     <use xlink:href="#DejaVuSans-74" x="125"/>
     <use xlink:href="#DejaVuSans-5f" x="164.208984"/>
     <use xlink:href="#DejaVuSans-73" x="214.208984"/>
     <use xlink:href="#DejaVuSans-75" x="266.308594"/>
     <use xlink:href="#DejaVuSans-62" x="329.6875"/>
     <use xlink:href="#DejaVuSans-73" x="393.164062"/>
     <use xlink:href="#DejaVuSans-63" x="445.263672"/>
     <use xlink:href="#DejaVuSans-72" x="500.244141"/>
     <use xlink:href="#DejaVuSans-69" x="541.357422"/>
     <use xlink:href="#DejaVuSans-62" x="569.140625"/>
     <use xlink:href="#DejaVuSans-65" x="632.617188"/>
     <use xlink:href="#DejaVuSans-20" x="694.140625"/>
     <use xlink:href="#DejaVuSans-68" x="725.927734"/>
     <use xlink:href="#DejaVuSans-69" x="789.306641"/>
     <use xlink:href="#DejaVuSans-73" x="817.089844"/>
     <use xlink:href="#DejaVuSans-74" x="869.189453"/>
     <use xlink:href="#DejaVuSans-6f" x="908.398438"/>
     <use xlink:href="#DejaVuSans-72" x="969.580078"/>
     <use xlink:href="#DejaVuSans-79" x="1010.693359"/>
    </g>
   </g>
   <g id="legend_1">
    <g id="line2d_37">
     <path d="M 815.08 328.498438 
L 825.08 328.498438 
L 835.08 328.498438 
" style="fill: none; stroke: #1f77b4; stroke-width: 1.5; stroke-linecap: square"/>
    </g>
    <g id="text_19">
     <!-- star -->
     <g style="fill: #a9a9a9" transform="translate(843.08 331.998438) scale(0.1 -0.1)">
      <defs>
       <path id="DejaVuSans-61" d="M 2194 1759 
Q 1497 1759 1228 1600 
Q 959 1441 959 1056 
Q 959 750 1161 570 
Q 1363 391 1709 391 
Q 2188 391 2477 730 
Q 2766 1069 2766 1631 
L 2766 1759 
L 2194 1759 
z
M 3341 1997 
L 3341 0 
L 2766 0 
L 2766 531 
Q 2569 213 2275 61 
Q 1981 -91 1556 -91 
Q 1019 -91 701 211 
Q 384 513 384 1019 
Q 384 1609 779 1909 
Q 1175 2209 1959 2209 
L 2766 2209 
L 2766 2266 
Q 2766 2663 2505 2880 
Q 2244 3097 1772 3097 
Q 1472 3097 1187 3025 
Q 903 2953 641 2809 
L 641 3341 
Q 956 3463 1253 3523 
Q 1550 3584 1831 3584 
Q 2591 3584 2966 3190 
Q 3341 2797 3341 1997 
z
" transform="scale(0.015625)"/>
      </defs>
      <use xlink:href="#DejaVuSans-73"/>
      <use xlink:href="#DejaVuSans-74" x="52.099609"/>
      <use xlink:href="#DejaVuSans-61" x="91.308594"/>
      <use xlink:href="#DejaVuSans-72" x="152.587891"/>
     </g>
    </g>
    <g id="line2d_38">
     <path d="M 815.08 343.176562 
L 825.08 343.176562 
L 835.08 343.176562 
" style="fill: none; stroke: #ff7f0e; stroke-width: 1.5; stroke-linecap: square"/>
    </g>
    <g id="text_20">
     <!-- fork -->
     <g style="fill: #a9a9a9" transform="translate(843.08 346.676562) scale(0.1 -0.1)">
      <defs>
       <path id="DejaVuSans-66" d="M 2375 4863 
L 2375 4384 
L 1825 4384 
Q 1516 4384 1395 4259 
Q 1275 4134 1275 3809 
L 1275 3500 
L 2222 3500 
L 2222 3053 
L 1275 3053 
L 1275 0 
L 697 0 
L 697 3053 
L 147 3053 
L 147 3500 
L 697 3500 
L 697 3744 
Q 697 4328 969 4595 
Q 1241 4863 1831 4863 
L 2375 4863 
z
" transform="scale(0.015625)"/>
       <path id="DejaVuSans-6b" d="M 581 4863 
L 1159 4863 
L 1159 1991 
L 2875 3500 
L 3609 3500 
L 1753 1863 
L 3688 0 
L 2938 0 
L 1159 1709 
L 1159 0 
L 581 0 
L 581 4863 
z
" transform="scale(0.015625)"/>
      </defs>
      <use xlink:href="#DejaVuSans-66"/>
      <use xlink:href="#DejaVuSans-6f" x="35.205078"/>
      <use xlink:href="#DejaVuSans-72" x="96.386719"/>
      <use xlink:href="#DejaVuSans-6b" x="137.5"/>
     </g>
    </g>
   </g>
  </g>
 </g>
 <defs>
  <clipPath id="p1765a6773b">
   <rect x="108" y="43.2" width="669.6" height="277.2"/>
  </clipPath>
 </defs>
</svg>
