<?xml version="1.0" encoding="utf-8" standalone="no"?>
<!DOCTYPE svg PUBLIC "-//W3C//DTD SVG 1.1//EN"
  "http://www.w3.org/Graphics/SVG/1.1/DTD/svg11.dtd">
<svg xmlns:xlink="http://www.w3.org/1999/xlink" width="864pt" height="360pt" viewBox="0 0 864 360" xmlns="http://www.w3.org/2000/svg" version="1.1">
 <metadata>
  <rdf:RDF xmlns:dc="http://purl.org/dc/elements/1.1/" xmlns:cc="http://creativecommons.org/ns#" xmlns:rdf="http://www.w3.org/1999/02/22-rdf-syntax-ns#">
   <cc:Work>
    <dc:type rdf:resource="http://purl.org/dc/dcmitype/StillImage"/>
    <dc:date>2024-05-05T20:04:36.321987</dc:date>
    <dc:format>image/svg+xml</dc:format>
    <dc:creator>
     <cc:Agent>
      <dc:title>Matplotlib v3.8.4, https://matplotlib.org/</dc:title>
     </cc:Agent>
    </dc:creator>
   </cc:Work>
  </rdf:RDF>
 </metadata>
 <defs>
  <style type="text/css">*{stroke-linejoin: round; stroke-linecap: butt}</style>
 </defs>
 <g id="figure_1">
  <g id="patch_1">
   <path d="M 0 360 
L 864 360 
L 864 0 
L 0 0 
L 0 360 
z
" style="fill: none; opacity: 0"/>
  </g>
  <g id="axes_1">
   <g id="patch_2">
    <path d="M 108 320.4 
L 777.6 320.4 
L 777.6 43.2 
L 108 43.2 
L 108 320.4 
z
" style="fill: none; opacity: 0"/>
   </g>
   <g id="matplotlib.axis_1">
    <g id="xtick_1">
     <g id="line2d_1">
      <path d="M 161.802863 320.4 
L 161.802863 43.2 
" clip-path="url(#paa89d77aa1)" style="fill: none; stroke-dasharray: 5.12,1.28,0.8,1.28; stroke-dashoffset: 0; stroke: #b0b0b0; stroke-width: 0.8"/>
     </g>
     <g id="line2d_2">
      <defs>
       <path id="mb868471de0" d="M 0 0 
L 0 3.5 
" style="stroke: #a9a9a9; stroke-width: 0.8"/>
      </defs>
      <g>
       <use xlink:href="#mb868471de0" x="161.802863" y="320.4" style="fill: #a9a9a9; stroke: #a9a9a9; stroke-width: 0.8"/>
      </g>
     </g>
     <g id="text_1">
      <!-- 2021-09 -->
      <g style="fill: #a9a9a9" transform="translate(140.911457 334.998438) scale(0.1 -0.1)">
       <defs>
        <path id="DejaVuSans-32" d="M 1228 531 
L 3431 531 
L 3431 0 
L 469 0 
L 469 531 
Q 828 903 1448 1529 
Q 2069 2156 2228 2338 
Q 2531 2678 2651 2914 
Q 2772 3150 2772 3378 
Q 2772 3750 2511 3984 
Q 2250 4219 1831 4219 
Q 1534 4219 1204 4116 
Q 875 4013 500 3803 
L 500 4441 
Q 881 4594 1212 4672 
Q 1544 4750 1819 4750 
Q 2544 4750 2975 4387 
Q 3406 4025 3406 3419 
Q 3406 3131 3298 2873 
Q 3191 2616 2906 2266 
Q 2828 2175 2409 1742 
Q 1991 1309 1228 531 
z
" transform="scale(0.015625)"/>
        <path id="DejaVuSans-30" d="M 2034 4250 
Q 1547 4250 1301 3770 
Q 1056 3291 1056 2328 
Q 1056 1369 1301 889 
Q 1547 409 2034 409 
Q 2525 409 2770 889 
Q 3016 1369 3016 2328 
Q 3016 3291 2770 3770 
Q 2525 4250 2034 4250 
z
M 2034 4750 
Q 2819 4750 3233 4129 
Q 3647 3509 3647 2328 
Q 3647 1150 3233 529 
Q 2819 -91 2034 -91 
Q 1250 -91 836 529 
Q 422 1150 422 2328 
Q 422 3509 836 4129 
Q 1250 4750 2034 4750 
z
" transform="scale(0.015625)"/>
        <path id="DejaVuSans-31" d="M 794 531 
L 1825 531 
L 1825 4091 
L 703 3866 
L 703 4441 
L 1819 4666 
L 2450 4666 
L 2450 531 
L 3481 531 
L 3481 0 
L 794 0 
L 794 531 
z
" transform="scale(0.015625)"/>
        <path id="DejaVuSans-2d" d="M 313 2009 
L 1997 2009 
L 1997 1497 
L 313 1497 
L 313 2009 
z
" transform="scale(0.015625)"/>
        <path id="DejaVuSans-39" d="M 703 97 
L 703 672 
Q 941 559 1184 500 
Q 1428 441 1663 441 
Q 2288 441 2617 861 
Q 2947 1281 2994 2138 
Q 2813 1869 2534 1725 
Q 2256 1581 1919 1581 
Q 1219 1581 811 2004 
Q 403 2428 403 3163 
Q 403 3881 828 4315 
Q 1253 4750 1959 4750 
Q 2769 4750 3195 4129 
Q 3622 3509 3622 2328 
Q 3622 1225 3098 567 
Q 2575 -91 1691 -91 
Q 1453 -91 1209 -44 
Q 966 3 703 97 
z
M 1959 2075 
Q 2384 2075 2632 2365 
Q 2881 2656 2881 3163 
Q 2881 3666 2632 3958 
Q 2384 4250 1959 4250 
Q 1534 4250 1286 3958 
Q 1038 3666 1038 3163 
Q 1038 2656 1286 2365 
Q 1534 2075 1959 2075 
z
" transform="scale(0.015625)"/>
       </defs>
       <use xlink:href="#DejaVuSans-32"/>
       <use xlink:href="#DejaVuSans-30" x="63.623047"/>
       <use xlink:href="#DejaVuSans-32" x="127.246094"/>
       <use xlink:href="#DejaVuSans-31" x="190.869141"/>
       <use xlink:href="#DejaVuSans-2d" x="254.492188"/>
       <use xlink:href="#DejaVuSans-30" x="290.576172"/>
       <use xlink:href="#DejaVuSans-39" x="354.199219"/>
      </g>
     </g>
    </g>
    <g id="xtick_2">
     <g id="line2d_3">
      <path d="M 234.898067 320.4 
L 234.898067 43.2 
" clip-path="url(#paa89d77aa1)" style="fill: none; stroke-dasharray: 5.12,1.28,0.8,1.28; stroke-dashoffset: 0; stroke: #b0b0b0; stroke-width: 0.8"/>
     </g>
     <g id="line2d_4">
      <g>
       <use xlink:href="#mb868471de0" x="234.898067" y="320.4" style="fill: #a9a9a9; stroke: #a9a9a9; stroke-width: 0.8"/>
      </g>
     </g>
     <g id="text_2">
      <!-- 2022-01 -->
      <g style="fill: #a9a9a9" transform="translate(214.006661 334.998438) scale(0.1 -0.1)">
       <use xlink:href="#DejaVuSans-32"/>
       <use xlink:href="#DejaVuSans-30" x="63.623047"/>
       <use xlink:href="#DejaVuSans-32" x="127.246094"/>
       <use xlink:href="#DejaVuSans-32" x="190.869141"/>
       <use xlink:href="#DejaVuSans-2d" x="254.492188"/>
       <use xlink:href="#DejaVuSans-30" x="290.576172"/>
       <use xlink:href="#DejaVuSans-31" x="354.199219"/>
      </g>
     </g>
    </g>
    <g id="xtick_3">
     <g id="line2d_5">
      <path d="M 306.794989 320.4 
L 306.794989 43.2 
" clip-path="url(#paa89d77aa1)" style="fill: none; stroke-dasharray: 5.12,1.28,0.8,1.28; stroke-dashoffset: 0; stroke: #b0b0b0; stroke-width: 0.8"/>
     </g>
     <g id="line2d_6">
      <g>
       <use xlink:href="#mb868471de0" x="306.794989" y="320.4" style="fill: #a9a9a9; stroke: #a9a9a9; stroke-width: 0.8"/>
      </g>
     </g>
     <g id="text_3">
      <!-- 2022-05 -->
      <g style="fill: #a9a9a9" transform="translate(285.903583 334.998438) scale(0.1 -0.1)">
       <defs>
        <path id="DejaVuSans-35" d="M 691 4666 
L 3169 4666 
L 3169 4134 
L 1269 4134 
L 1269 2991 
Q 1406 3038 1543 3061 
Q 1681 3084 1819 3084 
Q 2600 3084 3056 2656 
Q 3513 2228 3513 1497 
Q 3513 744 3044 326 
Q 2575 -91 1722 -91 
Q 1428 -91 1123 -41 
Q 819 9 494 109 
L 494 744 
Q 775 591 1075 516 
Q 1375 441 1709 441 
Q 2250 441 2565 725 
Q 2881 1009 2881 1497 
Q 2881 1984 2565 2268 
Q 2250 2553 1709 2553 
Q 1456 2553 1204 2497 
Q 953 2441 691 2322 
L 691 4666 
z
" transform="scale(0.015625)"/>
       </defs>
       <use xlink:href="#DejaVuSans-32"/>
       <use xlink:href="#DejaVuSans-30" x="63.623047"/>
       <use xlink:href="#DejaVuSans-32" x="127.246094"/>
       <use xlink:href="#DejaVuSans-32" x="190.869141"/>
       <use xlink:href="#DejaVuSans-2d" x="254.492188"/>
       <use xlink:href="#DejaVuSans-30" x="290.576172"/>
       <use xlink:href="#DejaVuSans-35" x="354.199219"/>
      </g>
     </g>
    </g>
    <g id="xtick_4">
     <g id="line2d_7">
      <path d="M 380.489334 320.4 
L 380.489334 43.2 
" clip-path="url(#paa89d77aa1)" style="fill: none; stroke-dasharray: 5.12,1.28,0.8,1.28; stroke-dashoffset: 0; stroke: #b0b0b0; stroke-width: 0.8"/>
     </g>
     <g id="line2d_8">
      <g>
       <use xlink:href="#mb868471de0" x="380.489334" y="320.4" style="fill: #a9a9a9; stroke: #a9a9a9; stroke-width: 0.8"/>
      </g>
     </g>
     <g id="text_4">
      <!-- 2022-09 -->
      <g style="fill: #a9a9a9" transform="translate(359.597928 334.998438) scale(0.1 -0.1)">
       <use xlink:href="#DejaVuSans-32"/>
       <use xlink:href="#DejaVuSans-30" x="63.623047"/>
       <use xlink:href="#DejaVuSans-32" x="127.246094"/>
       <use xlink:href="#DejaVuSans-32" x="190.869141"/>
       <use xlink:href="#DejaVuSans-2d" x="254.492188"/>
       <use xlink:href="#DejaVuSans-30" x="290.576172"/>
       <use xlink:href="#DejaVuSans-39" x="354.199219"/>
      </g>
     </g>
    </g>
    <g id="xtick_5">
     <g id="line2d_9">
      <path d="M 453.584538 320.4 
L 453.584538 43.2 
" clip-path="url(#paa89d77aa1)" style="fill: none; stroke-dasharray: 5.12,1.28,0.8,1.28; stroke-dashoffset: 0; stroke: #b0b0b0; stroke-width: 0.8"/>
     </g>
     <g id="line2d_10">
      <g>
       <use xlink:href="#mb868471de0" x="453.584538" y="320.4" style="fill: #a9a9a9; stroke: #a9a9a9; stroke-width: 0.8"/>
      </g>
     </g>
     <g id="text_5">
      <!-- 2023-01 -->
      <g style="fill: #a9a9a9" transform="translate(432.693132 334.998438) scale(0.1 -0.1)">
       <defs>
        <path id="DejaVuSans-33" d="M 2597 2516 
Q 3050 2419 3304 2112 
Q 3559 1806 3559 1356 
Q 3559 666 3084 287 
Q 2609 -91 1734 -91 
Q 1441 -91 1130 -33 
Q 819 25 488 141 
L 488 750 
Q 750 597 1062 519 
Q 1375 441 1716 441 
Q 2309 441 2620 675 
Q 2931 909 2931 1356 
Q 2931 1769 2642 2001 
Q 2353 2234 1838 2234 
L 1294 2234 
L 1294 2753 
L 1863 2753 
Q 2328 2753 2575 2939 
Q 2822 3125 2822 3475 
Q 2822 3834 2567 4026 
Q 2313 4219 1838 4219 
Q 1578 4219 1281 4162 
Q 984 4106 628 3988 
L 628 4550 
Q 988 4650 1302 4700 
Q 1616 4750 1894 4750 
Q 2613 4750 3031 4423 
Q 3450 4097 3450 3541 
Q 3450 3153 3228 2886 
Q 3006 2619 2597 2516 
z
" transform="scale(0.015625)"/>
       </defs>
       <use xlink:href="#DejaVuSans-32"/>
       <use xlink:href="#DejaVuSans-30" x="63.623047"/>
       <use xlink:href="#DejaVuSans-32" x="127.246094"/>
       <use xlink:href="#DejaVuSans-33" x="190.869141"/>
       <use xlink:href="#DejaVuSans-2d" x="254.492188"/>
       <use xlink:href="#DejaVuSans-30" x="290.576172"/>
       <use xlink:href="#DejaVuSans-31" x="354.199219"/>
      </g>
     </g>
    </g>
    <g id="xtick_6">
     <g id="line2d_11">
      <path d="M 525.48146 320.4 
L 525.48146 43.2 
" clip-path="url(#paa89d77aa1)" style="fill: none; stroke-dasharray: 5.12,1.28,0.8,1.28; stroke-dashoffset: 0; stroke: #b0b0b0; stroke-width: 0.8"/>
     </g>
     <g id="line2d_12">
      <g>
       <use xlink:href="#mb868471de0" x="525.48146" y="320.4" style="fill: #a9a9a9; stroke: #a9a9a9; stroke-width: 0.8"/>
      </g>
     </g>
     <g id="text_6">
      <!-- 2023-05 -->
      <g style="fill: #a9a9a9" transform="translate(504.590054 334.998438) scale(0.1 -0.1)">
       <use xlink:href="#DejaVuSans-32"/>
       <use xlink:href="#DejaVuSans-30" x="63.623047"/>
       <use xlink:href="#DejaVuSans-32" x="127.246094"/>
       <use xlink:href="#DejaVuSans-33" x="190.869141"/>
       <use xlink:href="#DejaVuSans-2d" x="254.492188"/>
       <use xlink:href="#DejaVuSans-30" x="290.576172"/>
       <use xlink:href="#DejaVuSans-35" x="354.199219"/>
      </g>
     </g>
    </g>
    <g id="xtick_7">
     <g id="line2d_13">
      <path d="M 599.175805 320.4 
L 599.175805 43.2 
" clip-path="url(#paa89d77aa1)" style="fill: none; stroke-dasharray: 5.12,1.28,0.8,1.28; stroke-dashoffset: 0; stroke: #b0b0b0; stroke-width: 0.8"/>
     </g>
     <g id="line2d_14">
      <g>
       <use xlink:href="#mb868471de0" x="599.175805" y="320.4" style="fill: #a9a9a9; stroke: #a9a9a9; stroke-width: 0.8"/>
      </g>
     </g>
     <g id="text_7">
      <!-- 2023-09 -->
      <g style="fill: #a9a9a9" transform="translate(578.284399 334.998438) scale(0.1 -0.1)">
       <use xlink:href="#DejaVuSans-32"/>
       <use xlink:href="#DejaVuSans-30" x="63.623047"/>
       <use xlink:href="#DejaVuSans-32" x="127.246094"/>
       <use xlink:href="#DejaVuSans-33" x="190.869141"/>
       <use xlink:href="#DejaVuSans-2d" x="254.492188"/>
       <use xlink:href="#DejaVuSans-30" x="290.576172"/>
       <use xlink:href="#DejaVuSans-39" x="354.199219"/>
      </g>
     </g>
    </g>
    <g id="xtick_8">
     <g id="line2d_15">
      <path d="M 672.271009 320.4 
L 672.271009 43.2 
" clip-path="url(#paa89d77aa1)" style="fill: none; stroke-dasharray: 5.12,1.28,0.8,1.28; stroke-dashoffset: 0; stroke: #b0b0b0; stroke-width: 0.8"/>
     </g>
     <g id="line2d_16">
      <g>
       <use xlink:href="#mb868471de0" x="672.271009" y="320.4" style="fill: #a9a9a9; stroke: #a9a9a9; stroke-width: 0.8"/>
      </g>
     </g>
     <g id="text_8">
      <!-- 2024-01 -->
      <g style="fill: #a9a9a9" transform="translate(651.379603 334.998438) scale(0.1 -0.1)">
       <defs>
        <path id="DejaVuSans-34" d="M 2419 4116 
L 825 1625 
L 2419 1625 
L 2419 4116 
z
M 2253 4666 
L 3047 4666 
L 3047 1625 
L 3713 1625 
L 3713 1100 
L 3047 1100 
L 3047 0 
L 2419 0 
L 2419 1100 
L 313 1100 
L 313 1709 
L 2253 4666 
z
" transform="scale(0.015625)"/>
       </defs>
       <use xlink:href="#DejaVuSans-32"/>
       <use xlink:href="#DejaVuSans-30" x="63.623047"/>
       <use xlink:href="#DejaVuSans-32" x="127.246094"/>
       <use xlink:href="#DejaVuSans-34" x="190.869141"/>
       <use xlink:href="#DejaVuSans-2d" x="254.492188"/>
       <use xlink:href="#DejaVuSans-30" x="290.576172"/>
       <use xlink:href="#DejaVuSans-31" x="354.199219"/>
      </g>
     </g>
    </g>
    <g id="xtick_9">
     <g id="line2d_17">
      <path d="M 744.767072 320.4 
L 744.767072 43.2 
" clip-path="url(#paa89d77aa1)" style="fill: none; stroke-dasharray: 5.12,1.28,0.8,1.28; stroke-dashoffset: 0; stroke: #b0b0b0; stroke-width: 0.8"/>
     </g>
     <g id="line2d_18">
      <g>
       <use xlink:href="#mb868471de0" x="744.767072" y="320.4" style="fill: #a9a9a9; stroke: #a9a9a9; stroke-width: 0.8"/>
      </g>
     </g>
     <g id="text_9">
      <!-- 2024-05 -->
      <g style="fill: #a9a9a9" transform="translate(723.875666 334.998438) scale(0.1 -0.1)">
       <use xlink:href="#DejaVuSans-32"/>
       <use xlink:href="#DejaVuSans-30" x="63.623047"/>
       <use xlink:href="#DejaVuSans-32" x="127.246094"/>
       <use xlink:href="#DejaVuSans-34" x="190.869141"/>
       <use xlink:href="#DejaVuSans-2d" x="254.492188"/>
       <use xlink:href="#DejaVuSans-30" x="290.576172"/>
       <use xlink:href="#DejaVuSans-35" x="354.199219"/>
      </g>
     </g>
    </g>
   </g>
   <g id="matplotlib.axis_2">
    <g id="ytick_1">
     <g id="line2d_19">
      <path d="M 108 307.841701 
L 777.6 307.841701 
" clip-path="url(#paa89d77aa1)" style="fill: none; stroke-dasharray: 5.12,1.28,0.8,1.28; stroke-dashoffset: 0; stroke: #b0b0b0; stroke-width: 0.8"/>
     </g>
     <g id="line2d_20">
      <defs>
       <path id="m13d100fa04" d="M 0 0 
L -3.5 0 
" style="stroke: #a9a9a9; stroke-width: 0.8"/>
      </defs>
      <g>
       <use xlink:href="#m13d100fa04" x="108" y="307.841701" style="fill: #a9a9a9; stroke: #a9a9a9; stroke-width: 0.8"/>
      </g>
     </g>
     <g id="text_10">
      <!-- 0 -->
      <g style="fill: #a9a9a9" transform="translate(94.6375 311.64092) scale(0.1 -0.1)">
       <use xlink:href="#DejaVuSans-30"/>
      </g>
     </g>
    </g>
    <g id="ytick_2">
     <g id="line2d_21">
      <path d="M 108 274.480788 
L 777.6 274.480788 
" clip-path="url(#paa89d77aa1)" style="fill: none; stroke-dasharray: 5.12,1.28,0.8,1.28; stroke-dashoffset: 0; stroke: #b0b0b0; stroke-width: 0.8"/>
     </g>
     <g id="line2d_22">
      <g>
       <use xlink:href="#m13d100fa04" x="108" y="274.480788" style="fill: #a9a9a9; stroke: #a9a9a9; stroke-width: 0.8"/>
      </g>
     </g>
     <g id="text_11">
      <!-- 800 -->
      <g style="fill: #a9a9a9" transform="translate(81.9125 278.280006) scale(0.1 -0.1)">
       <defs>
        <path id="DejaVuSans-38" d="M 2034 2216 
Q 1584 2216 1326 1975 
Q 1069 1734 1069 1313 
Q 1069 891 1326 650 
Q 1584 409 2034 409 
Q 2484 409 2743 651 
Q 3003 894 3003 1313 
Q 3003 1734 2745 1975 
Q 2488 2216 2034 2216 
z
M 1403 2484 
Q 997 2584 770 2862 
Q 544 3141 544 3541 
Q 544 4100 942 4425 
Q 1341 4750 2034 4750 
Q 2731 4750 3128 4425 
Q 3525 4100 3525 3541 
Q 3525 3141 3298 2862 
Q 3072 2584 2669 2484 
Q 3125 2378 3379 2068 
Q 3634 1759 3634 1313 
Q 3634 634 3220 271 
Q 2806 -91 2034 -91 
Q 1263 -91 848 271 
Q 434 634 434 1313 
Q 434 1759 690 2068 
Q 947 2378 1403 2484 
z
M 1172 3481 
Q 1172 3119 1398 2916 
Q 1625 2713 2034 2713 
Q 2441 2713 2670 2916 
Q 2900 3119 2900 3481 
Q 2900 3844 2670 4047 
Q 2441 4250 2034 4250 
Q 1625 4250 1398 4047 
Q 1172 3844 1172 3481 
z
" transform="scale(0.015625)"/>
       </defs>
       <use xlink:href="#DejaVuSans-38"/>
       <use xlink:href="#DejaVuSans-30" x="63.623047"/>
       <use xlink:href="#DejaVuSans-30" x="127.246094"/>
      </g>
     </g>
    </g>
    <g id="ytick_3">
     <g id="line2d_23">
      <path d="M 108 241.119874 
L 777.6 241.119874 
" clip-path="url(#paa89d77aa1)" style="fill: none; stroke-dasharray: 5.12,1.28,0.8,1.28; stroke-dashoffset: 0; stroke: #b0b0b0; stroke-width: 0.8"/>
     </g>
     <g id="line2d_24">
      <g>
       <use xlink:href="#m13d100fa04" x="108" y="241.119874" style="fill: #a9a9a9; stroke: #a9a9a9; stroke-width: 0.8"/>
      </g>
     </g>
     <g id="text_12">
      <!-- 1600 -->
      <g style="fill: #a9a9a9" transform="translate(75.55 244.919093) scale(0.1 -0.1)">
       <defs>
        <path id="DejaVuSans-36" d="M 2113 2584 
Q 1688 2584 1439 2293 
Q 1191 2003 1191 1497 
Q 1191 994 1439 701 
Q 1688 409 2113 409 
Q 2538 409 2786 701 
Q 3034 994 3034 1497 
Q 3034 2003 2786 2293 
Q 2538 2584 2113 2584 
z
M 3366 4563 
L 3366 3988 
Q 3128 4100 2886 4159 
Q 2644 4219 2406 4219 
Q 1781 4219 1451 3797 
Q 1122 3375 1075 2522 
Q 1259 2794 1537 2939 
Q 1816 3084 2150 3084 
Q 2853 3084 3261 2657 
Q 3669 2231 3669 1497 
Q 3669 778 3244 343 
Q 2819 -91 2113 -91 
Q 1303 -91 875 529 
Q 447 1150 447 2328 
Q 447 3434 972 4092 
Q 1497 4750 2381 4750 
Q 2619 4750 2861 4703 
Q 3103 4656 3366 4563 
z
" transform="scale(0.015625)"/>
       </defs>
       <use xlink:href="#DejaVuSans-31"/>
       <use xlink:href="#DejaVuSans-36" x="63.623047"/>
       <use xlink:href="#DejaVuSans-30" x="127.246094"/>
       <use xlink:href="#DejaVuSans-30" x="190.869141"/>
      </g>
     </g>
    </g>
    <g id="ytick_4">
     <g id="line2d_25">
      <path d="M 108 207.758961 
L 777.6 207.758961 
" clip-path="url(#paa89d77aa1)" style="fill: none; stroke-dasharray: 5.12,1.28,0.8,1.28; stroke-dashoffset: 0; stroke: #b0b0b0; stroke-width: 0.8"/>
     </g>
     <g id="line2d_26">
      <g>
       <use xlink:href="#m13d100fa04" x="108" y="207.758961" style="fill: #a9a9a9; stroke: #a9a9a9; stroke-width: 0.8"/>
      </g>
     </g>
     <g id="text_13">
      <!-- 2400 -->
      <g style="fill: #a9a9a9" transform="translate(75.55 211.55818) scale(0.1 -0.1)">
       <use xlink:href="#DejaVuSans-32"/>
       <use xlink:href="#DejaVuSans-34" x="63.623047"/>
       <use xlink:href="#DejaVuSans-30" x="127.246094"/>
       <use xlink:href="#DejaVuSans-30" x="190.869141"/>
      </g>
     </g>
    </g>
    <g id="ytick_5">
     <g id="line2d_27">
      <path d="M 108 174.398047 
L 777.6 174.398047 
" clip-path="url(#paa89d77aa1)" style="fill: none; stroke-dasharray: 5.12,1.28,0.8,1.28; stroke-dashoffset: 0; stroke: #b0b0b0; stroke-width: 0.8"/>
     </g>
     <g id="line2d_28">
      <g>
       <use xlink:href="#m13d100fa04" x="108" y="174.398047" style="fill: #a9a9a9; stroke: #a9a9a9; stroke-width: 0.8"/>
      </g>
     </g>
     <g id="text_14">
      <!-- 3200 -->
      <g style="fill: #a9a9a9" transform="translate(75.55 178.197266) scale(0.1 -0.1)">
       <use xlink:href="#DejaVuSans-33"/>
       <use xlink:href="#DejaVuSans-32" x="63.623047"/>
       <use xlink:href="#DejaVuSans-30" x="127.246094"/>
       <use xlink:href="#DejaVuSans-30" x="190.869141"/>
      </g>
     </g>
    </g>
    <g id="ytick_6">
     <g id="line2d_29">
      <path d="M 108 141.037134 
L 777.6 141.037134 
" clip-path="url(#paa89d77aa1)" style="fill: none; stroke-dasharray: 5.12,1.28,0.8,1.28; stroke-dashoffset: 0; stroke: #b0b0b0; stroke-width: 0.8"/>
     </g>
     <g id="line2d_30">
      <g>
       <use xlink:href="#m13d100fa04" x="108" y="141.037134" style="fill: #a9a9a9; stroke: #a9a9a9; stroke-width: 0.8"/>
      </g>
     </g>
     <g id="text_15">
      <!-- 4000 -->
      <g style="fill: #a9a9a9" transform="translate(75.55 144.836353) scale(0.1 -0.1)">
       <use xlink:href="#DejaVuSans-34"/>
       <use xlink:href="#DejaVuSans-30" x="63.623047"/>
       <use xlink:href="#DejaVuSans-30" x="127.246094"/>
       <use xlink:href="#DejaVuSans-30" x="190.869141"/>
      </g>
     </g>
    </g>
    <g id="ytick_7">
     <g id="line2d_31">
      <path d="M 108 107.67622 
L 777.6 107.67622 
" clip-path="url(#paa89d77aa1)" style="fill: none; stroke-dasharray: 5.12,1.28,0.8,1.28; stroke-dashoffset: 0; stroke: #b0b0b0; stroke-width: 0.8"/>
     </g>
     <g id="line2d_32">
      <g>
       <use xlink:href="#m13d100fa04" x="108" y="107.67622" style="fill: #a9a9a9; stroke: #a9a9a9; stroke-width: 0.8"/>
      </g>
     </g>
     <g id="text_16">
      <!-- 4800 -->
      <g style="fill: #a9a9a9" transform="translate(75.55 111.475439) scale(0.1 -0.1)">
       <use xlink:href="#DejaVuSans-34"/>
       <use xlink:href="#DejaVuSans-38" x="63.623047"/>
       <use xlink:href="#DejaVuSans-30" x="127.246094"/>
       <use xlink:href="#DejaVuSans-30" x="190.869141"/>
      </g>
     </g>
    </g>
    <g id="ytick_8">
     <g id="line2d_33">
      <path d="M 108 74.315307 
L 777.6 74.315307 
" clip-path="url(#paa89d77aa1)" style="fill: none; stroke-dasharray: 5.12,1.28,0.8,1.28; stroke-dashoffset: 0; stroke: #b0b0b0; stroke-width: 0.8"/>
     </g>
     <g id="line2d_34">
      <g>
       <use xlink:href="#m13d100fa04" x="108" y="74.315307" style="fill: #a9a9a9; stroke: #a9a9a9; stroke-width: 0.8"/>
      </g>
     </g>
     <g id="text_17">
      <!-- 5600 -->
      <g style="fill: #a9a9a9" transform="translate(75.55 78.114526) scale(0.1 -0.1)">
       <use xlink:href="#DejaVuSans-35"/>
       <use xlink:href="#DejaVuSans-36" x="63.623047"/>
       <use xlink:href="#DejaVuSans-30" x="127.246094"/>
       <use xlink:href="#DejaVuSans-30" x="190.869141"/>
      </g>
     </g>
    </g>
   </g>
   <g id="line2d_35">
    <path d="M 138.436364 307.716598 
L 142.03121 307.42469 
L 142.630351 307.174483 
L 144.427774 306.965977 
L 148.02262 306.257058 
L 151.617466 305.96515 
L 152.216607 305.673242 
L 152.815748 305.506437 
L 153.414889 304.755817 
L 154.01403 304.338805 
L 154.613171 303.04607 
L 155.212312 302.962668 
L 155.811453 302.503955 
L 157.009735 301.920139 
L 159.406299 300.085289 
L 160.604581 299.584875 
L 161.203722 299.167864 
L 163.600286 298.125335 
L 164.199427 297.20791 
L 165.397709 296.373887 
L 165.99685 296.081979 
L 171.988261 295.247956 
L 172.587402 294.956048 
L 176.781389 294.622439 
L 178.578812 294.163727 
L 183.971081 293.454807 
L 184.570222 293.121198 
L 185.169363 293.037796 
L 185.768504 292.787589 
L 186.966786 292.579083 
L 187.565927 292.537382 
L 188.764209 292.287175 
L 189.36335 292.245474 
L 191.759914 291.661658 
L 193.557337 291.494854 
L 194.755619 291.36975 
L 195.35476 291.202946 
L 195.953901 291.161244 
L 197.751324 290.61913 
L 198.949606 290.535727 
L 200.147888 290.368923 
L 201.34617 290.118716 
L 201.945311 289.951911 
L 202.544452 289.15959 
L 204.341875 288.492371 
L 206.139298 288.033659 
L 206.73844 287.741751 
L 207.337581 287.70005 
L 210.333286 286.866027 
L 211.531568 286.782625 
L 212.130709 286.699222 
L 213.928132 286.157107 
L 216.324696 285.573291 
L 216.923837 285.323085 
L 217.522978 285.239682 
L 218.122119 284.947774 
L 224.113529 284.07205 
L 227.109234 283.238027 
L 227.708375 282.862717 
L 230.104939 282.2372 
L 232.501503 281.027867 
L 234.298926 280.610856 
L 234.898067 280.527453 
L 235.497208 280.235545 
L 236.69549 280.02704 
L 237.893772 279.484925 
L 240.889477 278.734304 
L 242.686901 278.275592 
L 243.286042 278.025385 
L 243.885183 277.900281 
L 244.484324 277.650074 
L 245.083465 277.566672 
L 245.682606 277.274764 
L 246.281747 277.10796 
L 247.480029 277.024557 
L 248.678311 276.607546 
L 249.876593 276.524144 
L 250.475734 276.232236 
L 251.674016 276.065431 
L 252.273157 275.856925 
L 253.471439 275.815224 
L 255.868003 275.523316 
L 257.066285 274.9395 
L 263.656836 272.145524 
L 264.255977 271.811915 
L 264.855118 271.186397 
L 266.0534 269.43495 
L 266.652541 269.268145 
L 267.251682 269.268145 
L 268.449964 268.392421 
L 269.049105 268.225616 
L 269.648246 267.933708 
L 270.247387 267.808605 
L 270.846528 267.26649 
L 271.445669 267.099686 
L 273.243092 266.223962 
L 274.441374 264.555916 
L 275.040515 264.180606 
L 275.639656 263.179778 
L 276.238797 262.554261 
L 276.837938 262.262353 
L 277.437079 262.095549 
L 279.833644 260.719411 
L 281.031926 259.760285 
L 281.631067 259.384974 
L 282.230208 258.50925 
L 282.829349 257.174814 
L 283.42849 256.29909 
L 284.027631 255.840377 
L 284.626772 255.59017 
L 287.023336 253.505113 
L 288.221618 252.545987 
L 288.820759 252.045573 
L 289.4199 251.253252 
L 290.618182 250.210723 
L 293.014746 248.667781 
L 293.613887 248.167367 
L 294.213028 248.042264 
L 294.812169 247.792057 
L 296.609592 246.79123 
L 298.407015 245.665299 
L 300.204438 243.913851 
L 300.803579 243.53854 
L 301.40272 243.371736 
L 302.001861 243.079828 
L 303.200143 242.287506 
L 303.799284 241.953897 
L 304.398425 241.870495 
L 309.191553 238.993116 
L 310.988976 238.03399 
L 311.588117 237.491875 
L 313.984681 236.741254 
L 314.583822 236.324243 
L 315.182963 236.19914 
L 316.381246 235.782128 
L 318.178669 235.073209 
L 319.976092 234.40599 
L 321.174374 234.197485 
L 322.372656 233.154956 
L 324.170079 232.320933 
L 325.368361 231.612014 
L 326.566643 231.278405 
L 327.165784 230.903094 
L 327.764925 230.73629 
L 329.562348 229.610359 
L 332.558053 228.90144 
L 334.355476 227.858911 
L 334.954617 227.775509 
L 335.553758 227.567003 
L 336.75204 227.316796 
L 338.549463 225.98236 
L 340.346886 225.565348 
L 340.946027 225.356843 
L 341.545168 224.89813 
L 345.140014 223.730498 
L 345.739155 223.688797 
L 346.338296 223.521992 
L 347.536578 223.021579 
L 351.730565 221.562039 
L 352.928848 221.395234 
L 353.527989 221.22843 
L 354.12713 220.936522 
L 354.726271 220.811418 
L 356.523694 219.977395 
L 358.321117 219.101671 
L 358.920258 218.68466 
L 359.519399 218.517855 
L 361.316822 217.558729 
L 362.515104 217.266821 
L 363.713386 216.641304 
L 364.911668 216.307695 
L 365.510809 216.224293 
L 366.709091 215.515373 
L 367.308232 215.39027 
L 368.506514 214.889856 
L 369.105655 214.764753 
L 369.704796 214.431143 
L 372.10136 214.055833 
L 373.299642 213.472017 
L 373.898783 212.971604 
L 374.497924 211.929075 
L 376.295347 211.595466 
L 378.691911 210.344432 
L 379.291052 210.219328 
L 383.485039 208.217673 
L 384.683321 207.884064 
L 385.881603 207.633857 
L 387.079885 207.050041 
L 387.679026 206.799835 
L 388.278168 206.716432 
L 390.674732 205.673904 
L 392.472155 204.547973 
L 393.071296 204.464571 
L 393.670437 204.256065 
L 394.269578 204.214364 
L 396.666142 203.547145 
L 397.265283 203.505444 
L 397.864424 203.046732 
L 399.062706 202.62972 
L 400.860129 202.045904 
L 401.45927 201.670594 
L 402.058411 201.50379 
L 402.657552 201.086778 
L 403.256693 200.836571 
L 404.454975 200.211054 
L 406.851539 199.502135 
L 407.45068 199.210227 
L 409.248103 197.834089 
L 409.847244 197.708986 
L 411.045526 196.79156 
L 411.644667 196.666457 
L 412.243808 195.749032 
L 412.842949 195.498825 
L 413.44209 195.040113 
L 414.041231 194.95671 
L 415.239513 194.247791 
L 415.838654 194.122687 
L 416.437795 193.872481 
L 417.036936 193.413768 
L 417.636077 193.205262 
L 419.4335 191.995929 
L 421.830064 190.786596 
L 422.429205 190.703194 
L 423.627487 190.161079 
L 424.226628 189.82747 
L 424.82577 188.826642 
L 425.424911 188.284528 
L 426.024052 187.950918 
L 426.623193 187.825815 
L 427.821475 187.075194 
L 428.420616 186.950091 
L 429.618898 186.366275 
L 431.416321 185.615654 
L 432.614603 184.781632 
L 433.812885 183.530597 
L 436.80859 181.362138 
L 438.006872 180.403012 
L 438.606013 180.152805 
L 439.205154 179.485587 
L 439.804295 179.026874 
L 441.002577 178.609863 
L 442.200859 177.817541 
L 442.8 177.525633 
L 443.399141 177.358828 
L 443.998282 176.941817 
L 444.597423 176.858415 
L 446.394846 175.899288 
L 447.593128 175.190369 
L 453.584538 173.063611 
L 454.183679 172.521496 
L 455.981102 171.854278 
L 457.179384 171.478967 
L 457.778525 171.020255 
L 460.175089 169.769221 
L 460.77423 169.435611 
L 461.972513 167.100348 
L 463.170795 165.682509 
L 464.369077 164.973589 
L 466.1665 164.26467 
L 466.765641 164.181268 
L 467.364782 163.847658 
L 469.162205 163.305544 
L 471.558769 162.221314 
L 472.15791 161.846004 
L 473.356192 161.428992 
L 476.951038 159.343935 
L 477.550179 158.718418 
L 478.748461 158.092901 
L 482.343307 156.216349 
L 482.942448 155.966143 
L 483.541589 155.590832 
L 484.14073 155.465729 
L 484.739871 155.007016 
L 487.735576 154.04789 
L 488.334717 153.881086 
L 488.933858 153.589178 
L 489.532999 153.172166 
L 490.731281 152.838557 
L 491.929563 152.379844 
L 492.528704 151.921132 
L 493.726986 151.545822 
L 494.326127 151.253914 
L 494.925268 151.087109 
L 496.12355 150.253086 
L 497.321832 149.752673 
L 498.520115 148.835247 
L 499.718397 148.418236 
L 500.317538 147.917822 
L 500.916679 147.83442 
L 502.114961 146.958696 
L 503.313243 146.37488 
L 503.912384 146.124673 
L 504.511525 145.540857 
L 508.106371 144.248122 
L 509.903794 143.4558 
L 511.701217 142.913685 
L 512.899499 142.746881 
L 513.49864 142.496674 
L 514.097781 142.413272 
L 515.296063 141.912858 
L 515.895204 141.871157 
L 518.291768 140.995433 
L 520.089191 139.7861 
L 520.688332 139.535893 
L 521.886614 138.910376 
L 522.485755 138.70187 
L 526.080601 136.741916 
L 526.679742 136.616813 
L 528.477165 135.615985 
L 530.274588 135.032169 
L 530.873729 134.781963 
L 532.072011 134.490055 
L 535.067717 133.530928 
L 536.86514 133.23902 
L 539.261704 132.4884 
L 539.860845 132.238193 
L 540.459986 132.154791 
L 541.059127 131.862883 
L 542.257409 131.612676 
L 543.455691 131.195664 
L 544.054832 130.987159 
L 545.253114 130.862055 
L 546.451396 130.570147 
L 548.248819 130.278239 
L 548.84796 130.069734 
L 550.046242 129.94463 
L 553.041947 129.19401 
L 554.240229 128.902102 
L 554.83937 128.568492 
L 557.835075 127.817872 
L 558.434216 127.692768 
L 559.632498 127.275757 
L 561.429921 126.65024 
L 562.029062 126.566838 
L 563.826485 125.941321 
L 564.425626 125.941321 
L 565.623908 125.524309 
L 566.223049 124.940493 
L 566.82219 124.648585 
L 568.020472 124.273275 
L 570.417037 123.35585 
L 571.016178 123.230746 
L 571.615319 122.855436 
L 572.21446 122.730333 
L 572.813601 122.396723 
L 575.809306 121.521 
L 576.408447 121.145689 
L 577.007588 121.020586 
L 577.606729 120.520172 
L 579.404152 120.186563 
L 580.602434 119.519345 
L 581.201575 118.852126 
L 582.399857 118.60192 
L 586.593844 117.642793 
L 587.192985 117.475989 
L 588.391267 117.434288 
L 588.990408 117.184081 
L 591.386972 116.767069 
L 591.986113 116.516862 
L 593.783536 116.266656 
L 596.1801 115.516035 
L 597.977523 115.099024 
L 599.774946 114.640311 
L 601.572369 114.098196 
L 604.568074 113.222472 
L 605.766356 112.680357 
L 606.964639 112.263346 
L 607.56378 111.804633 
L 608.762062 111.471024 
L 609.361203 111.220817 
L 610.559485 110.887208 
L 612.956049 109.802979 
L 614.753472 109.677875 
L 617.150036 109.010657 
L 617.749177 108.635347 
L 618.947459 108.301738 
L 620.744882 107.384312 
L 621.344023 107.259209 
L 621.943164 106.967301 
L 622.542305 106.9256 
L 629.132856 104.715439 
L 631.52942 104.131623 
L 632.128561 103.964819 
L 633.326843 103.422704 
L 633.925984 103.339302 
L 635.124266 103.005693 
L 635.723407 102.54698 
L 636.322548 102.255072 
L 636.921689 101.546153 
L 637.52083 101.129141 
L 638.719112 100.753831 
L 639.318253 100.295118 
L 644.111382 98.335165 
L 644.710523 98.16836 
L 645.309664 97.79305 
L 647.706228 97.08413 
L 648.90451 96.500314 
L 650.102792 95.791395 
L 650.701933 95.666292 
L 651.900215 94.957372 
L 652.499356 94.707165 
L 653.697638 93.956545 
L 655.495061 93.122522 
L 656.094202 92.705511 
L 657.292484 92.288499 
L 658.490766 91.57958 
L 659.089907 91.371074 
L 659.689048 90.954063 
L 660.88733 90.537051 
L 661.486471 90.411948 
L 663.883035 89.327718 
L 666.87874 88.285189 
L 667.477881 88.243488 
L 668.077022 88.076684 
L 668.676163 87.701373 
L 669.275304 87.617971 
L 669.874445 87.409465 
L 671.671868 87.075856 
L 675.865855 84.949098 
L 676.464996 84.865696 
L 678.262419 83.90657 
L 680.059843 83.239351 
L 681.857266 82.44703 
L 684.25383 81.487903 
L 684.852971 81.321099 
L 685.452112 80.945789 
L 686.650394 80.778984 
L 687.249535 80.403674 
L 687.848676 80.361973 
L 689.046958 79.986662 
L 690.24524 79.402846 
L 690.844381 79.319444 
L 691.443522 79.069237 
L 692.042663 78.944134 
L 693.840086 78.151812 
L 694.439227 78.026709 
L 695.038368 77.776502 
L 698.034073 77.067582 
L 699.831496 76.400364 
L 702.22806 75.024226 
L 703.426342 74.565514 
L 704.025483 74.190204 
L 705.223765 73.939997 
L 705.822906 73.606388 
L 706.422047 73.481284 
L 707.620329 72.814066 
L 711.215175 71.14602 
L 713.012598 70.562204 
L 714.21088 70.145193 
L 714.810021 69.936687 
L 716.008304 69.352871 
L 717.206586 68.977561 
L 717.805727 68.852457 
L 719.004009 68.310343 
L 719.60315 68.101837 
L 720.202291 67.768228 
L 720.801432 67.684825 
L 721.400573 67.47632 
L 722.598855 66.809101 
L 724.995419 65.724872 
L 726.193701 65.30786 
L 727.391983 64.682343 
L 727.991124 64.598941 
L 730.986829 63.306206 
L 731.58597 62.889194 
L 733.982534 62.096872 
L 734.581675 62.096872 
L 735.779957 61.554758 
L 736.379098 61.096045 
L 736.978239 60.428827 
L 737.57738 59.928413 
L 738.176521 59.636505 
L 738.775662 59.4697 
L 739.374803 59.09439 
L 739.973944 58.969287 
L 740.573085 58.677379 
L 741.172226 58.593977 
L 741.771367 58.176965 
L 742.370508 58.051862 
L 742.969649 57.759954 
L 744.767072 56.592322 
L 747.163636 55.8 
L 747.163636 55.8 
" clip-path="url(#paa89d77aa1)" style="fill: none; stroke: #1f77b4; stroke-width: 1.5; stroke-linecap: square"/>
   </g>
   <g id="line2d_36">
    <path d="M 139.035505 307.8 
L 140.832928 307.716598 
L 142.630351 307.674897 
L 146.225197 307.591494 
L 149.220902 307.466391 
L 151.617466 307.466391 
L 152.216607 307.299586 
L 154.613171 307.216184 
L 156.410594 307.007678 
L 158.208017 306.840874 
L 161.802863 306.674069 
L 162.402004 306.674069 
L 163.001145 306.548966 
L 165.397709 306.465563 
L 166.595991 306.382161 
L 171.38912 306.298759 
L 174.384825 306.173655 
L 181.574517 306.090253 
L 184.570222 305.96515 
L 188.165068 305.881747 
L 190.561632 305.798345 
L 195.953901 305.714943 
L 197.751324 305.673242 
L 199.548747 305.631541 
L 201.34617 305.423035 
L 204.941016 305.381334 
L 206.139298 305.297931 
L 210.333286 305.214529 
L 216.923837 304.839219 
L 221.117824 304.755817 
L 222.316106 304.672414 
L 224.113529 304.589012 
L 227.708375 304.422208 
L 230.104939 304.380506 
L 231.902362 304.213702 
L 239.691195 303.754989 
L 242.686901 303.671587 
L 248.07917 303.379679 
L 249.876593 303.296277 
L 255.868003 302.962668 
L 262.458554 302.879265 
L 264.855118 302.629058 
L 266.0534 302.545656 
L 273.842233 301.920139 
L 277.437079 301.461426 
L 279.833644 301.378024 
L 284.626772 300.752507 
L 288.221618 300.669105 
L 290.019041 300.5023 
L 291.217323 300.460599 
L 292.415605 300.335496 
L 294.213028 300.252093 
L 295.41131 300.085289 
L 298.407015 299.75168 
L 300.803579 299.668277 
L 302.001861 299.584875 
L 304.398425 299.501473 
L 305.596707 299.41807 
L 308.592412 299.126163 
L 309.191553 298.959358 
L 312.786399 298.792553 
L 315.782105 298.709151 
L 323.570938 298.250439 
L 325.368361 298.167036 
L 333.157194 297.708324 
L 337.351181 297.624921 
L 337.950322 297.499818 
L 342.74345 297.416416 
L 346.937437 297.20791 
L 353.527989 297.124508 
L 357.721976 296.916002 
L 362.515104 296.8326 
L 367.308232 296.582393 
L 371.502219 296.498991 
L 382.885898 295.790071 
L 387.679026 295.706669 
L 393.670437 295.37306 
L 394.868719 295.331359 
L 397.265283 295.081152 
L 403.256693 294.747543 
L 406.851539 294.66414 
L 408.648962 294.622439 
L 410.446385 294.580738 
L 412.243808 294.413933 
L 417.036936 294.330531 
L 418.235218 294.122025 
L 419.4335 294.038623 
L 422.429205 293.91352 
L 423.627487 293.830117 
L 424.82577 293.746715 
L 430.218039 293.663313 
L 431.416321 293.538209 
L 433.812885 293.496508 
L 434.412026 293.371405 
L 435.610308 293.288003 
L 436.209449 293.162899 
L 438.006872 293.079497 
L 447.593128 292.495681 
L 449.989692 292.412279 
L 452.985397 292.287175 
L 461.373372 292.203773 
L 465.567359 291.995267 
L 470.360487 291.911865 
L 472.757051 291.828463 
L 475.153615 291.786762 
L 476.351897 291.661658 
L 478.748461 291.578256 
L 484.739871 291.244647 
L 488.334717 291.202946 
L 490.13214 291.036141 
L 491.929563 290.99444 
L 496.12355 290.911038 
L 498.520115 290.827635 
L 505.709807 290.744233 
L 508.705512 290.61913 
L 512.300358 290.535727 
L 514.097781 290.327222 
L 517.692627 290.28552 
L 519.49005 290.118716 
L 521.886614 290.035314 
L 529.076306 289.951911 
L 532.072011 289.826808 
L 542.257409 289.785107 
L 543.455691 289.701704 
L 545.253114 289.660003 
L 553.041947 289.576601 
L 554.240229 289.493199 
L 560.83078 289.409796 
L 563.227344 289.326394 
L 570.417037 289.284693 
L 571.615319 289.201291 
L 580.602434 289.15959 
L 582.399857 288.992785 
L 597.378382 288.909383 
L 599.175805 288.867682 
L 615.352613 288.784279 
L 617.749177 288.700877 
L 627.934574 288.617475 
L 629.132856 288.534072 
L 632.128561 288.45067 
L 633.925984 288.283866 
L 636.921689 288.200463 
L 639.318253 288.117061 
L 642.913099 288.033659 
L 644.710523 287.991958 
L 647.107087 287.908555 
L 648.90451 287.866854 
L 651.900215 287.783452 
L 653.098497 287.70005 
L 656.693343 287.616647 
L 659.689048 287.491544 
L 660.88733 287.449843 
L 662.085612 287.366441 
L 663.883035 287.324739 
L 666.279599 287.241337 
L 668.676163 287.157935 
L 676.464996 287.074533 
L 678.86156 286.99113 
L 683.654689 286.907728 
L 687.848676 286.699222 
L 693.240945 286.61582 
L 694.439227 286.532418 
L 705.223765 286.449015 
L 707.021188 286.407314 
L 710.016893 286.365613 
L 712.413457 286.115406 
L 714.21088 286.073705 
L 717.805727 285.990303 
L 724.396278 285.614993 
L 726.792842 285.53159 
L 729.189406 285.448188 
L 732.784252 285.364786 
L 733.982534 285.281383 
L 736.379098 285.197981 
L 738.775662 284.947774 
L 741.172226 284.864372 
L 745.366213 284.78097 
L 745.965354 284.655866 
L 747.163636 284.655866 
L 747.163636 284.655866 
" clip-path="url(#paa89d77aa1)" style="fill: none; stroke: #ff7f0e; stroke-width: 1.5; stroke-linecap: square"/>
   </g>
   <g id="patch_3">
    <path d="M 108 320.4 
L 108 43.2 
" style="fill: none; stroke: #a9a9a9; stroke-width: 0.8; stroke-linejoin: miter; stroke-linecap: square"/>
   </g>
   <g id="patch_4">
    <path d="M 777.6 320.4 
L 777.6 43.2 
" style="fill: none"/>
   </g>
   <g id="patch_5">
    <path d="M 108 320.4 
L 777.6 320.4 
" style="fill: none; stroke: #a9a9a9; stroke-width: 0.8; stroke-linejoin: miter; stroke-linecap: square"/>
   </g>
   <g id="patch_6">
    <path d="M 108 43.2 
L 777.6 43.2 
" style="fill: none"/>
   </g>
   <g id="text_18">
    <!-- get_subscribe history -->
    <g style="fill: #a9a9a9" transform="translate(378.6075 37.2) scale(0.12 -0.12)">
     <defs>
      <path id="DejaVuSans-67" d="M 2906 1791 
Q 2906 2416 2648 2759 
Q 2391 3103 1925 3103 
Q 1463 3103 1205 2759 
Q 947 2416 947 1791 
Q 947 1169 1205 825 
Q 1463 481 1925 481 
Q 2391 481 2648 825 
Q 2906 1169 2906 1791 
z
M 3481 434 
Q 3481 -459 3084 -895 
Q 2688 -1331 1869 -1331 
Q 1566 -1331 1297 -1286 
Q 1028 -1241 775 -1147 
L 775 -588 
Q 1028 -725 1275 -790 
Q 1522 -856 1778 -856 
Q 2344 -856 2625 -561 
Q 2906 -266 2906 331 
L 2906 616 
Q 2728 306 2450 153 
Q 2172 0 1784 0 
Q 1141 0 747 490 
Q 353 981 353 1791 
Q 353 2603 747 3093 
Q 1141 3584 1784 3584 
Q 2172 3584 2450 3431 
Q 2728 3278 2906 2969 
L 2906 3500 
L 3481 3500 
L 3481 434 
z
" transform="scale(0.015625)"/>
      <path id="DejaVuSans-65" d="M 3597 1894 
L 3597 1613 
L 953 1613 
Q 991 1019 1311 708 
Q 1631 397 2203 397 
Q 2534 397 2845 478 
Q 3156 559 3463 722 
L 3463 178 
Q 3153 47 2828 -22 
Q 2503 -91 2169 -91 
Q 1331 -91 842 396 
Q 353 884 353 1716 
Q 353 2575 817 3079 
Q 1281 3584 2069 3584 
Q 2775 3584 3186 3129 
Q 3597 2675 3597 1894 
z
M 3022 2063 
Q 3016 2534 2758 2815 
Q 2500 3097 2075 3097 
Q 1594 3097 1305 2825 
Q 1016 2553 972 2059 
L 3022 2063 
z
" transform="scale(0.015625)"/>
      <path id="DejaVuSans-74" d="M 1172 4494 
L 1172 3500 
L 2356 3500 
L 2356 3053 
L 1172 3053 
L 1172 1153 
Q 1172 725 1289 603 
Q 1406 481 1766 481 
L 2356 481 
L 2356 0 
L 1766 0 
Q 1100 0 847 248 
Q 594 497 594 1153 
L 594 3053 
L 172 3053 
L 172 3500 
L 594 3500 
L 594 4494 
L 1172 4494 
z
" transform="scale(0.015625)"/>
      <path id="DejaVuSans-5f" d="M 3263 -1063 
L 3263 -1509 
L -63 -1509 
L -63 -1063 
L 3263 -1063 
z
" transform="scale(0.015625)"/>
      <path id="DejaVuSans-73" d="M 2834 3397 
L 2834 2853 
Q 2591 2978 2328 3040 
Q 2066 3103 1784 3103 
Q 1356 3103 1142 2972 
Q 928 2841 928 2578 
Q 928 2378 1081 2264 
Q 1234 2150 1697 2047 
L 1894 2003 
Q 2506 1872 2764 1633 
Q 3022 1394 3022 966 
Q 3022 478 2636 193 
Q 2250 -91 1575 -91 
Q 1294 -91 989 -36 
Q 684 19 347 128 
L 347 722 
Q 666 556 975 473 
Q 1284 391 1588 391 
Q 1994 391 2212 530 
Q 2431 669 2431 922 
Q 2431 1156 2273 1281 
Q 2116 1406 1581 1522 
L 1381 1569 
Q 847 1681 609 1914 
Q 372 2147 372 2553 
Q 372 3047 722 3315 
Q 1072 3584 1716 3584 
Q 2034 3584 2315 3537 
Q 2597 3491 2834 3397 
z
" transform="scale(0.015625)"/>
      <path id="DejaVuSans-75" d="M 544 1381 
L 544 3500 
L 1119 3500 
L 1119 1403 
Q 1119 906 1312 657 
Q 1506 409 1894 409 
Q 2359 409 2629 706 
Q 2900 1003 2900 1516 
L 2900 3500 
L 3475 3500 
L 3475 0 
L 2900 0 
L 2900 538 
Q 2691 219 2414 64 
Q 2138 -91 1772 -91 
Q 1169 -91 856 284 
Q 544 659 544 1381 
z
M 1991 3584 
L 1991 3584 
z
" transform="scale(0.015625)"/>
      <path id="DejaVuSans-62" d="M 3116 1747 
Q 3116 2381 2855 2742 
Q 2594 3103 2138 3103 
Q 1681 3103 1420 2742 
Q 1159 2381 1159 1747 
Q 1159 1113 1420 752 
Q 1681 391 2138 391 
Q 2594 391 2855 752 
Q 3116 1113 3116 1747 
z
M 1159 2969 
Q 1341 3281 1617 3432 
Q 1894 3584 2278 3584 
Q 2916 3584 3314 3078 
Q 3713 2572 3713 1747 
Q 3713 922 3314 415 
Q 2916 -91 2278 -91 
Q 1894 -91 1617 61 
Q 1341 213 1159 525 
L 1159 0 
L 581 0 
L 581 4863 
L 1159 4863 
L 1159 2969 
z
" transform="scale(0.015625)"/>
      <path id="DejaVuSans-63" d="M 3122 3366 
L 3122 2828 
Q 2878 2963 2633 3030 
Q 2388 3097 2138 3097 
Q 1578 3097 1268 2742 
Q 959 2388 959 1747 
Q 959 1106 1268 751 
Q 1578 397 2138 397 
Q 2388 397 2633 464 
Q 2878 531 3122 666 
L 3122 134 
Q 2881 22 2623 -34 
Q 2366 -91 2075 -91 
Q 1284 -91 818 406 
Q 353 903 353 1747 
Q 353 2603 823 3093 
Q 1294 3584 2113 3584 
Q 2378 3584 2631 3529 
Q 2884 3475 3122 3366 
z
" transform="scale(0.015625)"/>
      <path id="DejaVuSans-72" d="M 2631 2963 
Q 2534 3019 2420 3045 
Q 2306 3072 2169 3072 
Q 1681 3072 1420 2755 
Q 1159 2438 1159 1844 
L 1159 0 
L 581 0 
L 581 3500 
L 1159 3500 
L 1159 2956 
Q 1341 3275 1631 3429 
Q 1922 3584 2338 3584 
Q 2397 3584 2469 3576 
Q 2541 3569 2628 3553 
L 2631 2963 
z
" transform="scale(0.015625)"/>
      <path id="DejaVuSans-69" d="M 603 3500 
L 1178 3500 
L 1178 0 
L 603 0 
L 603 3500 
z
M 603 4863 
L 1178 4863 
L 1178 4134 
L 603 4134 
L 603 4863 
z
" transform="scale(0.015625)"/>
      <path id="DejaVuSans-20" transform="scale(0.015625)"/>
      <path id="DejaVuSans-68" d="M 3513 2113 
L 3513 0 
L 2938 0 
L 2938 2094 
Q 2938 2591 2744 2837 
Q 2550 3084 2163 3084 
Q 1697 3084 1428 2787 
Q 1159 2491 1159 1978 
L 1159 0 
L 581 0 
L 581 4863 
L 1159 4863 
L 1159 2956 
Q 1366 3272 1645 3428 
Q 1925 3584 2291 3584 
Q 2894 3584 3203 3211 
Q 3513 2838 3513 2113 
z
" transform="scale(0.015625)"/>
      <path id="DejaVuSans-6f" d="M 1959 3097 
Q 1497 3097 1228 2736 
Q 959 2375 959 1747 
Q 959 1119 1226 758 
Q 1494 397 1959 397 
Q 2419 397 2687 759 
Q 2956 1122 2956 1747 
Q 2956 2369 2687 2733 
Q 2419 3097 1959 3097 
z
M 1959 3584 
Q 2709 3584 3137 3096 
Q 3566 2609 3566 1747 
Q 3566 888 3137 398 
Q 2709 -91 1959 -91 
Q 1206 -91 779 398 
Q 353 888 353 1747 
Q 353 2609 779 3096 
Q 1206 3584 1959 3584 
z
" transform="scale(0.015625)"/>
      <path id="DejaVuSans-79" d="M 2059 -325 
Q 1816 -950 1584 -1140 
Q 1353 -1331 966 -1331 
L 506 -1331 
L 506 -850 
L 844 -850 
Q 1081 -850 1212 -737 
Q 1344 -625 1503 -206 
L 1606 56 
L 191 3500 
L 800 3500 
L 1894 763 
L 2988 3500 
L 3597 3500 
L 2059 -325 
z
" transform="scale(0.015625)"/>
     </defs>
     <use xlink:href="#DejaVuSans-67"/>
     <use xlink:href="#DejaVuSans-65" x="63.476562"/>
     <use xlink:href="#DejaVuSans-74" x="125"/>
     <use xlink:href="#DejaVuSans-5f" x="164.208984"/>
     <use xlink:href="#DejaVuSans-73" x="214.208984"/>
     <use xlink:href="#DejaVuSans-75" x="266.308594"/>
     <use xlink:href="#DejaVuSans-62" x="329.6875"/>
     <use xlink:href="#DejaVuSans-73" x="393.164062"/>
     <use xlink:href="#DejaVuSans-63" x="445.263672"/>
     <use xlink:href="#DejaVuSans-72" x="500.244141"/>
     <use xlink:href="#DejaVuSans-69" x="541.357422"/>
     <use xlink:href="#DejaVuSans-62" x="569.140625"/>
     <use xlink:href="#DejaVuSans-65" x="632.617188"/>
     <use xlink:href="#DejaVuSans-20" x="694.140625"/>
     <use xlink:href="#DejaVuSans-68" x="725.927734"/>
     <use xlink:href="#DejaVuSans-69" x="789.306641"/>
     <use xlink:href="#DejaVuSans-73" x="817.089844"/>
     <use xlink:href="#DejaVuSans-74" x="869.189453"/>
     <use xlink:href="#DejaVuSans-6f" x="908.398438"/>
     <use xlink:href="#DejaVuSans-72" x="969.580078"/>
     <use xlink:href="#DejaVuSans-79" x="1010.693359"/>
    </g>
   </g>
   <g id="legend_1">
    <g id="line2d_37">
     <path d="M 815.08 328.498438 
L 825.08 328.498438 
L 835.08 328.498438 
" style="fill: none; stroke: #1f77b4; stroke-width: 1.5; stroke-linecap: square"/>
    </g>
    <g id="text_19">
     <!-- star -->
     <g style="fill: #a9a9a9" transform="translate(843.08 331.998438) scale(0.1 -0.1)">
      <defs>
       <path id="DejaVuSans-61" d="M 2194 1759 
Q 1497 1759 1228 1600 
Q 959 1441 959 1056 
Q 959 750 1161 570 
Q 1363 391 1709 391 
Q 2188 391 2477 730 
Q 2766 1069 2766 1631 
L 2766 1759 
L 2194 1759 
z
M 3341 1997 
L 3341 0 
L 2766 0 
L 2766 531 
Q 2569 213 2275 61 
Q 1981 -91 1556 -91 
Q 1019 -91 701 211 
Q 384 513 384 1019 
Q 384 1609 779 1909 
Q 1175 2209 1959 2209 
L 2766 2209 
L 2766 2266 
Q 2766 2663 2505 2880 
Q 2244 3097 1772 3097 
Q 1472 3097 1187 3025 
Q 903 2953 641 2809 
L 641 3341 
Q 956 3463 1253 3523 
Q 1550 3584 1831 3584 
Q 2591 3584 2966 3190 
Q 3341 2797 3341 1997 
z
" transform="scale(0.015625)"/>
      </defs>
      <use xlink:href="#DejaVuSans-73"/>
      <use xlink:href="#DejaVuSans-74" x="52.099609"/>
      <use xlink:href="#DejaVuSans-61" x="91.308594"/>
      <use xlink:href="#DejaVuSans-72" x="152.587891"/>
     </g>
    </g>
    <g id="line2d_38">
     <path d="M 815.08 343.176562 
L 825.08 343.176562 
L 835.08 343.176562 
" style="fill: none; stroke: #ff7f0e; stroke-width: 1.5; stroke-linecap: square"/>
    </g>
    <g id="text_20">
     <!-- fork -->
     <g style="fill: #a9a9a9" transform="translate(843.08 346.676562) scale(0.1 -0.1)">
      <defs>
       <path id="DejaVuSans-66" d="M 2375 4863 
L 2375 4384 
L 1825 4384 
Q 1516 4384 1395 4259 
Q 1275 4134 1275 3809 
L 1275 3500 
L 2222 3500 
L 2222 3053 
L 1275 3053 
L 1275 0 
L 697 0 
L 697 3053 
L 147 3053 
L 147 3500 
L 697 3500 
L 697 3744 
Q 697 4328 969 4595 
Q 1241 4863 1831 4863 
L 2375 4863 
z
" transform="scale(0.015625)"/>
       <path id="DejaVuSans-6b" d="M 581 4863 
L 1159 4863 
L 1159 1991 
L 2875 3500 
L 3609 3500 
L 1753 1863 
L 3688 0 
L 2938 0 
L 1159 1709 
L 1159 0 
L 581 0 
L 581 4863 
z
" transform="scale(0.015625)"/>
      </defs>
      <use xlink:href="#DejaVuSans-66"/>
      <use xlink:href="#DejaVuSans-6f" x="35.205078"/>
      <use xlink:href="#DejaVuSans-72" x="96.386719"/>
      <use xlink:href="#DejaVuSans-6b" x="137.5"/>
     </g>
    </g>
   </g>
  </g>
 </g>
 <defs>
  <clipPath id="paa89d77aa1">
   <rect x="108" y="43.2" width="669.6" height="277.2"/>
  </clipPath>
 </defs>
</svg>
