<?xml version="1.0" encoding="utf-8" standalone="no"?>
<!DOCTYPE svg PUBLIC "-//W3C//DTD SVG 1.1//EN"
  "http://www.w3.org/Graphics/SVG/1.1/DTD/svg11.dtd">
<svg xmlns:xlink="http://www.w3.org/1999/xlink" width="864pt" height="360pt" viewBox="0 0 864 360" xmlns="http://www.w3.org/2000/svg" version="1.1">
 <metadata>
  <rdf:RDF xmlns:dc="http://purl.org/dc/elements/1.1/" xmlns:cc="http://creativecommons.org/ns#" xmlns:rdf="http://www.w3.org/1999/02/22-rdf-syntax-ns#">
   <cc:Work>
    <dc:type rdf:resource="http://purl.org/dc/dcmitype/StillImage"/>
    <dc:date>2024-05-01T08:11:52.336319</dc:date>
    <dc:format>image/svg+xml</dc:format>
    <dc:creator>
     <cc:Agent>
      <dc:title>Matplotlib v3.8.4, https://matplotlib.org/</dc:title>
     </cc:Agent>
    </dc:creator>
   </cc:Work>
  </rdf:RDF>
 </metadata>
 <defs>
  <style type="text/css">*{stroke-linejoin: round; stroke-linecap: butt}</style>
 </defs>
 <g id="figure_1">
  <g id="patch_1">
   <path d="M 0 360 
L 864 360 
L 864 0 
L 0 0 
L 0 360 
z
" style="fill: none; opacity: 0"/>
  </g>
  <g id="axes_1">
   <g id="patch_2">
    <path d="M 108 320.4 
L 777.6 320.4 
L 777.6 43.2 
L 108 43.2 
L 108 320.4 
z
" style="fill: none; opacity: 0"/>
   </g>
   <g id="matplotlib.axis_1">
    <g id="xtick_1">
     <g id="line2d_1">
      <path d="M 161.895221 320.4 
L 161.895221 43.2 
" clip-path="url(#p3df19c66cd)" style="fill: none; stroke-dasharray: 5.12,1.28,0.8,1.28; stroke-dashoffset: 0; stroke: #b0b0b0; stroke-width: 0.8"/>
     </g>
     <g id="line2d_2">
      <defs>
       <path id="m54d2df2bfe" d="M 0 0 
L 0 3.5 
" style="stroke: #a9a9a9; stroke-width: 0.8"/>
      </defs>
      <g>
       <use xlink:href="#m54d2df2bfe" x="161.895221" y="320.4" style="fill: #a9a9a9; stroke: #a9a9a9; stroke-width: 0.8"/>
      </g>
     </g>
     <g id="text_1">
      <!-- 2021-09 -->
      <g style="fill: #a9a9a9" transform="translate(141.003815 334.998438) scale(0.1 -0.1)">
       <defs>
        <path id="DejaVuSans-32" d="M 1228 531 
L 3431 531 
L 3431 0 
L 469 0 
L 469 531 
Q 828 903 1448 1529 
Q 2069 2156 2228 2338 
Q 2531 2678 2651 2914 
Q 2772 3150 2772 3378 
Q 2772 3750 2511 3984 
Q 2250 4219 1831 4219 
Q 1534 4219 1204 4116 
Q 875 4013 500 3803 
L 500 4441 
Q 881 4594 1212 4672 
Q 1544 4750 1819 4750 
Q 2544 4750 2975 4387 
Q 3406 4025 3406 3419 
Q 3406 3131 3298 2873 
Q 3191 2616 2906 2266 
Q 2828 2175 2409 1742 
Q 1991 1309 1228 531 
z
" transform="scale(0.015625)"/>
        <path id="DejaVuSans-30" d="M 2034 4250 
Q 1547 4250 1301 3770 
Q 1056 3291 1056 2328 
Q 1056 1369 1301 889 
Q 1547 409 2034 409 
Q 2525 409 2770 889 
Q 3016 1369 3016 2328 
Q 3016 3291 2770 3770 
Q 2525 4250 2034 4250 
z
M 2034 4750 
Q 2819 4750 3233 4129 
Q 3647 3509 3647 2328 
Q 3647 1150 3233 529 
Q 2819 -91 2034 -91 
Q 1250 -91 836 529 
Q 422 1150 422 2328 
Q 422 3509 836 4129 
Q 1250 4750 2034 4750 
z
" transform="scale(0.015625)"/>
        <path id="DejaVuSans-31" d="M 794 531 
L 1825 531 
L 1825 4091 
L 703 3866 
L 703 4441 
L 1819 4666 
L 2450 4666 
L 2450 531 
L 3481 531 
L 3481 0 
L 794 0 
L 794 531 
z
" transform="scale(0.015625)"/>
        <path id="DejaVuSans-2d" d="M 313 2009 
L 1997 2009 
L 1997 1497 
L 313 1497 
L 313 2009 
z
" transform="scale(0.015625)"/>
        <path id="DejaVuSans-39" d="M 703 97 
L 703 672 
Q 941 559 1184 500 
Q 1428 441 1663 441 
Q 2288 441 2617 861 
Q 2947 1281 2994 2138 
Q 2813 1869 2534 1725 
Q 2256 1581 1919 1581 
Q 1219 1581 811 2004 
Q 403 2428 403 3163 
Q 403 3881 828 4315 
Q 1253 4750 1959 4750 
Q 2769 4750 3195 4129 
Q 3622 3509 3622 2328 
Q 3622 1225 3098 567 
Q 2575 -91 1691 -91 
Q 1453 -91 1209 -44 
Q 966 3 703 97 
z
M 1959 2075 
Q 2384 2075 2632 2365 
Q 2881 2656 2881 3163 
Q 2881 3666 2632 3958 
Q 2384 4250 1959 4250 
Q 1534 4250 1286 3958 
Q 1038 3666 1038 3163 
Q 1038 2656 1286 2365 
Q 1534 2075 1959 2075 
z
" transform="scale(0.015625)"/>
       </defs>
       <use xlink:href="#DejaVuSans-32"/>
       <use xlink:href="#DejaVuSans-30" x="63.623047"/>
       <use xlink:href="#DejaVuSans-32" x="127.246094"/>
       <use xlink:href="#DejaVuSans-31" x="190.869141"/>
       <use xlink:href="#DejaVuSans-2d" x="254.492188"/>
       <use xlink:href="#DejaVuSans-30" x="290.576172"/>
       <use xlink:href="#DejaVuSans-39" x="354.199219"/>
      </g>
     </g>
    </g>
    <g id="xtick_2">
     <g id="line2d_3">
      <path d="M 235.279339 320.4 
L 235.279339 43.2 
" clip-path="url(#p3df19c66cd)" style="fill: none; stroke-dasharray: 5.12,1.28,0.8,1.28; stroke-dashoffset: 0; stroke: #b0b0b0; stroke-width: 0.8"/>
     </g>
     <g id="line2d_4">
      <g>
       <use xlink:href="#m54d2df2bfe" x="235.279339" y="320.4" style="fill: #a9a9a9; stroke: #a9a9a9; stroke-width: 0.8"/>
      </g>
     </g>
     <g id="text_2">
      <!-- 2022-01 -->
      <g style="fill: #a9a9a9" transform="translate(214.387933 334.998438) scale(0.1 -0.1)">
       <use xlink:href="#DejaVuSans-32"/>
       <use xlink:href="#DejaVuSans-30" x="63.623047"/>
       <use xlink:href="#DejaVuSans-32" x="127.246094"/>
       <use xlink:href="#DejaVuSans-32" x="190.869141"/>
       <use xlink:href="#DejaVuSans-2d" x="254.492188"/>
       <use xlink:href="#DejaVuSans-30" x="290.576172"/>
       <use xlink:href="#DejaVuSans-31" x="354.199219"/>
      </g>
     </g>
    </g>
    <g id="xtick_3">
     <g id="line2d_5">
      <path d="M 307.460438 320.4 
L 307.460438 43.2 
" clip-path="url(#p3df19c66cd)" style="fill: none; stroke-dasharray: 5.12,1.28,0.8,1.28; stroke-dashoffset: 0; stroke: #b0b0b0; stroke-width: 0.8"/>
     </g>
     <g id="line2d_6">
      <g>
       <use xlink:href="#m54d2df2bfe" x="307.460438" y="320.4" style="fill: #a9a9a9; stroke: #a9a9a9; stroke-width: 0.8"/>
      </g>
     </g>
     <g id="text_3">
      <!-- 2022-05 -->
      <g style="fill: #a9a9a9" transform="translate(286.569032 334.998438) scale(0.1 -0.1)">
       <defs>
        <path id="DejaVuSans-35" d="M 691 4666 
L 3169 4666 
L 3169 4134 
L 1269 4134 
L 1269 2991 
Q 1406 3038 1543 3061 
Q 1681 3084 1819 3084 
Q 2600 3084 3056 2656 
Q 3513 2228 3513 1497 
Q 3513 744 3044 326 
Q 2575 -91 1722 -91 
Q 1428 -91 1123 -41 
Q 819 9 494 109 
L 494 744 
Q 775 591 1075 516 
Q 1375 441 1709 441 
Q 2250 441 2565 725 
Q 2881 1009 2881 1497 
Q 2881 1984 2565 2268 
Q 2250 2553 1709 2553 
Q 1456 2553 1204 2497 
Q 953 2441 691 2322 
L 691 4666 
z
" transform="scale(0.015625)"/>
       </defs>
       <use xlink:href="#DejaVuSans-32"/>
       <use xlink:href="#DejaVuSans-30" x="63.623047"/>
       <use xlink:href="#DejaVuSans-32" x="127.246094"/>
       <use xlink:href="#DejaVuSans-32" x="190.869141"/>
       <use xlink:href="#DejaVuSans-2d" x="254.492188"/>
       <use xlink:href="#DejaVuSans-30" x="290.576172"/>
       <use xlink:href="#DejaVuSans-35" x="354.199219"/>
      </g>
     </g>
    </g>
    <g id="xtick_4">
     <g id="line2d_7">
      <path d="M 381.446065 320.4 
L 381.446065 43.2 
" clip-path="url(#p3df19c66cd)" style="fill: none; stroke-dasharray: 5.12,1.28,0.8,1.28; stroke-dashoffset: 0; stroke: #b0b0b0; stroke-width: 0.8"/>
     </g>
     <g id="line2d_8">
      <g>
       <use xlink:href="#m54d2df2bfe" x="381.446065" y="320.4" style="fill: #a9a9a9; stroke: #a9a9a9; stroke-width: 0.8"/>
      </g>
     </g>
     <g id="text_4">
      <!-- 2022-09 -->
      <g style="fill: #a9a9a9" transform="translate(360.554659 334.998438) scale(0.1 -0.1)">
       <use xlink:href="#DejaVuSans-32"/>
       <use xlink:href="#DejaVuSans-30" x="63.623047"/>
       <use xlink:href="#DejaVuSans-32" x="127.246094"/>
       <use xlink:href="#DejaVuSans-32" x="190.869141"/>
       <use xlink:href="#DejaVuSans-2d" x="254.492188"/>
       <use xlink:href="#DejaVuSans-30" x="290.576172"/>
       <use xlink:href="#DejaVuSans-39" x="354.199219"/>
      </g>
     </g>
    </g>
    <g id="xtick_5">
     <g id="line2d_9">
      <path d="M 454.830183 320.4 
L 454.830183 43.2 
" clip-path="url(#p3df19c66cd)" style="fill: none; stroke-dasharray: 5.12,1.28,0.8,1.28; stroke-dashoffset: 0; stroke: #b0b0b0; stroke-width: 0.8"/>
     </g>
     <g id="line2d_10">
      <g>
       <use xlink:href="#m54d2df2bfe" x="454.830183" y="320.4" style="fill: #a9a9a9; stroke: #a9a9a9; stroke-width: 0.8"/>
      </g>
     </g>
     <g id="text_5">
      <!-- 2023-01 -->
      <g style="fill: #a9a9a9" transform="translate(433.938777 334.998438) scale(0.1 -0.1)">
       <defs>
        <path id="DejaVuSans-33" d="M 2597 2516 
Q 3050 2419 3304 2112 
Q 3559 1806 3559 1356 
Q 3559 666 3084 287 
Q 2609 -91 1734 -91 
Q 1441 -91 1130 -33 
Q 819 25 488 141 
L 488 750 
Q 750 597 1062 519 
Q 1375 441 1716 441 
Q 2309 441 2620 675 
Q 2931 909 2931 1356 
Q 2931 1769 2642 2001 
Q 2353 2234 1838 2234 
L 1294 2234 
L 1294 2753 
L 1863 2753 
Q 2328 2753 2575 2939 
Q 2822 3125 2822 3475 
Q 2822 3834 2567 4026 
Q 2313 4219 1838 4219 
Q 1578 4219 1281 4162 
Q 984 4106 628 3988 
L 628 4550 
Q 988 4650 1302 4700 
Q 1616 4750 1894 4750 
Q 2613 4750 3031 4423 
Q 3450 4097 3450 3541 
Q 3450 3153 3228 2886 
Q 3006 2619 2597 2516 
z
" transform="scale(0.015625)"/>
       </defs>
       <use xlink:href="#DejaVuSans-32"/>
       <use xlink:href="#DejaVuSans-30" x="63.623047"/>
       <use xlink:href="#DejaVuSans-32" x="127.246094"/>
       <use xlink:href="#DejaVuSans-33" x="190.869141"/>
       <use xlink:href="#DejaVuSans-2d" x="254.492188"/>
       <use xlink:href="#DejaVuSans-30" x="290.576172"/>
       <use xlink:href="#DejaVuSans-31" x="354.199219"/>
      </g>
     </g>
    </g>
    <g id="xtick_6">
     <g id="line2d_11">
      <path d="M 527.011283 320.4 
L 527.011283 43.2 
" clip-path="url(#p3df19c66cd)" style="fill: none; stroke-dasharray: 5.12,1.28,0.8,1.28; stroke-dashoffset: 0; stroke: #b0b0b0; stroke-width: 0.8"/>
     </g>
     <g id="line2d_12">
      <g>
       <use xlink:href="#m54d2df2bfe" x="527.011283" y="320.4" style="fill: #a9a9a9; stroke: #a9a9a9; stroke-width: 0.8"/>
      </g>
     </g>
     <g id="text_6">
      <!-- 2023-05 -->
      <g style="fill: #a9a9a9" transform="translate(506.119877 334.998438) scale(0.1 -0.1)">
       <use xlink:href="#DejaVuSans-32"/>
       <use xlink:href="#DejaVuSans-30" x="63.623047"/>
       <use xlink:href="#DejaVuSans-32" x="127.246094"/>
       <use xlink:href="#DejaVuSans-33" x="190.869141"/>
       <use xlink:href="#DejaVuSans-2d" x="254.492188"/>
       <use xlink:href="#DejaVuSans-30" x="290.576172"/>
       <use xlink:href="#DejaVuSans-35" x="354.199219"/>
      </g>
     </g>
    </g>
    <g id="xtick_7">
     <g id="line2d_13">
      <path d="M 600.99691 320.4 
L 600.99691 43.2 
" clip-path="url(#p3df19c66cd)" style="fill: none; stroke-dasharray: 5.12,1.28,0.8,1.28; stroke-dashoffset: 0; stroke: #b0b0b0; stroke-width: 0.8"/>
     </g>
     <g id="line2d_14">
      <g>
       <use xlink:href="#m54d2df2bfe" x="600.99691" y="320.4" style="fill: #a9a9a9; stroke: #a9a9a9; stroke-width: 0.8"/>
      </g>
     </g>
     <g id="text_7">
      <!-- 2023-09 -->
      <g style="fill: #a9a9a9" transform="translate(580.105504 334.998438) scale(0.1 -0.1)">
       <use xlink:href="#DejaVuSans-32"/>
       <use xlink:href="#DejaVuSans-30" x="63.623047"/>
       <use xlink:href="#DejaVuSans-32" x="127.246094"/>
       <use xlink:href="#DejaVuSans-33" x="190.869141"/>
       <use xlink:href="#DejaVuSans-2d" x="254.492188"/>
       <use xlink:href="#DejaVuSans-30" x="290.576172"/>
       <use xlink:href="#DejaVuSans-39" x="354.199219"/>
      </g>
     </g>
    </g>
    <g id="xtick_8">
     <g id="line2d_15">
      <path d="M 674.381028 320.4 
L 674.381028 43.2 
" clip-path="url(#p3df19c66cd)" style="fill: none; stroke-dasharray: 5.12,1.28,0.8,1.28; stroke-dashoffset: 0; stroke: #b0b0b0; stroke-width: 0.8"/>
     </g>
     <g id="line2d_16">
      <g>
       <use xlink:href="#m54d2df2bfe" x="674.381028" y="320.4" style="fill: #a9a9a9; stroke: #a9a9a9; stroke-width: 0.8"/>
      </g>
     </g>
     <g id="text_8">
      <!-- 2024-01 -->
      <g style="fill: #a9a9a9" transform="translate(653.489621 334.998438) scale(0.1 -0.1)">
       <defs>
        <path id="DejaVuSans-34" d="M 2419 4116 
L 825 1625 
L 2419 1625 
L 2419 4116 
z
M 2253 4666 
L 3047 4666 
L 3047 1625 
L 3713 1625 
L 3713 1100 
L 3047 1100 
L 3047 0 
L 2419 0 
L 2419 1100 
L 313 1100 
L 313 1709 
L 2253 4666 
z
" transform="scale(0.015625)"/>
       </defs>
       <use xlink:href="#DejaVuSans-32"/>
       <use xlink:href="#DejaVuSans-30" x="63.623047"/>
       <use xlink:href="#DejaVuSans-32" x="127.246094"/>
       <use xlink:href="#DejaVuSans-34" x="190.869141"/>
       <use xlink:href="#DejaVuSans-2d" x="254.492188"/>
       <use xlink:href="#DejaVuSans-30" x="290.576172"/>
       <use xlink:href="#DejaVuSans-31" x="354.199219"/>
      </g>
     </g>
    </g>
    <g id="xtick_9">
     <g id="line2d_17">
      <path d="M 747.163636 320.4 
L 747.163636 43.2 
" clip-path="url(#p3df19c66cd)" style="fill: none; stroke-dasharray: 5.12,1.28,0.8,1.28; stroke-dashoffset: 0; stroke: #b0b0b0; stroke-width: 0.8"/>
     </g>
     <g id="line2d_18">
      <g>
       <use xlink:href="#m54d2df2bfe" x="747.163636" y="320.4" style="fill: #a9a9a9; stroke: #a9a9a9; stroke-width: 0.8"/>
      </g>
     </g>
     <g id="text_9">
      <!-- 2024-05 -->
      <g style="fill: #a9a9a9" transform="translate(726.27223 334.998438) scale(0.1 -0.1)">
       <use xlink:href="#DejaVuSans-32"/>
       <use xlink:href="#DejaVuSans-30" x="63.623047"/>
       <use xlink:href="#DejaVuSans-32" x="127.246094"/>
       <use xlink:href="#DejaVuSans-34" x="190.869141"/>
       <use xlink:href="#DejaVuSans-2d" x="254.492188"/>
       <use xlink:href="#DejaVuSans-30" x="290.576172"/>
       <use xlink:href="#DejaVuSans-35" x="354.199219"/>
      </g>
     </g>
    </g>
   </g>
   <g id="matplotlib.axis_2">
    <g id="ytick_1">
     <g id="line2d_19">
      <path d="M 108 307.841874 
L 777.6 307.841874 
" clip-path="url(#p3df19c66cd)" style="fill: none; stroke-dasharray: 5.12,1.28,0.8,1.28; stroke-dashoffset: 0; stroke: #b0b0b0; stroke-width: 0.8"/>
     </g>
     <g id="line2d_20">
      <defs>
       <path id="m43920a4322" d="M 0 0 
L -3.5 0 
" style="stroke: #a9a9a9; stroke-width: 0.8"/>
      </defs>
      <g>
       <use xlink:href="#m43920a4322" x="108" y="307.841874" style="fill: #a9a9a9; stroke: #a9a9a9; stroke-width: 0.8"/>
      </g>
     </g>
     <g id="text_10">
      <!-- 0 -->
      <g style="fill: #a9a9a9" transform="translate(94.6375 311.641093) scale(0.1 -0.1)">
       <use xlink:href="#DejaVuSans-30"/>
      </g>
     </g>
    </g>
    <g id="ytick_2">
     <g id="line2d_21">
      <path d="M 108 274.342373 
L 777.6 274.342373 
" clip-path="url(#p3df19c66cd)" style="fill: none; stroke-dasharray: 5.12,1.28,0.8,1.28; stroke-dashoffset: 0; stroke: #b0b0b0; stroke-width: 0.8"/>
     </g>
     <g id="line2d_22">
      <g>
       <use xlink:href="#m43920a4322" x="108" y="274.342373" style="fill: #a9a9a9; stroke: #a9a9a9; stroke-width: 0.8"/>
      </g>
     </g>
     <g id="text_11">
      <!-- 800 -->
      <g style="fill: #a9a9a9" transform="translate(81.9125 278.141592) scale(0.1 -0.1)">
       <defs>
        <path id="DejaVuSans-38" d="M 2034 2216 
Q 1584 2216 1326 1975 
Q 1069 1734 1069 1313 
Q 1069 891 1326 650 
Q 1584 409 2034 409 
Q 2484 409 2743 651 
Q 3003 894 3003 1313 
Q 3003 1734 2745 1975 
Q 2488 2216 2034 2216 
z
M 1403 2484 
Q 997 2584 770 2862 
Q 544 3141 544 3541 
Q 544 4100 942 4425 
Q 1341 4750 2034 4750 
Q 2731 4750 3128 4425 
Q 3525 4100 3525 3541 
Q 3525 3141 3298 2862 
Q 3072 2584 2669 2484 
Q 3125 2378 3379 2068 
Q 3634 1759 3634 1313 
Q 3634 634 3220 271 
Q 2806 -91 2034 -91 
Q 1263 -91 848 271 
Q 434 634 434 1313 
Q 434 1759 690 2068 
Q 947 2378 1403 2484 
z
M 1172 3481 
Q 1172 3119 1398 2916 
Q 1625 2713 2034 2713 
Q 2441 2713 2670 2916 
Q 2900 3119 2900 3481 
Q 2900 3844 2670 4047 
Q 2441 4250 2034 4250 
Q 1625 4250 1398 4047 
Q 1172 3844 1172 3481 
z
" transform="scale(0.015625)"/>
       </defs>
       <use xlink:href="#DejaVuSans-38"/>
       <use xlink:href="#DejaVuSans-30" x="63.623047"/>
       <use xlink:href="#DejaVuSans-30" x="127.246094"/>
      </g>
     </g>
    </g>
    <g id="ytick_3">
     <g id="line2d_23">
      <path d="M 108 240.842871 
L 777.6 240.842871 
" clip-path="url(#p3df19c66cd)" style="fill: none; stroke-dasharray: 5.12,1.28,0.8,1.28; stroke-dashoffset: 0; stroke: #b0b0b0; stroke-width: 0.8"/>
     </g>
     <g id="line2d_24">
      <g>
       <use xlink:href="#m43920a4322" x="108" y="240.842871" style="fill: #a9a9a9; stroke: #a9a9a9; stroke-width: 0.8"/>
      </g>
     </g>
     <g id="text_12">
      <!-- 1600 -->
      <g style="fill: #a9a9a9" transform="translate(75.55 244.64209) scale(0.1 -0.1)">
       <defs>
        <path id="DejaVuSans-36" d="M 2113 2584 
Q 1688 2584 1439 2293 
Q 1191 2003 1191 1497 
Q 1191 994 1439 701 
Q 1688 409 2113 409 
Q 2538 409 2786 701 
Q 3034 994 3034 1497 
Q 3034 2003 2786 2293 
Q 2538 2584 2113 2584 
z
M 3366 4563 
L 3366 3988 
Q 3128 4100 2886 4159 
Q 2644 4219 2406 4219 
Q 1781 4219 1451 3797 
Q 1122 3375 1075 2522 
Q 1259 2794 1537 2939 
Q 1816 3084 2150 3084 
Q 2853 3084 3261 2657 
Q 3669 2231 3669 1497 
Q 3669 778 3244 343 
Q 2819 -91 2113 -91 
Q 1303 -91 875 529 
Q 447 1150 447 2328 
Q 447 3434 972 4092 
Q 1497 4750 2381 4750 
Q 2619 4750 2861 4703 
Q 3103 4656 3366 4563 
z
" transform="scale(0.015625)"/>
       </defs>
       <use xlink:href="#DejaVuSans-31"/>
       <use xlink:href="#DejaVuSans-36" x="63.623047"/>
       <use xlink:href="#DejaVuSans-30" x="127.246094"/>
       <use xlink:href="#DejaVuSans-30" x="190.869141"/>
      </g>
     </g>
    </g>
    <g id="ytick_4">
     <g id="line2d_25">
      <path d="M 108 207.34337 
L 777.6 207.34337 
" clip-path="url(#p3df19c66cd)" style="fill: none; stroke-dasharray: 5.12,1.28,0.8,1.28; stroke-dashoffset: 0; stroke: #b0b0b0; stroke-width: 0.8"/>
     </g>
     <g id="line2d_26">
      <g>
       <use xlink:href="#m43920a4322" x="108" y="207.34337" style="fill: #a9a9a9; stroke: #a9a9a9; stroke-width: 0.8"/>
      </g>
     </g>
     <g id="text_13">
      <!-- 2400 -->
      <g style="fill: #a9a9a9" transform="translate(75.55 211.142589) scale(0.1 -0.1)">
       <use xlink:href="#DejaVuSans-32"/>
       <use xlink:href="#DejaVuSans-34" x="63.623047"/>
       <use xlink:href="#DejaVuSans-30" x="127.246094"/>
       <use xlink:href="#DejaVuSans-30" x="190.869141"/>
      </g>
     </g>
    </g>
    <g id="ytick_5">
     <g id="line2d_27">
      <path d="M 108 173.843868 
L 777.6 173.843868 
" clip-path="url(#p3df19c66cd)" style="fill: none; stroke-dasharray: 5.12,1.28,0.8,1.28; stroke-dashoffset: 0; stroke: #b0b0b0; stroke-width: 0.8"/>
     </g>
     <g id="line2d_28">
      <g>
       <use xlink:href="#m43920a4322" x="108" y="173.843868" style="fill: #a9a9a9; stroke: #a9a9a9; stroke-width: 0.8"/>
      </g>
     </g>
     <g id="text_14">
      <!-- 3200 -->
      <g style="fill: #a9a9a9" transform="translate(75.55 177.643087) scale(0.1 -0.1)">
       <use xlink:href="#DejaVuSans-33"/>
       <use xlink:href="#DejaVuSans-32" x="63.623047"/>
       <use xlink:href="#DejaVuSans-30" x="127.246094"/>
       <use xlink:href="#DejaVuSans-30" x="190.869141"/>
      </g>
     </g>
    </g>
    <g id="ytick_6">
     <g id="line2d_29">
      <path d="M 108 140.344367 
L 777.6 140.344367 
" clip-path="url(#p3df19c66cd)" style="fill: none; stroke-dasharray: 5.12,1.28,0.8,1.28; stroke-dashoffset: 0; stroke: #b0b0b0; stroke-width: 0.8"/>
     </g>
     <g id="line2d_30">
      <g>
       <use xlink:href="#m43920a4322" x="108" y="140.344367" style="fill: #a9a9a9; stroke: #a9a9a9; stroke-width: 0.8"/>
      </g>
     </g>
     <g id="text_15">
      <!-- 4000 -->
      <g style="fill: #a9a9a9" transform="translate(75.55 144.143586) scale(0.1 -0.1)">
       <use xlink:href="#DejaVuSans-34"/>
       <use xlink:href="#DejaVuSans-30" x="63.623047"/>
       <use xlink:href="#DejaVuSans-30" x="127.246094"/>
       <use xlink:href="#DejaVuSans-30" x="190.869141"/>
      </g>
     </g>
    </g>
    <g id="ytick_7">
     <g id="line2d_31">
      <path d="M 108 106.844865 
L 777.6 106.844865 
" clip-path="url(#p3df19c66cd)" style="fill: none; stroke-dasharray: 5.12,1.28,0.8,1.28; stroke-dashoffset: 0; stroke: #b0b0b0; stroke-width: 0.8"/>
     </g>
     <g id="line2d_32">
      <g>
       <use xlink:href="#m43920a4322" x="108" y="106.844865" style="fill: #a9a9a9; stroke: #a9a9a9; stroke-width: 0.8"/>
      </g>
     </g>
     <g id="text_16">
      <!-- 4800 -->
      <g style="fill: #a9a9a9" transform="translate(75.55 110.644084) scale(0.1 -0.1)">
       <use xlink:href="#DejaVuSans-34"/>
       <use xlink:href="#DejaVuSans-38" x="63.623047"/>
       <use xlink:href="#DejaVuSans-30" x="127.246094"/>
       <use xlink:href="#DejaVuSans-30" x="190.869141"/>
      </g>
     </g>
    </g>
    <g id="ytick_8">
     <g id="line2d_33">
      <path d="M 108 73.345364 
L 777.6 73.345364 
" clip-path="url(#p3df19c66cd)" style="fill: none; stroke-dasharray: 5.12,1.28,0.8,1.28; stroke-dashoffset: 0; stroke: #b0b0b0; stroke-width: 0.8"/>
     </g>
     <g id="line2d_34">
      <g>
       <use xlink:href="#m43920a4322" x="108" y="73.345364" style="fill: #a9a9a9; stroke: #a9a9a9; stroke-width: 0.8"/>
      </g>
     </g>
     <g id="text_17">
      <!-- 5600 -->
      <g style="fill: #a9a9a9" transform="translate(75.55 77.144583) scale(0.1 -0.1)">
       <use xlink:href="#DejaVuSans-35"/>
       <use xlink:href="#DejaVuSans-36" x="63.623047"/>
       <use xlink:href="#DejaVuSans-30" x="127.246094"/>
       <use xlink:href="#DejaVuSans-30" x="190.869141"/>
      </g>
     </g>
    </g>
   </g>
   <g id="line2d_35">
    <path d="M 138.436364 307.716251 
L 142.045419 307.423131 
L 142.646928 307.171884 
L 144.451455 306.962512 
L 148.06051 306.250648 
L 151.669565 305.957527 
L 152.271074 305.664407 
L 152.872584 305.496909 
L 153.474093 304.74317 
L 154.075602 304.324427 
L 154.677111 303.026321 
L 155.27862 302.942572 
L 155.880129 302.481954 
L 157.083148 301.895713 
L 159.489184 300.05324 
L 160.692203 299.550748 
L 161.293712 299.132004 
L 163.699748 298.085145 
L 164.301258 297.163908 
L 165.504276 296.326421 
L 166.105785 296.0333 
L 172.120877 295.195813 
L 172.722386 294.902692 
L 176.93295 294.567697 
L 178.737478 294.107079 
L 184.15106 293.395214 
L 184.752569 293.060219 
L 185.354078 292.976471 
L 185.955587 292.725224 
L 187.158606 292.515852 
L 187.760115 292.473978 
L 188.963133 292.222732 
L 189.564642 292.180857 
L 191.970679 291.594616 
L 193.775207 291.427119 
L 194.978225 291.301496 
L 195.579734 291.133998 
L 196.181243 291.092124 
L 197.985771 290.547757 
L 199.188789 290.464008 
L 200.391807 290.29651 
L 201.594826 290.045264 
L 202.196335 289.877767 
L 202.797844 289.082154 
L 204.602372 288.412164 
L 206.406899 287.951545 
L 207.008408 287.658425 
L 207.609917 287.61655 
L 210.617463 286.779063 
L 211.820481 286.695314 
L 212.421991 286.611565 
L 214.226518 286.067198 
L 216.632555 285.480957 
L 217.234064 285.229711 
L 217.835573 285.145962 
L 218.437082 284.852841 
L 224.452174 283.97348 
L 227.45972 283.135992 
L 228.061229 282.759123 
L 230.467266 282.131007 
L 232.873302 280.91665 
L 234.67783 280.497906 
L 235.279339 280.414158 
L 235.880848 280.121037 
L 237.083866 279.911665 
L 238.286885 279.367298 
L 241.29443 278.613559 
L 243.098958 278.152941 
L 243.700467 277.901695 
L 244.301976 277.776072 
L 244.903485 277.524826 
L 245.504995 277.441077 
L 246.106504 277.147956 
L 246.708013 276.980459 
L 247.911031 276.89671 
L 249.11405 276.477966 
L 250.317068 276.394217 
L 250.918577 276.101097 
L 252.121595 275.933599 
L 252.723105 275.724227 
L 253.926123 275.682353 
L 256.33216 275.389232 
L 257.535178 274.802991 
L 264.151779 271.997408 
L 264.753288 271.662413 
L 265.354797 271.034297 
L 266.557815 269.275573 
L 267.159324 269.108076 
L 267.760834 269.108076 
L 268.963852 268.228714 
L 269.565361 268.061216 
L 270.16687 267.768096 
L 270.768379 267.642473 
L 271.369889 267.098106 
L 271.971398 266.930608 
L 273.775925 266.051246 
L 274.978944 264.376271 
L 275.580453 263.999402 
L 276.181962 262.994417 
L 276.783471 262.366301 
L 277.38498 262.07318 
L 277.986489 261.905683 
L 280.392526 260.481954 
L 281.595544 259.518843 
L 282.197054 259.141974 
L 282.798563 258.262612 
L 283.400072 256.922632 
L 284.001581 256.04327 
L 284.60309 255.582652 
L 285.204599 255.331406 
L 287.610636 253.237687 
L 288.813654 252.274576 
L 289.415163 251.772084 
L 290.016673 250.976471 
L 291.219691 249.929611 
L 293.625728 248.380259 
L 294.227237 247.877767 
L 294.828746 247.752144 
L 295.430255 247.500897 
L 297.234783 246.495912 
L 299.03931 245.365304 
L 300.843838 243.60658 
L 301.445347 243.229711 
L 302.046856 243.062213 
L 302.648365 242.769093 
L 303.851383 241.97348 
L 304.452893 241.638485 
L 305.054402 241.554736 
L 309.866475 238.665404 
L 311.671003 237.702293 
L 312.272512 237.157926 
L 314.678548 236.404187 
L 315.280057 235.985444 
L 315.881567 235.859821 
L 317.084585 235.441077 
L 318.889112 234.729212 
L 320.69364 234.059222 
L 321.896658 233.84985 
L 323.099677 232.802991 
L 324.904204 231.965503 
L 326.107222 231.253639 
L 327.310241 230.918644 
L 327.91175 230.541775 
L 328.513259 230.374277 
L 330.317787 229.243669 
L 333.325332 228.531805 
L 335.12986 227.484945 
L 335.731369 227.401196 
L 336.332878 227.191825 
L 337.535897 226.940578 
L 339.340424 225.600598 
L 341.144951 225.181854 
L 341.746461 224.972483 
L 342.34797 224.511864 
L 345.957025 223.339382 
L 346.558534 223.297507 
L 347.160043 223.13001 
L 348.363061 222.627517 
L 352.573626 221.161914 
L 353.776644 220.994417 
L 354.378153 220.826919 
L 354.979662 220.533799 
L 355.581171 220.408175 
L 357.385699 219.570688 
L 359.190226 218.691326 
L 359.791736 218.272582 
L 360.393245 218.105085 
L 362.197772 217.141974 
L 363.400791 216.848853 
L 364.603809 216.220738 
L 365.806827 215.885743 
L 366.408336 215.801994 
L 367.611355 215.09013 
L 368.212864 214.964506 
L 369.415882 214.462014 
L 370.017391 214.336391 
L 370.6189 214.001396 
L 373.024937 213.624526 
L 374.227955 213.038285 
L 374.829465 212.535793 
L 375.430974 211.488933 
L 377.235501 211.153938 
L 379.641538 209.897707 
L 380.243047 209.772084 
L 384.453611 207.762114 
L 385.65663 207.427119 
L 386.859648 207.175872 
L 388.062666 206.589631 
L 388.664175 206.338385 
L 389.265685 206.254636 
L 391.671721 205.207777 
L 393.476249 204.077168 
L 394.077758 203.99342 
L 394.679267 203.784048 
L 395.280776 203.742173 
L 397.686813 203.072183 
L 398.288322 203.030309 
L 398.889831 202.569691 
L 400.092849 202.150947 
L 401.897377 201.564706 
L 402.498886 201.187836 
L 403.100395 201.020339 
L 403.701904 200.601595 
L 404.303414 200.350349 
L 405.506432 199.722233 
L 407.912469 199.010369 
L 408.513978 198.717248 
L 410.318505 197.335394 
L 410.920014 197.209771 
L 412.123033 196.288534 
L 412.724542 196.162911 
L 413.326051 195.241675 
L 413.92756 194.990429 
L 414.529069 194.529811 
L 415.130579 194.446062 
L 416.333597 193.734197 
L 416.935106 193.608574 
L 417.536615 193.357328 
L 418.138124 192.89671 
L 418.739633 192.687338 
L 420.544161 191.472981 
L 422.950198 190.258624 
L 423.551707 190.174875 
L 424.754725 189.630508 
L 425.356234 189.295513 
L 425.957743 188.290528 
L 426.559253 187.746162 
L 427.160762 187.411167 
L 427.762271 187.285543 
L 428.965289 186.531805 
L 429.566798 186.406181 
L 430.769817 185.81994 
L 432.574344 185.066201 
L 433.777363 184.228714 
L 434.980381 182.972483 
L 437.987927 180.795015 
L 439.190945 179.831904 
L 439.792454 179.580658 
L 440.393963 178.910668 
L 440.995473 178.45005 
L 442.198491 178.031306 
L 443.401509 177.235693 
L 444.003018 176.942572 
L 444.604527 176.775075 
L 445.206037 176.356331 
L 445.807546 176.272582 
L 447.612073 175.309472 
L 448.815092 174.597607 
L 454.830183 172.462014 
L 455.431692 171.917647 
L 457.23622 171.247657 
L 458.439238 170.870788 
L 459.040747 170.410169 
L 461.446784 169.153938 
L 462.048293 168.818943 
L 463.251312 166.473978 
L 464.45433 165.050249 
L 465.657348 164.338385 
L 467.461876 163.62652 
L 468.063385 163.542772 
L 468.664894 163.207777 
L 470.469421 162.66341 
L 472.875458 161.574676 
L 473.476967 161.197807 
L 474.679986 160.779063 
L 478.289041 158.685344 
L 478.89055 158.057228 
L 480.093568 157.429113 
L 483.702623 155.544766 
L 484.304132 155.293519 
L 484.905641 154.91665 
L 485.507151 154.791027 
L 486.10866 154.330409 
L 489.116206 153.367298 
L 489.717715 153.199801 
L 490.319224 152.90668 
L 490.920733 152.487936 
L 492.123751 152.152941 
L 493.32677 151.692323 
L 493.928279 151.231705 
L 495.131297 150.854835 
L 495.732806 150.561715 
L 496.334315 150.394217 
L 497.537334 149.55673 
L 498.740352 149.054237 
L 499.94337 148.133001 
L 501.146389 147.714257 
L 501.747898 147.211765 
L 502.349407 147.128016 
L 503.552425 146.248654 
L 504.755444 145.662413 
L 505.356953 145.411167 
L 505.958462 144.824925 
L 509.567517 143.52682 
L 511.372045 142.731206 
L 513.176572 142.186839 
L 514.37959 142.019342 
L 514.9811 141.768096 
L 515.582609 141.684347 
L 516.785627 141.181854 
L 517.387136 141.13998 
L 519.793173 140.260618 
L 521.5977 139.046261 
L 522.199209 138.795015 
L 523.402228 138.166899 
L 524.003737 137.957527 
L 527.612792 135.989432 
L 528.214301 135.863809 
L 530.018829 134.858824 
L 531.823356 134.272582 
L 532.424865 134.021336 
L 533.627884 133.728215 
L 536.635429 132.765105 
L 538.439957 132.471984 
L 540.845994 131.718245 
L 541.447503 131.466999 
L 542.049012 131.38325 
L 542.650521 131.09013 
L 543.853539 130.838883 
L 545.056558 130.42014 
L 545.658067 130.210768 
L 546.861085 130.085145 
L 548.064103 129.792024 
L 549.868631 129.498903 
L 550.47014 129.289531 
L 551.673158 129.163908 
L 554.680704 128.410169 
L 555.883723 128.117049 
L 556.485232 127.782054 
L 559.492778 127.028315 
L 560.094287 126.902692 
L 561.297305 126.483948 
L 563.101833 125.855833 
L 563.703342 125.772084 
L 565.507869 125.143968 
L 566.109378 125.143968 
L 567.312397 124.725224 
L 567.913906 124.138983 
L 568.515415 123.845862 
L 569.718433 123.468993 
L 572.12447 122.547757 
L 572.725979 122.422134 
L 573.327488 122.045264 
L 573.928997 121.919641 
L 574.530507 121.584646 
L 577.538052 120.705284 
L 578.139562 120.328415 
L 578.741071 120.202792 
L 579.34258 119.700299 
L 581.147107 119.365304 
L 582.350126 118.695314 
L 582.951635 118.025324 
L 584.154653 117.774078 
L 588.365217 116.810967 
L 588.966727 116.64347 
L 590.169745 116.601595 
L 590.771254 116.308475 
L 593.177291 115.889731 
L 593.7788 115.638485 
L 595.583327 115.387238 
L 597.989364 114.6335 
L 599.793891 114.214756 
L 601.598419 113.754138 
L 603.402946 113.209771 
L 606.410492 112.330409 
L 607.613511 111.786042 
L 608.816529 111.367298 
L 609.418038 110.90668 
L 610.621056 110.571685 
L 611.222566 110.320439 
L 612.425584 109.985444 
L 614.831621 108.89671 
L 616.636148 108.771087 
L 619.042185 108.101097 
L 619.643694 107.724227 
L 620.846712 107.389232 
L 622.65124 106.467996 
L 623.252749 106.342373 
L 623.854258 106.049252 
L 624.455767 106.007378 
L 631.072368 103.788036 
L 633.478405 103.201795 
L 634.079914 103.034297 
L 635.282932 102.48993 
L 635.884441 102.406181 
L 637.08746 102.071186 
L 637.688969 101.610568 
L 638.290478 101.317448 
L 638.891987 100.605583 
L 639.493496 100.186839 
L 640.696515 99.80997 
L 641.298024 99.349352 
L 646.110097 97.381256 
L 646.711606 97.213759 
L 647.313115 96.836889 
L 649.719152 96.125025 
L 650.92217 95.538784 
L 652.125189 94.826919 
L 652.726698 94.701296 
L 653.929716 93.989432 
L 654.531225 93.738185 
L 655.734244 92.984447 
L 657.538771 92.146959 
L 658.14028 91.728215 
L 659.343299 91.309472 
L 660.546317 90.597607 
L 661.147826 90.388235 
L 661.749335 89.969492 
L 662.952354 89.550748 
L 663.553863 89.425125 
L 665.959899 88.336391 
L 668.967445 87.289531 
L 669.568954 87.247657 
L 670.170464 87.08016 
L 670.771973 86.70329 
L 671.373482 86.619541 
L 671.974991 86.410169 
L 673.779519 86.075174 
L 677.990083 83.939581 
L 678.591592 83.855833 
L 680.396119 82.892722 
L 682.200647 82.222732 
L 684.005174 81.427119 
L 686.411211 80.464008 
L 687.01272 80.29651 
L 687.614229 79.919641 
L 688.817248 79.752144 
L 689.418757 79.375274 
L 690.020266 79.3334 
L 691.223284 78.95653 
L 692.426303 78.370289 
L 693.027812 78.28654 
L 693.629321 78.035294 
L 694.23083 77.909671 
L 696.035358 77.114058 
L 696.636867 76.988435 
L 697.238376 76.737188 
L 700.245922 76.025324 
L 702.050449 75.355334 
L 704.456486 73.97348 
L 705.659504 73.512861 
L 706.261013 73.135992 
L 707.464032 72.884746 
L 708.065541 72.549751 
L 708.66705 72.424128 
L 709.870068 71.754138 
L 713.479123 70.079163 
L 715.283651 69.492921 
L 716.486669 69.074177 
L 717.088178 68.864806 
L 718.291197 68.278564 
L 719.494215 67.901695 
L 720.095724 67.776072 
L 721.298742 67.231705 
L 721.900252 67.022333 
L 722.501761 66.687338 
L 723.10327 66.603589 
L 723.704779 66.394217 
L 724.907797 65.724227 
L 727.313834 64.635494 
L 728.516852 64.21675 
L 729.719871 63.588634 
L 730.32138 63.504885 
L 733.328926 62.20678 
L 733.930435 61.788036 
L 736.336471 60.992423 
L 736.937981 60.992423 
L 738.140999 60.448056 
L 738.742508 59.987438 
L 739.344017 59.317448 
L 739.945526 58.814955 
L 740.547036 58.521834 
L 741.148545 58.354337 
L 741.750054 57.977468 
L 742.351563 57.851844 
L 742.953072 57.558724 
L 743.554581 57.474975 
L 744.156091 57.056231 
L 744.7576 56.930608 
L 745.359109 56.637488 
L 746.562127 55.8 
L 747.163636 55.8 
L 747.163636 55.8 
" clip-path="url(#p3df19c66cd)" style="fill: none; stroke: #1f77b4; stroke-width: 1.5; stroke-linecap: square"/>
   </g>
   <g id="line2d_36">
    <path d="M 139.037873 307.8 
L 140.8424 307.716251 
L 142.646928 307.674377 
L 146.255983 307.590628 
L 149.263529 307.465005 
L 151.669565 307.465005 
L 152.271074 307.297507 
L 154.677111 307.213759 
L 156.481639 307.004387 
L 158.286166 306.836889 
L 161.895221 306.669392 
L 162.49673 306.669392 
L 163.098239 306.543769 
L 165.504276 306.46002 
L 166.707294 306.376271 
L 171.519368 306.292522 
L 174.526913 306.166899 
L 181.745023 306.083151 
L 184.752569 305.957527 
L 188.361624 305.873779 
L 190.767661 305.79003 
L 196.181243 305.706281 
L 197.985771 305.664407 
L 199.790298 305.622532 
L 201.594826 305.413161 
L 205.203881 305.371286 
L 206.406899 305.287537 
L 210.617463 305.203789 
L 217.234064 304.826919 
L 221.444628 304.74317 
L 222.647646 304.659422 
L 224.452174 304.575673 
L 228.061229 304.408175 
L 230.467266 304.366301 
L 232.271793 304.198804 
L 240.091412 303.738185 
L 243.098958 303.654437 
L 248.51254 303.361316 
L 250.317068 303.277567 
L 256.33216 302.942572 
L 262.94876 302.858824 
L 265.354797 302.607577 
L 266.557815 302.523829 
L 274.377434 301.895713 
L 277.986489 301.435095 
L 280.392526 301.351346 
L 285.204599 300.72323 
L 288.813654 300.639482 
L 290.618182 300.471984 
L 291.8212 300.43011 
L 293.024218 300.304487 
L 294.828746 300.220738 
L 296.031764 300.05324 
L 299.03931 299.718245 
L 301.445347 299.634497 
L 302.648365 299.550748 
L 305.054402 299.466999 
L 306.25742 299.38325 
L 309.264966 299.09013 
L 309.866475 298.922632 
L 313.47553 298.755135 
L 316.483076 298.671386 
L 324.302695 298.210768 
L 326.107222 298.127019 
L 333.926842 297.666401 
L 338.137406 297.582652 
L 338.738915 297.457029 
L 343.550988 297.37328 
L 347.761552 297.163908 
L 354.378153 297.08016 
L 358.588717 296.870788 
L 363.400791 296.787039 
L 368.212864 296.535793 
L 372.423428 296.452044 
L 383.852102 295.740179 
L 388.664175 295.656431 
L 404.303414 294.651446 
L 407.912469 294.567697 
L 409.716996 294.525823 
L 411.521524 294.483948 
L 413.326051 294.316451 
L 418.138124 294.232702 
L 419.341143 294.02333 
L 420.544161 293.939581 
L 423.551707 293.813958 
L 424.754725 293.730209 
L 425.957743 293.646461 
L 431.371326 293.562712 
L 432.574344 293.437089 
L 434.980381 293.395214 
L 435.58189 293.269591 
L 436.784908 293.185842 
L 437.386418 293.060219 
L 439.190945 292.976471 
L 448.815092 292.390229 
L 451.221128 292.306481 
L 454.228674 292.180857 
L 462.649802 292.097109 
L 466.860367 291.887737 
L 471.67244 291.803988 
L 474.078476 291.720239 
L 476.484513 291.678365 
L 477.687531 291.552742 
L 480.093568 291.468993 
L 486.10866 291.133998 
L 489.717715 291.092124 
L 491.522242 290.924626 
L 493.32677 290.882752 
L 497.537334 290.799003 
L 499.94337 290.715254 
L 507.16148 290.631505 
L 510.169026 290.505882 
L 513.778081 290.422134 
L 515.582609 290.212762 
L 519.191664 290.170887 
L 520.996191 290.00339 
L 523.402228 289.919641 
L 530.620338 289.835892 
L 533.627884 289.710269 
L 543.853539 289.668395 
L 545.056558 289.584646 
L 546.861085 289.542772 
L 554.680704 289.459023 
L 555.883723 289.375274 
L 562.500323 289.291525 
L 564.90636 289.207777 
L 572.12447 289.165902 
L 573.327488 289.082154 
L 582.350126 289.040279 
L 584.154653 288.872782 
L 599.192382 288.789033 
L 600.99691 288.747159 
L 617.237657 288.66341 
L 619.643694 288.579661 
L 629.86935 288.495912 
L 631.072368 288.412164 
L 634.079914 288.328415 
L 635.884441 288.160917 
L 638.891987 288.077168 
L 641.298024 287.99342 
L 644.907079 287.909671 
L 646.711606 287.867797 
L 649.117643 287.784048 
L 650.92217 287.742173 
L 653.929716 287.658425 
L 655.132734 287.574676 
L 658.741789 287.490927 
L 661.749335 287.365304 
L 662.952354 287.32343 
L 664.155372 287.239681 
L 665.959899 287.197807 
L 668.365936 287.114058 
L 670.771973 287.030309 
L 678.591592 286.94656 
L 680.997628 286.862812 
L 685.809702 286.779063 
L 690.020266 286.569691 
L 695.433848 286.485942 
L 696.636867 286.402193 
L 707.464032 286.318445 
L 709.268559 286.27657 
L 712.276105 286.234696 
L 714.682142 285.98345 
L 716.486669 285.941575 
L 720.095724 285.857827 
L 726.712325 285.480957 
L 729.118361 285.397208 
L 731.524398 285.31346 
L 735.133453 285.229711 
L 736.336471 285.145962 
L 738.742508 285.062213 
L 741.148545 284.810967 
L 743.554581 284.727218 
L 745.960618 284.685344 
L 747.163636 284.601595 
L 747.163636 284.601595 
" clip-path="url(#p3df19c66cd)" style="fill: none; stroke: #ff7f0e; stroke-width: 1.5; stroke-linecap: square"/>
   </g>
   <g id="patch_3">
    <path d="M 108 320.4 
L 108 43.2 
" style="fill: none; stroke: #a9a9a9; stroke-width: 0.8; stroke-linejoin: miter; stroke-linecap: square"/>
   </g>
   <g id="patch_4">
    <path d="M 777.6 320.4 
L 777.6 43.2 
" style="fill: none"/>
   </g>
   <g id="patch_5">
    <path d="M 108 320.4 
L 777.6 320.4 
" style="fill: none; stroke: #a9a9a9; stroke-width: 0.8; stroke-linejoin: miter; stroke-linecap: square"/>
   </g>
   <g id="patch_6">
    <path d="M 108 43.2 
L 777.6 43.2 
" style="fill: none"/>
   </g>
   <g id="text_18">
    <!-- get_subscribe history -->
    <g style="fill: #a9a9a9" transform="translate(378.6075 37.2) scale(0.12 -0.12)">
     <defs>
      <path id="DejaVuSans-67" d="M 2906 1791 
Q 2906 2416 2648 2759 
Q 2391 3103 1925 3103 
Q 1463 3103 1205 2759 
Q 947 2416 947 1791 
Q 947 1169 1205 825 
Q 1463 481 1925 481 
Q 2391 481 2648 825 
Q 2906 1169 2906 1791 
z
M 3481 434 
Q 3481 -459 3084 -895 
Q 2688 -1331 1869 -1331 
Q 1566 -1331 1297 -1286 
Q 1028 -1241 775 -1147 
L 775 -588 
Q 1028 -725 1275 -790 
Q 1522 -856 1778 -856 
Q 2344 -856 2625 -561 
Q 2906 -266 2906 331 
L 2906 616 
Q 2728 306 2450 153 
Q 2172 0 1784 0 
Q 1141 0 747 490 
Q 353 981 353 1791 
Q 353 2603 747 3093 
Q 1141 3584 1784 3584 
Q 2172 3584 2450 3431 
Q 2728 3278 2906 2969 
L 2906 3500 
L 3481 3500 
L 3481 434 
z
" transform="scale(0.015625)"/>
      <path id="DejaVuSans-65" d="M 3597 1894 
L 3597 1613 
L 953 1613 
Q 991 1019 1311 708 
Q 1631 397 2203 397 
Q 2534 397 2845 478 
Q 3156 559 3463 722 
L 3463 178 
Q 3153 47 2828 -22 
Q 2503 -91 2169 -91 
Q 1331 -91 842 396 
Q 353 884 353 1716 
Q 353 2575 817 3079 
Q 1281 3584 2069 3584 
Q 2775 3584 3186 3129 
Q 3597 2675 3597 1894 
z
M 3022 2063 
Q 3016 2534 2758 2815 
Q 2500 3097 2075 3097 
Q 1594 3097 1305 2825 
Q 1016 2553 972 2059 
L 3022 2063 
z
" transform="scale(0.015625)"/>
      <path id="DejaVuSans-74" d="M 1172 4494 
L 1172 3500 
L 2356 3500 
L 2356 3053 
L 1172 3053 
L 1172 1153 
Q 1172 725 1289 603 
Q 1406 481 1766 481 
L 2356 481 
L 2356 0 
L 1766 0 
Q 1100 0 847 248 
Q 594 497 594 1153 
L 594 3053 
L 172 3053 
L 172 3500 
L 594 3500 
L 594 4494 
L 1172 4494 
z
" transform="scale(0.015625)"/>
      <path id="DejaVuSans-5f" d="M 3263 -1063 
L 3263 -1509 
L -63 -1509 
L -63 -1063 
L 3263 -1063 
z
" transform="scale(0.015625)"/>
      <path id="DejaVuSans-73" d="M 2834 3397 
L 2834 2853 
Q 2591 2978 2328 3040 
Q 2066 3103 1784 3103 
Q 1356 3103 1142 2972 
Q 928 2841 928 2578 
Q 928 2378 1081 2264 
Q 1234 2150 1697 2047 
L 1894 2003 
Q 2506 1872 2764 1633 
Q 3022 1394 3022 966 
Q 3022 478 2636 193 
Q 2250 -91 1575 -91 
Q 1294 -91 989 -36 
Q 684 19 347 128 
L 347 722 
Q 666 556 975 473 
Q 1284 391 1588 391 
Q 1994 391 2212 530 
Q 2431 669 2431 922 
Q 2431 1156 2273 1281 
Q 2116 1406 1581 1522 
L 1381 1569 
Q 847 1681 609 1914 
Q 372 2147 372 2553 
Q 372 3047 722 3315 
Q 1072 3584 1716 3584 
Q 2034 3584 2315 3537 
Q 2597 3491 2834 3397 
z
" transform="scale(0.015625)"/>
      <path id="DejaVuSans-75" d="M 544 1381 
L 544 3500 
L 1119 3500 
L 1119 1403 
Q 1119 906 1312 657 
Q 1506 409 1894 409 
Q 2359 409 2629 706 
Q 2900 1003 2900 1516 
L 2900 3500 
L 3475 3500 
L 3475 0 
L 2900 0 
L 2900 538 
Q 2691 219 2414 64 
Q 2138 -91 1772 -91 
Q 1169 -91 856 284 
Q 544 659 544 1381 
z
M 1991 3584 
L 1991 3584 
z
" transform="scale(0.015625)"/>
      <path id="DejaVuSans-62" d="M 3116 1747 
Q 3116 2381 2855 2742 
Q 2594 3103 2138 3103 
Q 1681 3103 1420 2742 
Q 1159 2381 1159 1747 
Q 1159 1113 1420 752 
Q 1681 391 2138 391 
Q 2594 391 2855 752 
Q 3116 1113 3116 1747 
z
M 1159 2969 
Q 1341 3281 1617 3432 
Q 1894 3584 2278 3584 
Q 2916 3584 3314 3078 
Q 3713 2572 3713 1747 
Q 3713 922 3314 415 
Q 2916 -91 2278 -91 
Q 1894 -91 1617 61 
Q 1341 213 1159 525 
L 1159 0 
L 581 0 
L 581 4863 
L 1159 4863 
L 1159 2969 
z
" transform="scale(0.015625)"/>
      <path id="DejaVuSans-63" d="M 3122 3366 
L 3122 2828 
Q 2878 2963 2633 3030 
Q 2388 3097 2138 3097 
Q 1578 3097 1268 2742 
Q 959 2388 959 1747 
Q 959 1106 1268 751 
Q 1578 397 2138 397 
Q 2388 397 2633 464 
Q 2878 531 3122 666 
L 3122 134 
Q 2881 22 2623 -34 
Q 2366 -91 2075 -91 
Q 1284 -91 818 406 
Q 353 903 353 1747 
Q 353 2603 823 3093 
Q 1294 3584 2113 3584 
Q 2378 3584 2631 3529 
Q 2884 3475 3122 3366 
z
" transform="scale(0.015625)"/>
      <path id="DejaVuSans-72" d="M 2631 2963 
Q 2534 3019 2420 3045 
Q 2306 3072 2169 3072 
Q 1681 3072 1420 2755 
Q 1159 2438 1159 1844 
L 1159 0 
L 581 0 
L 581 3500 
L 1159 3500 
L 1159 2956 
Q 1341 3275 1631 3429 
Q 1922 3584 2338 3584 
Q 2397 3584 2469 3576 
Q 2541 3569 2628 3553 
L 2631 2963 
z
" transform="scale(0.015625)"/>
      <path id="DejaVuSans-69" d="M 603 3500 
L 1178 3500 
L 1178 0 
L 603 0 
L 603 3500 
z
M 603 4863 
L 1178 4863 
L 1178 4134 
L 603 4134 
L 603 4863 
z
" transform="scale(0.015625)"/>
      <path id="DejaVuSans-20" transform="scale(0.015625)"/>
      <path id="DejaVuSans-68" d="M 3513 2113 
L 3513 0 
L 2938 0 
L 2938 2094 
Q 2938 2591 2744 2837 
Q 2550 3084 2163 3084 
Q 1697 3084 1428 2787 
Q 1159 2491 1159 1978 
L 1159 0 
L 581 0 
L 581 4863 
L 1159 4863 
L 1159 2956 
Q 1366 3272 1645 3428 
Q 1925 3584 2291 3584 
Q 2894 3584 3203 3211 
Q 3513 2838 3513 2113 
z
" transform="scale(0.015625)"/>
      <path id="DejaVuSans-6f" d="M 1959 3097 
Q 1497 3097 1228 2736 
Q 959 2375 959 1747 
Q 959 1119 1226 758 
Q 1494 397 1959 397 
Q 2419 397 2687 759 
Q 2956 1122 2956 1747 
Q 2956 2369 2687 2733 
Q 2419 3097 1959 3097 
z
M 1959 3584 
Q 2709 3584 3137 3096 
Q 3566 2609 3566 1747 
Q 3566 888 3137 398 
Q 2709 -91 1959 -91 
Q 1206 -91 779 398 
Q 353 888 353 1747 
Q 353 2609 779 3096 
Q 1206 3584 1959 3584 
z
" transform="scale(0.015625)"/>
      <path id="DejaVuSans-79" d="M 2059 -325 
Q 1816 -950 1584 -1140 
Q 1353 -1331 966 -1331 
L 506 -1331 
L 506 -850 
L 844 -850 
Q 1081 -850 1212 -737 
Q 1344 -625 1503 -206 
L 1606 56 
L 191 3500 
L 800 3500 
L 1894 763 
L 2988 3500 
L 3597 3500 
L 2059 -325 
z
" transform="scale(0.015625)"/>
     </defs>
     <use xlink:href="#DejaVuSans-67"/>
     <use xlink:href="#DejaVuSans-65" x="63.476562"/>
     <use xlink:href="#DejaVuSans-74" x="125"/>
     <use xlink:href="#DejaVuSans-5f" x="164.208984"/>
     <use xlink:href="#DejaVuSans-73" x="214.208984"/>
     <use xlink:href="#DejaVuSans-75" x="266.308594"/>
     <use xlink:href="#DejaVuSans-62" x="329.6875"/>
     <use xlink:href="#DejaVuSans-73" x="393.164062"/>
     <use xlink:href="#DejaVuSans-63" x="445.263672"/>
     <use xlink:href="#DejaVuSans-72" x="500.244141"/>
     <use xlink:href="#DejaVuSans-69" x="541.357422"/>
     <use xlink:href="#DejaVuSans-62" x="569.140625"/>
     <use xlink:href="#DejaVuSans-65" x="632.617188"/>
     <use xlink:href="#DejaVuSans-20" x="694.140625"/>
     <use xlink:href="#DejaVuSans-68" x="725.927734"/>
     <use xlink:href="#DejaVuSans-69" x="789.306641"/>
     <use xlink:href="#DejaVuSans-73" x="817.089844"/>
     <use xlink:href="#DejaVuSans-74" x="869.189453"/>
     <use xlink:href="#DejaVuSans-6f" x="908.398438"/>
     <use xlink:href="#DejaVuSans-72" x="969.580078"/>
     <use xlink:href="#DejaVuSans-79" x="1010.693359"/>
    </g>
   </g>
   <g id="legend_1">
    <g id="line2d_37">
     <path d="M 815.08 328.498438 
L 825.08 328.498438 
L 835.08 328.498438 
" style="fill: none; stroke: #1f77b4; stroke-width: 1.5; stroke-linecap: square"/>
    </g>
    <g id="text_19">
     <!-- star -->
     <g style="fill: #a9a9a9" transform="translate(843.08 331.998438) scale(0.1 -0.1)">
      <defs>
       <path id="DejaVuSans-61" d="M 2194 1759 
Q 1497 1759 1228 1600 
Q 959 1441 959 1056 
Q 959 750 1161 570 
Q 1363 391 1709 391 
Q 2188 391 2477 730 
Q 2766 1069 2766 1631 
L 2766 1759 
L 2194 1759 
z
M 3341 1997 
L 3341 0 
L 2766 0 
L 2766 531 
Q 2569 213 2275 61 
Q 1981 -91 1556 -91 
Q 1019 -91 701 211 
Q 384 513 384 1019 
Q 384 1609 779 1909 
Q 1175 2209 1959 2209 
L 2766 2209 
L 2766 2266 
Q 2766 2663 2505 2880 
Q 2244 3097 1772 3097 
Q 1472 3097 1187 3025 
Q 903 2953 641 2809 
L 641 3341 
Q 956 3463 1253 3523 
Q 1550 3584 1831 3584 
Q 2591 3584 2966 3190 
Q 3341 2797 3341 1997 
z
" transform="scale(0.015625)"/>
      </defs>
      <use xlink:href="#DejaVuSans-73"/>
      <use xlink:href="#DejaVuSans-74" x="52.099609"/>
      <use xlink:href="#DejaVuSans-61" x="91.308594"/>
      <use xlink:href="#DejaVuSans-72" x="152.587891"/>
     </g>
    </g>
    <g id="line2d_38">
     <path d="M 815.08 343.176562 
L 825.08 343.176562 
L 835.08 343.176562 
" style="fill: none; stroke: #ff7f0e; stroke-width: 1.5; stroke-linecap: square"/>
    </g>
    <g id="text_20">
     <!-- fork -->
     <g style="fill: #a9a9a9" transform="translate(843.08 346.676562) scale(0.1 -0.1)">
      <defs>
       <path id="DejaVuSans-66" d="M 2375 4863 
L 2375 4384 
L 1825 4384 
Q 1516 4384 1395 4259 
Q 1275 4134 1275 3809 
L 1275 3500 
L 2222 3500 
L 2222 3053 
L 1275 3053 
L 1275 0 
L 697 0 
L 697 3053 
L 147 3053 
L 147 3500 
L 697 3500 
L 697 3744 
Q 697 4328 969 4595 
Q 1241 4863 1831 4863 
L 2375 4863 
z
" transform="scale(0.015625)"/>
       <path id="DejaVuSans-6b" d="M 581 4863 
L 1159 4863 
L 1159 1991 
L 2875 3500 
L 3609 3500 
L 1753 1863 
L 3688 0 
L 2938 0 
L 1159 1709 
L 1159 0 
L 581 0 
L 581 4863 
z
" transform="scale(0.015625)"/>
      </defs>
      <use xlink:href="#DejaVuSans-66"/>
      <use xlink:href="#DejaVuSans-6f" x="35.205078"/>
      <use xlink:href="#DejaVuSans-72" x="96.386719"/>
      <use xlink:href="#DejaVuSans-6b" x="137.5"/>
     </g>
    </g>
   </g>
  </g>
 </g>
 <defs>
  <clipPath id="p3df19c66cd">
   <rect x="108" y="43.2" width="669.6" height="277.2"/>
  </clipPath>
 </defs>
</svg>
