<?xml version="1.0" encoding="utf-8" standalone="no"?>
<!DOCTYPE svg PUBLIC "-//W3C//DTD SVG 1.1//EN"
  "http://www.w3.org/Graphics/SVG/1.1/DTD/svg11.dtd">
<svg xmlns:xlink="http://www.w3.org/1999/xlink" width="864pt" height="360pt" viewBox="0 0 864 360" xmlns="http://www.w3.org/2000/svg" version="1.1">
 <metadata>
  <rdf:RDF xmlns:dc="http://purl.org/dc/elements/1.1/" xmlns:cc="http://creativecommons.org/ns#" xmlns:rdf="http://www.w3.org/1999/02/22-rdf-syntax-ns#">
   <cc:Work>
    <dc:type rdf:resource="http://purl.org/dc/dcmitype/StillImage"/>
    <dc:date>2024-05-04T20:04:37.543198</dc:date>
    <dc:format>image/svg+xml</dc:format>
    <dc:creator>
     <cc:Agent>
      <dc:title>Matplotlib v3.8.4, https://matplotlib.org/</dc:title>
     </cc:Agent>
    </dc:creator>
   </cc:Work>
  </rdf:RDF>
 </metadata>
 <defs>
  <style type="text/css">*{stroke-linejoin: round; stroke-linecap: butt}</style>
 </defs>
 <g id="figure_1">
  <g id="patch_1">
   <path d="M 0 360 
L 864 360 
L 864 0 
L 0 0 
L 0 360 
z
" style="fill: none; opacity: 0"/>
  </g>
  <g id="axes_1">
   <g id="patch_2">
    <path d="M 108 320.4 
L 777.6 320.4 
L 777.6 43.2 
L 108 43.2 
L 108 320.4 
z
" style="fill: none; opacity: 0"/>
   </g>
   <g id="matplotlib.axis_1">
    <g id="xtick_1">
     <g id="line2d_1">
      <path d="M 161.825884 320.4 
L 161.825884 43.2 
" clip-path="url(#pa0b8a290ba)" style="fill: none; stroke-dasharray: 5.12,1.28,0.8,1.28; stroke-dashoffset: 0; stroke: #b0b0b0; stroke-width: 0.8"/>
     </g>
     <g id="line2d_2">
      <defs>
       <path id="m3febbf008a" d="M 0 0 
L 0 3.5 
" style="stroke: #a9a9a9; stroke-width: 0.8"/>
      </defs>
      <g>
       <use xlink:href="#m3febbf008a" x="161.825884" y="320.4" style="fill: #a9a9a9; stroke: #a9a9a9; stroke-width: 0.8"/>
      </g>
     </g>
     <g id="text_1">
      <!-- 2021-09 -->
      <g style="fill: #a9a9a9" transform="translate(140.934478 334.998438) scale(0.1 -0.1)">
       <defs>
        <path id="DejaVuSans-32" d="M 1228 531 
L 3431 531 
L 3431 0 
L 469 0 
L 469 531 
Q 828 903 1448 1529 
Q 2069 2156 2228 2338 
Q 2531 2678 2651 2914 
Q 2772 3150 2772 3378 
Q 2772 3750 2511 3984 
Q 2250 4219 1831 4219 
Q 1534 4219 1204 4116 
Q 875 4013 500 3803 
L 500 4441 
Q 881 4594 1212 4672 
Q 1544 4750 1819 4750 
Q 2544 4750 2975 4387 
Q 3406 4025 3406 3419 
Q 3406 3131 3298 2873 
Q 3191 2616 2906 2266 
Q 2828 2175 2409 1742 
Q 1991 1309 1228 531 
z
" transform="scale(0.015625)"/>
        <path id="DejaVuSans-30" d="M 2034 4250 
Q 1547 4250 1301 3770 
Q 1056 3291 1056 2328 
Q 1056 1369 1301 889 
Q 1547 409 2034 409 
Q 2525 409 2770 889 
Q 3016 1369 3016 2328 
Q 3016 3291 2770 3770 
Q 2525 4250 2034 4250 
z
M 2034 4750 
Q 2819 4750 3233 4129 
Q 3647 3509 3647 2328 
Q 3647 1150 3233 529 
Q 2819 -91 2034 -91 
Q 1250 -91 836 529 
Q 422 1150 422 2328 
Q 422 3509 836 4129 
Q 1250 4750 2034 4750 
z
" transform="scale(0.015625)"/>
        <path id="DejaVuSans-31" d="M 794 531 
L 1825 531 
L 1825 4091 
L 703 3866 
L 703 4441 
L 1819 4666 
L 2450 4666 
L 2450 531 
L 3481 531 
L 3481 0 
L 794 0 
L 794 531 
z
" transform="scale(0.015625)"/>
        <path id="DejaVuSans-2d" d="M 313 2009 
L 1997 2009 
L 1997 1497 
L 313 1497 
L 313 2009 
z
" transform="scale(0.015625)"/>
        <path id="DejaVuSans-39" d="M 703 97 
L 703 672 
Q 941 559 1184 500 
Q 1428 441 1663 441 
Q 2288 441 2617 861 
Q 2947 1281 2994 2138 
Q 2813 1869 2534 1725 
Q 2256 1581 1919 1581 
Q 1219 1581 811 2004 
Q 403 2428 403 3163 
Q 403 3881 828 4315 
Q 1253 4750 1959 4750 
Q 2769 4750 3195 4129 
Q 3622 3509 3622 2328 
Q 3622 1225 3098 567 
Q 2575 -91 1691 -91 
Q 1453 -91 1209 -44 
Q 966 3 703 97 
z
M 1959 2075 
Q 2384 2075 2632 2365 
Q 2881 2656 2881 3163 
Q 2881 3666 2632 3958 
Q 2384 4250 1959 4250 
Q 1534 4250 1286 3958 
Q 1038 3666 1038 3163 
Q 1038 2656 1286 2365 
Q 1534 2075 1959 2075 
z
" transform="scale(0.015625)"/>
       </defs>
       <use xlink:href="#DejaVuSans-32"/>
       <use xlink:href="#DejaVuSans-30" x="63.623047"/>
       <use xlink:href="#DejaVuSans-32" x="127.246094"/>
       <use xlink:href="#DejaVuSans-31" x="190.869141"/>
       <use xlink:href="#DejaVuSans-2d" x="254.492188"/>
       <use xlink:href="#DejaVuSans-30" x="290.576172"/>
       <use xlink:href="#DejaVuSans-39" x="354.199219"/>
      </g>
     </g>
    </g>
    <g id="xtick_2">
     <g id="line2d_3">
      <path d="M 234.993103 320.4 
L 234.993103 43.2 
" clip-path="url(#pa0b8a290ba)" style="fill: none; stroke-dasharray: 5.12,1.28,0.8,1.28; stroke-dashoffset: 0; stroke: #b0b0b0; stroke-width: 0.8"/>
     </g>
     <g id="line2d_4">
      <g>
       <use xlink:href="#m3febbf008a" x="234.993103" y="320.4" style="fill: #a9a9a9; stroke: #a9a9a9; stroke-width: 0.8"/>
      </g>
     </g>
     <g id="text_2">
      <!-- 2022-01 -->
      <g style="fill: #a9a9a9" transform="translate(214.101697 334.998438) scale(0.1 -0.1)">
       <use xlink:href="#DejaVuSans-32"/>
       <use xlink:href="#DejaVuSans-30" x="63.623047"/>
       <use xlink:href="#DejaVuSans-32" x="127.246094"/>
       <use xlink:href="#DejaVuSans-32" x="190.869141"/>
       <use xlink:href="#DejaVuSans-2d" x="254.492188"/>
       <use xlink:href="#DejaVuSans-30" x="290.576172"/>
       <use xlink:href="#DejaVuSans-31" x="354.199219"/>
      </g>
     </g>
    </g>
    <g id="xtick_3">
     <g id="line2d_5">
      <path d="M 306.96086 320.4 
L 306.96086 43.2 
" clip-path="url(#pa0b8a290ba)" style="fill: none; stroke-dasharray: 5.12,1.28,0.8,1.28; stroke-dashoffset: 0; stroke: #b0b0b0; stroke-width: 0.8"/>
     </g>
     <g id="line2d_6">
      <g>
       <use xlink:href="#m3febbf008a" x="306.96086" y="320.4" style="fill: #a9a9a9; stroke: #a9a9a9; stroke-width: 0.8"/>
      </g>
     </g>
     <g id="text_3">
      <!-- 2022-05 -->
      <g style="fill: #a9a9a9" transform="translate(286.069454 334.998438) scale(0.1 -0.1)">
       <defs>
        <path id="DejaVuSans-35" d="M 691 4666 
L 3169 4666 
L 3169 4134 
L 1269 4134 
L 1269 2991 
Q 1406 3038 1543 3061 
Q 1681 3084 1819 3084 
Q 2600 3084 3056 2656 
Q 3513 2228 3513 1497 
Q 3513 744 3044 326 
Q 2575 -91 1722 -91 
Q 1428 -91 1123 -41 
Q 819 9 494 109 
L 494 744 
Q 775 591 1075 516 
Q 1375 441 1709 441 
Q 2250 441 2565 725 
Q 2881 1009 2881 1497 
Q 2881 1984 2565 2268 
Q 2250 2553 1709 2553 
Q 1456 2553 1204 2497 
Q 953 2441 691 2322 
L 691 4666 
z
" transform="scale(0.015625)"/>
       </defs>
       <use xlink:href="#DejaVuSans-32"/>
       <use xlink:href="#DejaVuSans-30" x="63.623047"/>
       <use xlink:href="#DejaVuSans-32" x="127.246094"/>
       <use xlink:href="#DejaVuSans-32" x="190.869141"/>
       <use xlink:href="#DejaVuSans-2d" x="254.492188"/>
       <use xlink:href="#DejaVuSans-30" x="290.576172"/>
       <use xlink:href="#DejaVuSans-35" x="354.199219"/>
      </g>
     </g>
    </g>
    <g id="xtick_4">
     <g id="line2d_7">
      <path d="M 380.72781 320.4 
L 380.72781 43.2 
" clip-path="url(#pa0b8a290ba)" style="fill: none; stroke-dasharray: 5.12,1.28,0.8,1.28; stroke-dashoffset: 0; stroke: #b0b0b0; stroke-width: 0.8"/>
     </g>
     <g id="line2d_8">
      <g>
       <use xlink:href="#m3febbf008a" x="380.72781" y="320.4" style="fill: #a9a9a9; stroke: #a9a9a9; stroke-width: 0.8"/>
      </g>
     </g>
     <g id="text_4">
      <!-- 2022-09 -->
      <g style="fill: #a9a9a9" transform="translate(359.836404 334.998438) scale(0.1 -0.1)">
       <use xlink:href="#DejaVuSans-32"/>
       <use xlink:href="#DejaVuSans-30" x="63.623047"/>
       <use xlink:href="#DejaVuSans-32" x="127.246094"/>
       <use xlink:href="#DejaVuSans-32" x="190.869141"/>
       <use xlink:href="#DejaVuSans-2d" x="254.492188"/>
       <use xlink:href="#DejaVuSans-30" x="290.576172"/>
       <use xlink:href="#DejaVuSans-39" x="354.199219"/>
      </g>
     </g>
    </g>
    <g id="xtick_5">
     <g id="line2d_9">
      <path d="M 453.895029 320.4 
L 453.895029 43.2 
" clip-path="url(#pa0b8a290ba)" style="fill: none; stroke-dasharray: 5.12,1.28,0.8,1.28; stroke-dashoffset: 0; stroke: #b0b0b0; stroke-width: 0.8"/>
     </g>
     <g id="line2d_10">
      <g>
       <use xlink:href="#m3febbf008a" x="453.895029" y="320.4" style="fill: #a9a9a9; stroke: #a9a9a9; stroke-width: 0.8"/>
      </g>
     </g>
     <g id="text_5">
      <!-- 2023-01 -->
      <g style="fill: #a9a9a9" transform="translate(433.003623 334.998438) scale(0.1 -0.1)">
       <defs>
        <path id="DejaVuSans-33" d="M 2597 2516 
Q 3050 2419 3304 2112 
Q 3559 1806 3559 1356 
Q 3559 666 3084 287 
Q 2609 -91 1734 -91 
Q 1441 -91 1130 -33 
Q 819 25 488 141 
L 488 750 
Q 750 597 1062 519 
Q 1375 441 1716 441 
Q 2309 441 2620 675 
Q 2931 909 2931 1356 
Q 2931 1769 2642 2001 
Q 2353 2234 1838 2234 
L 1294 2234 
L 1294 2753 
L 1863 2753 
Q 2328 2753 2575 2939 
Q 2822 3125 2822 3475 
Q 2822 3834 2567 4026 
Q 2313 4219 1838 4219 
Q 1578 4219 1281 4162 
Q 984 4106 628 3988 
L 628 4550 
Q 988 4650 1302 4700 
Q 1616 4750 1894 4750 
Q 2613 4750 3031 4423 
Q 3450 4097 3450 3541 
Q 3450 3153 3228 2886 
Q 3006 2619 2597 2516 
z
" transform="scale(0.015625)"/>
       </defs>
       <use xlink:href="#DejaVuSans-32"/>
       <use xlink:href="#DejaVuSans-30" x="63.623047"/>
       <use xlink:href="#DejaVuSans-32" x="127.246094"/>
       <use xlink:href="#DejaVuSans-33" x="190.869141"/>
       <use xlink:href="#DejaVuSans-2d" x="254.492188"/>
       <use xlink:href="#DejaVuSans-30" x="290.576172"/>
       <use xlink:href="#DejaVuSans-31" x="354.199219"/>
      </g>
     </g>
    </g>
    <g id="xtick_6">
     <g id="line2d_11">
      <path d="M 525.862785 320.4 
L 525.862785 43.2 
" clip-path="url(#pa0b8a290ba)" style="fill: none; stroke-dasharray: 5.12,1.28,0.8,1.28; stroke-dashoffset: 0; stroke: #b0b0b0; stroke-width: 0.8"/>
     </g>
     <g id="line2d_12">
      <g>
       <use xlink:href="#m3febbf008a" x="525.862785" y="320.4" style="fill: #a9a9a9; stroke: #a9a9a9; stroke-width: 0.8"/>
      </g>
     </g>
     <g id="text_6">
      <!-- 2023-05 -->
      <g style="fill: #a9a9a9" transform="translate(504.971379 334.998438) scale(0.1 -0.1)">
       <use xlink:href="#DejaVuSans-32"/>
       <use xlink:href="#DejaVuSans-30" x="63.623047"/>
       <use xlink:href="#DejaVuSans-32" x="127.246094"/>
       <use xlink:href="#DejaVuSans-33" x="190.869141"/>
       <use xlink:href="#DejaVuSans-2d" x="254.492188"/>
       <use xlink:href="#DejaVuSans-30" x="290.576172"/>
       <use xlink:href="#DejaVuSans-35" x="354.199219"/>
      </g>
     </g>
    </g>
    <g id="xtick_7">
     <g id="line2d_13">
      <path d="M 599.629736 320.4 
L 599.629736 43.2 
" clip-path="url(#pa0b8a290ba)" style="fill: none; stroke-dasharray: 5.12,1.28,0.8,1.28; stroke-dashoffset: 0; stroke: #b0b0b0; stroke-width: 0.8"/>
     </g>
     <g id="line2d_14">
      <g>
       <use xlink:href="#m3febbf008a" x="599.629736" y="320.4" style="fill: #a9a9a9; stroke: #a9a9a9; stroke-width: 0.8"/>
      </g>
     </g>
     <g id="text_7">
      <!-- 2023-09 -->
      <g style="fill: #a9a9a9" transform="translate(578.73833 334.998438) scale(0.1 -0.1)">
       <use xlink:href="#DejaVuSans-32"/>
       <use xlink:href="#DejaVuSans-30" x="63.623047"/>
       <use xlink:href="#DejaVuSans-32" x="127.246094"/>
       <use xlink:href="#DejaVuSans-33" x="190.869141"/>
       <use xlink:href="#DejaVuSans-2d" x="254.492188"/>
       <use xlink:href="#DejaVuSans-30" x="290.576172"/>
       <use xlink:href="#DejaVuSans-39" x="354.199219"/>
      </g>
     </g>
    </g>
    <g id="xtick_8">
     <g id="line2d_15">
      <path d="M 672.796955 320.4 
L 672.796955 43.2 
" clip-path="url(#pa0b8a290ba)" style="fill: none; stroke-dasharray: 5.12,1.28,0.8,1.28; stroke-dashoffset: 0; stroke: #b0b0b0; stroke-width: 0.8"/>
     </g>
     <g id="line2d_16">
      <g>
       <use xlink:href="#m3febbf008a" x="672.796955" y="320.4" style="fill: #a9a9a9; stroke: #a9a9a9; stroke-width: 0.8"/>
      </g>
     </g>
     <g id="text_8">
      <!-- 2024-01 -->
      <g style="fill: #a9a9a9" transform="translate(651.905549 334.998438) scale(0.1 -0.1)">
       <defs>
        <path id="DejaVuSans-34" d="M 2419 4116 
L 825 1625 
L 2419 1625 
L 2419 4116 
z
M 2253 4666 
L 3047 4666 
L 3047 1625 
L 3713 1625 
L 3713 1100 
L 3047 1100 
L 3047 0 
L 2419 0 
L 2419 1100 
L 313 1100 
L 313 1709 
L 2253 4666 
z
" transform="scale(0.015625)"/>
       </defs>
       <use xlink:href="#DejaVuSans-32"/>
       <use xlink:href="#DejaVuSans-30" x="63.623047"/>
       <use xlink:href="#DejaVuSans-32" x="127.246094"/>
       <use xlink:href="#DejaVuSans-34" x="190.869141"/>
       <use xlink:href="#DejaVuSans-2d" x="254.492188"/>
       <use xlink:href="#DejaVuSans-30" x="290.576172"/>
       <use xlink:href="#DejaVuSans-31" x="354.199219"/>
      </g>
     </g>
    </g>
    <g id="xtick_9">
     <g id="line2d_17">
      <path d="M 745.364442 320.4 
L 745.364442 43.2 
" clip-path="url(#pa0b8a290ba)" style="fill: none; stroke-dasharray: 5.12,1.28,0.8,1.28; stroke-dashoffset: 0; stroke: #b0b0b0; stroke-width: 0.8"/>
     </g>
     <g id="line2d_18">
      <g>
       <use xlink:href="#m3febbf008a" x="745.364442" y="320.4" style="fill: #a9a9a9; stroke: #a9a9a9; stroke-width: 0.8"/>
      </g>
     </g>
     <g id="text_9">
      <!-- 2024-05 -->
      <g style="fill: #a9a9a9" transform="translate(724.473036 334.998438) scale(0.1 -0.1)">
       <use xlink:href="#DejaVuSans-32"/>
       <use xlink:href="#DejaVuSans-30" x="63.623047"/>
       <use xlink:href="#DejaVuSans-32" x="127.246094"/>
       <use xlink:href="#DejaVuSans-34" x="190.869141"/>
       <use xlink:href="#DejaVuSans-2d" x="254.492188"/>
       <use xlink:href="#DejaVuSans-30" x="290.576172"/>
       <use xlink:href="#DejaVuSans-35" x="354.199219"/>
      </g>
     </g>
    </g>
   </g>
   <g id="matplotlib.axis_2">
    <g id="ytick_1">
     <g id="line2d_19">
      <path d="M 108 307.841736 
L 777.6 307.841736 
" clip-path="url(#pa0b8a290ba)" style="fill: none; stroke-dasharray: 5.12,1.28,0.8,1.28; stroke-dashoffset: 0; stroke: #b0b0b0; stroke-width: 0.8"/>
     </g>
     <g id="line2d_20">
      <defs>
       <path id="mbc8b64f67d" d="M 0 0 
L -3.5 0 
" style="stroke: #a9a9a9; stroke-width: 0.8"/>
      </defs>
      <g>
       <use xlink:href="#mbc8b64f67d" x="108" y="307.841736" style="fill: #a9a9a9; stroke: #a9a9a9; stroke-width: 0.8"/>
      </g>
     </g>
     <g id="text_10">
      <!-- 0 -->
      <g style="fill: #a9a9a9" transform="translate(94.6375 311.640954) scale(0.1 -0.1)">
       <use xlink:href="#DejaVuSans-30"/>
      </g>
     </g>
    </g>
    <g id="ytick_2">
     <g id="line2d_21">
      <path d="M 108 274.453196 
L 777.6 274.453196 
" clip-path="url(#pa0b8a290ba)" style="fill: none; stroke-dasharray: 5.12,1.28,0.8,1.28; stroke-dashoffset: 0; stroke: #b0b0b0; stroke-width: 0.8"/>
     </g>
     <g id="line2d_22">
      <g>
       <use xlink:href="#mbc8b64f67d" x="108" y="274.453196" style="fill: #a9a9a9; stroke: #a9a9a9; stroke-width: 0.8"/>
      </g>
     </g>
     <g id="text_11">
      <!-- 800 -->
      <g style="fill: #a9a9a9" transform="translate(81.9125 278.252415) scale(0.1 -0.1)">
       <defs>
        <path id="DejaVuSans-38" d="M 2034 2216 
Q 1584 2216 1326 1975 
Q 1069 1734 1069 1313 
Q 1069 891 1326 650 
Q 1584 409 2034 409 
Q 2484 409 2743 651 
Q 3003 894 3003 1313 
Q 3003 1734 2745 1975 
Q 2488 2216 2034 2216 
z
M 1403 2484 
Q 997 2584 770 2862 
Q 544 3141 544 3541 
Q 544 4100 942 4425 
Q 1341 4750 2034 4750 
Q 2731 4750 3128 4425 
Q 3525 4100 3525 3541 
Q 3525 3141 3298 2862 
Q 3072 2584 2669 2484 
Q 3125 2378 3379 2068 
Q 3634 1759 3634 1313 
Q 3634 634 3220 271 
Q 2806 -91 2034 -91 
Q 1263 -91 848 271 
Q 434 634 434 1313 
Q 434 1759 690 2068 
Q 947 2378 1403 2484 
z
M 1172 3481 
Q 1172 3119 1398 2916 
Q 1625 2713 2034 2713 
Q 2441 2713 2670 2916 
Q 2900 3119 2900 3481 
Q 2900 3844 2670 4047 
Q 2441 4250 2034 4250 
Q 1625 4250 1398 4047 
Q 1172 3844 1172 3481 
z
" transform="scale(0.015625)"/>
       </defs>
       <use xlink:href="#DejaVuSans-38"/>
       <use xlink:href="#DejaVuSans-30" x="63.623047"/>
       <use xlink:href="#DejaVuSans-30" x="127.246094"/>
      </g>
     </g>
    </g>
    <g id="ytick_3">
     <g id="line2d_23">
      <path d="M 108 241.064657 
L 777.6 241.064657 
" clip-path="url(#pa0b8a290ba)" style="fill: none; stroke-dasharray: 5.12,1.28,0.8,1.28; stroke-dashoffset: 0; stroke: #b0b0b0; stroke-width: 0.8"/>
     </g>
     <g id="line2d_24">
      <g>
       <use xlink:href="#mbc8b64f67d" x="108" y="241.064657" style="fill: #a9a9a9; stroke: #a9a9a9; stroke-width: 0.8"/>
      </g>
     </g>
     <g id="text_12">
      <!-- 1600 -->
      <g style="fill: #a9a9a9" transform="translate(75.55 244.863876) scale(0.1 -0.1)">
       <defs>
        <path id="DejaVuSans-36" d="M 2113 2584 
Q 1688 2584 1439 2293 
Q 1191 2003 1191 1497 
Q 1191 994 1439 701 
Q 1688 409 2113 409 
Q 2538 409 2786 701 
Q 3034 994 3034 1497 
Q 3034 2003 2786 2293 
Q 2538 2584 2113 2584 
z
M 3366 4563 
L 3366 3988 
Q 3128 4100 2886 4159 
Q 2644 4219 2406 4219 
Q 1781 4219 1451 3797 
Q 1122 3375 1075 2522 
Q 1259 2794 1537 2939 
Q 1816 3084 2150 3084 
Q 2853 3084 3261 2657 
Q 3669 2231 3669 1497 
Q 3669 778 3244 343 
Q 2819 -91 2113 -91 
Q 1303 -91 875 529 
Q 447 1150 447 2328 
Q 447 3434 972 4092 
Q 1497 4750 2381 4750 
Q 2619 4750 2861 4703 
Q 3103 4656 3366 4563 
z
" transform="scale(0.015625)"/>
       </defs>
       <use xlink:href="#DejaVuSans-31"/>
       <use xlink:href="#DejaVuSans-36" x="63.623047"/>
       <use xlink:href="#DejaVuSans-30" x="127.246094"/>
       <use xlink:href="#DejaVuSans-30" x="190.869141"/>
      </g>
     </g>
    </g>
    <g id="ytick_4">
     <g id="line2d_25">
      <path d="M 108 207.676118 
L 777.6 207.676118 
" clip-path="url(#pa0b8a290ba)" style="fill: none; stroke-dasharray: 5.12,1.28,0.8,1.28; stroke-dashoffset: 0; stroke: #b0b0b0; stroke-width: 0.8"/>
     </g>
     <g id="line2d_26">
      <g>
       <use xlink:href="#mbc8b64f67d" x="108" y="207.676118" style="fill: #a9a9a9; stroke: #a9a9a9; stroke-width: 0.8"/>
      </g>
     </g>
     <g id="text_13">
      <!-- 2400 -->
      <g style="fill: #a9a9a9" transform="translate(75.55 211.475337) scale(0.1 -0.1)">
       <use xlink:href="#DejaVuSans-32"/>
       <use xlink:href="#DejaVuSans-34" x="63.623047"/>
       <use xlink:href="#DejaVuSans-30" x="127.246094"/>
       <use xlink:href="#DejaVuSans-30" x="190.869141"/>
      </g>
     </g>
    </g>
    <g id="ytick_5">
     <g id="line2d_27">
      <path d="M 108 174.287579 
L 777.6 174.287579 
" clip-path="url(#pa0b8a290ba)" style="fill: none; stroke-dasharray: 5.12,1.28,0.8,1.28; stroke-dashoffset: 0; stroke: #b0b0b0; stroke-width: 0.8"/>
     </g>
     <g id="line2d_28">
      <g>
       <use xlink:href="#mbc8b64f67d" x="108" y="174.287579" style="fill: #a9a9a9; stroke: #a9a9a9; stroke-width: 0.8"/>
      </g>
     </g>
     <g id="text_14">
      <!-- 3200 -->
      <g style="fill: #a9a9a9" transform="translate(75.55 178.086797) scale(0.1 -0.1)">
       <use xlink:href="#DejaVuSans-33"/>
       <use xlink:href="#DejaVuSans-32" x="63.623047"/>
       <use xlink:href="#DejaVuSans-30" x="127.246094"/>
       <use xlink:href="#DejaVuSans-30" x="190.869141"/>
      </g>
     </g>
    </g>
    <g id="ytick_6">
     <g id="line2d_29">
      <path d="M 108 140.899039 
L 777.6 140.899039 
" clip-path="url(#pa0b8a290ba)" style="fill: none; stroke-dasharray: 5.12,1.28,0.8,1.28; stroke-dashoffset: 0; stroke: #b0b0b0; stroke-width: 0.8"/>
     </g>
     <g id="line2d_30">
      <g>
       <use xlink:href="#mbc8b64f67d" x="108" y="140.899039" style="fill: #a9a9a9; stroke: #a9a9a9; stroke-width: 0.8"/>
      </g>
     </g>
     <g id="text_15">
      <!-- 4000 -->
      <g style="fill: #a9a9a9" transform="translate(75.55 144.698258) scale(0.1 -0.1)">
       <use xlink:href="#DejaVuSans-34"/>
       <use xlink:href="#DejaVuSans-30" x="63.623047"/>
       <use xlink:href="#DejaVuSans-30" x="127.246094"/>
       <use xlink:href="#DejaVuSans-30" x="190.869141"/>
      </g>
     </g>
    </g>
    <g id="ytick_7">
     <g id="line2d_31">
      <path d="M 108 107.5105 
L 777.6 107.5105 
" clip-path="url(#pa0b8a290ba)" style="fill: none; stroke-dasharray: 5.12,1.28,0.8,1.28; stroke-dashoffset: 0; stroke: #b0b0b0; stroke-width: 0.8"/>
     </g>
     <g id="line2d_32">
      <g>
       <use xlink:href="#mbc8b64f67d" x="108" y="107.5105" style="fill: #a9a9a9; stroke: #a9a9a9; stroke-width: 0.8"/>
      </g>
     </g>
     <g id="text_16">
      <!-- 4800 -->
      <g style="fill: #a9a9a9" transform="translate(75.55 111.309719) scale(0.1 -0.1)">
       <use xlink:href="#DejaVuSans-34"/>
       <use xlink:href="#DejaVuSans-38" x="63.623047"/>
       <use xlink:href="#DejaVuSans-30" x="127.246094"/>
       <use xlink:href="#DejaVuSans-30" x="190.869141"/>
      </g>
     </g>
    </g>
    <g id="ytick_8">
     <g id="line2d_33">
      <path d="M 108 74.121961 
L 777.6 74.121961 
" clip-path="url(#pa0b8a290ba)" style="fill: none; stroke-dasharray: 5.12,1.28,0.8,1.28; stroke-dashoffset: 0; stroke: #b0b0b0; stroke-width: 0.8"/>
     </g>
     <g id="line2d_34">
      <g>
       <use xlink:href="#mbc8b64f67d" x="108" y="74.121961" style="fill: #a9a9a9; stroke: #a9a9a9; stroke-width: 0.8"/>
      </g>
     </g>
     <g id="text_17">
      <!-- 5600 -->
      <g style="fill: #a9a9a9" transform="translate(75.55 77.92118) scale(0.1 -0.1)">
       <use xlink:href="#DejaVuSans-35"/>
       <use xlink:href="#DejaVuSans-36" x="63.623047"/>
       <use xlink:href="#DejaVuSans-30" x="127.246094"/>
       <use xlink:href="#DejaVuSans-30" x="190.869141"/>
      </g>
     </g>
    </g>
   </g>
   <g id="line2d_35">
    <path d="M 138.436364 307.716529 
L 142.034751 307.424379 
L 142.634483 307.173965 
L 144.433677 306.965287 
L 148.032064 306.25578 
L 151.630452 305.96363 
L 152.230184 305.671481 
L 152.829915 305.504538 
L 153.429646 304.753296 
L 154.029378 304.335939 
L 154.629109 303.042133 
L 155.22884 302.958662 
L 155.828571 302.499569 
L 157.028034 301.91527 
L 159.426959 300.0789 
L 160.626422 299.578072 
L 161.226153 299.160715 
L 163.625078 298.117324 
L 164.22481 297.199139 
L 165.424272 296.364425 
L 166.024004 296.072276 
L 172.021317 295.237562 
L 172.621048 294.945412 
L 176.819167 294.611527 
L 178.618361 294.152435 
L 184.015943 293.442928 
L 184.615674 293.109043 
L 185.215405 293.025571 
L 185.815137 292.775157 
L 187.014599 292.566479 
L 187.61433 292.524743 
L 188.813793 292.274329 
L 189.413524 292.232594 
L 191.81245 291.648294 
L 193.611644 291.481351 
L 194.811106 291.356144 
L 195.410837 291.189202 
L 196.010569 291.147466 
L 197.809763 290.604902 
L 199.009225 290.521431 
L 200.208688 290.354488 
L 201.40815 290.104074 
L 202.007882 289.937132 
L 202.607613 289.144154 
L 204.406807 288.476383 
L 206.206001 288.01729 
L 206.805732 287.725141 
L 207.405464 287.683405 
L 210.40412 286.848692 
L 211.603583 286.76522 
L 212.203314 286.681749 
L 214.002508 286.139185 
L 216.401433 285.554886 
L 217.001164 285.304472 
L 217.600896 285.221 
L 218.200627 284.928851 
L 224.19794 284.052401 
L 227.196597 283.217688 
L 227.796328 282.842067 
L 230.195253 282.216032 
L 232.594178 281.005697 
L 234.393372 280.588341 
L 234.993103 280.504869 
L 235.592835 280.212719 
L 236.792297 280.004041 
L 237.99176 279.461477 
L 240.990416 278.710235 
L 242.78961 278.251143 
L 243.389342 278.000729 
L 243.989073 277.875522 
L 244.588804 277.625108 
L 245.188536 277.541636 
L 245.788267 277.249487 
L 246.387998 277.082544 
L 247.587461 276.999073 
L 248.786923 276.581716 
L 249.986386 276.498244 
L 250.586117 276.206095 
L 251.78558 276.039152 
L 252.385311 275.830474 
L 253.584774 275.788738 
L 255.983699 275.496588 
L 257.183162 274.912289 
L 263.780206 272.115999 
L 264.379937 271.782113 
L 264.979669 271.156078 
L 266.179131 269.40318 
L 266.778863 269.236237 
L 267.378594 269.236237 
L 268.578056 268.359788 
L 269.177788 268.192845 
L 269.777519 267.900696 
L 270.37725 267.775489 
L 270.976982 267.232925 
L 271.576713 267.065982 
L 273.375907 266.189533 
L 274.575369 264.520106 
L 275.175101 264.144485 
L 275.774832 263.142829 
L 276.374563 262.516794 
L 276.974295 262.224644 
L 277.574026 262.057701 
L 279.972951 260.680424 
L 281.172414 259.720503 
L 281.772145 259.344882 
L 282.371876 258.468433 
L 282.971608 257.132892 
L 283.571339 256.256443 
L 284.17107 255.79735 
L 284.770802 255.546936 
L 287.169727 253.460152 
L 288.369189 252.500232 
L 288.968921 251.999404 
L 289.568652 251.206426 
L 290.768115 250.163034 
L 293.16704 248.618814 
L 293.766771 248.117986 
L 294.366502 247.992779 
L 294.966234 247.742365 
L 296.765428 246.740709 
L 298.564622 245.613846 
L 300.363815 243.860947 
L 300.963547 243.485326 
L 301.563278 243.318384 
L 302.163009 243.026234 
L 303.362472 242.233256 
L 303.962203 241.899371 
L 304.561935 241.815899 
L 309.359785 238.936138 
L 311.158979 237.976217 
L 311.75871 237.433654 
L 314.157635 236.682411 
L 314.757367 236.265055 
L 315.357098 236.139848 
L 316.556561 235.722491 
L 318.355755 235.012984 
L 320.154948 234.345214 
L 321.354411 234.136535 
L 322.553874 233.093143 
L 324.353068 232.25843 
L 325.55253 231.548923 
L 326.751993 231.215038 
L 327.351724 230.839417 
L 327.951455 230.672474 
L 329.750649 229.545611 
L 332.749306 228.836105 
L 334.5485 227.792713 
L 335.148231 227.709241 
L 335.747962 227.500563 
L 336.947425 227.250149 
L 338.746619 225.914607 
L 340.545813 225.497251 
L 341.145544 225.288572 
L 341.745275 224.82948 
L 345.343663 223.660881 
L 345.943395 223.619145 
L 346.543126 223.452203 
L 347.742588 222.951375 
L 351.940708 221.490626 
L 353.14017 221.323683 
L 353.739901 221.156741 
L 354.339633 220.864591 
L 354.939364 220.739384 
L 356.738558 219.90467 
L 358.537752 219.028221 
L 359.137483 218.610865 
L 359.737215 218.443922 
L 361.536408 217.484001 
L 362.735871 217.191852 
L 363.935334 216.565816 
L 365.134796 216.231931 
L 365.734528 216.14846 
L 366.93399 215.438953 
L 367.533721 215.313746 
L 368.733184 214.812918 
L 369.332915 214.687711 
L 369.932647 214.353826 
L 372.331572 213.978205 
L 373.531034 213.393905 
L 374.130766 212.893077 
L 374.730497 211.849685 
L 376.529691 211.5158 
L 378.928616 210.26373 
L 379.528348 210.138523 
L 383.726467 208.13521 
L 384.925929 207.801325 
L 386.125392 207.550911 
L 387.324854 206.966611 
L 387.924586 206.716197 
L 388.524317 206.632726 
L 390.923242 205.589334 
L 392.722436 204.462471 
L 393.322167 204.379 
L 393.921899 204.170321 
L 394.52163 204.128586 
L 396.920555 203.460815 
L 397.520287 203.419079 
L 398.120018 202.959987 
L 399.319481 202.54263 
L 401.118674 201.958331 
L 401.718406 201.58271 
L 402.318137 201.415767 
L 402.917868 200.99841 
L 403.5176 200.747996 
L 404.717062 200.121961 
L 407.115987 199.412454 
L 407.715719 199.120305 
L 409.514913 197.743027 
L 410.114644 197.61782 
L 411.314107 196.699636 
L 411.913838 196.574429 
L 412.513569 195.656244 
L 413.1133 195.40583 
L 413.713032 194.946737 
L 414.312763 194.863266 
L 415.512226 194.15376 
L 416.111957 194.028553 
L 416.711688 193.778138 
L 417.31142 193.319046 
L 417.911151 193.110368 
L 419.710345 191.900033 
L 422.10927 190.689699 
L 422.709001 190.606227 
L 423.908464 190.063663 
L 424.508195 189.729778 
L 425.107927 188.728122 
L 425.707658 188.185558 
L 426.307389 187.851673 
L 426.90712 187.726466 
L 428.106583 186.975224 
L 428.706314 186.850017 
L 429.905777 186.265717 
L 431.704971 185.514475 
L 432.904433 184.679762 
L 434.103896 183.427691 
L 437.102553 181.257436 
L 438.302015 180.297516 
L 438.901747 180.047102 
L 439.501478 179.379331 
L 440.101209 178.920238 
L 441.300672 178.502882 
L 442.500134 177.709904 
L 443.099866 177.417754 
L 443.699597 177.250812 
L 444.299328 176.833455 
L 444.89906 176.749983 
L 446.698253 175.790063 
L 447.897716 175.080556 
L 453.895029 172.952037 
L 454.49476 172.409473 
L 456.293954 171.741703 
L 457.493417 171.366081 
L 458.093148 170.906989 
L 460.492073 169.654919 
L 461.091805 169.321033 
L 462.291267 166.983836 
L 463.49073 165.564823 
L 464.690193 164.855316 
L 466.489386 164.14581 
L 467.089118 164.062339 
L 467.688849 163.728453 
L 469.488043 163.185889 
L 471.886968 162.100762 
L 472.4867 161.725141 
L 473.686162 161.307784 
L 477.28455 159.221 
L 477.884281 158.594965 
L 479.083744 157.96893 
L 482.682132 156.090825 
L 483.281863 155.840411 
L 483.881594 155.46479 
L 484.481326 155.339583 
L 485.081057 154.88049 
L 488.079713 153.92057 
L 488.679445 153.753627 
L 489.279176 153.461477 
L 489.878907 153.044121 
L 491.07837 152.710235 
L 492.277833 152.251143 
L 492.877564 151.79205 
L 494.077026 151.416429 
L 494.676758 151.12428 
L 495.276489 150.957337 
L 496.475952 150.122623 
L 497.675414 149.621795 
L 498.874877 148.70361 
L 500.074339 148.286254 
L 500.674071 147.785426 
L 501.273802 147.701954 
L 502.473265 146.825505 
L 503.672727 146.241206 
L 504.272459 145.990792 
L 504.87219 145.406492 
L 508.470578 144.112686 
L 510.269772 143.319709 
L 512.068966 142.777145 
L 513.268428 142.610202 
L 513.868159 142.359788 
L 514.467891 142.276317 
L 515.667353 141.775489 
L 516.267085 141.733753 
L 518.66601 140.857304 
L 520.465204 139.646969 
L 521.064935 139.396555 
L 522.264398 138.77052 
L 522.864129 138.561842 
L 526.462517 136.600265 
L 527.062248 136.475058 
L 528.861442 135.473402 
L 530.660636 134.889102 
L 531.260367 134.638688 
L 532.45983 134.346539 
L 535.458486 133.386618 
L 537.25768 133.094468 
L 539.656605 132.343226 
L 540.256337 132.092812 
L 540.856068 132.009341 
L 541.455799 131.717191 
L 542.655262 131.466777 
L 543.854725 131.04942 
L 544.454456 130.840742 
L 545.653918 130.715535 
L 546.853381 130.423385 
L 548.652575 130.131236 
L 549.252306 129.922557 
L 550.451769 129.79735 
L 553.450425 129.046108 
L 554.649888 128.753958 
L 555.249619 128.420073 
L 558.248276 127.668831 
L 558.848007 127.543624 
L 560.04747 127.126267 
L 561.846664 126.500232 
L 562.446395 126.416761 
L 564.245589 125.790725 
L 564.84532 125.790725 
L 566.044783 125.373369 
L 566.644514 124.789069 
L 567.244245 124.49692 
L 568.443708 124.121298 
L 570.842633 123.203114 
L 571.442365 123.077907 
L 572.042096 122.702286 
L 572.641827 122.577079 
L 573.241558 122.243193 
L 576.240215 121.366744 
L 576.839946 120.991123 
L 577.439678 120.865916 
L 578.039409 120.365088 
L 579.838603 120.031202 
L 581.038065 119.363432 
L 581.637797 118.695661 
L 582.837259 118.445247 
L 587.035378 117.485326 
L 587.63511 117.318384 
L 588.834572 117.276648 
L 589.434304 117.026234 
L 591.833229 116.608877 
L 592.43296 116.358463 
L 594.232154 116.108049 
L 596.631079 115.356807 
L 598.430273 114.93945 
L 600.229467 114.480358 
L 602.028661 113.937794 
L 605.027318 113.061345 
L 606.22678 112.518781 
L 607.426243 112.101424 
L 608.025974 111.642332 
L 609.225437 111.308447 
L 609.825168 111.058032 
L 611.024631 110.724147 
L 613.423556 109.63902 
L 615.22275 109.513813 
L 617.621675 108.846042 
L 618.221406 108.470421 
L 619.420869 108.136535 
L 621.220063 107.21835 
L 621.819794 107.093143 
L 622.419525 106.800994 
L 623.019257 106.759258 
L 629.616301 104.547267 
L 632.015226 103.962968 
L 632.614957 103.796025 
L 633.81442 103.253461 
L 634.414151 103.16999 
L 635.613614 102.836105 
L 636.213345 102.377012 
L 636.813077 102.084863 
L 637.412808 101.375356 
L 638.012539 100.957999 
L 639.212002 100.582378 
L 639.811733 100.123286 
L 644.609584 98.161709 
L 645.209315 97.994766 
L 645.809046 97.619145 
L 648.207971 96.909639 
L 649.407434 96.32534 
L 650.606897 95.615833 
L 651.206628 95.490626 
L 652.40609 94.78112 
L 653.005822 94.530706 
L 654.205284 93.779463 
L 656.004478 92.94475 
L 656.60421 92.527393 
L 657.803672 92.110036 
L 659.003135 91.40053 
L 659.602866 91.191852 
L 660.202597 90.774495 
L 661.40206 90.357138 
L 662.001791 90.231931 
L 664.400717 89.146804 
L 667.399373 88.103412 
L 667.999104 88.061676 
L 668.598836 87.894733 
L 669.198567 87.519112 
L 669.798298 87.435641 
L 670.39803 87.226963 
L 672.197223 86.893077 
L 676.395343 84.764558 
L 676.995074 84.681086 
L 678.794268 83.721166 
L 680.593462 83.053395 
L 682.392656 82.260417 
L 684.791581 81.300497 
L 685.391312 81.133554 
L 685.991043 80.757933 
L 687.190506 80.59099 
L 687.790237 80.215369 
L 688.389969 80.173634 
L 689.589431 79.798013 
L 690.788894 79.213713 
L 691.388625 79.130242 
L 691.988356 78.879828 
L 692.588088 78.754621 
L 694.387282 77.961643 
L 694.987013 77.836436 
L 695.586744 77.586022 
L 698.585401 76.876515 
L 700.384595 76.208745 
L 702.78352 74.831467 
L 703.982983 74.372375 
L 704.582714 73.996754 
L 705.782176 73.74634 
L 706.381908 73.412454 
L 706.981639 73.287247 
L 708.181102 72.619477 
L 711.779489 70.95005 
L 713.578683 70.36575 
L 714.778146 69.948394 
L 715.377877 69.739715 
L 716.57734 69.155416 
L 717.776803 68.779795 
L 718.376534 68.654588 
L 719.575996 68.112024 
L 720.175728 67.903345 
L 720.775459 67.56946 
L 721.37519 67.485989 
L 721.974922 67.27731 
L 723.174384 66.60954 
L 725.573309 65.524412 
L 726.772772 65.107055 
L 727.972235 64.48102 
L 728.571966 64.397549 
L 731.570622 63.103743 
L 732.170354 62.686386 
L 734.569279 61.893408 
L 735.16901 61.893408 
L 736.368473 61.350845 
L 736.968204 60.891752 
L 737.567936 60.223981 
L 738.167667 59.723153 
L 738.767398 59.431004 
L 739.367129 59.264061 
L 739.966861 58.88844 
L 740.566592 58.763233 
L 741.166323 58.471083 
L 741.766055 58.387612 
L 742.365786 57.970255 
L 742.965517 57.845048 
L 743.565249 57.552898 
L 745.364442 56.384299 
L 747.163636 55.8 
L 747.163636 55.8 
" clip-path="url(#pa0b8a290ba)" style="fill: none; stroke: #1f77b4; stroke-width: 1.5; stroke-linecap: square"/>
   </g>
   <g id="line2d_36">
    <path d="M 139.036095 307.8 
L 140.835289 307.716529 
L 142.634483 307.674793 
L 146.232871 307.591322 
L 149.231527 307.466115 
L 151.630452 307.466115 
L 152.230184 307.299172 
L 154.629109 307.215701 
L 156.428303 307.007022 
L 158.227497 306.840079 
L 161.825884 306.673137 
L 162.425616 306.673137 
L 163.025347 306.54793 
L 165.424272 306.464458 
L 166.623735 306.380987 
L 171.421585 306.297516 
L 174.420242 306.172309 
L 181.617017 306.088837 
L 184.615674 305.96363 
L 188.214062 305.880159 
L 190.612987 305.796688 
L 196.010569 305.713216 
L 197.809763 305.671481 
L 199.608957 305.629745 
L 201.40815 305.421067 
L 205.006538 305.379331 
L 206.206001 305.29586 
L 210.40412 305.212388 
L 217.001164 304.836767 
L 221.199283 304.753296 
L 222.398746 304.669824 
L 224.19794 304.586353 
L 227.796328 304.41941 
L 230.195253 304.377675 
L 231.994447 304.210732 
L 239.790954 303.75164 
L 242.78961 303.668168 
L 248.187192 303.376019 
L 249.986386 303.292547 
L 255.983699 302.958662 
L 262.580743 302.87519 
L 264.979669 302.624776 
L 266.179131 302.541305 
L 273.975638 301.91527 
L 277.574026 301.456178 
L 279.972951 301.372706 
L 284.770802 300.746671 
L 288.369189 300.6632 
L 290.168383 300.496257 
L 291.367846 300.454521 
L 292.567309 300.329314 
L 294.366502 300.245843 
L 295.565965 300.0789 
L 298.564622 299.745015 
L 300.963547 299.661544 
L 302.163009 299.578072 
L 304.561935 299.494601 
L 305.761397 299.41113 
L 308.760054 299.11898 
L 309.359785 298.952037 
L 312.958173 298.785094 
L 315.956829 298.701623 
L 323.753336 298.242531 
L 325.55253 298.159059 
L 333.349037 297.699967 
L 337.547156 297.616496 
L 338.146888 297.491289 
L 342.944738 297.407817 
L 347.142857 297.199139 
L 353.739901 297.115667 
L 357.938021 296.906989 
L 362.735871 296.823518 
L 367.533721 296.573104 
L 371.731841 296.489632 
L 383.126735 295.780126 
L 387.924586 295.696655 
L 393.921899 295.362769 
L 395.121361 295.321033 
L 397.520287 295.070619 
L 403.5176 294.736734 
L 407.115987 294.653263 
L 408.915181 294.611527 
L 410.714375 294.569791 
L 412.513569 294.402849 
L 417.31142 294.319377 
L 418.510882 294.110699 
L 419.710345 294.027228 
L 422.709001 293.902021 
L 423.908464 293.818549 
L 425.107927 293.735078 
L 430.505508 293.651606 
L 431.704971 293.526399 
L 434.103896 293.484664 
L 434.703627 293.359457 
L 435.90309 293.275985 
L 436.502821 293.150778 
L 438.302015 293.067307 
L 447.897716 292.483008 
L 450.296641 292.399536 
L 453.295298 292.274329 
L 461.691536 292.190858 
L 465.889655 291.98218 
L 470.687506 291.898708 
L 473.086431 291.815237 
L 475.485356 291.773501 
L 476.684819 291.648294 
L 479.083744 291.564823 
L 485.081057 291.230937 
L 488.679445 291.189202 
L 490.478639 291.022259 
L 492.277833 290.980523 
L 496.475952 290.897052 
L 498.874877 290.813581 
L 506.071652 290.730109 
L 509.070309 290.604902 
L 512.668697 290.521431 
L 514.467891 290.312753 
L 518.066279 290.271017 
L 519.865472 290.104074 
L 522.264398 290.020603 
L 529.461173 289.937132 
L 532.45983 289.811924 
L 542.655262 289.770189 
L 543.854725 289.686717 
L 545.653918 289.644982 
L 553.450425 289.56151 
L 554.649888 289.478039 
L 561.246932 289.394568 
L 563.645858 289.311096 
L 570.842633 289.269361 
L 572.042096 289.185889 
L 581.038065 289.144154 
L 582.837259 288.977211 
L 597.830542 288.89374 
L 599.629736 288.852004 
L 615.822481 288.768533 
L 618.221406 288.685061 
L 628.416838 288.60159 
L 629.616301 288.518119 
L 632.614957 288.434647 
L 634.414151 288.267705 
L 637.412808 288.184233 
L 639.811733 288.100762 
L 643.410121 288.01729 
L 645.209315 287.975555 
L 647.60824 287.892083 
L 649.407434 287.850348 
L 652.40609 287.766876 
L 653.605553 287.683405 
L 657.203941 287.599934 
L 660.202597 287.474727 
L 661.40206 287.432991 
L 662.601523 287.34952 
L 664.400717 287.307784 
L 666.799642 287.224313 
L 669.198567 287.140841 
L 676.995074 287.05737 
L 679.393999 286.973899 
L 684.19185 286.890427 
L 688.389969 286.681749 
L 693.78755 286.598278 
L 694.987013 286.514806 
L 705.782176 286.431335 
L 707.58137 286.389599 
L 710.580027 286.347864 
L 712.978952 286.097449 
L 714.778146 286.055714 
L 718.376534 285.972242 
L 724.973578 285.596621 
L 727.372503 285.51315 
L 729.771429 285.429679 
L 733.369816 285.346207 
L 734.569279 285.262736 
L 736.968204 285.179265 
L 739.367129 284.928851 
L 741.766055 284.845379 
L 745.964174 284.761908 
L 746.563905 284.636701 
L 747.163636 284.636701 
L 747.163636 284.636701 
" clip-path="url(#pa0b8a290ba)" style="fill: none; stroke: #ff7f0e; stroke-width: 1.5; stroke-linecap: square"/>
   </g>
   <g id="patch_3">
    <path d="M 108 320.4 
L 108 43.2 
" style="fill: none; stroke: #a9a9a9; stroke-width: 0.8; stroke-linejoin: miter; stroke-linecap: square"/>
   </g>
   <g id="patch_4">
    <path d="M 777.6 320.4 
L 777.6 43.2 
" style="fill: none"/>
   </g>
   <g id="patch_5">
    <path d="M 108 320.4 
L 777.6 320.4 
" style="fill: none; stroke: #a9a9a9; stroke-width: 0.8; stroke-linejoin: miter; stroke-linecap: square"/>
   </g>
   <g id="patch_6">
    <path d="M 108 43.2 
L 777.6 43.2 
" style="fill: none"/>
   </g>
   <g id="text_18">
    <!-- get_subscribe history -->
    <g style="fill: #a9a9a9" transform="translate(378.6075 37.2) scale(0.12 -0.12)">
     <defs>
      <path id="DejaVuSans-67" d="M 2906 1791 
Q 2906 2416 2648 2759 
Q 2391 3103 1925 3103 
Q 1463 3103 1205 2759 
Q 947 2416 947 1791 
Q 947 1169 1205 825 
Q 1463 481 1925 481 
Q 2391 481 2648 825 
Q 2906 1169 2906 1791 
z
M 3481 434 
Q 3481 -459 3084 -895 
Q 2688 -1331 1869 -1331 
Q 1566 -1331 1297 -1286 
Q 1028 -1241 775 -1147 
L 775 -588 
Q 1028 -725 1275 -790 
Q 1522 -856 1778 -856 
Q 2344 -856 2625 -561 
Q 2906 -266 2906 331 
L 2906 616 
Q 2728 306 2450 153 
Q 2172 0 1784 0 
Q 1141 0 747 490 
Q 353 981 353 1791 
Q 353 2603 747 3093 
Q 1141 3584 1784 3584 
Q 2172 3584 2450 3431 
Q 2728 3278 2906 2969 
L 2906 3500 
L 3481 3500 
L 3481 434 
z
" transform="scale(0.015625)"/>
      <path id="DejaVuSans-65" d="M 3597 1894 
L 3597 1613 
L 953 1613 
Q 991 1019 1311 708 
Q 1631 397 2203 397 
Q 2534 397 2845 478 
Q 3156 559 3463 722 
L 3463 178 
Q 3153 47 2828 -22 
Q 2503 -91 2169 -91 
Q 1331 -91 842 396 
Q 353 884 353 1716 
Q 353 2575 817 3079 
Q 1281 3584 2069 3584 
Q 2775 3584 3186 3129 
Q 3597 2675 3597 1894 
z
M 3022 2063 
Q 3016 2534 2758 2815 
Q 2500 3097 2075 3097 
Q 1594 3097 1305 2825 
Q 1016 2553 972 2059 
L 3022 2063 
z
" transform="scale(0.015625)"/>
      <path id="DejaVuSans-74" d="M 1172 4494 
L 1172 3500 
L 2356 3500 
L 2356 3053 
L 1172 3053 
L 1172 1153 
Q 1172 725 1289 603 
Q 1406 481 1766 481 
L 2356 481 
L 2356 0 
L 1766 0 
Q 1100 0 847 248 
Q 594 497 594 1153 
L 594 3053 
L 172 3053 
L 172 3500 
L 594 3500 
L 594 4494 
L 1172 4494 
z
" transform="scale(0.015625)"/>
      <path id="DejaVuSans-5f" d="M 3263 -1063 
L 3263 -1509 
L -63 -1509 
L -63 -1063 
L 3263 -1063 
z
" transform="scale(0.015625)"/>
      <path id="DejaVuSans-73" d="M 2834 3397 
L 2834 2853 
Q 2591 2978 2328 3040 
Q 2066 3103 1784 3103 
Q 1356 3103 1142 2972 
Q 928 2841 928 2578 
Q 928 2378 1081 2264 
Q 1234 2150 1697 2047 
L 1894 2003 
Q 2506 1872 2764 1633 
Q 3022 1394 3022 966 
Q 3022 478 2636 193 
Q 2250 -91 1575 -91 
Q 1294 -91 989 -36 
Q 684 19 347 128 
L 347 722 
Q 666 556 975 473 
Q 1284 391 1588 391 
Q 1994 391 2212 530 
Q 2431 669 2431 922 
Q 2431 1156 2273 1281 
Q 2116 1406 1581 1522 
L 1381 1569 
Q 847 1681 609 1914 
Q 372 2147 372 2553 
Q 372 3047 722 3315 
Q 1072 3584 1716 3584 
Q 2034 3584 2315 3537 
Q 2597 3491 2834 3397 
z
" transform="scale(0.015625)"/>
      <path id="DejaVuSans-75" d="M 544 1381 
L 544 3500 
L 1119 3500 
L 1119 1403 
Q 1119 906 1312 657 
Q 1506 409 1894 409 
Q 2359 409 2629 706 
Q 2900 1003 2900 1516 
L 2900 3500 
L 3475 3500 
L 3475 0 
L 2900 0 
L 2900 538 
Q 2691 219 2414 64 
Q 2138 -91 1772 -91 
Q 1169 -91 856 284 
Q 544 659 544 1381 
z
M 1991 3584 
L 1991 3584 
z
" transform="scale(0.015625)"/>
      <path id="DejaVuSans-62" d="M 3116 1747 
Q 3116 2381 2855 2742 
Q 2594 3103 2138 3103 
Q 1681 3103 1420 2742 
Q 1159 2381 1159 1747 
Q 1159 1113 1420 752 
Q 1681 391 2138 391 
Q 2594 391 2855 752 
Q 3116 1113 3116 1747 
z
M 1159 2969 
Q 1341 3281 1617 3432 
Q 1894 3584 2278 3584 
Q 2916 3584 3314 3078 
Q 3713 2572 3713 1747 
Q 3713 922 3314 415 
Q 2916 -91 2278 -91 
Q 1894 -91 1617 61 
Q 1341 213 1159 525 
L 1159 0 
L 581 0 
L 581 4863 
L 1159 4863 
L 1159 2969 
z
" transform="scale(0.015625)"/>
      <path id="DejaVuSans-63" d="M 3122 3366 
L 3122 2828 
Q 2878 2963 2633 3030 
Q 2388 3097 2138 3097 
Q 1578 3097 1268 2742 
Q 959 2388 959 1747 
Q 959 1106 1268 751 
Q 1578 397 2138 397 
Q 2388 397 2633 464 
Q 2878 531 3122 666 
L 3122 134 
Q 2881 22 2623 -34 
Q 2366 -91 2075 -91 
Q 1284 -91 818 406 
Q 353 903 353 1747 
Q 353 2603 823 3093 
Q 1294 3584 2113 3584 
Q 2378 3584 2631 3529 
Q 2884 3475 3122 3366 
z
" transform="scale(0.015625)"/>
      <path id="DejaVuSans-72" d="M 2631 2963 
Q 2534 3019 2420 3045 
Q 2306 3072 2169 3072 
Q 1681 3072 1420 2755 
Q 1159 2438 1159 1844 
L 1159 0 
L 581 0 
L 581 3500 
L 1159 3500 
L 1159 2956 
Q 1341 3275 1631 3429 
Q 1922 3584 2338 3584 
Q 2397 3584 2469 3576 
Q 2541 3569 2628 3553 
L 2631 2963 
z
" transform="scale(0.015625)"/>
      <path id="DejaVuSans-69" d="M 603 3500 
L 1178 3500 
L 1178 0 
L 603 0 
L 603 3500 
z
M 603 4863 
L 1178 4863 
L 1178 4134 
L 603 4134 
L 603 4863 
z
" transform="scale(0.015625)"/>
      <path id="DejaVuSans-20" transform="scale(0.015625)"/>
      <path id="DejaVuSans-68" d="M 3513 2113 
L 3513 0 
L 2938 0 
L 2938 2094 
Q 2938 2591 2744 2837 
Q 2550 3084 2163 3084 
Q 1697 3084 1428 2787 
Q 1159 2491 1159 1978 
L 1159 0 
L 581 0 
L 581 4863 
L 1159 4863 
L 1159 2956 
Q 1366 3272 1645 3428 
Q 1925 3584 2291 3584 
Q 2894 3584 3203 3211 
Q 3513 2838 3513 2113 
z
" transform="scale(0.015625)"/>
      <path id="DejaVuSans-6f" d="M 1959 3097 
Q 1497 3097 1228 2736 
Q 959 2375 959 1747 
Q 959 1119 1226 758 
Q 1494 397 1959 397 
Q 2419 397 2687 759 
Q 2956 1122 2956 1747 
Q 2956 2369 2687 2733 
Q 2419 3097 1959 3097 
z
M 1959 3584 
Q 2709 3584 3137 3096 
Q 3566 2609 3566 1747 
Q 3566 888 3137 398 
Q 2709 -91 1959 -91 
Q 1206 -91 779 398 
Q 353 888 353 1747 
Q 353 2609 779 3096 
Q 1206 3584 1959 3584 
z
" transform="scale(0.015625)"/>
      <path id="DejaVuSans-79" d="M 2059 -325 
Q 1816 -950 1584 -1140 
Q 1353 -1331 966 -1331 
L 506 -1331 
L 506 -850 
L 844 -850 
Q 1081 -850 1212 -737 
Q 1344 -625 1503 -206 
L 1606 56 
L 191 3500 
L 800 3500 
L 1894 763 
L 2988 3500 
L 3597 3500 
L 2059 -325 
z
" transform="scale(0.015625)"/>
     </defs>
     <use xlink:href="#DejaVuSans-67"/>
     <use xlink:href="#DejaVuSans-65" x="63.476562"/>
     <use xlink:href="#DejaVuSans-74" x="125"/>
     <use xlink:href="#DejaVuSans-5f" x="164.208984"/>
     <use xlink:href="#DejaVuSans-73" x="214.208984"/>
     <use xlink:href="#DejaVuSans-75" x="266.308594"/>
     <use xlink:href="#DejaVuSans-62" x="329.6875"/>
     <use xlink:href="#DejaVuSans-73" x="393.164062"/>
     <use xlink:href="#DejaVuSans-63" x="445.263672"/>
     <use xlink:href="#DejaVuSans-72" x="500.244141"/>
     <use xlink:href="#DejaVuSans-69" x="541.357422"/>
     <use xlink:href="#DejaVuSans-62" x="569.140625"/>
     <use xlink:href="#DejaVuSans-65" x="632.617188"/>
     <use xlink:href="#DejaVuSans-20" x="694.140625"/>
     <use xlink:href="#DejaVuSans-68" x="725.927734"/>
     <use xlink:href="#DejaVuSans-69" x="789.306641"/>
     <use xlink:href="#DejaVuSans-73" x="817.089844"/>
     <use xlink:href="#DejaVuSans-74" x="869.189453"/>
     <use xlink:href="#DejaVuSans-6f" x="908.398438"/>
     <use xlink:href="#DejaVuSans-72" x="969.580078"/>
     <use xlink:href="#DejaVuSans-79" x="1010.693359"/>
    </g>
   </g>
   <g id="legend_1">
    <g id="line2d_37">
     <path d="M 815.08 328.498438 
L 825.08 328.498438 
L 835.08 328.498438 
" style="fill: none; stroke: #1f77b4; stroke-width: 1.5; stroke-linecap: square"/>
    </g>
    <g id="text_19">
     <!-- star -->
     <g style="fill: #a9a9a9" transform="translate(843.08 331.998438) scale(0.1 -0.1)">
      <defs>
       <path id="DejaVuSans-61" d="M 2194 1759 
Q 1497 1759 1228 1600 
Q 959 1441 959 1056 
Q 959 750 1161 570 
Q 1363 391 1709 391 
Q 2188 391 2477 730 
Q 2766 1069 2766 1631 
L 2766 1759 
L 2194 1759 
z
M 3341 1997 
L 3341 0 
L 2766 0 
L 2766 531 
Q 2569 213 2275 61 
Q 1981 -91 1556 -91 
Q 1019 -91 701 211 
Q 384 513 384 1019 
Q 384 1609 779 1909 
Q 1175 2209 1959 2209 
L 2766 2209 
L 2766 2266 
Q 2766 2663 2505 2880 
Q 2244 3097 1772 3097 
Q 1472 3097 1187 3025 
Q 903 2953 641 2809 
L 641 3341 
Q 956 3463 1253 3523 
Q 1550 3584 1831 3584 
Q 2591 3584 2966 3190 
Q 3341 2797 3341 1997 
z
" transform="scale(0.015625)"/>
      </defs>
      <use xlink:href="#DejaVuSans-73"/>
      <use xlink:href="#DejaVuSans-74" x="52.099609"/>
      <use xlink:href="#DejaVuSans-61" x="91.308594"/>
      <use xlink:href="#DejaVuSans-72" x="152.587891"/>
     </g>
    </g>
    <g id="line2d_38">
     <path d="M 815.08 343.176562 
L 825.08 343.176562 
L 835.08 343.176562 
" style="fill: none; stroke: #ff7f0e; stroke-width: 1.5; stroke-linecap: square"/>
    </g>
    <g id="text_20">
     <!-- fork -->
     <g style="fill: #a9a9a9" transform="translate(843.08 346.676562) scale(0.1 -0.1)">
      <defs>
       <path id="DejaVuSans-66" d="M 2375 4863 
L 2375 4384 
L 1825 4384 
Q 1516 4384 1395 4259 
Q 1275 4134 1275 3809 
L 1275 3500 
L 2222 3500 
L 2222 3053 
L 1275 3053 
L 1275 0 
L 697 0 
L 697 3053 
L 147 3053 
L 147 3500 
L 697 3500 
L 697 3744 
Q 697 4328 969 4595 
Q 1241 4863 1831 4863 
L 2375 4863 
z
" transform="scale(0.015625)"/>
       <path id="DejaVuSans-6b" d="M 581 4863 
L 1159 4863 
L 1159 1991 
L 2875 3500 
L 3609 3500 
L 1753 1863 
L 3688 0 
L 2938 0 
L 1159 1709 
L 1159 0 
L 581 0 
L 581 4863 
z
" transform="scale(0.015625)"/>
      </defs>
      <use xlink:href="#DejaVuSans-66"/>
      <use xlink:href="#DejaVuSans-6f" x="35.205078"/>
      <use xlink:href="#DejaVuSans-72" x="96.386719"/>
      <use xlink:href="#DejaVuSans-6b" x="137.5"/>
     </g>
    </g>
   </g>
  </g>
 </g>
 <defs>
  <clipPath id="pa0b8a290ba">
   <rect x="108" y="43.2" width="669.6" height="277.2"/>
  </clipPath>
 </defs>
</svg>
