<?xml version="1.0" encoding="utf-8" standalone="no"?>
<!DOCTYPE svg PUBLIC "-//W3C//DTD SVG 1.1//EN"
  "http://www.w3.org/Graphics/SVG/1.1/DTD/svg11.dtd">
<svg xmlns:xlink="http://www.w3.org/1999/xlink" width="864pt" height="360pt" viewBox="0 0 864 360" xmlns="http://www.w3.org/2000/svg" version="1.1">
 <metadata>
  <rdf:RDF xmlns:dc="http://purl.org/dc/elements/1.1/" xmlns:cc="http://creativecommons.org/ns#" xmlns:rdf="http://www.w3.org/1999/02/22-rdf-syntax-ns#">
   <cc:Work>
    <dc:type rdf:resource="http://purl.org/dc/dcmitype/StillImage"/>
    <dc:date>2024-05-05T08:11:43.043693</dc:date>
    <dc:format>image/svg+xml</dc:format>
    <dc:creator>
     <cc:Agent>
      <dc:title>Matplotlib v3.8.4, https://matplotlib.org/</dc:title>
     </cc:Agent>
    </dc:creator>
   </cc:Work>
  </rdf:RDF>
 </metadata>
 <defs>
  <style type="text/css">*{stroke-linejoin: round; stroke-linecap: butt}</style>
 </defs>
 <g id="figure_1">
  <g id="patch_1">
   <path d="M 0 360 
L 864 360 
L 864 0 
L 0 0 
L 0 360 
z
" style="fill: none; opacity: 0"/>
  </g>
  <g id="axes_1">
   <g id="patch_2">
    <path d="M 108 320.4 
L 777.6 320.4 
L 777.6 43.2 
L 108 43.2 
L 108 320.4 
z
" style="fill: none; opacity: 0"/>
   </g>
   <g id="matplotlib.axis_1">
    <g id="xtick_1">
     <g id="line2d_1">
      <path d="M 161.802863 320.4 
L 161.802863 43.2 
" clip-path="url(#p1111aee974)" style="fill: none; stroke-dasharray: 5.12,1.28,0.8,1.28; stroke-dashoffset: 0; stroke: #b0b0b0; stroke-width: 0.8"/>
     </g>
     <g id="line2d_2">
      <defs>
       <path id="m3e8529da2c" d="M 0 0 
L 0 3.5 
" style="stroke: #a9a9a9; stroke-width: 0.8"/>
      </defs>
      <g>
       <use xlink:href="#m3e8529da2c" x="161.802863" y="320.4" style="fill: #a9a9a9; stroke: #a9a9a9; stroke-width: 0.8"/>
      </g>
     </g>
     <g id="text_1">
      <!-- 2021-09 -->
      <g style="fill: #a9a9a9" transform="translate(140.911457 334.998438) scale(0.1 -0.1)">
       <defs>
        <path id="DejaVuSans-32" d="M 1228 531 
L 3431 531 
L 3431 0 
L 469 0 
L 469 531 
Q 828 903 1448 1529 
Q 2069 2156 2228 2338 
Q 2531 2678 2651 2914 
Q 2772 3150 2772 3378 
Q 2772 3750 2511 3984 
Q 2250 4219 1831 4219 
Q 1534 4219 1204 4116 
Q 875 4013 500 3803 
L 500 4441 
Q 881 4594 1212 4672 
Q 1544 4750 1819 4750 
Q 2544 4750 2975 4387 
Q 3406 4025 3406 3419 
Q 3406 3131 3298 2873 
Q 3191 2616 2906 2266 
Q 2828 2175 2409 1742 
Q 1991 1309 1228 531 
z
" transform="scale(0.015625)"/>
        <path id="DejaVuSans-30" d="M 2034 4250 
Q 1547 4250 1301 3770 
Q 1056 3291 1056 2328 
Q 1056 1369 1301 889 
Q 1547 409 2034 409 
Q 2525 409 2770 889 
Q 3016 1369 3016 2328 
Q 3016 3291 2770 3770 
Q 2525 4250 2034 4250 
z
M 2034 4750 
Q 2819 4750 3233 4129 
Q 3647 3509 3647 2328 
Q 3647 1150 3233 529 
Q 2819 -91 2034 -91 
Q 1250 -91 836 529 
Q 422 1150 422 2328 
Q 422 3509 836 4129 
Q 1250 4750 2034 4750 
z
" transform="scale(0.015625)"/>
        <path id="DejaVuSans-31" d="M 794 531 
L 1825 531 
L 1825 4091 
L 703 3866 
L 703 4441 
L 1819 4666 
L 2450 4666 
L 2450 531 
L 3481 531 
L 3481 0 
L 794 0 
L 794 531 
z
" transform="scale(0.015625)"/>
        <path id="DejaVuSans-2d" d="M 313 2009 
L 1997 2009 
L 1997 1497 
L 313 1497 
L 313 2009 
z
" transform="scale(0.015625)"/>
        <path id="DejaVuSans-39" d="M 703 97 
L 703 672 
Q 941 559 1184 500 
Q 1428 441 1663 441 
Q 2288 441 2617 861 
Q 2947 1281 2994 2138 
Q 2813 1869 2534 1725 
Q 2256 1581 1919 1581 
Q 1219 1581 811 2004 
Q 403 2428 403 3163 
Q 403 3881 828 4315 
Q 1253 4750 1959 4750 
Q 2769 4750 3195 4129 
Q 3622 3509 3622 2328 
Q 3622 1225 3098 567 
Q 2575 -91 1691 -91 
Q 1453 -91 1209 -44 
Q 966 3 703 97 
z
M 1959 2075 
Q 2384 2075 2632 2365 
Q 2881 2656 2881 3163 
Q 2881 3666 2632 3958 
Q 2384 4250 1959 4250 
Q 1534 4250 1286 3958 
Q 1038 3666 1038 3163 
Q 1038 2656 1286 2365 
Q 1534 2075 1959 2075 
z
" transform="scale(0.015625)"/>
       </defs>
       <use xlink:href="#DejaVuSans-32"/>
       <use xlink:href="#DejaVuSans-30" x="63.623047"/>
       <use xlink:href="#DejaVuSans-32" x="127.246094"/>
       <use xlink:href="#DejaVuSans-31" x="190.869141"/>
       <use xlink:href="#DejaVuSans-2d" x="254.492188"/>
       <use xlink:href="#DejaVuSans-30" x="290.576172"/>
       <use xlink:href="#DejaVuSans-39" x="354.199219"/>
      </g>
     </g>
    </g>
    <g id="xtick_2">
     <g id="line2d_3">
      <path d="M 234.898067 320.4 
L 234.898067 43.2 
" clip-path="url(#p1111aee974)" style="fill: none; stroke-dasharray: 5.12,1.28,0.8,1.28; stroke-dashoffset: 0; stroke: #b0b0b0; stroke-width: 0.8"/>
     </g>
     <g id="line2d_4">
      <g>
       <use xlink:href="#m3e8529da2c" x="234.898067" y="320.4" style="fill: #a9a9a9; stroke: #a9a9a9; stroke-width: 0.8"/>
      </g>
     </g>
     <g id="text_2">
      <!-- 2022-01 -->
      <g style="fill: #a9a9a9" transform="translate(214.006661 334.998438) scale(0.1 -0.1)">
       <use xlink:href="#DejaVuSans-32"/>
       <use xlink:href="#DejaVuSans-30" x="63.623047"/>
       <use xlink:href="#DejaVuSans-32" x="127.246094"/>
       <use xlink:href="#DejaVuSans-32" x="190.869141"/>
       <use xlink:href="#DejaVuSans-2d" x="254.492188"/>
       <use xlink:href="#DejaVuSans-30" x="290.576172"/>
       <use xlink:href="#DejaVuSans-31" x="354.199219"/>
      </g>
     </g>
    </g>
    <g id="xtick_3">
     <g id="line2d_5">
      <path d="M 306.794989 320.4 
L 306.794989 43.2 
" clip-path="url(#p1111aee974)" style="fill: none; stroke-dasharray: 5.12,1.28,0.8,1.28; stroke-dashoffset: 0; stroke: #b0b0b0; stroke-width: 0.8"/>
     </g>
     <g id="line2d_6">
      <g>
       <use xlink:href="#m3e8529da2c" x="306.794989" y="320.4" style="fill: #a9a9a9; stroke: #a9a9a9; stroke-width: 0.8"/>
      </g>
     </g>
     <g id="text_3">
      <!-- 2022-05 -->
      <g style="fill: #a9a9a9" transform="translate(285.903583 334.998438) scale(0.1 -0.1)">
       <defs>
        <path id="DejaVuSans-35" d="M 691 4666 
L 3169 4666 
L 3169 4134 
L 1269 4134 
L 1269 2991 
Q 1406 3038 1543 3061 
Q 1681 3084 1819 3084 
Q 2600 3084 3056 2656 
Q 3513 2228 3513 1497 
Q 3513 744 3044 326 
Q 2575 -91 1722 -91 
Q 1428 -91 1123 -41 
Q 819 9 494 109 
L 494 744 
Q 775 591 1075 516 
Q 1375 441 1709 441 
Q 2250 441 2565 725 
Q 2881 1009 2881 1497 
Q 2881 1984 2565 2268 
Q 2250 2553 1709 2553 
Q 1456 2553 1204 2497 
Q 953 2441 691 2322 
L 691 4666 
z
" transform="scale(0.015625)"/>
       </defs>
       <use xlink:href="#DejaVuSans-32"/>
       <use xlink:href="#DejaVuSans-30" x="63.623047"/>
       <use xlink:href="#DejaVuSans-32" x="127.246094"/>
       <use xlink:href="#DejaVuSans-32" x="190.869141"/>
       <use xlink:href="#DejaVuSans-2d" x="254.492188"/>
       <use xlink:href="#DejaVuSans-30" x="290.576172"/>
       <use xlink:href="#DejaVuSans-35" x="354.199219"/>
      </g>
     </g>
    </g>
    <g id="xtick_4">
     <g id="line2d_7">
      <path d="M 380.489334 320.4 
L 380.489334 43.2 
" clip-path="url(#p1111aee974)" style="fill: none; stroke-dasharray: 5.12,1.28,0.8,1.28; stroke-dashoffset: 0; stroke: #b0b0b0; stroke-width: 0.8"/>
     </g>
     <g id="line2d_8">
      <g>
       <use xlink:href="#m3e8529da2c" x="380.489334" y="320.4" style="fill: #a9a9a9; stroke: #a9a9a9; stroke-width: 0.8"/>
      </g>
     </g>
     <g id="text_4">
      <!-- 2022-09 -->
      <g style="fill: #a9a9a9" transform="translate(359.597928 334.998438) scale(0.1 -0.1)">
       <use xlink:href="#DejaVuSans-32"/>
       <use xlink:href="#DejaVuSans-30" x="63.623047"/>
       <use xlink:href="#DejaVuSans-32" x="127.246094"/>
       <use xlink:href="#DejaVuSans-32" x="190.869141"/>
       <use xlink:href="#DejaVuSans-2d" x="254.492188"/>
       <use xlink:href="#DejaVuSans-30" x="290.576172"/>
       <use xlink:href="#DejaVuSans-39" x="354.199219"/>
      </g>
     </g>
    </g>
    <g id="xtick_5">
     <g id="line2d_9">
      <path d="M 453.584538 320.4 
L 453.584538 43.2 
" clip-path="url(#p1111aee974)" style="fill: none; stroke-dasharray: 5.12,1.28,0.8,1.28; stroke-dashoffset: 0; stroke: #b0b0b0; stroke-width: 0.8"/>
     </g>
     <g id="line2d_10">
      <g>
       <use xlink:href="#m3e8529da2c" x="453.584538" y="320.4" style="fill: #a9a9a9; stroke: #a9a9a9; stroke-width: 0.8"/>
      </g>
     </g>
     <g id="text_5">
      <!-- 2023-01 -->
      <g style="fill: #a9a9a9" transform="translate(432.693132 334.998438) scale(0.1 -0.1)">
       <defs>
        <path id="DejaVuSans-33" d="M 2597 2516 
Q 3050 2419 3304 2112 
Q 3559 1806 3559 1356 
Q 3559 666 3084 287 
Q 2609 -91 1734 -91 
Q 1441 -91 1130 -33 
Q 819 25 488 141 
L 488 750 
Q 750 597 1062 519 
Q 1375 441 1716 441 
Q 2309 441 2620 675 
Q 2931 909 2931 1356 
Q 2931 1769 2642 2001 
Q 2353 2234 1838 2234 
L 1294 2234 
L 1294 2753 
L 1863 2753 
Q 2328 2753 2575 2939 
Q 2822 3125 2822 3475 
Q 2822 3834 2567 4026 
Q 2313 4219 1838 4219 
Q 1578 4219 1281 4162 
Q 984 4106 628 3988 
L 628 4550 
Q 988 4650 1302 4700 
Q 1616 4750 1894 4750 
Q 2613 4750 3031 4423 
Q 3450 4097 3450 3541 
Q 3450 3153 3228 2886 
Q 3006 2619 2597 2516 
z
" transform="scale(0.015625)"/>
       </defs>
       <use xlink:href="#DejaVuSans-32"/>
       <use xlink:href="#DejaVuSans-30" x="63.623047"/>
       <use xlink:href="#DejaVuSans-32" x="127.246094"/>
       <use xlink:href="#DejaVuSans-33" x="190.869141"/>
       <use xlink:href="#DejaVuSans-2d" x="254.492188"/>
       <use xlink:href="#DejaVuSans-30" x="290.576172"/>
       <use xlink:href="#DejaVuSans-31" x="354.199219"/>
      </g>
     </g>
    </g>
    <g id="xtick_6">
     <g id="line2d_11">
      <path d="M 525.48146 320.4 
L 525.48146 43.2 
" clip-path="url(#p1111aee974)" style="fill: none; stroke-dasharray: 5.12,1.28,0.8,1.28; stroke-dashoffset: 0; stroke: #b0b0b0; stroke-width: 0.8"/>
     </g>
     <g id="line2d_12">
      <g>
       <use xlink:href="#m3e8529da2c" x="525.48146" y="320.4" style="fill: #a9a9a9; stroke: #a9a9a9; stroke-width: 0.8"/>
      </g>
     </g>
     <g id="text_6">
      <!-- 2023-05 -->
      <g style="fill: #a9a9a9" transform="translate(504.590054 334.998438) scale(0.1 -0.1)">
       <use xlink:href="#DejaVuSans-32"/>
       <use xlink:href="#DejaVuSans-30" x="63.623047"/>
       <use xlink:href="#DejaVuSans-32" x="127.246094"/>
       <use xlink:href="#DejaVuSans-33" x="190.869141"/>
       <use xlink:href="#DejaVuSans-2d" x="254.492188"/>
       <use xlink:href="#DejaVuSans-30" x="290.576172"/>
       <use xlink:href="#DejaVuSans-35" x="354.199219"/>
      </g>
     </g>
    </g>
    <g id="xtick_7">
     <g id="line2d_13">
      <path d="M 599.175805 320.4 
L 599.175805 43.2 
" clip-path="url(#p1111aee974)" style="fill: none; stroke-dasharray: 5.12,1.28,0.8,1.28; stroke-dashoffset: 0; stroke: #b0b0b0; stroke-width: 0.8"/>
     </g>
     <g id="line2d_14">
      <g>
       <use xlink:href="#m3e8529da2c" x="599.175805" y="320.4" style="fill: #a9a9a9; stroke: #a9a9a9; stroke-width: 0.8"/>
      </g>
     </g>
     <g id="text_7">
      <!-- 2023-09 -->
      <g style="fill: #a9a9a9" transform="translate(578.284399 334.998438) scale(0.1 -0.1)">
       <use xlink:href="#DejaVuSans-32"/>
       <use xlink:href="#DejaVuSans-30" x="63.623047"/>
       <use xlink:href="#DejaVuSans-32" x="127.246094"/>
       <use xlink:href="#DejaVuSans-33" x="190.869141"/>
       <use xlink:href="#DejaVuSans-2d" x="254.492188"/>
       <use xlink:href="#DejaVuSans-30" x="290.576172"/>
       <use xlink:href="#DejaVuSans-39" x="354.199219"/>
      </g>
     </g>
    </g>
    <g id="xtick_8">
     <g id="line2d_15">
      <path d="M 672.271009 320.4 
L 672.271009 43.2 
" clip-path="url(#p1111aee974)" style="fill: none; stroke-dasharray: 5.12,1.28,0.8,1.28; stroke-dashoffset: 0; stroke: #b0b0b0; stroke-width: 0.8"/>
     </g>
     <g id="line2d_16">
      <g>
       <use xlink:href="#m3e8529da2c" x="672.271009" y="320.4" style="fill: #a9a9a9; stroke: #a9a9a9; stroke-width: 0.8"/>
      </g>
     </g>
     <g id="text_8">
      <!-- 2024-01 -->
      <g style="fill: #a9a9a9" transform="translate(651.379603 334.998438) scale(0.1 -0.1)">
       <defs>
        <path id="DejaVuSans-34" d="M 2419 4116 
L 825 1625 
L 2419 1625 
L 2419 4116 
z
M 2253 4666 
L 3047 4666 
L 3047 1625 
L 3713 1625 
L 3713 1100 
L 3047 1100 
L 3047 0 
L 2419 0 
L 2419 1100 
L 313 1100 
L 313 1709 
L 2253 4666 
z
" transform="scale(0.015625)"/>
       </defs>
       <use xlink:href="#DejaVuSans-32"/>
       <use xlink:href="#DejaVuSans-30" x="63.623047"/>
       <use xlink:href="#DejaVuSans-32" x="127.246094"/>
       <use xlink:href="#DejaVuSans-34" x="190.869141"/>
       <use xlink:href="#DejaVuSans-2d" x="254.492188"/>
       <use xlink:href="#DejaVuSans-30" x="290.576172"/>
       <use xlink:href="#DejaVuSans-31" x="354.199219"/>
      </g>
     </g>
    </g>
    <g id="xtick_9">
     <g id="line2d_17">
      <path d="M 744.767072 320.4 
L 744.767072 43.2 
" clip-path="url(#p1111aee974)" style="fill: none; stroke-dasharray: 5.12,1.28,0.8,1.28; stroke-dashoffset: 0; stroke: #b0b0b0; stroke-width: 0.8"/>
     </g>
     <g id="line2d_18">
      <g>
       <use xlink:href="#m3e8529da2c" x="744.767072" y="320.4" style="fill: #a9a9a9; stroke: #a9a9a9; stroke-width: 0.8"/>
      </g>
     </g>
     <g id="text_9">
      <!-- 2024-05 -->
      <g style="fill: #a9a9a9" transform="translate(723.875666 334.998438) scale(0.1 -0.1)">
       <use xlink:href="#DejaVuSans-32"/>
       <use xlink:href="#DejaVuSans-30" x="63.623047"/>
       <use xlink:href="#DejaVuSans-32" x="127.246094"/>
       <use xlink:href="#DejaVuSans-34" x="190.869141"/>
       <use xlink:href="#DejaVuSans-2d" x="254.492188"/>
       <use xlink:href="#DejaVuSans-30" x="290.576172"/>
       <use xlink:href="#DejaVuSans-35" x="354.199219"/>
      </g>
     </g>
    </g>
   </g>
   <g id="matplotlib.axis_2">
    <g id="ytick_1">
     <g id="line2d_19">
      <path d="M 108 307.841722 
L 777.6 307.841722 
" clip-path="url(#p1111aee974)" style="fill: none; stroke-dasharray: 5.12,1.28,0.8,1.28; stroke-dashoffset: 0; stroke: #b0b0b0; stroke-width: 0.8"/>
     </g>
     <g id="line2d_20">
      <defs>
       <path id="m3c8b6978b4" d="M 0 0 
L -3.5 0 
" style="stroke: #a9a9a9; stroke-width: 0.8"/>
      </defs>
      <g>
       <use xlink:href="#m3c8b6978b4" x="108" y="307.841722" style="fill: #a9a9a9; stroke: #a9a9a9; stroke-width: 0.8"/>
      </g>
     </g>
     <g id="text_10">
      <!-- 0 -->
      <g style="fill: #a9a9a9" transform="translate(94.6375 311.640941) scale(0.1 -0.1)">
       <use xlink:href="#DejaVuSans-30"/>
      </g>
     </g>
    </g>
    <g id="ytick_2">
     <g id="line2d_21">
      <path d="M 108 274.464238 
L 777.6 274.464238 
" clip-path="url(#p1111aee974)" style="fill: none; stroke-dasharray: 5.12,1.28,0.8,1.28; stroke-dashoffset: 0; stroke: #b0b0b0; stroke-width: 0.8"/>
     </g>
     <g id="line2d_22">
      <g>
       <use xlink:href="#m3c8b6978b4" x="108" y="274.464238" style="fill: #a9a9a9; stroke: #a9a9a9; stroke-width: 0.8"/>
      </g>
     </g>
     <g id="text_11">
      <!-- 800 -->
      <g style="fill: #a9a9a9" transform="translate(81.9125 278.263457) scale(0.1 -0.1)">
       <defs>
        <path id="DejaVuSans-38" d="M 2034 2216 
Q 1584 2216 1326 1975 
Q 1069 1734 1069 1313 
Q 1069 891 1326 650 
Q 1584 409 2034 409 
Q 2484 409 2743 651 
Q 3003 894 3003 1313 
Q 3003 1734 2745 1975 
Q 2488 2216 2034 2216 
z
M 1403 2484 
Q 997 2584 770 2862 
Q 544 3141 544 3541 
Q 544 4100 942 4425 
Q 1341 4750 2034 4750 
Q 2731 4750 3128 4425 
Q 3525 4100 3525 3541 
Q 3525 3141 3298 2862 
Q 3072 2584 2669 2484 
Q 3125 2378 3379 2068 
Q 3634 1759 3634 1313 
Q 3634 634 3220 271 
Q 2806 -91 2034 -91 
Q 1263 -91 848 271 
Q 434 634 434 1313 
Q 434 1759 690 2068 
Q 947 2378 1403 2484 
z
M 1172 3481 
Q 1172 3119 1398 2916 
Q 1625 2713 2034 2713 
Q 2441 2713 2670 2916 
Q 2900 3119 2900 3481 
Q 2900 3844 2670 4047 
Q 2441 4250 2034 4250 
Q 1625 4250 1398 4047 
Q 1172 3844 1172 3481 
z
" transform="scale(0.015625)"/>
       </defs>
       <use xlink:href="#DejaVuSans-38"/>
       <use xlink:href="#DejaVuSans-30" x="63.623047"/>
       <use xlink:href="#DejaVuSans-30" x="127.246094"/>
      </g>
     </g>
    </g>
    <g id="ytick_3">
     <g id="line2d_23">
      <path d="M 108 241.086755 
L 777.6 241.086755 
" clip-path="url(#p1111aee974)" style="fill: none; stroke-dasharray: 5.12,1.28,0.8,1.28; stroke-dashoffset: 0; stroke: #b0b0b0; stroke-width: 0.8"/>
     </g>
     <g id="line2d_24">
      <g>
       <use xlink:href="#m3c8b6978b4" x="108" y="241.086755" style="fill: #a9a9a9; stroke: #a9a9a9; stroke-width: 0.8"/>
      </g>
     </g>
     <g id="text_12">
      <!-- 1600 -->
      <g style="fill: #a9a9a9" transform="translate(75.55 244.885974) scale(0.1 -0.1)">
       <defs>
        <path id="DejaVuSans-36" d="M 2113 2584 
Q 1688 2584 1439 2293 
Q 1191 2003 1191 1497 
Q 1191 994 1439 701 
Q 1688 409 2113 409 
Q 2538 409 2786 701 
Q 3034 994 3034 1497 
Q 3034 2003 2786 2293 
Q 2538 2584 2113 2584 
z
M 3366 4563 
L 3366 3988 
Q 3128 4100 2886 4159 
Q 2644 4219 2406 4219 
Q 1781 4219 1451 3797 
Q 1122 3375 1075 2522 
Q 1259 2794 1537 2939 
Q 1816 3084 2150 3084 
Q 2853 3084 3261 2657 
Q 3669 2231 3669 1497 
Q 3669 778 3244 343 
Q 2819 -91 2113 -91 
Q 1303 -91 875 529 
Q 447 1150 447 2328 
Q 447 3434 972 4092 
Q 1497 4750 2381 4750 
Q 2619 4750 2861 4703 
Q 3103 4656 3366 4563 
z
" transform="scale(0.015625)"/>
       </defs>
       <use xlink:href="#DejaVuSans-31"/>
       <use xlink:href="#DejaVuSans-36" x="63.623047"/>
       <use xlink:href="#DejaVuSans-30" x="127.246094"/>
       <use xlink:href="#DejaVuSans-30" x="190.869141"/>
      </g>
     </g>
    </g>
    <g id="ytick_4">
     <g id="line2d_25">
      <path d="M 108 207.709272 
L 777.6 207.709272 
" clip-path="url(#p1111aee974)" style="fill: none; stroke-dasharray: 5.12,1.28,0.8,1.28; stroke-dashoffset: 0; stroke: #b0b0b0; stroke-width: 0.8"/>
     </g>
     <g id="line2d_26">
      <g>
       <use xlink:href="#m3c8b6978b4" x="108" y="207.709272" style="fill: #a9a9a9; stroke: #a9a9a9; stroke-width: 0.8"/>
      </g>
     </g>
     <g id="text_13">
      <!-- 2400 -->
      <g style="fill: #a9a9a9" transform="translate(75.55 211.50849) scale(0.1 -0.1)">
       <use xlink:href="#DejaVuSans-32"/>
       <use xlink:href="#DejaVuSans-34" x="63.623047"/>
       <use xlink:href="#DejaVuSans-30" x="127.246094"/>
       <use xlink:href="#DejaVuSans-30" x="190.869141"/>
      </g>
     </g>
    </g>
    <g id="ytick_5">
     <g id="line2d_27">
      <path d="M 108 174.331788 
L 777.6 174.331788 
" clip-path="url(#p1111aee974)" style="fill: none; stroke-dasharray: 5.12,1.28,0.8,1.28; stroke-dashoffset: 0; stroke: #b0b0b0; stroke-width: 0.8"/>
     </g>
     <g id="line2d_28">
      <g>
       <use xlink:href="#m3c8b6978b4" x="108" y="174.331788" style="fill: #a9a9a9; stroke: #a9a9a9; stroke-width: 0.8"/>
      </g>
     </g>
     <g id="text_14">
      <!-- 3200 -->
      <g style="fill: #a9a9a9" transform="translate(75.55 178.131007) scale(0.1 -0.1)">
       <use xlink:href="#DejaVuSans-33"/>
       <use xlink:href="#DejaVuSans-32" x="63.623047"/>
       <use xlink:href="#DejaVuSans-30" x="127.246094"/>
       <use xlink:href="#DejaVuSans-30" x="190.869141"/>
      </g>
     </g>
    </g>
    <g id="ytick_6">
     <g id="line2d_29">
      <path d="M 108 140.954305 
L 777.6 140.954305 
" clip-path="url(#p1111aee974)" style="fill: none; stroke-dasharray: 5.12,1.28,0.8,1.28; stroke-dashoffset: 0; stroke: #b0b0b0; stroke-width: 0.8"/>
     </g>
     <g id="line2d_30">
      <g>
       <use xlink:href="#m3c8b6978b4" x="108" y="140.954305" style="fill: #a9a9a9; stroke: #a9a9a9; stroke-width: 0.8"/>
      </g>
     </g>
     <g id="text_15">
      <!-- 4000 -->
      <g style="fill: #a9a9a9" transform="translate(75.55 144.753523) scale(0.1 -0.1)">
       <use xlink:href="#DejaVuSans-34"/>
       <use xlink:href="#DejaVuSans-30" x="63.623047"/>
       <use xlink:href="#DejaVuSans-30" x="127.246094"/>
       <use xlink:href="#DejaVuSans-30" x="190.869141"/>
      </g>
     </g>
    </g>
    <g id="ytick_7">
     <g id="line2d_31">
      <path d="M 108 107.576821 
L 777.6 107.576821 
" clip-path="url(#p1111aee974)" style="fill: none; stroke-dasharray: 5.12,1.28,0.8,1.28; stroke-dashoffset: 0; stroke: #b0b0b0; stroke-width: 0.8"/>
     </g>
     <g id="line2d_32">
      <g>
       <use xlink:href="#m3c8b6978b4" x="108" y="107.576821" style="fill: #a9a9a9; stroke: #a9a9a9; stroke-width: 0.8"/>
      </g>
     </g>
     <g id="text_16">
      <!-- 4800 -->
      <g style="fill: #a9a9a9" transform="translate(75.55 111.37604) scale(0.1 -0.1)">
       <use xlink:href="#DejaVuSans-34"/>
       <use xlink:href="#DejaVuSans-38" x="63.623047"/>
       <use xlink:href="#DejaVuSans-30" x="127.246094"/>
       <use xlink:href="#DejaVuSans-30" x="190.869141"/>
      </g>
     </g>
    </g>
    <g id="ytick_8">
     <g id="line2d_33">
      <path d="M 108 74.199338 
L 777.6 74.199338 
" clip-path="url(#p1111aee974)" style="fill: none; stroke-dasharray: 5.12,1.28,0.8,1.28; stroke-dashoffset: 0; stroke: #b0b0b0; stroke-width: 0.8"/>
     </g>
     <g id="line2d_34">
      <g>
       <use xlink:href="#m3c8b6978b4" x="108" y="74.199338" style="fill: #a9a9a9; stroke: #a9a9a9; stroke-width: 0.8"/>
      </g>
     </g>
     <g id="text_17">
      <!-- 5600 -->
      <g style="fill: #a9a9a9" transform="translate(75.55 77.998556) scale(0.1 -0.1)">
       <use xlink:href="#DejaVuSans-35"/>
       <use xlink:href="#DejaVuSans-36" x="63.623047"/>
       <use xlink:href="#DejaVuSans-30" x="127.246094"/>
       <use xlink:href="#DejaVuSans-30" x="190.869141"/>
      </g>
     </g>
    </g>
   </g>
   <g id="line2d_35">
    <path d="M 138.436364 307.716556 
L 142.03121 307.424503 
L 142.630351 307.174172 
L 144.427774 306.965563 
L 148.02262 306.256291 
L 151.617466 305.964238 
L 152.216607 305.672185 
L 152.815748 305.505298 
L 153.414889 304.754305 
L 154.01403 304.337086 
L 154.613171 303.043709 
L 155.212312 302.960265 
L 155.811453 302.501325 
L 157.009735 301.917219 
L 159.406299 300.081457 
L 160.604581 299.580795 
L 161.203722 299.163576 
L 163.600286 298.12053 
L 164.199427 297.202649 
L 165.397709 296.368212 
L 165.99685 296.076159 
L 171.988261 295.241722 
L 172.587402 294.949669 
L 176.781389 294.615894 
L 178.578812 294.156954 
L 183.971081 293.447682 
L 184.570222 293.113907 
L 185.169363 293.030464 
L 185.768504 292.780132 
L 186.966786 292.571523 
L 187.565927 292.529801 
L 188.764209 292.27947 
L 189.36335 292.237748 
L 191.759914 291.653642 
L 193.557337 291.486755 
L 194.755619 291.361589 
L 195.35476 291.194702 
L 195.953901 291.15298 
L 197.751324 290.610596 
L 198.949606 290.527152 
L 200.147888 290.360265 
L 201.34617 290.109934 
L 201.945311 289.943046 
L 202.544452 289.150331 
L 204.341875 288.482781 
L 206.139298 288.023841 
L 206.73844 287.731788 
L 207.337581 287.690066 
L 210.333286 286.855629 
L 211.531568 286.772185 
L 212.130709 286.688742 
L 213.928132 286.146358 
L 216.324696 285.562252 
L 216.923837 285.311921 
L 217.522978 285.228477 
L 218.122119 284.936424 
L 224.113529 284.060265 
L 227.109234 283.225828 
L 227.708375 282.850331 
L 230.104939 282.224503 
L 232.501503 281.01457 
L 234.298926 280.597351 
L 234.898067 280.513907 
L 235.497208 280.221854 
L 236.69549 280.013245 
L 237.893772 279.470861 
L 240.889477 278.719868 
L 242.686901 278.260927 
L 243.286042 278.010596 
L 243.885183 277.88543 
L 244.484324 277.635099 
L 245.083465 277.551656 
L 245.682606 277.259603 
L 246.281747 277.092715 
L 247.480029 277.009272 
L 248.678311 276.592053 
L 249.876593 276.508609 
L 250.475734 276.216556 
L 251.674016 276.049669 
L 252.273157 275.84106 
L 253.471439 275.799338 
L 255.868003 275.507285 
L 257.066285 274.923179 
L 263.656836 272.127815 
L 264.255977 271.79404 
L 264.855118 271.168212 
L 266.0534 269.415894 
L 266.652541 269.249007 
L 267.251682 269.249007 
L 268.449964 268.372848 
L 269.049105 268.20596 
L 269.648246 267.913907 
L 270.247387 267.788742 
L 270.846528 267.246358 
L 271.445669 267.07947 
L 273.243092 266.203311 
L 274.441374 264.534437 
L 275.040515 264.15894 
L 275.639656 263.157616 
L 276.238797 262.531788 
L 276.837938 262.239735 
L 277.437079 262.072848 
L 279.833644 260.696026 
L 281.031926 259.736424 
L 281.631067 259.360927 
L 282.230208 258.484768 
L 282.829349 257.149669 
L 283.42849 256.27351 
L 284.027631 255.81457 
L 284.626772 255.564238 
L 287.023336 253.478146 
L 288.221618 252.518543 
L 288.820759 252.017881 
L 289.4199 251.225166 
L 290.618182 250.182119 
L 293.014746 248.638411 
L 293.613887 248.137748 
L 294.213028 248.012583 
L 294.812169 247.762252 
L 296.609592 246.760927 
L 298.407015 245.634437 
L 300.204438 243.882119 
L 300.803579 243.506623 
L 301.40272 243.339735 
L 302.001861 243.047682 
L 303.200143 242.254967 
L 303.799284 241.921192 
L 304.398425 241.837748 
L 309.191553 238.95894 
L 310.988976 237.999338 
L 311.588117 237.456954 
L 313.984681 236.70596 
L 314.583822 236.288742 
L 315.182963 236.163576 
L 316.381246 235.746358 
L 318.178669 235.037086 
L 319.976092 234.369536 
L 321.174374 234.160927 
L 322.372656 233.117881 
L 324.170079 232.283444 
L 325.368361 231.574172 
L 326.566643 231.240397 
L 327.165784 230.864901 
L 327.764925 230.698013 
L 329.562348 229.571523 
L 332.558053 228.862252 
L 334.355476 227.819205 
L 334.954617 227.735762 
L 335.553758 227.527152 
L 336.75204 227.276821 
L 338.549463 225.941722 
L 340.346886 225.524503 
L 340.946027 225.315894 
L 341.545168 224.856954 
L 345.140014 223.688742 
L 345.739155 223.64702 
L 346.338296 223.480132 
L 347.536578 222.97947 
L 351.730565 221.519205 
L 352.928848 221.352318 
L 353.527989 221.18543 
L 354.12713 220.893377 
L 354.726271 220.768212 
L 356.523694 219.933775 
L 358.321117 219.057616 
L 358.920258 218.640397 
L 359.519399 218.47351 
L 361.316822 217.513907 
L 362.515104 217.221854 
L 363.713386 216.596026 
L 364.911668 216.262252 
L 365.510809 216.178808 
L 366.709091 215.469536 
L 367.308232 215.344371 
L 368.506514 214.843709 
L 369.105655 214.718543 
L 369.704796 214.384768 
L 372.10136 214.009272 
L 373.299642 213.425166 
L 373.898783 212.924503 
L 374.497924 211.881457 
L 376.295347 211.547682 
L 378.691911 210.296026 
L 379.291052 210.170861 
L 383.485039 208.168212 
L 384.683321 207.834437 
L 385.881603 207.584106 
L 387.079885 207 
L 387.679026 206.749669 
L 388.278168 206.666225 
L 390.674732 205.623179 
L 392.472155 204.496689 
L 393.071296 204.413245 
L 393.670437 204.204636 
L 394.269578 204.162914 
L 396.666142 203.495364 
L 397.265283 203.453642 
L 397.864424 202.994702 
L 399.062706 202.577483 
L 400.860129 201.993377 
L 401.45927 201.617881 
L 402.058411 201.450993 
L 402.657552 201.033775 
L 403.256693 200.783444 
L 404.454975 200.157616 
L 406.851539 199.448344 
L 407.45068 199.156291 
L 409.248103 197.77947 
L 409.847244 197.654305 
L 411.045526 196.736424 
L 411.644667 196.611258 
L 412.243808 195.693377 
L 412.842949 195.443046 
L 413.44209 194.984106 
L 414.041231 194.900662 
L 415.239513 194.191391 
L 415.838654 194.066225 
L 416.437795 193.815894 
L 417.036936 193.356954 
L 417.636077 193.148344 
L 419.4335 191.938411 
L 421.830064 190.728477 
L 422.429205 190.645033 
L 423.627487 190.102649 
L 424.226628 189.768874 
L 424.82577 188.76755 
L 425.424911 188.225166 
L 426.024052 187.891391 
L 426.623193 187.766225 
L 427.821475 187.015232 
L 428.420616 186.890066 
L 429.618898 186.30596 
L 431.416321 185.554967 
L 432.614603 184.72053 
L 433.812885 183.468874 
L 436.80859 181.299338 
L 438.006872 180.339735 
L 438.606013 180.089404 
L 439.205154 179.421854 
L 439.804295 178.962914 
L 441.002577 178.545695 
L 442.200859 177.75298 
L 442.8 177.460927 
L 443.399141 177.29404 
L 443.998282 176.876821 
L 444.597423 176.793377 
L 446.394846 175.833775 
L 447.593128 175.124503 
L 453.584538 172.996689 
L 454.183679 172.454305 
L 455.981102 171.786755 
L 457.179384 171.411258 
L 457.778525 170.952318 
L 460.175089 169.700662 
L 460.77423 169.366887 
L 461.972513 167.030464 
L 463.170795 165.611921 
L 464.369077 164.902649 
L 466.1665 164.193377 
L 466.765641 164.109934 
L 467.364782 163.776159 
L 469.162205 163.233775 
L 471.558769 162.149007 
L 472.15791 161.77351 
L 473.356192 161.356291 
L 476.951038 159.270199 
L 477.550179 158.644371 
L 478.748461 158.018543 
L 482.343307 156.14106 
L 482.942448 155.890728 
L 483.541589 155.515232 
L 484.14073 155.390066 
L 484.739871 154.931126 
L 487.735576 153.971523 
L 488.334717 153.804636 
L 488.933858 153.512583 
L 489.532999 153.095364 
L 490.731281 152.761589 
L 491.929563 152.302649 
L 492.528704 151.843709 
L 493.726986 151.468212 
L 494.326127 151.176159 
L 494.925268 151.009272 
L 496.12355 150.174834 
L 497.321832 149.674172 
L 498.520115 148.756291 
L 499.718397 148.339073 
L 500.317538 147.838411 
L 500.916679 147.754967 
L 502.114961 146.878808 
L 503.313243 146.294702 
L 503.912384 146.044371 
L 504.511525 145.460265 
L 508.106371 144.166887 
L 509.903794 143.374172 
L 511.701217 142.831788 
L 512.899499 142.664901 
L 513.49864 142.41457 
L 514.097781 142.331126 
L 515.296063 141.830464 
L 515.895204 141.788742 
L 518.291768 140.912583 
L 520.089191 139.702649 
L 520.688332 139.452318 
L 521.886614 138.82649 
L 522.485755 138.617881 
L 526.080601 136.656954 
L 526.679742 136.531788 
L 528.477165 135.530464 
L 530.274588 134.946358 
L 530.873729 134.696026 
L 532.072011 134.403974 
L 535.067717 133.444371 
L 536.86514 133.152318 
L 539.261704 132.401325 
L 539.860845 132.150993 
L 540.459986 132.06755 
L 541.059127 131.775497 
L 542.257409 131.525166 
L 543.455691 131.107947 
L 544.054832 130.899338 
L 545.253114 130.774172 
L 546.451396 130.482119 
L 548.248819 130.190066 
L 548.84796 129.981457 
L 550.046242 129.856291 
L 553.041947 129.105298 
L 554.240229 128.813245 
L 554.83937 128.47947 
L 557.835075 127.728477 
L 558.434216 127.603311 
L 559.632498 127.186093 
L 561.429921 126.560265 
L 562.029062 126.476821 
L 563.826485 125.850993 
L 564.425626 125.850993 
L 565.623908 125.433775 
L 566.223049 124.849669 
L 566.82219 124.557616 
L 568.020472 124.182119 
L 570.417037 123.264238 
L 571.016178 123.139073 
L 571.615319 122.763576 
L 572.21446 122.638411 
L 572.813601 122.304636 
L 575.809306 121.428477 
L 576.408447 121.05298 
L 577.007588 120.927815 
L 577.606729 120.427152 
L 579.404152 120.093377 
L 580.602434 119.425828 
L 581.201575 118.758278 
L 582.399857 118.507947 
L 586.593844 117.548344 
L 587.192985 117.381457 
L 588.391267 117.339735 
L 588.990408 117.089404 
L 591.386972 116.672185 
L 591.986113 116.421854 
L 593.783536 116.171523 
L 596.1801 115.42053 
L 597.977523 115.003311 
L 599.774946 114.544371 
L 601.572369 114.001987 
L 604.568074 113.125828 
L 605.766356 112.583444 
L 606.964639 112.166225 
L 607.56378 111.707285 
L 608.762062 111.37351 
L 609.361203 111.123179 
L 610.559485 110.789404 
L 612.956049 109.704636 
L 614.753472 109.57947 
L 617.150036 108.911921 
L 617.749177 108.536424 
L 618.947459 108.202649 
L 620.744882 107.284768 
L 621.344023 107.159603 
L 621.943164 106.86755 
L 622.542305 106.825828 
L 629.132856 104.61457 
L 631.52942 104.030464 
L 632.128561 103.863576 
L 633.326843 103.321192 
L 633.925984 103.237748 
L 635.124266 102.903974 
L 635.723407 102.445033 
L 636.322548 102.15298 
L 636.921689 101.443709 
L 637.52083 101.02649 
L 638.719112 100.650993 
L 639.318253 100.192053 
L 644.111382 98.231126 
L 644.710523 98.064238 
L 645.309664 97.688742 
L 647.706228 96.97947 
L 648.90451 96.395364 
L 650.102792 95.686093 
L 650.701933 95.560927 
L 651.900215 94.851656 
L 652.499356 94.601325 
L 653.697638 93.850331 
L 655.495061 93.015894 
L 656.094202 92.598675 
L 657.292484 92.181457 
L 658.490766 91.472185 
L 659.089907 91.263576 
L 659.689048 90.846358 
L 660.88733 90.429139 
L 661.486471 90.303974 
L 663.883035 89.219205 
L 666.87874 88.176159 
L 667.477881 88.134437 
L 668.077022 87.96755 
L 668.676163 87.592053 
L 669.275304 87.508609 
L 669.874445 87.3 
L 671.671868 86.966225 
L 675.865855 84.838411 
L 676.464996 84.754967 
L 678.262419 83.795364 
L 680.059843 83.127815 
L 681.857266 82.335099 
L 684.25383 81.375497 
L 684.852971 81.208609 
L 685.452112 80.833113 
L 686.650394 80.666225 
L 687.249535 80.290728 
L 687.848676 80.249007 
L 689.046958 79.87351 
L 690.24524 79.289404 
L 690.844381 79.20596 
L 691.443522 78.955629 
L 692.042663 78.830464 
L 693.840086 78.037748 
L 694.439227 77.912583 
L 695.038368 77.662252 
L 698.034073 76.95298 
L 699.831496 76.28543 
L 702.22806 74.908609 
L 703.426342 74.449669 
L 704.025483 74.074172 
L 705.223765 73.823841 
L 705.822906 73.490066 
L 706.422047 73.364901 
L 707.620329 72.697351 
L 711.215175 71.028477 
L 713.012598 70.444371 
L 714.21088 70.027152 
L 714.810021 69.818543 
L 716.008304 69.234437 
L 717.206586 68.85894 
L 717.805727 68.733775 
L 719.004009 68.191391 
L 719.60315 67.982781 
L 720.202291 67.649007 
L 720.801432 67.565563 
L 721.400573 67.356954 
L 722.598855 66.689404 
L 724.995419 65.604636 
L 726.193701 65.187417 
L 727.391983 64.561589 
L 727.991124 64.478146 
L 730.986829 63.184768 
L 731.58597 62.76755 
L 733.982534 61.974834 
L 734.581675 61.974834 
L 735.779957 61.43245 
L 736.379098 60.97351 
L 736.978239 60.30596 
L 737.57738 59.805298 
L 738.176521 59.513245 
L 738.775662 59.346358 
L 739.374803 58.970861 
L 739.973944 58.845695 
L 740.573085 58.553642 
L 741.172226 58.470199 
L 741.771367 58.05298 
L 742.370508 57.927815 
L 742.969649 57.635762 
L 744.767072 56.46755 
L 746.564495 55.8 
L 747.163636 55.8 
L 747.163636 55.8 
" clip-path="url(#p1111aee974)" style="fill: none; stroke: #1f77b4; stroke-width: 1.5; stroke-linecap: square"/>
   </g>
   <g id="line2d_36">
    <path d="M 139.035505 307.8 
L 140.832928 307.716556 
L 142.630351 307.674834 
L 146.225197 307.591391 
L 149.220902 307.466225 
L 151.617466 307.466225 
L 152.216607 307.299338 
L 154.613171 307.215894 
L 156.410594 307.007285 
L 158.208017 306.840397 
L 161.802863 306.67351 
L 162.402004 306.67351 
L 163.001145 306.548344 
L 165.397709 306.464901 
L 166.595991 306.381457 
L 171.38912 306.298013 
L 174.384825 306.172848 
L 181.574517 306.089404 
L 184.570222 305.964238 
L 188.165068 305.880795 
L 190.561632 305.797351 
L 195.953901 305.713907 
L 197.751324 305.672185 
L 199.548747 305.630464 
L 201.34617 305.421854 
L 204.941016 305.380132 
L 206.139298 305.296689 
L 210.333286 305.213245 
L 216.923837 304.837748 
L 221.117824 304.754305 
L 222.316106 304.670861 
L 224.113529 304.587417 
L 227.708375 304.42053 
L 230.104939 304.378808 
L 231.902362 304.211921 
L 239.691195 303.75298 
L 242.686901 303.669536 
L 248.07917 303.377483 
L 249.876593 303.29404 
L 255.868003 302.960265 
L 262.458554 302.876821 
L 264.855118 302.62649 
L 266.0534 302.543046 
L 273.842233 301.917219 
L 277.437079 301.458278 
L 279.833644 301.374834 
L 284.626772 300.749007 
L 288.221618 300.665563 
L 290.019041 300.498675 
L 291.217323 300.456954 
L 292.415605 300.331788 
L 294.213028 300.248344 
L 295.41131 300.081457 
L 298.407015 299.747682 
L 300.803579 299.664238 
L 302.001861 299.580795 
L 304.398425 299.497351 
L 305.596707 299.413907 
L 308.592412 299.121854 
L 309.191553 298.954967 
L 312.786399 298.788079 
L 315.782105 298.704636 
L 323.570938 298.245695 
L 325.368361 298.162252 
L 333.157194 297.703311 
L 337.351181 297.619868 
L 337.950322 297.494702 
L 342.74345 297.411258 
L 346.937437 297.202649 
L 353.527989 297.119205 
L 357.721976 296.910596 
L 362.515104 296.827152 
L 367.308232 296.576821 
L 371.502219 296.493377 
L 382.885898 295.784106 
L 387.679026 295.700662 
L 393.670437 295.366887 
L 394.868719 295.325166 
L 397.265283 295.074834 
L 403.256693 294.74106 
L 406.851539 294.657616 
L 408.648962 294.615894 
L 410.446385 294.574172 
L 412.243808 294.407285 
L 417.036936 294.323841 
L 418.235218 294.115232 
L 419.4335 294.031788 
L 422.429205 293.906623 
L 423.627487 293.823179 
L 424.82577 293.739735 
L 430.218039 293.656291 
L 431.416321 293.531126 
L 433.812885 293.489404 
L 434.412026 293.364238 
L 435.610308 293.280795 
L 436.209449 293.155629 
L 438.006872 293.072185 
L 447.593128 292.488079 
L 449.989692 292.404636 
L 452.985397 292.27947 
L 461.373372 292.196026 
L 465.567359 291.987417 
L 470.360487 291.903974 
L 472.757051 291.82053 
L 475.153615 291.778808 
L 476.351897 291.653642 
L 478.748461 291.570199 
L 484.739871 291.236424 
L 488.334717 291.194702 
L 490.13214 291.027815 
L 491.929563 290.986093 
L 496.12355 290.902649 
L 498.520115 290.819205 
L 505.709807 290.735762 
L 508.705512 290.610596 
L 512.300358 290.527152 
L 514.097781 290.318543 
L 517.692627 290.276821 
L 519.49005 290.109934 
L 521.886614 290.02649 
L 529.076306 289.943046 
L 532.072011 289.817881 
L 542.257409 289.776159 
L 543.455691 289.692715 
L 545.253114 289.650993 
L 553.041947 289.56755 
L 554.240229 289.484106 
L 560.83078 289.400662 
L 563.227344 289.317219 
L 570.417037 289.275497 
L 571.615319 289.192053 
L 580.602434 289.150331 
L 582.399857 288.983444 
L 597.378382 288.9 
L 599.175805 288.858278 
L 615.352613 288.774834 
L 617.749177 288.691391 
L 627.934574 288.607947 
L 629.132856 288.524503 
L 632.128561 288.44106 
L 633.925984 288.274172 
L 636.921689 288.190728 
L 639.318253 288.107285 
L 642.913099 288.023841 
L 644.710523 287.982119 
L 647.107087 287.898675 
L 648.90451 287.856954 
L 651.900215 287.77351 
L 653.098497 287.690066 
L 656.693343 287.606623 
L 659.689048 287.481457 
L 660.88733 287.439735 
L 662.085612 287.356291 
L 663.883035 287.31457 
L 666.279599 287.231126 
L 668.676163 287.147682 
L 676.464996 287.064238 
L 678.86156 286.980795 
L 683.654689 286.897351 
L 687.848676 286.688742 
L 693.240945 286.605298 
L 694.439227 286.521854 
L 705.223765 286.438411 
L 707.021188 286.396689 
L 710.016893 286.354967 
L 712.413457 286.104636 
L 714.21088 286.062914 
L 717.805727 285.97947 
L 724.396278 285.603974 
L 726.792842 285.52053 
L 729.189406 285.437086 
L 732.784252 285.353642 
L 733.982534 285.270199 
L 736.379098 285.186755 
L 738.775662 284.936424 
L 741.172226 284.85298 
L 745.366213 284.769536 
L 745.965354 284.644371 
L 747.163636 284.644371 
L 747.163636 284.644371 
" clip-path="url(#p1111aee974)" style="fill: none; stroke: #ff7f0e; stroke-width: 1.5; stroke-linecap: square"/>
   </g>
   <g id="patch_3">
    <path d="M 108 320.4 
L 108 43.2 
" style="fill: none; stroke: #a9a9a9; stroke-width: 0.8; stroke-linejoin: miter; stroke-linecap: square"/>
   </g>
   <g id="patch_4">
    <path d="M 777.6 320.4 
L 777.6 43.2 
" style="fill: none"/>
   </g>
   <g id="patch_5">
    <path d="M 108 320.4 
L 777.6 320.4 
" style="fill: none; stroke: #a9a9a9; stroke-width: 0.8; stroke-linejoin: miter; stroke-linecap: square"/>
   </g>
   <g id="patch_6">
    <path d="M 108 43.2 
L 777.6 43.2 
" style="fill: none"/>
   </g>
   <g id="text_18">
    <!-- get_subscribe history -->
    <g style="fill: #a9a9a9" transform="translate(378.6075 37.2) scale(0.12 -0.12)">
     <defs>
      <path id="DejaVuSans-67" d="M 2906 1791 
Q 2906 2416 2648 2759 
Q 2391 3103 1925 3103 
Q 1463 3103 1205 2759 
Q 947 2416 947 1791 
Q 947 1169 1205 825 
Q 1463 481 1925 481 
Q 2391 481 2648 825 
Q 2906 1169 2906 1791 
z
M 3481 434 
Q 3481 -459 3084 -895 
Q 2688 -1331 1869 -1331 
Q 1566 -1331 1297 -1286 
Q 1028 -1241 775 -1147 
L 775 -588 
Q 1028 -725 1275 -790 
Q 1522 -856 1778 -856 
Q 2344 -856 2625 -561 
Q 2906 -266 2906 331 
L 2906 616 
Q 2728 306 2450 153 
Q 2172 0 1784 0 
Q 1141 0 747 490 
Q 353 981 353 1791 
Q 353 2603 747 3093 
Q 1141 3584 1784 3584 
Q 2172 3584 2450 3431 
Q 2728 3278 2906 2969 
L 2906 3500 
L 3481 3500 
L 3481 434 
z
" transform="scale(0.015625)"/>
      <path id="DejaVuSans-65" d="M 3597 1894 
L 3597 1613 
L 953 1613 
Q 991 1019 1311 708 
Q 1631 397 2203 397 
Q 2534 397 2845 478 
Q 3156 559 3463 722 
L 3463 178 
Q 3153 47 2828 -22 
Q 2503 -91 2169 -91 
Q 1331 -91 842 396 
Q 353 884 353 1716 
Q 353 2575 817 3079 
Q 1281 3584 2069 3584 
Q 2775 3584 3186 3129 
Q 3597 2675 3597 1894 
z
M 3022 2063 
Q 3016 2534 2758 2815 
Q 2500 3097 2075 3097 
Q 1594 3097 1305 2825 
Q 1016 2553 972 2059 
L 3022 2063 
z
" transform="scale(0.015625)"/>
      <path id="DejaVuSans-74" d="M 1172 4494 
L 1172 3500 
L 2356 3500 
L 2356 3053 
L 1172 3053 
L 1172 1153 
Q 1172 725 1289 603 
Q 1406 481 1766 481 
L 2356 481 
L 2356 0 
L 1766 0 
Q 1100 0 847 248 
Q 594 497 594 1153 
L 594 3053 
L 172 3053 
L 172 3500 
L 594 3500 
L 594 4494 
L 1172 4494 
z
" transform="scale(0.015625)"/>
      <path id="DejaVuSans-5f" d="M 3263 -1063 
L 3263 -1509 
L -63 -1509 
L -63 -1063 
L 3263 -1063 
z
" transform="scale(0.015625)"/>
      <path id="DejaVuSans-73" d="M 2834 3397 
L 2834 2853 
Q 2591 2978 2328 3040 
Q 2066 3103 1784 3103 
Q 1356 3103 1142 2972 
Q 928 2841 928 2578 
Q 928 2378 1081 2264 
Q 1234 2150 1697 2047 
L 1894 2003 
Q 2506 1872 2764 1633 
Q 3022 1394 3022 966 
Q 3022 478 2636 193 
Q 2250 -91 1575 -91 
Q 1294 -91 989 -36 
Q 684 19 347 128 
L 347 722 
Q 666 556 975 473 
Q 1284 391 1588 391 
Q 1994 391 2212 530 
Q 2431 669 2431 922 
Q 2431 1156 2273 1281 
Q 2116 1406 1581 1522 
L 1381 1569 
Q 847 1681 609 1914 
Q 372 2147 372 2553 
Q 372 3047 722 3315 
Q 1072 3584 1716 3584 
Q 2034 3584 2315 3537 
Q 2597 3491 2834 3397 
z
" transform="scale(0.015625)"/>
      <path id="DejaVuSans-75" d="M 544 1381 
L 544 3500 
L 1119 3500 
L 1119 1403 
Q 1119 906 1312 657 
Q 1506 409 1894 409 
Q 2359 409 2629 706 
Q 2900 1003 2900 1516 
L 2900 3500 
L 3475 3500 
L 3475 0 
L 2900 0 
L 2900 538 
Q 2691 219 2414 64 
Q 2138 -91 1772 -91 
Q 1169 -91 856 284 
Q 544 659 544 1381 
z
M 1991 3584 
L 1991 3584 
z
" transform="scale(0.015625)"/>
      <path id="DejaVuSans-62" d="M 3116 1747 
Q 3116 2381 2855 2742 
Q 2594 3103 2138 3103 
Q 1681 3103 1420 2742 
Q 1159 2381 1159 1747 
Q 1159 1113 1420 752 
Q 1681 391 2138 391 
Q 2594 391 2855 752 
Q 3116 1113 3116 1747 
z
M 1159 2969 
Q 1341 3281 1617 3432 
Q 1894 3584 2278 3584 
Q 2916 3584 3314 3078 
Q 3713 2572 3713 1747 
Q 3713 922 3314 415 
Q 2916 -91 2278 -91 
Q 1894 -91 1617 61 
Q 1341 213 1159 525 
L 1159 0 
L 581 0 
L 581 4863 
L 1159 4863 
L 1159 2969 
z
" transform="scale(0.015625)"/>
      <path id="DejaVuSans-63" d="M 3122 3366 
L 3122 2828 
Q 2878 2963 2633 3030 
Q 2388 3097 2138 3097 
Q 1578 3097 1268 2742 
Q 959 2388 959 1747 
Q 959 1106 1268 751 
Q 1578 397 2138 397 
Q 2388 397 2633 464 
Q 2878 531 3122 666 
L 3122 134 
Q 2881 22 2623 -34 
Q 2366 -91 2075 -91 
Q 1284 -91 818 406 
Q 353 903 353 1747 
Q 353 2603 823 3093 
Q 1294 3584 2113 3584 
Q 2378 3584 2631 3529 
Q 2884 3475 3122 3366 
z
" transform="scale(0.015625)"/>
      <path id="DejaVuSans-72" d="M 2631 2963 
Q 2534 3019 2420 3045 
Q 2306 3072 2169 3072 
Q 1681 3072 1420 2755 
Q 1159 2438 1159 1844 
L 1159 0 
L 581 0 
L 581 3500 
L 1159 3500 
L 1159 2956 
Q 1341 3275 1631 3429 
Q 1922 3584 2338 3584 
Q 2397 3584 2469 3576 
Q 2541 3569 2628 3553 
L 2631 2963 
z
" transform="scale(0.015625)"/>
      <path id="DejaVuSans-69" d="M 603 3500 
L 1178 3500 
L 1178 0 
L 603 0 
L 603 3500 
z
M 603 4863 
L 1178 4863 
L 1178 4134 
L 603 4134 
L 603 4863 
z
" transform="scale(0.015625)"/>
      <path id="DejaVuSans-20" transform="scale(0.015625)"/>
      <path id="DejaVuSans-68" d="M 3513 2113 
L 3513 0 
L 2938 0 
L 2938 2094 
Q 2938 2591 2744 2837 
Q 2550 3084 2163 3084 
Q 1697 3084 1428 2787 
Q 1159 2491 1159 1978 
L 1159 0 
L 581 0 
L 581 4863 
L 1159 4863 
L 1159 2956 
Q 1366 3272 1645 3428 
Q 1925 3584 2291 3584 
Q 2894 3584 3203 3211 
Q 3513 2838 3513 2113 
z
" transform="scale(0.015625)"/>
      <path id="DejaVuSans-6f" d="M 1959 3097 
Q 1497 3097 1228 2736 
Q 959 2375 959 1747 
Q 959 1119 1226 758 
Q 1494 397 1959 397 
Q 2419 397 2687 759 
Q 2956 1122 2956 1747 
Q 2956 2369 2687 2733 
Q 2419 3097 1959 3097 
z
M 1959 3584 
Q 2709 3584 3137 3096 
Q 3566 2609 3566 1747 
Q 3566 888 3137 398 
Q 2709 -91 1959 -91 
Q 1206 -91 779 398 
Q 353 888 353 1747 
Q 353 2609 779 3096 
Q 1206 3584 1959 3584 
z
" transform="scale(0.015625)"/>
      <path id="DejaVuSans-79" d="M 2059 -325 
Q 1816 -950 1584 -1140 
Q 1353 -1331 966 -1331 
L 506 -1331 
L 506 -850 
L 844 -850 
Q 1081 -850 1212 -737 
Q 1344 -625 1503 -206 
L 1606 56 
L 191 3500 
L 800 3500 
L 1894 763 
L 2988 3500 
L 3597 3500 
L 2059 -325 
z
" transform="scale(0.015625)"/>
     </defs>
     <use xlink:href="#DejaVuSans-67"/>
     <use xlink:href="#DejaVuSans-65" x="63.476562"/>
     <use xlink:href="#DejaVuSans-74" x="125"/>
     <use xlink:href="#DejaVuSans-5f" x="164.208984"/>
     <use xlink:href="#DejaVuSans-73" x="214.208984"/>
     <use xlink:href="#DejaVuSans-75" x="266.308594"/>
     <use xlink:href="#DejaVuSans-62" x="329.6875"/>
     <use xlink:href="#DejaVuSans-73" x="393.164062"/>
     <use xlink:href="#DejaVuSans-63" x="445.263672"/>
     <use xlink:href="#DejaVuSans-72" x="500.244141"/>
     <use xlink:href="#DejaVuSans-69" x="541.357422"/>
     <use xlink:href="#DejaVuSans-62" x="569.140625"/>
     <use xlink:href="#DejaVuSans-65" x="632.617188"/>
     <use xlink:href="#DejaVuSans-20" x="694.140625"/>
     <use xlink:href="#DejaVuSans-68" x="725.927734"/>
     <use xlink:href="#DejaVuSans-69" x="789.306641"/>
     <use xlink:href="#DejaVuSans-73" x="817.089844"/>
     <use xlink:href="#DejaVuSans-74" x="869.189453"/>
     <use xlink:href="#DejaVuSans-6f" x="908.398438"/>
     <use xlink:href="#DejaVuSans-72" x="969.580078"/>
     <use xlink:href="#DejaVuSans-79" x="1010.693359"/>
    </g>
   </g>
   <g id="legend_1">
    <g id="line2d_37">
     <path d="M 815.08 328.498438 
L 825.08 328.498438 
L 835.08 328.498438 
" style="fill: none; stroke: #1f77b4; stroke-width: 1.5; stroke-linecap: square"/>
    </g>
    <g id="text_19">
     <!-- star -->
     <g style="fill: #a9a9a9" transform="translate(843.08 331.998438) scale(0.1 -0.1)">
      <defs>
       <path id="DejaVuSans-61" d="M 2194 1759 
Q 1497 1759 1228 1600 
Q 959 1441 959 1056 
Q 959 750 1161 570 
Q 1363 391 1709 391 
Q 2188 391 2477 730 
Q 2766 1069 2766 1631 
L 2766 1759 
L 2194 1759 
z
M 3341 1997 
L 3341 0 
L 2766 0 
L 2766 531 
Q 2569 213 2275 61 
Q 1981 -91 1556 -91 
Q 1019 -91 701 211 
Q 384 513 384 1019 
Q 384 1609 779 1909 
Q 1175 2209 1959 2209 
L 2766 2209 
L 2766 2266 
Q 2766 2663 2505 2880 
Q 2244 3097 1772 3097 
Q 1472 3097 1187 3025 
Q 903 2953 641 2809 
L 641 3341 
Q 956 3463 1253 3523 
Q 1550 3584 1831 3584 
Q 2591 3584 2966 3190 
Q 3341 2797 3341 1997 
z
" transform="scale(0.015625)"/>
      </defs>
      <use xlink:href="#DejaVuSans-73"/>
      <use xlink:href="#DejaVuSans-74" x="52.099609"/>
      <use xlink:href="#DejaVuSans-61" x="91.308594"/>
      <use xlink:href="#DejaVuSans-72" x="152.587891"/>
     </g>
    </g>
    <g id="line2d_38">
     <path d="M 815.08 343.176562 
L 825.08 343.176562 
L 835.08 343.176562 
" style="fill: none; stroke: #ff7f0e; stroke-width: 1.5; stroke-linecap: square"/>
    </g>
    <g id="text_20">
     <!-- fork -->
     <g style="fill: #a9a9a9" transform="translate(843.08 346.676562) scale(0.1 -0.1)">
      <defs>
       <path id="DejaVuSans-66" d="M 2375 4863 
L 2375 4384 
L 1825 4384 
Q 1516 4384 1395 4259 
Q 1275 4134 1275 3809 
L 1275 3500 
L 2222 3500 
L 2222 3053 
L 1275 3053 
L 1275 0 
L 697 0 
L 697 3053 
L 147 3053 
L 147 3500 
L 697 3500 
L 697 3744 
Q 697 4328 969 4595 
Q 1241 4863 1831 4863 
L 2375 4863 
z
" transform="scale(0.015625)"/>
       <path id="DejaVuSans-6b" d="M 581 4863 
L 1159 4863 
L 1159 1991 
L 2875 3500 
L 3609 3500 
L 1753 1863 
L 3688 0 
L 2938 0 
L 1159 1709 
L 1159 0 
L 581 0 
L 581 4863 
z
" transform="scale(0.015625)"/>
      </defs>
      <use xlink:href="#DejaVuSans-66"/>
      <use xlink:href="#DejaVuSans-6f" x="35.205078"/>
      <use xlink:href="#DejaVuSans-72" x="96.386719"/>
      <use xlink:href="#DejaVuSans-6b" x="137.5"/>
     </g>
    </g>
   </g>
  </g>
 </g>
 <defs>
  <clipPath id="p1111aee974">
   <rect x="108" y="43.2" width="669.6" height="277.2"/>
  </clipPath>
 </defs>
</svg>
