<?xml version="1.0" encoding="utf-8" standalone="no"?>
<!DOCTYPE svg PUBLIC "-//W3C//DTD SVG 1.1//EN"
  "http://www.w3.org/Graphics/SVG/1.1/DTD/svg11.dtd">
<svg xmlns:xlink="http://www.w3.org/1999/xlink" width="864pt" height="360pt" viewBox="0 0 864 360" xmlns="http://www.w3.org/2000/svg" version="1.1">
 <metadata>
  <rdf:RDF xmlns:dc="http://purl.org/dc/elements/1.1/" xmlns:cc="http://creativecommons.org/ns#" xmlns:rdf="http://www.w3.org/1999/02/22-rdf-syntax-ns#">
   <cc:Work>
    <dc:type rdf:resource="http://purl.org/dc/dcmitype/StillImage"/>
    <dc:date>2024-05-06T08:11:10.314568</dc:date>
    <dc:format>image/svg+xml</dc:format>
    <dc:creator>
     <cc:Agent>
      <dc:title>Matplotlib v3.8.4, https://matplotlib.org/</dc:title>
     </cc:Agent>
    </dc:creator>
   </cc:Work>
  </rdf:RDF>
 </metadata>
 <defs>
  <style type="text/css">*{stroke-linejoin: round; stroke-linecap: butt}</style>
 </defs>
 <g id="figure_1">
  <g id="patch_1">
   <path d="M 0 360 
L 864 360 
L 864 0 
L 0 0 
L 0 360 
z
" style="fill: none; opacity: 0"/>
  </g>
  <g id="axes_1">
   <g id="patch_2">
    <path d="M 108 320.4 
L 777.6 320.4 
L 777.6 43.2 
L 108 43.2 
L 108 320.4 
z
" style="fill: none; opacity: 0"/>
   </g>
   <g id="matplotlib.axis_1">
    <g id="xtick_1">
     <g id="line2d_1">
      <path d="M 161.779887 320.4 
L 161.779887 43.2 
" clip-path="url(#pa73590127f)" style="fill: none; stroke-dasharray: 5.12,1.28,0.8,1.28; stroke-dashoffset: 0; stroke: #b0b0b0; stroke-width: 0.8"/>
     </g>
     <g id="line2d_2">
      <defs>
       <path id="m14177a219a" d="M 0 0 
L 0 3.5 
" style="stroke: #a9a9a9; stroke-width: 0.8"/>
      </defs>
      <g>
       <use xlink:href="#m14177a219a" x="161.779887" y="320.4" style="fill: #a9a9a9; stroke: #a9a9a9; stroke-width: 0.8"/>
      </g>
     </g>
     <g id="text_1">
      <!-- 2021-09 -->
      <g style="fill: #a9a9a9" transform="translate(140.888481 334.998438) scale(0.1 -0.1)">
       <defs>
        <path id="DejaVuSans-32" d="M 1228 531 
L 3431 531 
L 3431 0 
L 469 0 
L 469 531 
Q 828 903 1448 1529 
Q 2069 2156 2228 2338 
Q 2531 2678 2651 2914 
Q 2772 3150 2772 3378 
Q 2772 3750 2511 3984 
Q 2250 4219 1831 4219 
Q 1534 4219 1204 4116 
Q 875 4013 500 3803 
L 500 4441 
Q 881 4594 1212 4672 
Q 1544 4750 1819 4750 
Q 2544 4750 2975 4387 
Q 3406 4025 3406 3419 
Q 3406 3131 3298 2873 
Q 3191 2616 2906 2266 
Q 2828 2175 2409 1742 
Q 1991 1309 1228 531 
z
" transform="scale(0.015625)"/>
        <path id="DejaVuSans-30" d="M 2034 4250 
Q 1547 4250 1301 3770 
Q 1056 3291 1056 2328 
Q 1056 1369 1301 889 
Q 1547 409 2034 409 
Q 2525 409 2770 889 
Q 3016 1369 3016 2328 
Q 3016 3291 2770 3770 
Q 2525 4250 2034 4250 
z
M 2034 4750 
Q 2819 4750 3233 4129 
Q 3647 3509 3647 2328 
Q 3647 1150 3233 529 
Q 2819 -91 2034 -91 
Q 1250 -91 836 529 
Q 422 1150 422 2328 
Q 422 3509 836 4129 
Q 1250 4750 2034 4750 
z
" transform="scale(0.015625)"/>
        <path id="DejaVuSans-31" d="M 794 531 
L 1825 531 
L 1825 4091 
L 703 3866 
L 703 4441 
L 1819 4666 
L 2450 4666 
L 2450 531 
L 3481 531 
L 3481 0 
L 794 0 
L 794 531 
z
" transform="scale(0.015625)"/>
        <path id="DejaVuSans-2d" d="M 313 2009 
L 1997 2009 
L 1997 1497 
L 313 1497 
L 313 2009 
z
" transform="scale(0.015625)"/>
        <path id="DejaVuSans-39" d="M 703 97 
L 703 672 
Q 941 559 1184 500 
Q 1428 441 1663 441 
Q 2288 441 2617 861 
Q 2947 1281 2994 2138 
Q 2813 1869 2534 1725 
Q 2256 1581 1919 1581 
Q 1219 1581 811 2004 
Q 403 2428 403 3163 
Q 403 3881 828 4315 
Q 1253 4750 1959 4750 
Q 2769 4750 3195 4129 
Q 3622 3509 3622 2328 
Q 3622 1225 3098 567 
Q 2575 -91 1691 -91 
Q 1453 -91 1209 -44 
Q 966 3 703 97 
z
M 1959 2075 
Q 2384 2075 2632 2365 
Q 2881 2656 2881 3163 
Q 2881 3666 2632 3958 
Q 2384 4250 1959 4250 
Q 1534 4250 1286 3958 
Q 1038 3666 1038 3163 
Q 1038 2656 1286 2365 
Q 1534 2075 1959 2075 
z
" transform="scale(0.015625)"/>
       </defs>
       <use xlink:href="#DejaVuSans-32"/>
       <use xlink:href="#DejaVuSans-30" x="63.623047"/>
       <use xlink:href="#DejaVuSans-32" x="127.246094"/>
       <use xlink:href="#DejaVuSans-31" x="190.869141"/>
       <use xlink:href="#DejaVuSans-2d" x="254.492188"/>
       <use xlink:href="#DejaVuSans-30" x="290.576172"/>
       <use xlink:href="#DejaVuSans-39" x="354.199219"/>
      </g>
     </g>
    </g>
    <g id="xtick_2">
     <g id="line2d_3">
      <path d="M 234.803218 320.4 
L 234.803218 43.2 
" clip-path="url(#pa73590127f)" style="fill: none; stroke-dasharray: 5.12,1.28,0.8,1.28; stroke-dashoffset: 0; stroke: #b0b0b0; stroke-width: 0.8"/>
     </g>
     <g id="line2d_4">
      <g>
       <use xlink:href="#m14177a219a" x="234.803218" y="320.4" style="fill: #a9a9a9; stroke: #a9a9a9; stroke-width: 0.8"/>
      </g>
     </g>
     <g id="text_2">
      <!-- 2022-01 -->
      <g style="fill: #a9a9a9" transform="translate(213.911812 334.998438) scale(0.1 -0.1)">
       <use xlink:href="#DejaVuSans-32"/>
       <use xlink:href="#DejaVuSans-30" x="63.623047"/>
       <use xlink:href="#DejaVuSans-32" x="127.246094"/>
       <use xlink:href="#DejaVuSans-32" x="190.869141"/>
       <use xlink:href="#DejaVuSans-2d" x="254.492188"/>
       <use xlink:href="#DejaVuSans-30" x="290.576172"/>
       <use xlink:href="#DejaVuSans-31" x="354.199219"/>
      </g>
     </g>
    </g>
    <g id="xtick_3">
     <g id="line2d_5">
      <path d="M 306.629445 320.4 
L 306.629445 43.2 
" clip-path="url(#pa73590127f)" style="fill: none; stroke-dasharray: 5.12,1.28,0.8,1.28; stroke-dashoffset: 0; stroke: #b0b0b0; stroke-width: 0.8"/>
     </g>
     <g id="line2d_6">
      <g>
       <use xlink:href="#m14177a219a" x="306.629445" y="320.4" style="fill: #a9a9a9; stroke: #a9a9a9; stroke-width: 0.8"/>
      </g>
     </g>
     <g id="text_3">
      <!-- 2022-05 -->
      <g style="fill: #a9a9a9" transform="translate(285.738039 334.998438) scale(0.1 -0.1)">
       <defs>
        <path id="DejaVuSans-35" d="M 691 4666 
L 3169 4666 
L 3169 4134 
L 1269 4134 
L 1269 2991 
Q 1406 3038 1543 3061 
Q 1681 3084 1819 3084 
Q 2600 3084 3056 2656 
Q 3513 2228 3513 1497 
Q 3513 744 3044 326 
Q 2575 -91 1722 -91 
Q 1428 -91 1123 -41 
Q 819 9 494 109 
L 494 744 
Q 775 591 1075 516 
Q 1375 441 1709 441 
Q 2250 441 2565 725 
Q 2881 1009 2881 1497 
Q 2881 1984 2565 2268 
Q 2250 2553 1709 2553 
Q 1456 2553 1204 2497 
Q 953 2441 691 2322 
L 691 4666 
z
" transform="scale(0.015625)"/>
       </defs>
       <use xlink:href="#DejaVuSans-32"/>
       <use xlink:href="#DejaVuSans-30" x="63.623047"/>
       <use xlink:href="#DejaVuSans-32" x="127.246094"/>
       <use xlink:href="#DejaVuSans-32" x="190.869141"/>
       <use xlink:href="#DejaVuSans-2d" x="254.492188"/>
       <use xlink:href="#DejaVuSans-30" x="290.576172"/>
       <use xlink:href="#DejaVuSans-35" x="354.199219"/>
      </g>
     </g>
    </g>
    <g id="xtick_4">
     <g id="line2d_7">
      <path d="M 380.251327 320.4 
L 380.251327 43.2 
" clip-path="url(#pa73590127f)" style="fill: none; stroke-dasharray: 5.12,1.28,0.8,1.28; stroke-dashoffset: 0; stroke: #b0b0b0; stroke-width: 0.8"/>
     </g>
     <g id="line2d_8">
      <g>
       <use xlink:href="#m14177a219a" x="380.251327" y="320.4" style="fill: #a9a9a9; stroke: #a9a9a9; stroke-width: 0.8"/>
      </g>
     </g>
     <g id="text_4">
      <!-- 2022-09 -->
      <g style="fill: #a9a9a9" transform="translate(359.359921 334.998438) scale(0.1 -0.1)">
       <use xlink:href="#DejaVuSans-32"/>
       <use xlink:href="#DejaVuSans-30" x="63.623047"/>
       <use xlink:href="#DejaVuSans-32" x="127.246094"/>
       <use xlink:href="#DejaVuSans-32" x="190.869141"/>
       <use xlink:href="#DejaVuSans-2d" x="254.492188"/>
       <use xlink:href="#DejaVuSans-30" x="290.576172"/>
       <use xlink:href="#DejaVuSans-39" x="354.199219"/>
      </g>
     </g>
    </g>
    <g id="xtick_5">
     <g id="line2d_9">
      <path d="M 453.274658 320.4 
L 453.274658 43.2 
" clip-path="url(#pa73590127f)" style="fill: none; stroke-dasharray: 5.12,1.28,0.8,1.28; stroke-dashoffset: 0; stroke: #b0b0b0; stroke-width: 0.8"/>
     </g>
     <g id="line2d_10">
      <g>
       <use xlink:href="#m14177a219a" x="453.274658" y="320.4" style="fill: #a9a9a9; stroke: #a9a9a9; stroke-width: 0.8"/>
      </g>
     </g>
     <g id="text_5">
      <!-- 2023-01 -->
      <g style="fill: #a9a9a9" transform="translate(432.383252 334.998438) scale(0.1 -0.1)">
       <defs>
        <path id="DejaVuSans-33" d="M 2597 2516 
Q 3050 2419 3304 2112 
Q 3559 1806 3559 1356 
Q 3559 666 3084 287 
Q 2609 -91 1734 -91 
Q 1441 -91 1130 -33 
Q 819 25 488 141 
L 488 750 
Q 750 597 1062 519 
Q 1375 441 1716 441 
Q 2309 441 2620 675 
Q 2931 909 2931 1356 
Q 2931 1769 2642 2001 
Q 2353 2234 1838 2234 
L 1294 2234 
L 1294 2753 
L 1863 2753 
Q 2328 2753 2575 2939 
Q 2822 3125 2822 3475 
Q 2822 3834 2567 4026 
Q 2313 4219 1838 4219 
Q 1578 4219 1281 4162 
Q 984 4106 628 3988 
L 628 4550 
Q 988 4650 1302 4700 
Q 1616 4750 1894 4750 
Q 2613 4750 3031 4423 
Q 3450 4097 3450 3541 
Q 3450 3153 3228 2886 
Q 3006 2619 2597 2516 
z
" transform="scale(0.015625)"/>
       </defs>
       <use xlink:href="#DejaVuSans-32"/>
       <use xlink:href="#DejaVuSans-30" x="63.623047"/>
       <use xlink:href="#DejaVuSans-32" x="127.246094"/>
       <use xlink:href="#DejaVuSans-33" x="190.869141"/>
       <use xlink:href="#DejaVuSans-2d" x="254.492188"/>
       <use xlink:href="#DejaVuSans-30" x="290.576172"/>
       <use xlink:href="#DejaVuSans-31" x="354.199219"/>
      </g>
     </g>
    </g>
    <g id="xtick_6">
     <g id="line2d_11">
      <path d="M 525.100885 320.4 
L 525.100885 43.2 
" clip-path="url(#pa73590127f)" style="fill: none; stroke-dasharray: 5.12,1.28,0.8,1.28; stroke-dashoffset: 0; stroke: #b0b0b0; stroke-width: 0.8"/>
     </g>
     <g id="line2d_12">
      <g>
       <use xlink:href="#m14177a219a" x="525.100885" y="320.4" style="fill: #a9a9a9; stroke: #a9a9a9; stroke-width: 0.8"/>
      </g>
     </g>
     <g id="text_6">
      <!-- 2023-05 -->
      <g style="fill: #a9a9a9" transform="translate(504.209479 334.998438) scale(0.1 -0.1)">
       <use xlink:href="#DejaVuSans-32"/>
       <use xlink:href="#DejaVuSans-30" x="63.623047"/>
       <use xlink:href="#DejaVuSans-32" x="127.246094"/>
       <use xlink:href="#DejaVuSans-33" x="190.869141"/>
       <use xlink:href="#DejaVuSans-2d" x="254.492188"/>
       <use xlink:href="#DejaVuSans-30" x="290.576172"/>
       <use xlink:href="#DejaVuSans-35" x="354.199219"/>
      </g>
     </g>
    </g>
    <g id="xtick_7">
     <g id="line2d_13">
      <path d="M 598.722767 320.4 
L 598.722767 43.2 
" clip-path="url(#pa73590127f)" style="fill: none; stroke-dasharray: 5.12,1.28,0.8,1.28; stroke-dashoffset: 0; stroke: #b0b0b0; stroke-width: 0.8"/>
     </g>
     <g id="line2d_14">
      <g>
       <use xlink:href="#m14177a219a" x="598.722767" y="320.4" style="fill: #a9a9a9; stroke: #a9a9a9; stroke-width: 0.8"/>
      </g>
     </g>
     <g id="text_7">
      <!-- 2023-09 -->
      <g style="fill: #a9a9a9" transform="translate(577.831361 334.998438) scale(0.1 -0.1)">
       <use xlink:href="#DejaVuSans-32"/>
       <use xlink:href="#DejaVuSans-30" x="63.623047"/>
       <use xlink:href="#DejaVuSans-32" x="127.246094"/>
       <use xlink:href="#DejaVuSans-33" x="190.869141"/>
       <use xlink:href="#DejaVuSans-2d" x="254.492188"/>
       <use xlink:href="#DejaVuSans-30" x="290.576172"/>
       <use xlink:href="#DejaVuSans-39" x="354.199219"/>
      </g>
     </g>
    </g>
    <g id="xtick_8">
     <g id="line2d_15">
      <path d="M 671.746098 320.4 
L 671.746098 43.2 
" clip-path="url(#pa73590127f)" style="fill: none; stroke-dasharray: 5.12,1.28,0.8,1.28; stroke-dashoffset: 0; stroke: #b0b0b0; stroke-width: 0.8"/>
     </g>
     <g id="line2d_16">
      <g>
       <use xlink:href="#m14177a219a" x="671.746098" y="320.4" style="fill: #a9a9a9; stroke: #a9a9a9; stroke-width: 0.8"/>
      </g>
     </g>
     <g id="text_8">
      <!-- 2024-01 -->
      <g style="fill: #a9a9a9" transform="translate(650.854692 334.998438) scale(0.1 -0.1)">
       <defs>
        <path id="DejaVuSans-34" d="M 2419 4116 
L 825 1625 
L 2419 1625 
L 2419 4116 
z
M 2253 4666 
L 3047 4666 
L 3047 1625 
L 3713 1625 
L 3713 1100 
L 3047 1100 
L 3047 0 
L 2419 0 
L 2419 1100 
L 313 1100 
L 313 1709 
L 2253 4666 
z
" transform="scale(0.015625)"/>
       </defs>
       <use xlink:href="#DejaVuSans-32"/>
       <use xlink:href="#DejaVuSans-30" x="63.623047"/>
       <use xlink:href="#DejaVuSans-32" x="127.246094"/>
       <use xlink:href="#DejaVuSans-34" x="190.869141"/>
       <use xlink:href="#DejaVuSans-2d" x="254.492188"/>
       <use xlink:href="#DejaVuSans-30" x="290.576172"/>
       <use xlink:href="#DejaVuSans-31" x="354.199219"/>
      </g>
     </g>
    </g>
    <g id="xtick_9">
     <g id="line2d_17">
      <path d="M 744.170877 320.4 
L 744.170877 43.2 
" clip-path="url(#pa73590127f)" style="fill: none; stroke-dasharray: 5.12,1.28,0.8,1.28; stroke-dashoffset: 0; stroke: #b0b0b0; stroke-width: 0.8"/>
     </g>
     <g id="line2d_18">
      <g>
       <use xlink:href="#m14177a219a" x="744.170877" y="320.4" style="fill: #a9a9a9; stroke: #a9a9a9; stroke-width: 0.8"/>
      </g>
     </g>
     <g id="text_9">
      <!-- 2024-05 -->
      <g style="fill: #a9a9a9" transform="translate(723.279471 334.998438) scale(0.1 -0.1)">
       <use xlink:href="#DejaVuSans-32"/>
       <use xlink:href="#DejaVuSans-30" x="63.623047"/>
       <use xlink:href="#DejaVuSans-32" x="127.246094"/>
       <use xlink:href="#DejaVuSans-34" x="190.869141"/>
       <use xlink:href="#DejaVuSans-2d" x="254.492188"/>
       <use xlink:href="#DejaVuSans-30" x="290.576172"/>
       <use xlink:href="#DejaVuSans-35" x="354.199219"/>
      </g>
     </g>
    </g>
   </g>
   <g id="matplotlib.axis_2">
    <g id="ytick_1">
     <g id="line2d_19">
      <path d="M 108 307.841674 
L 777.6 307.841674 
" clip-path="url(#pa73590127f)" style="fill: none; stroke-dasharray: 5.12,1.28,0.8,1.28; stroke-dashoffset: 0; stroke: #b0b0b0; stroke-width: 0.8"/>
     </g>
     <g id="line2d_20">
      <defs>
       <path id="mc9650296e8" d="M 0 0 
L -3.5 0 
" style="stroke: #a9a9a9; stroke-width: 0.8"/>
      </defs>
      <g>
       <use xlink:href="#mc9650296e8" x="108" y="307.841674" style="fill: #a9a9a9; stroke: #a9a9a9; stroke-width: 0.8"/>
      </g>
     </g>
     <g id="text_10">
      <!-- 0 -->
      <g style="fill: #a9a9a9" transform="translate(94.6375 311.640892) scale(0.1 -0.1)">
       <use xlink:href="#DejaVuSans-30"/>
      </g>
     </g>
    </g>
    <g id="ytick_2">
     <g id="line2d_21">
      <path d="M 108 274.502828 
L 777.6 274.502828 
" clip-path="url(#pa73590127f)" style="fill: none; stroke-dasharray: 5.12,1.28,0.8,1.28; stroke-dashoffset: 0; stroke: #b0b0b0; stroke-width: 0.8"/>
     </g>
     <g id="line2d_22">
      <g>
       <use xlink:href="#mc9650296e8" x="108" y="274.502828" style="fill: #a9a9a9; stroke: #a9a9a9; stroke-width: 0.8"/>
      </g>
     </g>
     <g id="text_11">
      <!-- 800 -->
      <g style="fill: #a9a9a9" transform="translate(81.9125 278.302047) scale(0.1 -0.1)">
       <defs>
        <path id="DejaVuSans-38" d="M 2034 2216 
Q 1584 2216 1326 1975 
Q 1069 1734 1069 1313 
Q 1069 891 1326 650 
Q 1584 409 2034 409 
Q 2484 409 2743 651 
Q 3003 894 3003 1313 
Q 3003 1734 2745 1975 
Q 2488 2216 2034 2216 
z
M 1403 2484 
Q 997 2584 770 2862 
Q 544 3141 544 3541 
Q 544 4100 942 4425 
Q 1341 4750 2034 4750 
Q 2731 4750 3128 4425 
Q 3525 4100 3525 3541 
Q 3525 3141 3298 2862 
Q 3072 2584 2669 2484 
Q 3125 2378 3379 2068 
Q 3634 1759 3634 1313 
Q 3634 634 3220 271 
Q 2806 -91 2034 -91 
Q 1263 -91 848 271 
Q 434 634 434 1313 
Q 434 1759 690 2068 
Q 947 2378 1403 2484 
z
M 1172 3481 
Q 1172 3119 1398 2916 
Q 1625 2713 2034 2713 
Q 2441 2713 2670 2916 
Q 2900 3119 2900 3481 
Q 2900 3844 2670 4047 
Q 2441 4250 2034 4250 
Q 1625 4250 1398 4047 
Q 1172 3844 1172 3481 
z
" transform="scale(0.015625)"/>
       </defs>
       <use xlink:href="#DejaVuSans-38"/>
       <use xlink:href="#DejaVuSans-30" x="63.623047"/>
       <use xlink:href="#DejaVuSans-30" x="127.246094"/>
      </g>
     </g>
    </g>
    <g id="ytick_3">
     <g id="line2d_23">
      <path d="M 108 241.163982 
L 777.6 241.163982 
" clip-path="url(#pa73590127f)" style="fill: none; stroke-dasharray: 5.12,1.28,0.8,1.28; stroke-dashoffset: 0; stroke: #b0b0b0; stroke-width: 0.8"/>
     </g>
     <g id="line2d_24">
      <g>
       <use xlink:href="#mc9650296e8" x="108" y="241.163982" style="fill: #a9a9a9; stroke: #a9a9a9; stroke-width: 0.8"/>
      </g>
     </g>
     <g id="text_12">
      <!-- 1600 -->
      <g style="fill: #a9a9a9" transform="translate(75.55 244.963201) scale(0.1 -0.1)">
       <defs>
        <path id="DejaVuSans-36" d="M 2113 2584 
Q 1688 2584 1439 2293 
Q 1191 2003 1191 1497 
Q 1191 994 1439 701 
Q 1688 409 2113 409 
Q 2538 409 2786 701 
Q 3034 994 3034 1497 
Q 3034 2003 2786 2293 
Q 2538 2584 2113 2584 
z
M 3366 4563 
L 3366 3988 
Q 3128 4100 2886 4159 
Q 2644 4219 2406 4219 
Q 1781 4219 1451 3797 
Q 1122 3375 1075 2522 
Q 1259 2794 1537 2939 
Q 1816 3084 2150 3084 
Q 2853 3084 3261 2657 
Q 3669 2231 3669 1497 
Q 3669 778 3244 343 
Q 2819 -91 2113 -91 
Q 1303 -91 875 529 
Q 447 1150 447 2328 
Q 447 3434 972 4092 
Q 1497 4750 2381 4750 
Q 2619 4750 2861 4703 
Q 3103 4656 3366 4563 
z
" transform="scale(0.015625)"/>
       </defs>
       <use xlink:href="#DejaVuSans-31"/>
       <use xlink:href="#DejaVuSans-36" x="63.623047"/>
       <use xlink:href="#DejaVuSans-30" x="127.246094"/>
       <use xlink:href="#DejaVuSans-30" x="190.869141"/>
      </g>
     </g>
    </g>
    <g id="ytick_4">
     <g id="line2d_25">
      <path d="M 108 207.825136 
L 777.6 207.825136 
" clip-path="url(#pa73590127f)" style="fill: none; stroke-dasharray: 5.12,1.28,0.8,1.28; stroke-dashoffset: 0; stroke: #b0b0b0; stroke-width: 0.8"/>
     </g>
     <g id="line2d_26">
      <g>
       <use xlink:href="#mc9650296e8" x="108" y="207.825136" style="fill: #a9a9a9; stroke: #a9a9a9; stroke-width: 0.8"/>
      </g>
     </g>
     <g id="text_13">
      <!-- 2400 -->
      <g style="fill: #a9a9a9" transform="translate(75.55 211.624355) scale(0.1 -0.1)">
       <use xlink:href="#DejaVuSans-32"/>
       <use xlink:href="#DejaVuSans-34" x="63.623047"/>
       <use xlink:href="#DejaVuSans-30" x="127.246094"/>
       <use xlink:href="#DejaVuSans-30" x="190.869141"/>
      </g>
     </g>
    </g>
    <g id="ytick_5">
     <g id="line2d_27">
      <path d="M 108 174.486291 
L 777.6 174.486291 
" clip-path="url(#pa73590127f)" style="fill: none; stroke-dasharray: 5.12,1.28,0.8,1.28; stroke-dashoffset: 0; stroke: #b0b0b0; stroke-width: 0.8"/>
     </g>
     <g id="line2d_28">
      <g>
       <use xlink:href="#mc9650296e8" x="108" y="174.486291" style="fill: #a9a9a9; stroke: #a9a9a9; stroke-width: 0.8"/>
      </g>
     </g>
     <g id="text_14">
      <!-- 3200 -->
      <g style="fill: #a9a9a9" transform="translate(75.55 178.285509) scale(0.1 -0.1)">
       <use xlink:href="#DejaVuSans-33"/>
       <use xlink:href="#DejaVuSans-32" x="63.623047"/>
       <use xlink:href="#DejaVuSans-30" x="127.246094"/>
       <use xlink:href="#DejaVuSans-30" x="190.869141"/>
      </g>
     </g>
    </g>
    <g id="ytick_6">
     <g id="line2d_29">
      <path d="M 108 141.147445 
L 777.6 141.147445 
" clip-path="url(#pa73590127f)" style="fill: none; stroke-dasharray: 5.12,1.28,0.8,1.28; stroke-dashoffset: 0; stroke: #b0b0b0; stroke-width: 0.8"/>
     </g>
     <g id="line2d_30">
      <g>
       <use xlink:href="#mc9650296e8" x="108" y="141.147445" style="fill: #a9a9a9; stroke: #a9a9a9; stroke-width: 0.8"/>
      </g>
     </g>
     <g id="text_15">
      <!-- 4000 -->
      <g style="fill: #a9a9a9" transform="translate(75.55 144.946664) scale(0.1 -0.1)">
       <use xlink:href="#DejaVuSans-34"/>
       <use xlink:href="#DejaVuSans-30" x="63.623047"/>
       <use xlink:href="#DejaVuSans-30" x="127.246094"/>
       <use xlink:href="#DejaVuSans-30" x="190.869141"/>
      </g>
     </g>
    </g>
    <g id="ytick_7">
     <g id="line2d_31">
      <path d="M 108 107.808599 
L 777.6 107.808599 
" clip-path="url(#pa73590127f)" style="fill: none; stroke-dasharray: 5.12,1.28,0.8,1.28; stroke-dashoffset: 0; stroke: #b0b0b0; stroke-width: 0.8"/>
     </g>
     <g id="line2d_32">
      <g>
       <use xlink:href="#mc9650296e8" x="108" y="107.808599" style="fill: #a9a9a9; stroke: #a9a9a9; stroke-width: 0.8"/>
      </g>
     </g>
     <g id="text_16">
      <!-- 4800 -->
      <g style="fill: #a9a9a9" transform="translate(75.55 111.607818) scale(0.1 -0.1)">
       <use xlink:href="#DejaVuSans-34"/>
       <use xlink:href="#DejaVuSans-38" x="63.623047"/>
       <use xlink:href="#DejaVuSans-30" x="127.246094"/>
       <use xlink:href="#DejaVuSans-30" x="190.869141"/>
      </g>
     </g>
    </g>
    <g id="ytick_8">
     <g id="line2d_33">
      <path d="M 108 74.469754 
L 777.6 74.469754 
" clip-path="url(#pa73590127f)" style="fill: none; stroke-dasharray: 5.12,1.28,0.8,1.28; stroke-dashoffset: 0; stroke: #b0b0b0; stroke-width: 0.8"/>
     </g>
     <g id="line2d_34">
      <g>
       <use xlink:href="#mc9650296e8" x="108" y="74.469754" style="fill: #a9a9a9; stroke: #a9a9a9; stroke-width: 0.8"/>
      </g>
     </g>
     <g id="text_17">
      <!-- 5600 -->
      <g style="fill: #a9a9a9" transform="translate(75.55 78.268972) scale(0.1 -0.1)">
       <use xlink:href="#DejaVuSans-35"/>
       <use xlink:href="#DejaVuSans-36" x="63.623047"/>
       <use xlink:href="#DejaVuSans-30" x="127.246094"/>
       <use xlink:href="#DejaVuSans-30" x="190.869141"/>
      </g>
     </g>
    </g>
   </g>
   <g id="line2d_35">
    <path d="M 138.436364 307.716653 
L 142.027675 307.424938 
L 142.626227 307.174897 
L 144.421883 306.966529 
L 148.013194 306.258078 
L 151.604505 305.966363 
L 152.203057 305.674649 
L 152.801609 305.507954 
L 153.400161 304.75783 
L 153.998713 304.341095 
L 154.597265 303.049214 
L 155.195817 302.965867 
L 155.794368 302.507458 
L 156.991472 301.924028 
L 159.38568 300.090392 
L 160.582784 299.631983 
L 161.181335 299.215247 
L 163.575543 298.173408 
L 164.174095 297.25659 
L 165.371199 296.423119 
L 165.969751 296.131404 
L 171.95527 295.297933 
L 172.553821 295.006218 
L 176.743685 294.67283 
L 178.53934 294.21442 
L 183.926307 293.50597 
L 184.524859 293.172581 
L 185.123411 293.089234 
L 185.721963 292.839193 
L 186.919067 292.630825 
L 187.517619 292.589152 
L 188.714722 292.33911 
L 189.313274 292.297437 
L 191.707482 291.714007 
L 193.503138 291.547313 
L 194.700241 291.422292 
L 195.298793 291.255598 
L 195.897345 291.213924 
L 197.693001 290.672168 
L 198.890105 290.588821 
L 200.087208 290.422127 
L 201.284312 290.172085 
L 201.882864 290.005391 
L 202.481416 289.213594 
L 204.277072 288.546817 
L 206.072727 288.088407 
L 206.671279 287.796693 
L 207.269831 287.755019 
L 210.262591 286.921548 
L 211.459694 286.838201 
L 212.058246 286.754854 
L 213.853902 286.213097 
L 216.248109 285.629668 
L 216.846661 285.379626 
L 217.445213 285.296279 
L 218.043765 285.004564 
L 224.029284 284.12942 
L 227.022043 283.295948 
L 227.620595 282.920886 
L 230.014803 282.295783 
L 232.40901 281.08725 
L 234.204666 280.670514 
L 234.803218 280.587167 
L 235.40177 280.295452 
L 236.598874 280.087085 
L 237.795977 279.545328 
L 240.788737 278.795204 
L 242.584393 278.336795 
L 243.182944 278.086754 
L 243.781496 277.961733 
L 244.380048 277.711692 
L 244.9786 277.628345 
L 245.577152 277.33663 
L 246.175704 277.169936 
L 247.372808 277.086588 
L 248.569912 276.669853 
L 249.767015 276.586506 
L 250.365567 276.294791 
L 251.562671 276.128097 
L 252.161223 275.919729 
L 253.358327 275.878055 
L 255.752534 275.58634 
L 256.949638 275.002911 
L 263.533709 272.210782 
L 264.132261 271.877394 
L 264.730813 271.25229 
L 265.927916 269.502001 
L 266.526468 269.335307 
L 267.12502 269.335307 
L 268.322124 268.460162 
L 268.920676 268.293468 
L 269.519228 268.001753 
L 270.11778 267.876732 
L 270.716331 267.334976 
L 271.314883 267.168282 
L 273.110539 266.293137 
L 274.307643 264.626195 
L 274.906195 264.251133 
L 275.504747 263.250967 
L 276.103298 262.625864 
L 276.70185 262.334149 
L 277.300402 262.167455 
L 279.69461 260.792228 
L 280.891714 259.833736 
L 281.490265 259.458674 
L 282.088817 258.583529 
L 282.687369 257.249975 
L 283.285921 256.37483 
L 283.884473 255.916421 
L 284.483025 255.66638 
L 286.877233 253.582702 
L 288.074336 252.62421 
L 288.672888 252.124128 
L 289.27144 251.33233 
L 290.468544 250.290491 
L 292.862751 248.74857 
L 293.461303 248.248487 
L 294.059855 248.123466 
L 294.658407 247.873425 
L 296.454063 246.873259 
L 298.249718 245.748073 
L 300.045374 243.997784 
L 300.643926 243.622722 
L 301.242478 243.456028 
L 301.84103 243.164313 
L 303.038134 242.372515 
L 303.636685 242.039127 
L 304.235237 241.95578 
L 309.023652 239.080304 
L 310.819308 238.121812 
L 311.41786 237.580056 
L 313.812068 236.829932 
L 314.410619 236.413197 
L 315.009171 236.288176 
L 316.206275 235.87144 
L 318.001931 235.16299 
L 319.797586 234.496213 
L 320.99469 234.287845 
L 322.191794 233.246006 
L 323.98745 232.412535 
L 325.184553 231.704085 
L 326.381657 231.370696 
L 326.980209 230.995634 
L 327.578761 230.82894 
L 329.374417 229.703754 
L 332.367176 228.995303 
L 334.162832 227.953465 
L 334.761384 227.870117 
L 335.359936 227.66175 
L 336.557039 227.411708 
L 338.352695 226.078154 
L 340.148351 225.661419 
L 340.746903 225.453051 
L 341.345455 224.994642 
L 344.936766 223.827782 
L 345.535318 223.786109 
L 346.13387 223.619415 
L 347.330973 223.119332 
L 351.520837 221.660757 
L 352.71794 221.494063 
L 353.316492 221.327369 
L 353.915044 221.035654 
L 354.513596 220.910633 
L 356.309252 220.077162 
L 358.104907 219.202018 
L 358.703459 218.785282 
L 359.302011 218.618588 
L 361.097667 217.660096 
L 362.294771 217.368381 
L 363.491874 216.743278 
L 364.688978 216.409889 
L 365.28753 216.326542 
L 366.484634 215.618092 
L 367.083186 215.493071 
L 368.28029 214.992988 
L 368.878842 214.867968 
L 369.477393 214.534579 
L 371.871601 214.159517 
L 373.068705 213.576087 
L 373.667257 213.076005 
L 374.265809 212.034166 
L 376.061464 211.700777 
L 378.455672 210.450571 
L 379.054224 210.32555 
L 383.244087 208.325219 
L 384.441191 207.991831 
L 385.638294 207.741789 
L 386.835398 207.15836 
L 387.43395 206.908318 
L 388.032502 206.824971 
L 390.42671 205.783132 
L 392.222365 204.657946 
L 392.820917 204.574599 
L 393.419469 204.366231 
L 394.018021 204.324558 
L 396.412228 203.657781 
L 397.01078 203.616107 
L 397.609332 203.157698 
L 398.806436 202.740962 
L 400.602092 202.157533 
L 401.200644 201.782471 
L 401.799195 201.615776 
L 402.397747 201.199041 
L 402.996299 200.949 
L 404.193403 200.323896 
L 406.587611 199.615446 
L 407.186163 199.323731 
L 408.981818 197.948503 
L 409.58037 197.823483 
L 410.777474 196.906664 
L 411.376026 196.781644 
L 411.974578 195.864826 
L 412.57313 195.614784 
L 413.171681 195.156375 
L 413.770233 195.073028 
L 414.967337 194.364577 
L 415.565889 194.239557 
L 416.164441 193.989515 
L 416.762993 193.531106 
L 417.361545 193.322739 
L 419.1572 192.114205 
L 421.551408 190.905672 
L 422.14996 190.822325 
L 423.347064 190.280569 
L 423.945615 189.94718 
L 424.544167 188.947015 
L 425.142719 188.405259 
L 425.741271 188.07187 
L 426.339823 187.94685 
L 427.536927 187.196726 
L 428.135479 187.071705 
L 429.332582 186.488275 
L 431.128238 185.738151 
L 432.325342 184.90468 
L 433.522446 183.654473 
L 436.515205 181.487448 
L 437.712309 180.528957 
L 438.310861 180.278915 
L 438.909413 179.612138 
L 439.507965 179.153729 
L 440.705068 178.736994 
L 441.902172 177.945196 
L 442.500724 177.653481 
L 443.099276 177.486787 
L 443.697828 177.070051 
L 444.29638 176.986704 
L 446.092035 176.028212 
L 447.289139 175.319762 
L 453.274658 173.19441 
L 453.87321 172.652654 
L 455.668866 171.985877 
L 456.865969 171.610815 
L 457.464521 171.152406 
L 459.858729 169.902199 
L 460.457281 169.568811 
L 461.654385 167.235092 
L 462.851488 165.818191 
L 464.048592 165.10974 
L 465.844248 164.40129 
L 466.4428 164.317943 
L 467.041352 163.984554 
L 468.837007 163.442798 
L 471.231215 162.359286 
L 471.829767 161.984224 
L 473.02687 161.567488 
L 476.618182 159.48381 
L 477.216734 158.858707 
L 478.413837 158.233603 
L 482.005149 156.358293 
L 482.603701 156.108252 
L 483.202253 155.73319 
L 483.800805 155.608169 
L 484.399356 155.14976 
L 487.392116 154.191268 
L 487.990668 154.024574 
L 488.58922 153.732859 
L 489.187772 153.316124 
L 490.384875 152.982735 
L 491.581979 152.524326 
L 492.180531 152.065917 
L 493.377635 151.690855 
L 493.976187 151.39914 
L 494.574739 151.232446 
L 495.771842 150.398975 
L 496.968946 149.898892 
L 498.16605 148.982074 
L 499.363154 148.565338 
L 499.961706 148.065255 
L 500.560257 147.981908 
L 501.757361 147.106764 
L 502.954465 146.523334 
L 503.553017 146.273293 
L 504.151569 145.689863 
L 507.74288 144.397982 
L 509.538536 143.606185 
L 511.334191 143.064429 
L 512.531295 142.897734 
L 513.129847 142.647693 
L 513.728399 142.564346 
L 514.925503 142.064263 
L 515.524055 142.02259 
L 517.918262 141.147445 
L 519.713918 139.938912 
L 520.31247 139.688871 
L 521.509574 139.063767 
L 522.108126 138.855399 
L 525.699437 136.896742 
L 526.297989 136.771722 
L 528.093644 135.771556 
L 529.8893 135.188126 
L 530.487852 134.938085 
L 531.684956 134.64637 
L 534.677715 133.687878 
L 536.473371 133.396163 
L 538.867578 132.646039 
L 539.46613 132.395998 
L 540.064682 132.312651 
L 540.663234 132.020936 
L 541.860338 131.770895 
L 543.057442 131.354159 
L 543.655994 131.145791 
L 544.853097 131.020771 
L 546.050201 130.729056 
L 547.845857 130.437341 
L 548.444409 130.228973 
L 549.641512 130.103952 
L 552.634272 129.353828 
L 553.831376 129.062113 
L 554.429928 128.728725 
L 557.422687 127.978601 
L 558.021239 127.85358 
L 559.218343 127.436845 
L 561.013998 126.811741 
L 561.61255 126.728394 
L 563.408206 126.103291 
L 564.006758 126.103291 
L 565.203862 125.686555 
L 565.802414 125.103126 
L 566.400965 124.811411 
L 567.598069 124.436349 
L 569.992277 123.51953 
L 570.590829 123.39451 
L 571.189381 123.019448 
L 571.787932 122.894427 
L 572.386484 122.561039 
L 575.379244 121.685894 
L 575.977796 121.310832 
L 576.576348 121.185811 
L 577.174899 120.685728 
L 578.970555 120.35234 
L 580.167659 119.685563 
L 580.766211 119.018786 
L 581.963315 118.768745 
L 586.153178 117.810253 
L 586.75173 117.643559 
L 587.948833 117.601885 
L 588.547385 117.351844 
L 590.941593 116.935108 
L 591.540145 116.685067 
L 593.3358 116.435026 
L 595.730008 115.684902 
L 597.525664 115.268166 
L 599.321319 114.809757 
L 601.116975 114.268001 
L 604.109735 113.392856 
L 605.306838 112.8511 
L 606.503942 112.434364 
L 607.102494 111.975955 
L 608.299598 111.642567 
L 608.89815 111.392525 
L 610.095253 111.059137 
L 612.489461 109.975624 
L 614.285117 109.850604 
L 616.679324 109.183827 
L 617.277876 108.808765 
L 618.47498 108.475376 
L 620.270636 107.558558 
L 620.869187 107.433537 
L 621.467739 107.141822 
L 622.066291 107.100149 
L 628.650362 104.89145 
L 631.04457 104.308021 
L 631.643121 104.141326 
L 632.840225 103.59957 
L 633.438777 103.516223 
L 634.635881 103.182834 
L 635.234433 102.724425 
L 635.832985 102.43271 
L 636.431537 101.72426 
L 637.030088 101.307524 
L 638.227192 100.932462 
L 638.825744 100.474053 
L 643.614159 98.515396 
L 644.212711 98.348702 
L 644.811263 97.97364 
L 647.205471 97.265189 
L 648.402574 96.68176 
L 649.599678 95.973309 
L 650.19823 95.848288 
L 651.395334 95.139838 
L 651.993886 94.889797 
L 653.19099 94.139673 
L 654.986645 93.306201 
L 655.585197 92.889466 
L 656.782301 92.47273 
L 657.979405 91.76428 
L 658.577957 91.555912 
L 659.176508 91.139176 
L 660.373612 90.722441 
L 660.972164 90.59742 
L 663.366372 89.513908 
L 666.359131 88.472069 
L 666.957683 88.430395 
L 667.556235 88.263701 
L 668.154787 87.888639 
L 668.753339 87.805292 
L 669.351891 87.596924 
L 671.147546 87.263536 
L 675.337409 85.138184 
L 675.935961 85.054837 
L 677.731617 84.096345 
L 679.527273 83.429568 
L 681.322928 82.637771 
L 683.717136 81.679279 
L 684.315688 81.512585 
L 684.91424 81.137523 
L 686.111344 80.970829 
L 686.709895 80.595766 
L 687.308447 80.554093 
L 688.505551 80.179031 
L 689.702655 79.595601 
L 690.301207 79.512254 
L 690.899759 79.262213 
L 691.498311 79.137192 
L 693.293966 78.345394 
L 693.892518 78.220374 
L 694.49107 77.970332 
L 697.483829 77.261882 
L 699.279485 76.595105 
L 701.673693 75.219878 
L 702.870796 74.761468 
L 703.469348 74.386406 
L 704.666452 74.136365 
L 705.265004 73.802977 
L 705.863556 73.677956 
L 707.06066 73.011179 
L 710.651971 71.344237 
L 712.447627 70.760807 
L 713.64473 70.344071 
L 714.243282 70.135704 
L 715.440386 69.552274 
L 716.63749 69.177212 
L 717.236042 69.052191 
L 718.433146 68.510435 
L 719.031698 68.302067 
L 719.630249 67.968679 
L 720.228801 67.885332 
L 720.827353 67.676964 
L 722.024457 67.010187 
L 724.418665 65.926674 
L 725.615768 65.509939 
L 726.812872 64.884835 
L 727.411424 64.801488 
L 730.404183 63.509608 
L 731.002735 63.092872 
L 733.396943 62.301075 
L 733.995495 62.301075 
L 735.192599 61.759319 
L 735.79115 61.30091 
L 736.389702 60.634133 
L 736.988254 60.13405 
L 737.586806 59.842335 
L 738.185358 59.675641 
L 738.78391 59.300579 
L 739.382462 59.175558 
L 739.981014 58.883843 
L 740.579566 58.800496 
L 741.178117 58.383761 
L 741.776669 58.25874 
L 742.375221 57.967025 
L 744.170877 56.800165 
L 745.966533 56.133388 
L 746.565084 55.8 
L 747.163636 55.8 
L 747.163636 55.8 
" clip-path="url(#pa73590127f)" style="fill: none; stroke: #1f77b4; stroke-width: 1.5; stroke-linecap: square"/>
   </g>
   <g id="line2d_36">
    <path d="M 139.034916 307.8 
L 140.830571 307.716653 
L 142.626227 307.674979 
L 146.217538 307.591632 
L 149.210298 307.466612 
L 151.604505 307.466612 
L 152.203057 307.299917 
L 154.597265 307.21657 
L 156.39292 307.008202 
L 158.188576 306.841508 
L 161.779887 306.674814 
L 162.378439 306.674814 
L 162.976991 306.549793 
L 165.371199 306.466446 
L 166.568302 306.383099 
L 171.356718 306.299752 
L 174.349477 306.174731 
L 181.5321 306.091384 
L 184.524859 305.966363 
L 188.116171 305.883016 
L 190.510378 305.799669 
L 195.897345 305.716322 
L 197.693001 305.674649 
L 199.488656 305.632975 
L 201.284312 305.424607 
L 204.875623 305.382934 
L 206.072727 305.299587 
L 210.262591 305.216239 
L 216.846661 304.841177 
L 221.036525 304.75783 
L 222.233628 304.674483 
L 224.029284 304.591136 
L 227.620595 304.424442 
L 230.014803 304.382768 
L 231.810459 304.216074 
L 239.591633 303.757665 
L 242.584393 303.674318 
L 247.97136 303.382603 
L 249.767015 303.299256 
L 255.752534 302.965867 
L 262.336605 302.88252 
L 264.730813 302.632479 
L 265.927916 302.549132 
L 273.709091 301.924028 
L 277.300402 301.465619 
L 279.69461 301.382272 
L 284.483025 300.757169 
L 288.074336 300.673822 
L 289.869992 300.507128 
L 291.067096 300.465454 
L 292.2642 300.340433 
L 294.059855 300.257086 
L 295.256959 300.090392 
L 298.249718 299.757003 
L 300.643926 299.673656 
L 301.84103 299.590309 
L 304.235237 299.506962 
L 305.432341 299.423615 
L 308.425101 299.1319 
L 309.023652 298.965206 
L 312.614964 298.798512 
L 315.607723 298.715165 
L 323.388898 298.256755 
L 325.184553 298.173408 
L 332.965728 297.714999 
L 337.155591 297.631652 
L 337.754143 297.506631 
L 342.542558 297.423284 
L 346.732422 297.214916 
L 353.316492 297.131569 
L 357.506356 296.923202 
L 362.294771 296.839854 
L 367.083186 296.589813 
L 371.273049 296.506466 
L 382.645535 295.798016 
L 387.43395 295.714668 
L 393.419469 295.38128 
L 394.616573 295.339606 
L 397.01078 295.089565 
L 402.996299 294.756177 
L 406.587611 294.67283 
L 408.383266 294.631156 
L 410.178922 294.589482 
L 411.974578 294.422788 
L 416.762993 294.339441 
L 417.960097 294.131073 
L 419.1572 294.047726 
L 422.14996 293.922705 
L 423.347064 293.839358 
L 424.544167 293.756011 
L 429.931134 293.672664 
L 431.128238 293.547643 
L 433.522446 293.50597 
L 434.120998 293.380949 
L 435.318101 293.297602 
L 435.916653 293.172581 
L 437.712309 293.089234 
L 447.289139 292.505805 
L 449.683347 292.422457 
L 452.676106 292.297437 
L 461.055833 292.21409 
L 465.245696 292.005722 
L 470.034111 291.922375 
L 472.428319 291.839028 
L 474.822526 291.797354 
L 476.01963 291.672333 
L 478.413837 291.588986 
L 484.399356 291.255598 
L 487.990668 291.213924 
L 489.786323 291.04723 
L 491.581979 291.005556 
L 495.771842 290.922209 
L 498.16605 290.838862 
L 505.348673 290.755515 
L 508.341432 290.630494 
L 511.932743 290.547147 
L 513.728399 290.33878 
L 517.31971 290.297106 
L 519.115366 290.130412 
L 521.509574 290.047065 
L 528.692196 289.963718 
L 531.684956 289.838697 
L 541.860338 289.797023 
L 543.057442 289.713676 
L 544.853097 289.672003 
L 552.634272 289.588656 
L 553.831376 289.505308 
L 560.415447 289.421961 
L 562.809654 289.338614 
L 569.992277 289.296941 
L 571.189381 289.213594 
L 580.167659 289.17192 
L 581.963315 289.005226 
L 596.927112 288.921879 
L 598.722767 288.880205 
L 614.883669 288.796858 
L 617.277876 288.713511 
L 627.453258 288.630164 
L 628.650362 288.546817 
L 631.643121 288.463469 
L 633.438777 288.296775 
L 636.431537 288.213428 
L 638.825744 288.130081 
L 642.417056 288.046734 
L 644.212711 288.00506 
L 646.606919 287.921713 
L 648.402574 287.88004 
L 651.395334 287.796693 
L 652.592438 287.713345 
L 656.183749 287.629998 
L 659.176508 287.504978 
L 660.373612 287.463304 
L 661.570716 287.379957 
L 663.366372 287.338283 
L 665.760579 287.254936 
L 668.154787 287.171589 
L 675.935961 287.088242 
L 678.330169 287.004895 
L 683.118584 286.921548 
L 687.308447 286.71318 
L 692.695414 286.629833 
L 693.892518 286.546486 
L 704.666452 286.463139 
L 706.462108 286.421465 
L 709.454867 286.379792 
L 711.849075 286.12975 
L 713.64473 286.088077 
L 717.236042 286.00473 
L 723.820113 285.629668 
L 726.21432 285.54632 
L 728.608528 285.462973 
L 732.199839 285.379626 
L 733.396943 285.296279 
L 735.79115 285.212932 
L 738.185358 284.962891 
L 740.579566 284.879544 
L 744.769429 284.796196 
L 745.367981 284.671176 
L 747.163636 284.671176 
L 747.163636 284.671176 
" clip-path="url(#pa73590127f)" style="fill: none; stroke: #ff7f0e; stroke-width: 1.5; stroke-linecap: square"/>
   </g>
   <g id="patch_3">
    <path d="M 108 320.4 
L 108 43.2 
" style="fill: none; stroke: #a9a9a9; stroke-width: 0.8; stroke-linejoin: miter; stroke-linecap: square"/>
   </g>
   <g id="patch_4">
    <path d="M 777.6 320.4 
L 777.6 43.2 
" style="fill: none"/>
   </g>
   <g id="patch_5">
    <path d="M 108 320.4 
L 777.6 320.4 
" style="fill: none; stroke: #a9a9a9; stroke-width: 0.8; stroke-linejoin: miter; stroke-linecap: square"/>
   </g>
   <g id="patch_6">
    <path d="M 108 43.2 
L 777.6 43.2 
" style="fill: none"/>
   </g>
   <g id="text_18">
    <!-- get_subscribe history -->
    <g style="fill: #a9a9a9" transform="translate(378.6075 37.2) scale(0.12 -0.12)">
     <defs>
      <path id="DejaVuSans-67" d="M 2906 1791 
Q 2906 2416 2648 2759 
Q 2391 3103 1925 3103 
Q 1463 3103 1205 2759 
Q 947 2416 947 1791 
Q 947 1169 1205 825 
Q 1463 481 1925 481 
Q 2391 481 2648 825 
Q 2906 1169 2906 1791 
z
M 3481 434 
Q 3481 -459 3084 -895 
Q 2688 -1331 1869 -1331 
Q 1566 -1331 1297 -1286 
Q 1028 -1241 775 -1147 
L 775 -588 
Q 1028 -725 1275 -790 
Q 1522 -856 1778 -856 
Q 2344 -856 2625 -561 
Q 2906 -266 2906 331 
L 2906 616 
Q 2728 306 2450 153 
Q 2172 0 1784 0 
Q 1141 0 747 490 
Q 353 981 353 1791 
Q 353 2603 747 3093 
Q 1141 3584 1784 3584 
Q 2172 3584 2450 3431 
Q 2728 3278 2906 2969 
L 2906 3500 
L 3481 3500 
L 3481 434 
z
" transform="scale(0.015625)"/>
      <path id="DejaVuSans-65" d="M 3597 1894 
L 3597 1613 
L 953 1613 
Q 991 1019 1311 708 
Q 1631 397 2203 397 
Q 2534 397 2845 478 
Q 3156 559 3463 722 
L 3463 178 
Q 3153 47 2828 -22 
Q 2503 -91 2169 -91 
Q 1331 -91 842 396 
Q 353 884 353 1716 
Q 353 2575 817 3079 
Q 1281 3584 2069 3584 
Q 2775 3584 3186 3129 
Q 3597 2675 3597 1894 
z
M 3022 2063 
Q 3016 2534 2758 2815 
Q 2500 3097 2075 3097 
Q 1594 3097 1305 2825 
Q 1016 2553 972 2059 
L 3022 2063 
z
" transform="scale(0.015625)"/>
      <path id="DejaVuSans-74" d="M 1172 4494 
L 1172 3500 
L 2356 3500 
L 2356 3053 
L 1172 3053 
L 1172 1153 
Q 1172 725 1289 603 
Q 1406 481 1766 481 
L 2356 481 
L 2356 0 
L 1766 0 
Q 1100 0 847 248 
Q 594 497 594 1153 
L 594 3053 
L 172 3053 
L 172 3500 
L 594 3500 
L 594 4494 
L 1172 4494 
z
" transform="scale(0.015625)"/>
      <path id="DejaVuSans-5f" d="M 3263 -1063 
L 3263 -1509 
L -63 -1509 
L -63 -1063 
L 3263 -1063 
z
" transform="scale(0.015625)"/>
      <path id="DejaVuSans-73" d="M 2834 3397 
L 2834 2853 
Q 2591 2978 2328 3040 
Q 2066 3103 1784 3103 
Q 1356 3103 1142 2972 
Q 928 2841 928 2578 
Q 928 2378 1081 2264 
Q 1234 2150 1697 2047 
L 1894 2003 
Q 2506 1872 2764 1633 
Q 3022 1394 3022 966 
Q 3022 478 2636 193 
Q 2250 -91 1575 -91 
Q 1294 -91 989 -36 
Q 684 19 347 128 
L 347 722 
Q 666 556 975 473 
Q 1284 391 1588 391 
Q 1994 391 2212 530 
Q 2431 669 2431 922 
Q 2431 1156 2273 1281 
Q 2116 1406 1581 1522 
L 1381 1569 
Q 847 1681 609 1914 
Q 372 2147 372 2553 
Q 372 3047 722 3315 
Q 1072 3584 1716 3584 
Q 2034 3584 2315 3537 
Q 2597 3491 2834 3397 
z
" transform="scale(0.015625)"/>
      <path id="DejaVuSans-75" d="M 544 1381 
L 544 3500 
L 1119 3500 
L 1119 1403 
Q 1119 906 1312 657 
Q 1506 409 1894 409 
Q 2359 409 2629 706 
Q 2900 1003 2900 1516 
L 2900 3500 
L 3475 3500 
L 3475 0 
L 2900 0 
L 2900 538 
Q 2691 219 2414 64 
Q 2138 -91 1772 -91 
Q 1169 -91 856 284 
Q 544 659 544 1381 
z
M 1991 3584 
L 1991 3584 
z
" transform="scale(0.015625)"/>
      <path id="DejaVuSans-62" d="M 3116 1747 
Q 3116 2381 2855 2742 
Q 2594 3103 2138 3103 
Q 1681 3103 1420 2742 
Q 1159 2381 1159 1747 
Q 1159 1113 1420 752 
Q 1681 391 2138 391 
Q 2594 391 2855 752 
Q 3116 1113 3116 1747 
z
M 1159 2969 
Q 1341 3281 1617 3432 
Q 1894 3584 2278 3584 
Q 2916 3584 3314 3078 
Q 3713 2572 3713 1747 
Q 3713 922 3314 415 
Q 2916 -91 2278 -91 
Q 1894 -91 1617 61 
Q 1341 213 1159 525 
L 1159 0 
L 581 0 
L 581 4863 
L 1159 4863 
L 1159 2969 
z
" transform="scale(0.015625)"/>
      <path id="DejaVuSans-63" d="M 3122 3366 
L 3122 2828 
Q 2878 2963 2633 3030 
Q 2388 3097 2138 3097 
Q 1578 3097 1268 2742 
Q 959 2388 959 1747 
Q 959 1106 1268 751 
Q 1578 397 2138 397 
Q 2388 397 2633 464 
Q 2878 531 3122 666 
L 3122 134 
Q 2881 22 2623 -34 
Q 2366 -91 2075 -91 
Q 1284 -91 818 406 
Q 353 903 353 1747 
Q 353 2603 823 3093 
Q 1294 3584 2113 3584 
Q 2378 3584 2631 3529 
Q 2884 3475 3122 3366 
z
" transform="scale(0.015625)"/>
      <path id="DejaVuSans-72" d="M 2631 2963 
Q 2534 3019 2420 3045 
Q 2306 3072 2169 3072 
Q 1681 3072 1420 2755 
Q 1159 2438 1159 1844 
L 1159 0 
L 581 0 
L 581 3500 
L 1159 3500 
L 1159 2956 
Q 1341 3275 1631 3429 
Q 1922 3584 2338 3584 
Q 2397 3584 2469 3576 
Q 2541 3569 2628 3553 
L 2631 2963 
z
" transform="scale(0.015625)"/>
      <path id="DejaVuSans-69" d="M 603 3500 
L 1178 3500 
L 1178 0 
L 603 0 
L 603 3500 
z
M 603 4863 
L 1178 4863 
L 1178 4134 
L 603 4134 
L 603 4863 
z
" transform="scale(0.015625)"/>
      <path id="DejaVuSans-20" transform="scale(0.015625)"/>
      <path id="DejaVuSans-68" d="M 3513 2113 
L 3513 0 
L 2938 0 
L 2938 2094 
Q 2938 2591 2744 2837 
Q 2550 3084 2163 3084 
Q 1697 3084 1428 2787 
Q 1159 2491 1159 1978 
L 1159 0 
L 581 0 
L 581 4863 
L 1159 4863 
L 1159 2956 
Q 1366 3272 1645 3428 
Q 1925 3584 2291 3584 
Q 2894 3584 3203 3211 
Q 3513 2838 3513 2113 
z
" transform="scale(0.015625)"/>
      <path id="DejaVuSans-6f" d="M 1959 3097 
Q 1497 3097 1228 2736 
Q 959 2375 959 1747 
Q 959 1119 1226 758 
Q 1494 397 1959 397 
Q 2419 397 2687 759 
Q 2956 1122 2956 1747 
Q 2956 2369 2687 2733 
Q 2419 3097 1959 3097 
z
M 1959 3584 
Q 2709 3584 3137 3096 
Q 3566 2609 3566 1747 
Q 3566 888 3137 398 
Q 2709 -91 1959 -91 
Q 1206 -91 779 398 
Q 353 888 353 1747 
Q 353 2609 779 3096 
Q 1206 3584 1959 3584 
z
" transform="scale(0.015625)"/>
      <path id="DejaVuSans-79" d="M 2059 -325 
Q 1816 -950 1584 -1140 
Q 1353 -1331 966 -1331 
L 506 -1331 
L 506 -850 
L 844 -850 
Q 1081 -850 1212 -737 
Q 1344 -625 1503 -206 
L 1606 56 
L 191 3500 
L 800 3500 
L 1894 763 
L 2988 3500 
L 3597 3500 
L 2059 -325 
z
" transform="scale(0.015625)"/>
     </defs>
     <use xlink:href="#DejaVuSans-67"/>
     <use xlink:href="#DejaVuSans-65" x="63.476562"/>
     <use xlink:href="#DejaVuSans-74" x="125"/>
     <use xlink:href="#DejaVuSans-5f" x="164.208984"/>
     <use xlink:href="#DejaVuSans-73" x="214.208984"/>
     <use xlink:href="#DejaVuSans-75" x="266.308594"/>
     <use xlink:href="#DejaVuSans-62" x="329.6875"/>
     <use xlink:href="#DejaVuSans-73" x="393.164062"/>
     <use xlink:href="#DejaVuSans-63" x="445.263672"/>
     <use xlink:href="#DejaVuSans-72" x="500.244141"/>
     <use xlink:href="#DejaVuSans-69" x="541.357422"/>
     <use xlink:href="#DejaVuSans-62" x="569.140625"/>
     <use xlink:href="#DejaVuSans-65" x="632.617188"/>
     <use xlink:href="#DejaVuSans-20" x="694.140625"/>
     <use xlink:href="#DejaVuSans-68" x="725.927734"/>
     <use xlink:href="#DejaVuSans-69" x="789.306641"/>
     <use xlink:href="#DejaVuSans-73" x="817.089844"/>
     <use xlink:href="#DejaVuSans-74" x="869.189453"/>
     <use xlink:href="#DejaVuSans-6f" x="908.398438"/>
     <use xlink:href="#DejaVuSans-72" x="969.580078"/>
     <use xlink:href="#DejaVuSans-79" x="1010.693359"/>
    </g>
   </g>
   <g id="legend_1">
    <g id="line2d_37">
     <path d="M 815.08 328.498438 
L 825.08 328.498438 
L 835.08 328.498438 
" style="fill: none; stroke: #1f77b4; stroke-width: 1.5; stroke-linecap: square"/>
    </g>
    <g id="text_19">
     <!-- star -->
     <g style="fill: #a9a9a9" transform="translate(843.08 331.998438) scale(0.1 -0.1)">
      <defs>
       <path id="DejaVuSans-61" d="M 2194 1759 
Q 1497 1759 1228 1600 
Q 959 1441 959 1056 
Q 959 750 1161 570 
Q 1363 391 1709 391 
Q 2188 391 2477 730 
Q 2766 1069 2766 1631 
L 2766 1759 
L 2194 1759 
z
M 3341 1997 
L 3341 0 
L 2766 0 
L 2766 531 
Q 2569 213 2275 61 
Q 1981 -91 1556 -91 
Q 1019 -91 701 211 
Q 384 513 384 1019 
Q 384 1609 779 1909 
Q 1175 2209 1959 2209 
L 2766 2209 
L 2766 2266 
Q 2766 2663 2505 2880 
Q 2244 3097 1772 3097 
Q 1472 3097 1187 3025 
Q 903 2953 641 2809 
L 641 3341 
Q 956 3463 1253 3523 
Q 1550 3584 1831 3584 
Q 2591 3584 2966 3190 
Q 3341 2797 3341 1997 
z
" transform="scale(0.015625)"/>
      </defs>
      <use xlink:href="#DejaVuSans-73"/>
      <use xlink:href="#DejaVuSans-74" x="52.099609"/>
      <use xlink:href="#DejaVuSans-61" x="91.308594"/>
      <use xlink:href="#DejaVuSans-72" x="152.587891"/>
     </g>
    </g>
    <g id="line2d_38">
     <path d="M 815.08 343.176562 
L 825.08 343.176562 
L 835.08 343.176562 
" style="fill: none; stroke: #ff7f0e; stroke-width: 1.5; stroke-linecap: square"/>
    </g>
    <g id="text_20">
     <!-- fork -->
     <g style="fill: #a9a9a9" transform="translate(843.08 346.676562) scale(0.1 -0.1)">
      <defs>
       <path id="DejaVuSans-66" d="M 2375 4863 
L 2375 4384 
L 1825 4384 
Q 1516 4384 1395 4259 
Q 1275 4134 1275 3809 
L 1275 3500 
L 2222 3500 
L 2222 3053 
L 1275 3053 
L 1275 0 
L 697 0 
L 697 3053 
L 147 3053 
L 147 3500 
L 697 3500 
L 697 3744 
Q 697 4328 969 4595 
Q 1241 4863 1831 4863 
L 2375 4863 
z
" transform="scale(0.015625)"/>
       <path id="DejaVuSans-6b" d="M 581 4863 
L 1159 4863 
L 1159 1991 
L 2875 3500 
L 3609 3500 
L 1753 1863 
L 3688 0 
L 2938 0 
L 1159 1709 
L 1159 0 
L 581 0 
L 581 4863 
z
" transform="scale(0.015625)"/>
      </defs>
      <use xlink:href="#DejaVuSans-66"/>
      <use xlink:href="#DejaVuSans-6f" x="35.205078"/>
      <use xlink:href="#DejaVuSans-72" x="96.386719"/>
      <use xlink:href="#DejaVuSans-6b" x="137.5"/>
     </g>
    </g>
   </g>
  </g>
 </g>
 <defs>
  <clipPath id="pa73590127f">
   <rect x="108" y="43.2" width="669.6" height="277.2"/>
  </clipPath>
 </defs>
</svg>
