<?xml version="1.0" encoding="utf-8" standalone="no"?>
<!DOCTYPE svg PUBLIC "-//W3C//DTD SVG 1.1//EN"
  "http://www.w3.org/Graphics/SVG/1.1/DTD/svg11.dtd">
<svg xmlns:xlink="http://www.w3.org/1999/xlink" width="864pt" height="360pt" viewBox="0 0 864 360" xmlns="http://www.w3.org/2000/svg" version="1.1">
 <metadata>
  <rdf:RDF xmlns:dc="http://purl.org/dc/elements/1.1/" xmlns:cc="http://creativecommons.org/ns#" xmlns:rdf="http://www.w3.org/1999/02/22-rdf-syntax-ns#">
   <cc:Work>
    <dc:type rdf:resource="http://purl.org/dc/dcmitype/StillImage"/>
    <dc:date>2024-05-04T08:11:33.911861</dc:date>
    <dc:format>image/svg+xml</dc:format>
    <dc:creator>
     <cc:Agent>
      <dc:title>Matplotlib v3.8.4, https://matplotlib.org/</dc:title>
     </cc:Agent>
    </dc:creator>
   </cc:Work>
  </rdf:RDF>
 </metadata>
 <defs>
  <style type="text/css">*{stroke-linejoin: round; stroke-linecap: butt}</style>
 </defs>
 <g id="figure_1">
  <g id="patch_1">
   <path d="M 0 360 
L 864 360 
L 864 0 
L 0 0 
L 0 360 
z
" style="fill: none; opacity: 0"/>
  </g>
  <g id="axes_1">
   <g id="patch_2">
    <path d="M 108 320.4 
L 777.6 320.4 
L 777.6 43.2 
L 108 43.2 
L 108 320.4 
z
" style="fill: none; opacity: 0"/>
   </g>
   <g id="matplotlib.axis_1">
    <g id="xtick_1">
     <g id="line2d_1">
      <path d="M 161.825884 320.4 
L 161.825884 43.2 
" clip-path="url(#p744fc7e142)" style="fill: none; stroke-dasharray: 5.12,1.28,0.8,1.28; stroke-dashoffset: 0; stroke: #b0b0b0; stroke-width: 0.8"/>
     </g>
     <g id="line2d_2">
      <defs>
       <path id="mc999dda87d" d="M 0 0 
L 0 3.5 
" style="stroke: #a9a9a9; stroke-width: 0.8"/>
      </defs>
      <g>
       <use xlink:href="#mc999dda87d" x="161.825884" y="320.4" style="fill: #a9a9a9; stroke: #a9a9a9; stroke-width: 0.8"/>
      </g>
     </g>
     <g id="text_1">
      <!-- 2021-09 -->
      <g style="fill: #a9a9a9" transform="translate(140.934478 334.998438) scale(0.1 -0.1)">
       <defs>
        <path id="DejaVuSans-32" d="M 1228 531 
L 3431 531 
L 3431 0 
L 469 0 
L 469 531 
Q 828 903 1448 1529 
Q 2069 2156 2228 2338 
Q 2531 2678 2651 2914 
Q 2772 3150 2772 3378 
Q 2772 3750 2511 3984 
Q 2250 4219 1831 4219 
Q 1534 4219 1204 4116 
Q 875 4013 500 3803 
L 500 4441 
Q 881 4594 1212 4672 
Q 1544 4750 1819 4750 
Q 2544 4750 2975 4387 
Q 3406 4025 3406 3419 
Q 3406 3131 3298 2873 
Q 3191 2616 2906 2266 
Q 2828 2175 2409 1742 
Q 1991 1309 1228 531 
z
" transform="scale(0.015625)"/>
        <path id="DejaVuSans-30" d="M 2034 4250 
Q 1547 4250 1301 3770 
Q 1056 3291 1056 2328 
Q 1056 1369 1301 889 
Q 1547 409 2034 409 
Q 2525 409 2770 889 
Q 3016 1369 3016 2328 
Q 3016 3291 2770 3770 
Q 2525 4250 2034 4250 
z
M 2034 4750 
Q 2819 4750 3233 4129 
Q 3647 3509 3647 2328 
Q 3647 1150 3233 529 
Q 2819 -91 2034 -91 
Q 1250 -91 836 529 
Q 422 1150 422 2328 
Q 422 3509 836 4129 
Q 1250 4750 2034 4750 
z
" transform="scale(0.015625)"/>
        <path id="DejaVuSans-31" d="M 794 531 
L 1825 531 
L 1825 4091 
L 703 3866 
L 703 4441 
L 1819 4666 
L 2450 4666 
L 2450 531 
L 3481 531 
L 3481 0 
L 794 0 
L 794 531 
z
" transform="scale(0.015625)"/>
        <path id="DejaVuSans-2d" d="M 313 2009 
L 1997 2009 
L 1997 1497 
L 313 1497 
L 313 2009 
z
" transform="scale(0.015625)"/>
        <path id="DejaVuSans-39" d="M 703 97 
L 703 672 
Q 941 559 1184 500 
Q 1428 441 1663 441 
Q 2288 441 2617 861 
Q 2947 1281 2994 2138 
Q 2813 1869 2534 1725 
Q 2256 1581 1919 1581 
Q 1219 1581 811 2004 
Q 403 2428 403 3163 
Q 403 3881 828 4315 
Q 1253 4750 1959 4750 
Q 2769 4750 3195 4129 
Q 3622 3509 3622 2328 
Q 3622 1225 3098 567 
Q 2575 -91 1691 -91 
Q 1453 -91 1209 -44 
Q 966 3 703 97 
z
M 1959 2075 
Q 2384 2075 2632 2365 
Q 2881 2656 2881 3163 
Q 2881 3666 2632 3958 
Q 2384 4250 1959 4250 
Q 1534 4250 1286 3958 
Q 1038 3666 1038 3163 
Q 1038 2656 1286 2365 
Q 1534 2075 1959 2075 
z
" transform="scale(0.015625)"/>
       </defs>
       <use xlink:href="#DejaVuSans-32"/>
       <use xlink:href="#DejaVuSans-30" x="63.623047"/>
       <use xlink:href="#DejaVuSans-32" x="127.246094"/>
       <use xlink:href="#DejaVuSans-31" x="190.869141"/>
       <use xlink:href="#DejaVuSans-2d" x="254.492188"/>
       <use xlink:href="#DejaVuSans-30" x="290.576172"/>
       <use xlink:href="#DejaVuSans-39" x="354.199219"/>
      </g>
     </g>
    </g>
    <g id="xtick_2">
     <g id="line2d_3">
      <path d="M 234.993103 320.4 
L 234.993103 43.2 
" clip-path="url(#p744fc7e142)" style="fill: none; stroke-dasharray: 5.12,1.28,0.8,1.28; stroke-dashoffset: 0; stroke: #b0b0b0; stroke-width: 0.8"/>
     </g>
     <g id="line2d_4">
      <g>
       <use xlink:href="#mc999dda87d" x="234.993103" y="320.4" style="fill: #a9a9a9; stroke: #a9a9a9; stroke-width: 0.8"/>
      </g>
     </g>
     <g id="text_2">
      <!-- 2022-01 -->
      <g style="fill: #a9a9a9" transform="translate(214.101697 334.998438) scale(0.1 -0.1)">
       <use xlink:href="#DejaVuSans-32"/>
       <use xlink:href="#DejaVuSans-30" x="63.623047"/>
       <use xlink:href="#DejaVuSans-32" x="127.246094"/>
       <use xlink:href="#DejaVuSans-32" x="190.869141"/>
       <use xlink:href="#DejaVuSans-2d" x="254.492188"/>
       <use xlink:href="#DejaVuSans-30" x="290.576172"/>
       <use xlink:href="#DejaVuSans-31" x="354.199219"/>
      </g>
     </g>
    </g>
    <g id="xtick_3">
     <g id="line2d_5">
      <path d="M 306.96086 320.4 
L 306.96086 43.2 
" clip-path="url(#p744fc7e142)" style="fill: none; stroke-dasharray: 5.12,1.28,0.8,1.28; stroke-dashoffset: 0; stroke: #b0b0b0; stroke-width: 0.8"/>
     </g>
     <g id="line2d_6">
      <g>
       <use xlink:href="#mc999dda87d" x="306.96086" y="320.4" style="fill: #a9a9a9; stroke: #a9a9a9; stroke-width: 0.8"/>
      </g>
     </g>
     <g id="text_3">
      <!-- 2022-05 -->
      <g style="fill: #a9a9a9" transform="translate(286.069454 334.998438) scale(0.1 -0.1)">
       <defs>
        <path id="DejaVuSans-35" d="M 691 4666 
L 3169 4666 
L 3169 4134 
L 1269 4134 
L 1269 2991 
Q 1406 3038 1543 3061 
Q 1681 3084 1819 3084 
Q 2600 3084 3056 2656 
Q 3513 2228 3513 1497 
Q 3513 744 3044 326 
Q 2575 -91 1722 -91 
Q 1428 -91 1123 -41 
Q 819 9 494 109 
L 494 744 
Q 775 591 1075 516 
Q 1375 441 1709 441 
Q 2250 441 2565 725 
Q 2881 1009 2881 1497 
Q 2881 1984 2565 2268 
Q 2250 2553 1709 2553 
Q 1456 2553 1204 2497 
Q 953 2441 691 2322 
L 691 4666 
z
" transform="scale(0.015625)"/>
       </defs>
       <use xlink:href="#DejaVuSans-32"/>
       <use xlink:href="#DejaVuSans-30" x="63.623047"/>
       <use xlink:href="#DejaVuSans-32" x="127.246094"/>
       <use xlink:href="#DejaVuSans-32" x="190.869141"/>
       <use xlink:href="#DejaVuSans-2d" x="254.492188"/>
       <use xlink:href="#DejaVuSans-30" x="290.576172"/>
       <use xlink:href="#DejaVuSans-35" x="354.199219"/>
      </g>
     </g>
    </g>
    <g id="xtick_4">
     <g id="line2d_7">
      <path d="M 380.72781 320.4 
L 380.72781 43.2 
" clip-path="url(#p744fc7e142)" style="fill: none; stroke-dasharray: 5.12,1.28,0.8,1.28; stroke-dashoffset: 0; stroke: #b0b0b0; stroke-width: 0.8"/>
     </g>
     <g id="line2d_8">
      <g>
       <use xlink:href="#mc999dda87d" x="380.72781" y="320.4" style="fill: #a9a9a9; stroke: #a9a9a9; stroke-width: 0.8"/>
      </g>
     </g>
     <g id="text_4">
      <!-- 2022-09 -->
      <g style="fill: #a9a9a9" transform="translate(359.836404 334.998438) scale(0.1 -0.1)">
       <use xlink:href="#DejaVuSans-32"/>
       <use xlink:href="#DejaVuSans-30" x="63.623047"/>
       <use xlink:href="#DejaVuSans-32" x="127.246094"/>
       <use xlink:href="#DejaVuSans-32" x="190.869141"/>
       <use xlink:href="#DejaVuSans-2d" x="254.492188"/>
       <use xlink:href="#DejaVuSans-30" x="290.576172"/>
       <use xlink:href="#DejaVuSans-39" x="354.199219"/>
      </g>
     </g>
    </g>
    <g id="xtick_5">
     <g id="line2d_9">
      <path d="M 453.895029 320.4 
L 453.895029 43.2 
" clip-path="url(#p744fc7e142)" style="fill: none; stroke-dasharray: 5.12,1.28,0.8,1.28; stroke-dashoffset: 0; stroke: #b0b0b0; stroke-width: 0.8"/>
     </g>
     <g id="line2d_10">
      <g>
       <use xlink:href="#mc999dda87d" x="453.895029" y="320.4" style="fill: #a9a9a9; stroke: #a9a9a9; stroke-width: 0.8"/>
      </g>
     </g>
     <g id="text_5">
      <!-- 2023-01 -->
      <g style="fill: #a9a9a9" transform="translate(433.003623 334.998438) scale(0.1 -0.1)">
       <defs>
        <path id="DejaVuSans-33" d="M 2597 2516 
Q 3050 2419 3304 2112 
Q 3559 1806 3559 1356 
Q 3559 666 3084 287 
Q 2609 -91 1734 -91 
Q 1441 -91 1130 -33 
Q 819 25 488 141 
L 488 750 
Q 750 597 1062 519 
Q 1375 441 1716 441 
Q 2309 441 2620 675 
Q 2931 909 2931 1356 
Q 2931 1769 2642 2001 
Q 2353 2234 1838 2234 
L 1294 2234 
L 1294 2753 
L 1863 2753 
Q 2328 2753 2575 2939 
Q 2822 3125 2822 3475 
Q 2822 3834 2567 4026 
Q 2313 4219 1838 4219 
Q 1578 4219 1281 4162 
Q 984 4106 628 3988 
L 628 4550 
Q 988 4650 1302 4700 
Q 1616 4750 1894 4750 
Q 2613 4750 3031 4423 
Q 3450 4097 3450 3541 
Q 3450 3153 3228 2886 
Q 3006 2619 2597 2516 
z
" transform="scale(0.015625)"/>
       </defs>
       <use xlink:href="#DejaVuSans-32"/>
       <use xlink:href="#DejaVuSans-30" x="63.623047"/>
       <use xlink:href="#DejaVuSans-32" x="127.246094"/>
       <use xlink:href="#DejaVuSans-33" x="190.869141"/>
       <use xlink:href="#DejaVuSans-2d" x="254.492188"/>
       <use xlink:href="#DejaVuSans-30" x="290.576172"/>
       <use xlink:href="#DejaVuSans-31" x="354.199219"/>
      </g>
     </g>
    </g>
    <g id="xtick_6">
     <g id="line2d_11">
      <path d="M 525.862785 320.4 
L 525.862785 43.2 
" clip-path="url(#p744fc7e142)" style="fill: none; stroke-dasharray: 5.12,1.28,0.8,1.28; stroke-dashoffset: 0; stroke: #b0b0b0; stroke-width: 0.8"/>
     </g>
     <g id="line2d_12">
      <g>
       <use xlink:href="#mc999dda87d" x="525.862785" y="320.4" style="fill: #a9a9a9; stroke: #a9a9a9; stroke-width: 0.8"/>
      </g>
     </g>
     <g id="text_6">
      <!-- 2023-05 -->
      <g style="fill: #a9a9a9" transform="translate(504.971379 334.998438) scale(0.1 -0.1)">
       <use xlink:href="#DejaVuSans-32"/>
       <use xlink:href="#DejaVuSans-30" x="63.623047"/>
       <use xlink:href="#DejaVuSans-32" x="127.246094"/>
       <use xlink:href="#DejaVuSans-33" x="190.869141"/>
       <use xlink:href="#DejaVuSans-2d" x="254.492188"/>
       <use xlink:href="#DejaVuSans-30" x="290.576172"/>
       <use xlink:href="#DejaVuSans-35" x="354.199219"/>
      </g>
     </g>
    </g>
    <g id="xtick_7">
     <g id="line2d_13">
      <path d="M 599.629736 320.4 
L 599.629736 43.2 
" clip-path="url(#p744fc7e142)" style="fill: none; stroke-dasharray: 5.12,1.28,0.8,1.28; stroke-dashoffset: 0; stroke: #b0b0b0; stroke-width: 0.8"/>
     </g>
     <g id="line2d_14">
      <g>
       <use xlink:href="#mc999dda87d" x="599.629736" y="320.4" style="fill: #a9a9a9; stroke: #a9a9a9; stroke-width: 0.8"/>
      </g>
     </g>
     <g id="text_7">
      <!-- 2023-09 -->
      <g style="fill: #a9a9a9" transform="translate(578.73833 334.998438) scale(0.1 -0.1)">
       <use xlink:href="#DejaVuSans-32"/>
       <use xlink:href="#DejaVuSans-30" x="63.623047"/>
       <use xlink:href="#DejaVuSans-32" x="127.246094"/>
       <use xlink:href="#DejaVuSans-33" x="190.869141"/>
       <use xlink:href="#DejaVuSans-2d" x="254.492188"/>
       <use xlink:href="#DejaVuSans-30" x="290.576172"/>
       <use xlink:href="#DejaVuSans-39" x="354.199219"/>
      </g>
     </g>
    </g>
    <g id="xtick_8">
     <g id="line2d_15">
      <path d="M 672.796955 320.4 
L 672.796955 43.2 
" clip-path="url(#p744fc7e142)" style="fill: none; stroke-dasharray: 5.12,1.28,0.8,1.28; stroke-dashoffset: 0; stroke: #b0b0b0; stroke-width: 0.8"/>
     </g>
     <g id="line2d_16">
      <g>
       <use xlink:href="#mc999dda87d" x="672.796955" y="320.4" style="fill: #a9a9a9; stroke: #a9a9a9; stroke-width: 0.8"/>
      </g>
     </g>
     <g id="text_8">
      <!-- 2024-01 -->
      <g style="fill: #a9a9a9" transform="translate(651.905549 334.998438) scale(0.1 -0.1)">
       <defs>
        <path id="DejaVuSans-34" d="M 2419 4116 
L 825 1625 
L 2419 1625 
L 2419 4116 
z
M 2253 4666 
L 3047 4666 
L 3047 1625 
L 3713 1625 
L 3713 1100 
L 3047 1100 
L 3047 0 
L 2419 0 
L 2419 1100 
L 313 1100 
L 313 1709 
L 2253 4666 
z
" transform="scale(0.015625)"/>
       </defs>
       <use xlink:href="#DejaVuSans-32"/>
       <use xlink:href="#DejaVuSans-30" x="63.623047"/>
       <use xlink:href="#DejaVuSans-32" x="127.246094"/>
       <use xlink:href="#DejaVuSans-34" x="190.869141"/>
       <use xlink:href="#DejaVuSans-2d" x="254.492188"/>
       <use xlink:href="#DejaVuSans-30" x="290.576172"/>
       <use xlink:href="#DejaVuSans-31" x="354.199219"/>
      </g>
     </g>
    </g>
    <g id="xtick_9">
     <g id="line2d_17">
      <path d="M 745.364442 320.4 
L 745.364442 43.2 
" clip-path="url(#p744fc7e142)" style="fill: none; stroke-dasharray: 5.12,1.28,0.8,1.28; stroke-dashoffset: 0; stroke: #b0b0b0; stroke-width: 0.8"/>
     </g>
     <g id="line2d_18">
      <g>
       <use xlink:href="#mc999dda87d" x="745.364442" y="320.4" style="fill: #a9a9a9; stroke: #a9a9a9; stroke-width: 0.8"/>
      </g>
     </g>
     <g id="text_9">
      <!-- 2024-05 -->
      <g style="fill: #a9a9a9" transform="translate(724.473036 334.998438) scale(0.1 -0.1)">
       <use xlink:href="#DejaVuSans-32"/>
       <use xlink:href="#DejaVuSans-30" x="63.623047"/>
       <use xlink:href="#DejaVuSans-32" x="127.246094"/>
       <use xlink:href="#DejaVuSans-34" x="190.869141"/>
       <use xlink:href="#DejaVuSans-2d" x="254.492188"/>
       <use xlink:href="#DejaVuSans-30" x="290.576172"/>
       <use xlink:href="#DejaVuSans-35" x="354.199219"/>
      </g>
     </g>
    </g>
   </g>
   <g id="matplotlib.axis_2">
    <g id="ytick_1">
     <g id="line2d_19">
      <path d="M 108 307.841763 
L 777.6 307.841763 
" clip-path="url(#p744fc7e142)" style="fill: none; stroke-dasharray: 5.12,1.28,0.8,1.28; stroke-dashoffset: 0; stroke: #b0b0b0; stroke-width: 0.8"/>
     </g>
     <g id="line2d_20">
      <defs>
       <path id="m935c772bba" d="M 0 0 
L -3.5 0 
" style="stroke: #a9a9a9; stroke-width: 0.8"/>
      </defs>
      <g>
       <use xlink:href="#m935c772bba" x="108" y="307.841763" style="fill: #a9a9a9; stroke: #a9a9a9; stroke-width: 0.8"/>
      </g>
     </g>
     <g id="text_10">
      <!-- 0 -->
      <g style="fill: #a9a9a9" transform="translate(94.6375 311.640982) scale(0.1 -0.1)">
       <use xlink:href="#DejaVuSans-30"/>
      </g>
     </g>
    </g>
    <g id="ytick_2">
     <g id="line2d_21">
      <path d="M 108 274.43109 
L 777.6 274.43109 
" clip-path="url(#p744fc7e142)" style="fill: none; stroke-dasharray: 5.12,1.28,0.8,1.28; stroke-dashoffset: 0; stroke: #b0b0b0; stroke-width: 0.8"/>
     </g>
     <g id="line2d_22">
      <g>
       <use xlink:href="#m935c772bba" x="108" y="274.43109" style="fill: #a9a9a9; stroke: #a9a9a9; stroke-width: 0.8"/>
      </g>
     </g>
     <g id="text_11">
      <!-- 800 -->
      <g style="fill: #a9a9a9" transform="translate(81.9125 278.230309) scale(0.1 -0.1)">
       <defs>
        <path id="DejaVuSans-38" d="M 2034 2216 
Q 1584 2216 1326 1975 
Q 1069 1734 1069 1313 
Q 1069 891 1326 650 
Q 1584 409 2034 409 
Q 2484 409 2743 651 
Q 3003 894 3003 1313 
Q 3003 1734 2745 1975 
Q 2488 2216 2034 2216 
z
M 1403 2484 
Q 997 2584 770 2862 
Q 544 3141 544 3541 
Q 544 4100 942 4425 
Q 1341 4750 2034 4750 
Q 2731 4750 3128 4425 
Q 3525 4100 3525 3541 
Q 3525 3141 3298 2862 
Q 3072 2584 2669 2484 
Q 3125 2378 3379 2068 
Q 3634 1759 3634 1313 
Q 3634 634 3220 271 
Q 2806 -91 2034 -91 
Q 1263 -91 848 271 
Q 434 634 434 1313 
Q 434 1759 690 2068 
Q 947 2378 1403 2484 
z
M 1172 3481 
Q 1172 3119 1398 2916 
Q 1625 2713 2034 2713 
Q 2441 2713 2670 2916 
Q 2900 3119 2900 3481 
Q 2900 3844 2670 4047 
Q 2441 4250 2034 4250 
Q 1625 4250 1398 4047 
Q 1172 3844 1172 3481 
z
" transform="scale(0.015625)"/>
       </defs>
       <use xlink:href="#DejaVuSans-38"/>
       <use xlink:href="#DejaVuSans-30" x="63.623047"/>
       <use xlink:href="#DejaVuSans-30" x="127.246094"/>
      </g>
     </g>
    </g>
    <g id="ytick_3">
     <g id="line2d_23">
      <path d="M 108 241.020418 
L 777.6 241.020418 
" clip-path="url(#p744fc7e142)" style="fill: none; stroke-dasharray: 5.12,1.28,0.8,1.28; stroke-dashoffset: 0; stroke: #b0b0b0; stroke-width: 0.8"/>
     </g>
     <g id="line2d_24">
      <g>
       <use xlink:href="#m935c772bba" x="108" y="241.020418" style="fill: #a9a9a9; stroke: #a9a9a9; stroke-width: 0.8"/>
      </g>
     </g>
     <g id="text_12">
      <!-- 1600 -->
      <g style="fill: #a9a9a9" transform="translate(75.55 244.819636) scale(0.1 -0.1)">
       <defs>
        <path id="DejaVuSans-36" d="M 2113 2584 
Q 1688 2584 1439 2293 
Q 1191 2003 1191 1497 
Q 1191 994 1439 701 
Q 1688 409 2113 409 
Q 2538 409 2786 701 
Q 3034 994 3034 1497 
Q 3034 2003 2786 2293 
Q 2538 2584 2113 2584 
z
M 3366 4563 
L 3366 3988 
Q 3128 4100 2886 4159 
Q 2644 4219 2406 4219 
Q 1781 4219 1451 3797 
Q 1122 3375 1075 2522 
Q 1259 2794 1537 2939 
Q 1816 3084 2150 3084 
Q 2853 3084 3261 2657 
Q 3669 2231 3669 1497 
Q 3669 778 3244 343 
Q 2819 -91 2113 -91 
Q 1303 -91 875 529 
Q 447 1150 447 2328 
Q 447 3434 972 4092 
Q 1497 4750 2381 4750 
Q 2619 4750 2861 4703 
Q 3103 4656 3366 4563 
z
" transform="scale(0.015625)"/>
       </defs>
       <use xlink:href="#DejaVuSans-31"/>
       <use xlink:href="#DejaVuSans-36" x="63.623047"/>
       <use xlink:href="#DejaVuSans-30" x="127.246094"/>
       <use xlink:href="#DejaVuSans-30" x="190.869141"/>
      </g>
     </g>
    </g>
    <g id="ytick_4">
     <g id="line2d_25">
      <path d="M 108 207.609745 
L 777.6 207.609745 
" clip-path="url(#p744fc7e142)" style="fill: none; stroke-dasharray: 5.12,1.28,0.8,1.28; stroke-dashoffset: 0; stroke: #b0b0b0; stroke-width: 0.8"/>
     </g>
     <g id="line2d_26">
      <g>
       <use xlink:href="#m935c772bba" x="108" y="207.609745" style="fill: #a9a9a9; stroke: #a9a9a9; stroke-width: 0.8"/>
      </g>
     </g>
     <g id="text_13">
      <!-- 2400 -->
      <g style="fill: #a9a9a9" transform="translate(75.55 211.408964) scale(0.1 -0.1)">
       <use xlink:href="#DejaVuSans-32"/>
       <use xlink:href="#DejaVuSans-34" x="63.623047"/>
       <use xlink:href="#DejaVuSans-30" x="127.246094"/>
       <use xlink:href="#DejaVuSans-30" x="190.869141"/>
      </g>
     </g>
    </g>
    <g id="ytick_5">
     <g id="line2d_27">
      <path d="M 108 174.199072 
L 777.6 174.199072 
" clip-path="url(#p744fc7e142)" style="fill: none; stroke-dasharray: 5.12,1.28,0.8,1.28; stroke-dashoffset: 0; stroke: #b0b0b0; stroke-width: 0.8"/>
     </g>
     <g id="line2d_28">
      <g>
       <use xlink:href="#m935c772bba" x="108" y="174.199072" style="fill: #a9a9a9; stroke: #a9a9a9; stroke-width: 0.8"/>
      </g>
     </g>
     <g id="text_14">
      <!-- 3200 -->
      <g style="fill: #a9a9a9" transform="translate(75.55 177.998291) scale(0.1 -0.1)">
       <use xlink:href="#DejaVuSans-33"/>
       <use xlink:href="#DejaVuSans-32" x="63.623047"/>
       <use xlink:href="#DejaVuSans-30" x="127.246094"/>
       <use xlink:href="#DejaVuSans-30" x="190.869141"/>
      </g>
     </g>
    </g>
    <g id="ytick_6">
     <g id="line2d_29">
      <path d="M 108 140.788399 
L 777.6 140.788399 
" clip-path="url(#p744fc7e142)" style="fill: none; stroke-dasharray: 5.12,1.28,0.8,1.28; stroke-dashoffset: 0; stroke: #b0b0b0; stroke-width: 0.8"/>
     </g>
     <g id="line2d_30">
      <g>
       <use xlink:href="#m935c772bba" x="108" y="140.788399" style="fill: #a9a9a9; stroke: #a9a9a9; stroke-width: 0.8"/>
      </g>
     </g>
     <g id="text_15">
      <!-- 4000 -->
      <g style="fill: #a9a9a9" transform="translate(75.55 144.587618) scale(0.1 -0.1)">
       <use xlink:href="#DejaVuSans-34"/>
       <use xlink:href="#DejaVuSans-30" x="63.623047"/>
       <use xlink:href="#DejaVuSans-30" x="127.246094"/>
       <use xlink:href="#DejaVuSans-30" x="190.869141"/>
      </g>
     </g>
    </g>
    <g id="ytick_7">
     <g id="line2d_31">
      <path d="M 108 107.377726 
L 777.6 107.377726 
" clip-path="url(#p744fc7e142)" style="fill: none; stroke-dasharray: 5.12,1.28,0.8,1.28; stroke-dashoffset: 0; stroke: #b0b0b0; stroke-width: 0.8"/>
     </g>
     <g id="line2d_32">
      <g>
       <use xlink:href="#m935c772bba" x="108" y="107.377726" style="fill: #a9a9a9; stroke: #a9a9a9; stroke-width: 0.8"/>
      </g>
     </g>
     <g id="text_16">
      <!-- 4800 -->
      <g style="fill: #a9a9a9" transform="translate(75.55 111.176945) scale(0.1 -0.1)">
       <use xlink:href="#DejaVuSans-34"/>
       <use xlink:href="#DejaVuSans-38" x="63.623047"/>
       <use xlink:href="#DejaVuSans-30" x="127.246094"/>
       <use xlink:href="#DejaVuSans-30" x="190.869141"/>
      </g>
     </g>
    </g>
    <g id="ytick_8">
     <g id="line2d_33">
      <path d="M 108 73.967053 
L 777.6 73.967053 
" clip-path="url(#p744fc7e142)" style="fill: none; stroke-dasharray: 5.12,1.28,0.8,1.28; stroke-dashoffset: 0; stroke: #b0b0b0; stroke-width: 0.8"/>
     </g>
     <g id="line2d_34">
      <g>
       <use xlink:href="#m935c772bba" x="108" y="73.967053" style="fill: #a9a9a9; stroke: #a9a9a9; stroke-width: 0.8"/>
      </g>
     </g>
     <g id="text_17">
      <!-- 5600 -->
      <g style="fill: #a9a9a9" transform="translate(75.55 77.766272) scale(0.1 -0.1)">
       <use xlink:href="#DejaVuSans-35"/>
       <use xlink:href="#DejaVuSans-36" x="63.623047"/>
       <use xlink:href="#DejaVuSans-30" x="127.246094"/>
       <use xlink:href="#DejaVuSans-30" x="190.869141"/>
      </g>
     </g>
    </g>
   </g>
   <g id="line2d_35">
    <path d="M 138.436364 307.716473 
L 142.034751 307.42413 
L 142.634483 307.17355 
L 144.433677 306.964733 
L 148.032064 306.254756 
L 151.630452 305.962413 
L 152.230184 305.67007 
L 152.829915 305.503016 
L 153.429646 304.751276 
L 154.029378 304.333643 
L 154.629109 303.038979 
L 155.22884 302.955452 
L 155.828571 302.496056 
L 157.028034 301.911369 
L 159.426959 300.073782 
L 160.626422 299.572622 
L 161.226153 299.154988 
L 163.625078 298.110905 
L 164.22481 297.192111 
L 165.424272 296.356845 
L 166.024004 296.064501 
L 172.021317 295.229234 
L 172.621048 294.936891 
L 176.819167 294.602784 
L 178.618361 294.143387 
L 184.015943 293.433411 
L 184.615674 293.099304 
L 185.215405 293.015777 
L 185.815137 292.765197 
L 187.014599 292.556381 
L 187.61433 292.514617 
L 188.813793 292.264037 
L 189.413524 292.222274 
L 191.81245 291.637587 
L 193.611644 291.470534 
L 194.811106 291.345244 
L 195.410837 291.17819 
L 196.010569 291.136427 
L 197.809763 290.593503 
L 199.009225 290.509977 
L 200.208688 290.342923 
L 201.40815 290.092343 
L 202.007882 289.92529 
L 202.607613 289.131787 
L 204.406807 288.463573 
L 206.206001 288.004176 
L 206.805732 287.711833 
L 207.405464 287.67007 
L 210.40412 286.834803 
L 211.603583 286.751276 
L 212.203314 286.667749 
L 214.002508 286.124826 
L 216.401433 285.540139 
L 217.001164 285.289559 
L 217.600896 285.206032 
L 218.200627 284.913689 
L 224.19794 284.036659 
L 227.196597 283.201392 
L 227.796328 282.825522 
L 230.195253 282.199072 
L 232.594178 280.987935 
L 234.393372 280.570302 
L 234.993103 280.486775 
L 235.592835 280.194432 
L 236.792297 279.985615 
L 237.99176 279.442691 
L 240.990416 278.690951 
L 242.78961 278.231555 
L 243.389342 277.980974 
L 243.989073 277.855684 
L 244.588804 277.605104 
L 245.188536 277.521578 
L 245.788267 277.229234 
L 246.387998 277.062181 
L 247.587461 276.978654 
L 248.786923 276.561021 
L 249.986386 276.477494 
L 250.586117 276.185151 
L 251.78558 276.018097 
L 252.385311 275.809281 
L 253.584774 275.767517 
L 255.983699 275.475174 
L 257.183162 274.890487 
L 263.780206 272.092343 
L 264.379937 271.758237 
L 264.979669 271.131787 
L 266.179131 269.377726 
L 266.778863 269.210673 
L 267.378594 269.210673 
L 268.578056 268.333643 
L 269.177788 268.166589 
L 269.777519 267.874246 
L 270.37725 267.748956 
L 270.976982 267.206032 
L 271.576713 267.038979 
L 273.375907 266.161949 
L 274.575369 264.491415 
L 275.175101 264.115545 
L 275.774832 263.113225 
L 276.374563 262.486775 
L 276.974295 262.194432 
L 277.574026 262.027378 
L 279.972951 260.607425 
L 281.172414 259.646868 
L 281.772145 259.270998 
L 282.371876 258.393968 
L 282.971608 257.057541 
L 283.571339 256.18051 
L 284.17107 255.721114 
L 284.770802 255.470534 
L 287.169727 253.382367 
L 288.369189 252.42181 
L 288.968921 251.92065 
L 289.568652 251.127146 
L 290.768115 250.083063 
L 293.16704 248.537819 
L 293.766771 248.036659 
L 294.366502 247.911369 
L 294.966234 247.660789 
L 296.765428 246.658469 
L 298.564622 245.530858 
L 300.363815 243.776798 
L 300.963547 243.400928 
L 301.563278 243.233875 
L 302.163009 242.941531 
L 303.362472 242.148028 
L 303.962203 241.813921 
L 304.561935 241.730394 
L 309.359785 238.848724 
L 311.158979 237.888167 
L 311.75871 237.345244 
L 314.157635 236.593503 
L 314.757367 236.17587 
L 315.357098 236.05058 
L 316.556561 235.632947 
L 318.355755 234.92297 
L 320.154948 234.254756 
L 321.354411 234.04594 
L 322.553874 233.001856 
L 324.353068 232.166589 
L 325.55253 231.456613 
L 326.751993 231.122506 
L 327.351724 230.746636 
L 327.951455 230.579582 
L 329.750649 229.451972 
L 332.749306 228.741995 
L 334.5485 227.697912 
L 335.148231 227.614385 
L 335.747962 227.405568 
L 336.947425 227.154988 
L 338.746619 225.818561 
L 340.545813 225.400928 
L 341.145544 225.192111 
L 341.745275 224.732715 
L 345.343663 223.563341 
L 345.943395 223.521578 
L 346.543126 223.354524 
L 347.742588 222.853364 
L 351.940708 221.391647 
L 353.14017 221.224594 
L 353.739901 221.057541 
L 354.339633 220.765197 
L 354.939364 220.639907 
L 356.738558 219.80464 
L 358.537752 218.92761 
L 359.137483 218.509977 
L 359.737215 218.342923 
L 361.536408 217.382367 
L 362.735871 217.090023 
L 363.935334 216.463573 
L 365.134796 216.129466 
L 365.734528 216.04594 
L 366.93399 215.335963 
L 367.533721 215.210673 
L 368.733184 214.709513 
L 369.332915 214.584223 
L 369.932647 214.250116 
L 372.331572 213.874246 
L 373.531034 213.289559 
L 374.130766 212.788399 
L 374.730497 211.744316 
L 376.529691 211.410209 
L 378.928616 210.157309 
L 379.528348 210.032019 
L 383.726467 208.027378 
L 384.925929 207.693271 
L 386.125392 207.442691 
L 387.324854 206.858005 
L 387.924586 206.607425 
L 388.524317 206.523898 
L 390.923242 205.479814 
L 392.722436 204.352204 
L 393.322167 204.268677 
L 393.921899 204.059861 
L 394.52163 204.018097 
L 396.920555 203.349884 
L 397.520287 203.308121 
L 398.120018 202.848724 
L 399.319481 202.43109 
L 401.118674 201.846404 
L 401.718406 201.470534 
L 402.318137 201.30348 
L 402.917868 200.885847 
L 403.5176 200.635267 
L 404.717062 200.008817 
L 407.115987 199.29884 
L 407.715719 199.006497 
L 409.514913 197.628306 
L 410.114644 197.503016 
L 411.314107 196.584223 
L 411.913838 196.458933 
L 412.513569 195.540139 
L 413.1133 195.289559 
L 413.713032 194.830162 
L 414.312763 194.746636 
L 415.512226 194.036659 
L 416.111957 193.911369 
L 416.711688 193.660789 
L 417.31142 193.201392 
L 417.911151 192.992575 
L 419.710345 191.781439 
L 422.10927 190.570302 
L 422.709001 190.486775 
L 423.908464 189.943852 
L 424.508195 189.609745 
L 425.107927 188.607425 
L 425.707658 188.064501 
L 426.307389 187.730394 
L 426.90712 187.605104 
L 428.106583 186.853364 
L 428.706314 186.728074 
L 429.905777 186.143387 
L 431.704971 185.391647 
L 432.904433 184.556381 
L 434.103896 183.30348 
L 437.102553 181.131787 
L 438.302015 180.17123 
L 438.901747 179.92065 
L 439.501478 179.252436 
L 440.101209 178.793039 
L 441.300672 178.375406 
L 442.500134 177.581903 
L 443.099866 177.289559 
L 443.699597 177.122506 
L 444.299328 176.704872 
L 444.89906 176.621346 
L 446.698253 175.660789 
L 447.897716 174.950812 
L 453.895029 172.820882 
L 454.49476 172.277958 
L 456.293954 171.609745 
L 457.493417 171.233875 
L 458.093148 170.774478 
L 460.492073 169.521578 
L 461.091805 169.187471 
L 462.291267 166.848724 
L 463.49073 165.42877 
L 464.690193 164.718794 
L 466.489386 164.008817 
L 467.089118 163.92529 
L 467.688849 163.591183 
L 469.488043 163.04826 
L 471.886968 161.962413 
L 472.4867 161.586543 
L 473.686162 161.16891 
L 477.28455 159.080742 
L 477.884281 158.454292 
L 479.083744 157.827842 
L 482.682132 155.948492 
L 483.281863 155.697912 
L 483.881594 155.322042 
L 484.481326 155.196752 
L 485.081057 154.737355 
L 488.079713 153.776798 
L 488.679445 153.609745 
L 489.279176 153.317401 
L 489.878907 152.899768 
L 491.07837 152.565661 
L 492.277833 152.106265 
L 492.877564 151.646868 
L 494.077026 151.270998 
L 494.676758 150.978654 
L 495.276489 150.811601 
L 496.475952 149.976334 
L 497.675414 149.475174 
L 498.874877 148.556381 
L 500.074339 148.138747 
L 500.674071 147.637587 
L 501.273802 147.55406 
L 502.473265 146.67703 
L 503.672727 146.092343 
L 504.272459 145.841763 
L 504.87219 145.257077 
L 508.470578 143.962413 
L 510.269772 143.16891 
L 512.068966 142.625986 
L 513.268428 142.458933 
L 513.868159 142.208353 
L 514.467891 142.124826 
L 515.667353 141.623666 
L 516.267085 141.581903 
L 518.66601 140.704872 
L 520.465204 139.493735 
L 521.064935 139.243155 
L 522.264398 138.616705 
L 522.864129 138.407889 
L 526.462517 136.445012 
L 527.062248 136.319722 
L 528.861442 135.317401 
L 530.660636 134.732715 
L 531.260367 134.482135 
L 532.45983 134.189791 
L 535.458486 133.229234 
L 537.25768 132.936891 
L 539.656605 132.185151 
L 540.256337 131.934571 
L 540.856068 131.851044 
L 541.455799 131.558701 
L 542.655262 131.308121 
L 543.854725 130.890487 
L 544.454456 130.681671 
L 545.653918 130.556381 
L 546.853381 130.264037 
L 548.652575 129.971694 
L 549.252306 129.762877 
L 550.451769 129.637587 
L 553.450425 128.885847 
L 554.649888 128.593503 
L 555.249619 128.259397 
L 558.248276 127.507657 
L 558.848007 127.382367 
L 560.04747 126.964733 
L 561.846664 126.338283 
L 562.446395 126.254756 
L 564.245589 125.628306 
L 564.84532 125.628306 
L 566.044783 125.210673 
L 566.644514 124.625986 
L 567.244245 124.333643 
L 568.443708 123.957773 
L 570.842633 123.038979 
L 571.442365 122.913689 
L 572.042096 122.537819 
L 572.641827 122.412529 
L 573.241558 122.078422 
L 576.240215 121.201392 
L 576.839946 120.825522 
L 577.439678 120.700232 
L 578.039409 120.199072 
L 579.838603 119.864965 
L 581.038065 119.196752 
L 581.637797 118.528538 
L 582.837259 118.277958 
L 587.035378 117.317401 
L 587.63511 117.150348 
L 588.834572 117.108585 
L 589.434304 116.858005 
L 591.833229 116.440371 
L 592.43296 116.189791 
L 594.232154 115.939211 
L 596.631079 115.187471 
L 598.430273 114.769838 
L 600.229467 114.310441 
L 602.028661 113.767517 
L 605.027318 112.890487 
L 606.22678 112.347564 
L 607.426243 111.92993 
L 608.025974 111.470534 
L 609.225437 111.136427 
L 609.825168 110.885847 
L 611.024631 110.55174 
L 613.423556 109.465893 
L 615.22275 109.340603 
L 617.621675 108.67239 
L 618.221406 108.29652 
L 619.420869 107.962413 
L 621.220063 107.043619 
L 621.819794 106.918329 
L 622.419525 106.625986 
L 623.019257 106.584223 
L 629.616301 104.370766 
L 632.015226 103.786079 
L 632.614957 103.619026 
L 633.81442 103.076102 
L 634.414151 102.992575 
L 635.613614 102.658469 
L 636.213345 102.199072 
L 636.813077 101.906729 
L 637.412808 101.196752 
L 638.012539 100.779118 
L 639.212002 100.403248 
L 639.811733 99.943852 
L 644.609584 97.980974 
L 645.209315 97.813921 
L 645.809046 97.438051 
L 648.207971 96.728074 
L 649.407434 96.143387 
L 650.606897 95.433411 
L 651.206628 95.308121 
L 652.40609 94.598144 
L 653.005822 94.347564 
L 654.205284 93.595824 
L 656.004478 92.760557 
L 656.60421 92.342923 
L 657.803672 91.92529 
L 659.003135 91.215313 
L 659.602866 91.006497 
L 660.202597 90.588863 
L 661.40206 90.17123 
L 662.001791 90.04594 
L 664.400717 88.960093 
L 667.399373 87.916009 
L 667.999104 87.874246 
L 668.598836 87.707193 
L 669.198567 87.331323 
L 669.798298 87.247796 
L 670.39803 87.038979 
L 672.197223 86.704872 
L 676.395343 84.574942 
L 676.995074 84.491415 
L 678.794268 83.530858 
L 680.593462 82.862645 
L 682.392656 82.069142 
L 684.791581 81.108585 
L 685.391312 80.941531 
L 685.991043 80.565661 
L 687.190506 80.398608 
L 687.790237 80.022738 
L 688.389969 79.980974 
L 689.589431 79.605104 
L 690.788894 79.020418 
L 691.388625 78.936891 
L 691.988356 78.686311 
L 692.588088 78.561021 
L 694.387282 77.767517 
L 694.987013 77.642227 
L 695.586744 77.391647 
L 698.585401 76.681671 
L 700.384595 76.013457 
L 702.78352 74.635267 
L 703.982983 74.17587 
L 704.582714 73.8 
L 705.782176 73.54942 
L 706.381908 73.215313 
L 706.981639 73.090023 
L 708.181102 72.42181 
L 711.779489 70.751276 
L 713.578683 70.166589 
L 714.778146 69.748956 
L 715.377877 69.540139 
L 716.57734 68.955452 
L 717.776803 68.579582 
L 718.376534 68.454292 
L 719.575996 67.911369 
L 720.175728 67.702552 
L 720.775459 67.368445 
L 721.37519 67.284919 
L 721.974922 67.076102 
L 723.174384 66.407889 
L 725.573309 65.322042 
L 726.772772 64.904408 
L 727.972235 64.277958 
L 728.571966 64.194432 
L 731.570622 62.899768 
L 732.170354 62.482135 
L 734.569279 61.688631 
L 735.16901 61.688631 
L 736.368473 61.145708 
L 736.968204 60.686311 
L 737.567936 60.018097 
L 738.167667 59.516937 
L 738.767398 59.224594 
L 739.367129 59.057541 
L 739.966861 58.681671 
L 740.566592 58.556381 
L 741.166323 58.264037 
L 741.766055 58.18051 
L 742.365786 57.762877 
L 742.965517 57.637587 
L 743.565249 57.345244 
L 745.364442 56.17587 
L 746.563905 55.8 
L 747.163636 55.8 
L 747.163636 55.8 
" clip-path="url(#p744fc7e142)" style="fill: none; stroke: #1f77b4; stroke-width: 1.5; stroke-linecap: square"/>
   </g>
   <g id="line2d_36">
    <path d="M 139.036095 307.8 
L 140.835289 307.716473 
L 142.634483 307.67471 
L 146.232871 307.591183 
L 149.231527 307.465893 
L 151.630452 307.465893 
L 152.230184 307.29884 
L 154.629109 307.215313 
L 156.428303 307.006497 
L 158.227497 306.839443 
L 161.825884 306.67239 
L 162.425616 306.67239 
L 163.025347 306.5471 
L 165.424272 306.463573 
L 166.623735 306.380046 
L 171.421585 306.29652 
L 174.420242 306.17123 
L 181.617017 306.087703 
L 184.615674 305.962413 
L 188.214062 305.878886 
L 190.612987 305.79536 
L 196.010569 305.711833 
L 197.809763 305.67007 
L 199.608957 305.628306 
L 201.40815 305.41949 
L 205.006538 305.377726 
L 206.206001 305.2942 
L 210.40412 305.210673 
L 217.001164 304.834803 
L 221.199283 304.751276 
L 222.398746 304.667749 
L 224.19794 304.584223 
L 227.796328 304.417169 
L 230.195253 304.375406 
L 231.994447 304.208353 
L 239.790954 303.748956 
L 242.78961 303.665429 
L 248.187192 303.373086 
L 249.986386 303.289559 
L 255.983699 302.955452 
L 262.580743 302.871926 
L 264.979669 302.621346 
L 266.179131 302.537819 
L 273.975638 301.911369 
L 277.574026 301.451972 
L 279.972951 301.368445 
L 284.770802 300.741995 
L 288.369189 300.658469 
L 290.168383 300.491415 
L 291.367846 300.449652 
L 292.567309 300.324362 
L 294.366502 300.240835 
L 295.565965 300.073782 
L 298.564622 299.739675 
L 300.963547 299.656148 
L 302.163009 299.572622 
L 304.561935 299.489095 
L 305.761397 299.405568 
L 308.760054 299.113225 
L 309.359785 298.946172 
L 312.958173 298.779118 
L 315.956829 298.695592 
L 323.753336 298.236195 
L 325.55253 298.152668 
L 333.349037 297.693271 
L 337.547156 297.609745 
L 338.146888 297.484455 
L 342.944738 297.400928 
L 347.142857 297.192111 
L 353.739901 297.108585 
L 357.938021 296.899768 
L 362.735871 296.816241 
L 367.533721 296.565661 
L 371.731841 296.482135 
L 383.126735 295.772158 
L 387.924586 295.688631 
L 393.921899 295.354524 
L 395.121361 295.312761 
L 397.520287 295.062181 
L 403.5176 294.728074 
L 407.115987 294.644548 
L 408.915181 294.602784 
L 410.714375 294.561021 
L 412.513569 294.393968 
L 417.31142 294.310441 
L 418.510882 294.101624 
L 419.710345 294.018097 
L 422.709001 293.892807 
L 423.908464 293.809281 
L 425.107927 293.725754 
L 430.505508 293.642227 
L 431.704971 293.516937 
L 434.103896 293.475174 
L 434.703627 293.349884 
L 435.90309 293.266357 
L 436.502821 293.141067 
L 438.302015 293.057541 
L 447.897716 292.472854 
L 450.296641 292.389327 
L 453.295298 292.264037 
L 461.691536 292.18051 
L 465.889655 291.971694 
L 470.687506 291.888167 
L 473.086431 291.80464 
L 475.485356 291.762877 
L 476.684819 291.637587 
L 479.083744 291.55406 
L 485.081057 291.219954 
L 488.679445 291.17819 
L 490.478639 291.011137 
L 492.277833 290.969374 
L 496.475952 290.885847 
L 498.874877 290.80232 
L 506.071652 290.718794 
L 509.070309 290.593503 
L 512.668697 290.509977 
L 514.467891 290.30116 
L 518.066279 290.259397 
L 519.865472 290.092343 
L 522.264398 290.008817 
L 529.461173 289.92529 
L 532.45983 289.8 
L 542.655262 289.758237 
L 543.854725 289.67471 
L 545.653918 289.632947 
L 553.450425 289.54942 
L 554.649888 289.465893 
L 561.246932 289.382367 
L 563.645858 289.29884 
L 570.842633 289.257077 
L 572.042096 289.17355 
L 581.038065 289.131787 
L 582.837259 288.964733 
L 597.830542 288.881206 
L 599.629736 288.839443 
L 615.822481 288.755916 
L 618.221406 288.67239 
L 628.416838 288.588863 
L 629.616301 288.505336 
L 632.614957 288.42181 
L 634.414151 288.254756 
L 637.412808 288.17123 
L 639.811733 288.087703 
L 643.410121 288.004176 
L 645.209315 287.962413 
L 647.60824 287.878886 
L 649.407434 287.837123 
L 652.40609 287.753596 
L 653.605553 287.67007 
L 657.203941 287.586543 
L 660.202597 287.461253 
L 661.40206 287.41949 
L 662.601523 287.335963 
L 664.400717 287.2942 
L 666.799642 287.210673 
L 669.198567 287.127146 
L 676.995074 287.043619 
L 679.393999 286.960093 
L 684.19185 286.876566 
L 688.389969 286.667749 
L 693.78755 286.584223 
L 694.987013 286.500696 
L 705.782176 286.417169 
L 707.58137 286.375406 
L 710.580027 286.333643 
L 712.978952 286.083063 
L 714.778146 286.041299 
L 718.376534 285.957773 
L 724.973578 285.581903 
L 727.372503 285.498376 
L 729.771429 285.414849 
L 733.369816 285.331323 
L 734.569279 285.247796 
L 736.968204 285.164269 
L 739.367129 284.913689 
L 741.766055 284.830162 
L 745.964174 284.746636 
L 746.563905 284.621346 
L 747.163636 284.621346 
L 747.163636 284.621346 
" clip-path="url(#p744fc7e142)" style="fill: none; stroke: #ff7f0e; stroke-width: 1.5; stroke-linecap: square"/>
   </g>
   <g id="patch_3">
    <path d="M 108 320.4 
L 108 43.2 
" style="fill: none; stroke: #a9a9a9; stroke-width: 0.8; stroke-linejoin: miter; stroke-linecap: square"/>
   </g>
   <g id="patch_4">
    <path d="M 777.6 320.4 
L 777.6 43.2 
" style="fill: none"/>
   </g>
   <g id="patch_5">
    <path d="M 108 320.4 
L 777.6 320.4 
" style="fill: none; stroke: #a9a9a9; stroke-width: 0.8; stroke-linejoin: miter; stroke-linecap: square"/>
   </g>
   <g id="patch_6">
    <path d="M 108 43.2 
L 777.6 43.2 
" style="fill: none"/>
   </g>
   <g id="text_18">
    <!-- get_subscribe history -->
    <g style="fill: #a9a9a9" transform="translate(378.6075 37.2) scale(0.12 -0.12)">
     <defs>
      <path id="DejaVuSans-67" d="M 2906 1791 
Q 2906 2416 2648 2759 
Q 2391 3103 1925 3103 
Q 1463 3103 1205 2759 
Q 947 2416 947 1791 
Q 947 1169 1205 825 
Q 1463 481 1925 481 
Q 2391 481 2648 825 
Q 2906 1169 2906 1791 
z
M 3481 434 
Q 3481 -459 3084 -895 
Q 2688 -1331 1869 -1331 
Q 1566 -1331 1297 -1286 
Q 1028 -1241 775 -1147 
L 775 -588 
Q 1028 -725 1275 -790 
Q 1522 -856 1778 -856 
Q 2344 -856 2625 -561 
Q 2906 -266 2906 331 
L 2906 616 
Q 2728 306 2450 153 
Q 2172 0 1784 0 
Q 1141 0 747 490 
Q 353 981 353 1791 
Q 353 2603 747 3093 
Q 1141 3584 1784 3584 
Q 2172 3584 2450 3431 
Q 2728 3278 2906 2969 
L 2906 3500 
L 3481 3500 
L 3481 434 
z
" transform="scale(0.015625)"/>
      <path id="DejaVuSans-65" d="M 3597 1894 
L 3597 1613 
L 953 1613 
Q 991 1019 1311 708 
Q 1631 397 2203 397 
Q 2534 397 2845 478 
Q 3156 559 3463 722 
L 3463 178 
Q 3153 47 2828 -22 
Q 2503 -91 2169 -91 
Q 1331 -91 842 396 
Q 353 884 353 1716 
Q 353 2575 817 3079 
Q 1281 3584 2069 3584 
Q 2775 3584 3186 3129 
Q 3597 2675 3597 1894 
z
M 3022 2063 
Q 3016 2534 2758 2815 
Q 2500 3097 2075 3097 
Q 1594 3097 1305 2825 
Q 1016 2553 972 2059 
L 3022 2063 
z
" transform="scale(0.015625)"/>
      <path id="DejaVuSans-74" d="M 1172 4494 
L 1172 3500 
L 2356 3500 
L 2356 3053 
L 1172 3053 
L 1172 1153 
Q 1172 725 1289 603 
Q 1406 481 1766 481 
L 2356 481 
L 2356 0 
L 1766 0 
Q 1100 0 847 248 
Q 594 497 594 1153 
L 594 3053 
L 172 3053 
L 172 3500 
L 594 3500 
L 594 4494 
L 1172 4494 
z
" transform="scale(0.015625)"/>
      <path id="DejaVuSans-5f" d="M 3263 -1063 
L 3263 -1509 
L -63 -1509 
L -63 -1063 
L 3263 -1063 
z
" transform="scale(0.015625)"/>
      <path id="DejaVuSans-73" d="M 2834 3397 
L 2834 2853 
Q 2591 2978 2328 3040 
Q 2066 3103 1784 3103 
Q 1356 3103 1142 2972 
Q 928 2841 928 2578 
Q 928 2378 1081 2264 
Q 1234 2150 1697 2047 
L 1894 2003 
Q 2506 1872 2764 1633 
Q 3022 1394 3022 966 
Q 3022 478 2636 193 
Q 2250 -91 1575 -91 
Q 1294 -91 989 -36 
Q 684 19 347 128 
L 347 722 
Q 666 556 975 473 
Q 1284 391 1588 391 
Q 1994 391 2212 530 
Q 2431 669 2431 922 
Q 2431 1156 2273 1281 
Q 2116 1406 1581 1522 
L 1381 1569 
Q 847 1681 609 1914 
Q 372 2147 372 2553 
Q 372 3047 722 3315 
Q 1072 3584 1716 3584 
Q 2034 3584 2315 3537 
Q 2597 3491 2834 3397 
z
" transform="scale(0.015625)"/>
      <path id="DejaVuSans-75" d="M 544 1381 
L 544 3500 
L 1119 3500 
L 1119 1403 
Q 1119 906 1312 657 
Q 1506 409 1894 409 
Q 2359 409 2629 706 
Q 2900 1003 2900 1516 
L 2900 3500 
L 3475 3500 
L 3475 0 
L 2900 0 
L 2900 538 
Q 2691 219 2414 64 
Q 2138 -91 1772 -91 
Q 1169 -91 856 284 
Q 544 659 544 1381 
z
M 1991 3584 
L 1991 3584 
z
" transform="scale(0.015625)"/>
      <path id="DejaVuSans-62" d="M 3116 1747 
Q 3116 2381 2855 2742 
Q 2594 3103 2138 3103 
Q 1681 3103 1420 2742 
Q 1159 2381 1159 1747 
Q 1159 1113 1420 752 
Q 1681 391 2138 391 
Q 2594 391 2855 752 
Q 3116 1113 3116 1747 
z
M 1159 2969 
Q 1341 3281 1617 3432 
Q 1894 3584 2278 3584 
Q 2916 3584 3314 3078 
Q 3713 2572 3713 1747 
Q 3713 922 3314 415 
Q 2916 -91 2278 -91 
Q 1894 -91 1617 61 
Q 1341 213 1159 525 
L 1159 0 
L 581 0 
L 581 4863 
L 1159 4863 
L 1159 2969 
z
" transform="scale(0.015625)"/>
      <path id="DejaVuSans-63" d="M 3122 3366 
L 3122 2828 
Q 2878 2963 2633 3030 
Q 2388 3097 2138 3097 
Q 1578 3097 1268 2742 
Q 959 2388 959 1747 
Q 959 1106 1268 751 
Q 1578 397 2138 397 
Q 2388 397 2633 464 
Q 2878 531 3122 666 
L 3122 134 
Q 2881 22 2623 -34 
Q 2366 -91 2075 -91 
Q 1284 -91 818 406 
Q 353 903 353 1747 
Q 353 2603 823 3093 
Q 1294 3584 2113 3584 
Q 2378 3584 2631 3529 
Q 2884 3475 3122 3366 
z
" transform="scale(0.015625)"/>
      <path id="DejaVuSans-72" d="M 2631 2963 
Q 2534 3019 2420 3045 
Q 2306 3072 2169 3072 
Q 1681 3072 1420 2755 
Q 1159 2438 1159 1844 
L 1159 0 
L 581 0 
L 581 3500 
L 1159 3500 
L 1159 2956 
Q 1341 3275 1631 3429 
Q 1922 3584 2338 3584 
Q 2397 3584 2469 3576 
Q 2541 3569 2628 3553 
L 2631 2963 
z
" transform="scale(0.015625)"/>
      <path id="DejaVuSans-69" d="M 603 3500 
L 1178 3500 
L 1178 0 
L 603 0 
L 603 3500 
z
M 603 4863 
L 1178 4863 
L 1178 4134 
L 603 4134 
L 603 4863 
z
" transform="scale(0.015625)"/>
      <path id="DejaVuSans-20" transform="scale(0.015625)"/>
      <path id="DejaVuSans-68" d="M 3513 2113 
L 3513 0 
L 2938 0 
L 2938 2094 
Q 2938 2591 2744 2837 
Q 2550 3084 2163 3084 
Q 1697 3084 1428 2787 
Q 1159 2491 1159 1978 
L 1159 0 
L 581 0 
L 581 4863 
L 1159 4863 
L 1159 2956 
Q 1366 3272 1645 3428 
Q 1925 3584 2291 3584 
Q 2894 3584 3203 3211 
Q 3513 2838 3513 2113 
z
" transform="scale(0.015625)"/>
      <path id="DejaVuSans-6f" d="M 1959 3097 
Q 1497 3097 1228 2736 
Q 959 2375 959 1747 
Q 959 1119 1226 758 
Q 1494 397 1959 397 
Q 2419 397 2687 759 
Q 2956 1122 2956 1747 
Q 2956 2369 2687 2733 
Q 2419 3097 1959 3097 
z
M 1959 3584 
Q 2709 3584 3137 3096 
Q 3566 2609 3566 1747 
Q 3566 888 3137 398 
Q 2709 -91 1959 -91 
Q 1206 -91 779 398 
Q 353 888 353 1747 
Q 353 2609 779 3096 
Q 1206 3584 1959 3584 
z
" transform="scale(0.015625)"/>
      <path id="DejaVuSans-79" d="M 2059 -325 
Q 1816 -950 1584 -1140 
Q 1353 -1331 966 -1331 
L 506 -1331 
L 506 -850 
L 844 -850 
Q 1081 -850 1212 -737 
Q 1344 -625 1503 -206 
L 1606 56 
L 191 3500 
L 800 3500 
L 1894 763 
L 2988 3500 
L 3597 3500 
L 2059 -325 
z
" transform="scale(0.015625)"/>
     </defs>
     <use xlink:href="#DejaVuSans-67"/>
     <use xlink:href="#DejaVuSans-65" x="63.476562"/>
     <use xlink:href="#DejaVuSans-74" x="125"/>
     <use xlink:href="#DejaVuSans-5f" x="164.208984"/>
     <use xlink:href="#DejaVuSans-73" x="214.208984"/>
     <use xlink:href="#DejaVuSans-75" x="266.308594"/>
     <use xlink:href="#DejaVuSans-62" x="329.6875"/>
     <use xlink:href="#DejaVuSans-73" x="393.164062"/>
     <use xlink:href="#DejaVuSans-63" x="445.263672"/>
     <use xlink:href="#DejaVuSans-72" x="500.244141"/>
     <use xlink:href="#DejaVuSans-69" x="541.357422"/>
     <use xlink:href="#DejaVuSans-62" x="569.140625"/>
     <use xlink:href="#DejaVuSans-65" x="632.617188"/>
     <use xlink:href="#DejaVuSans-20" x="694.140625"/>
     <use xlink:href="#DejaVuSans-68" x="725.927734"/>
     <use xlink:href="#DejaVuSans-69" x="789.306641"/>
     <use xlink:href="#DejaVuSans-73" x="817.089844"/>
     <use xlink:href="#DejaVuSans-74" x="869.189453"/>
     <use xlink:href="#DejaVuSans-6f" x="908.398438"/>
     <use xlink:href="#DejaVuSans-72" x="969.580078"/>
     <use xlink:href="#DejaVuSans-79" x="1010.693359"/>
    </g>
   </g>
   <g id="legend_1">
    <g id="line2d_37">
     <path d="M 815.08 328.498438 
L 825.08 328.498438 
L 835.08 328.498438 
" style="fill: none; stroke: #1f77b4; stroke-width: 1.5; stroke-linecap: square"/>
    </g>
    <g id="text_19">
     <!-- star -->
     <g style="fill: #a9a9a9" transform="translate(843.08 331.998438) scale(0.1 -0.1)">
      <defs>
       <path id="DejaVuSans-61" d="M 2194 1759 
Q 1497 1759 1228 1600 
Q 959 1441 959 1056 
Q 959 750 1161 570 
Q 1363 391 1709 391 
Q 2188 391 2477 730 
Q 2766 1069 2766 1631 
L 2766 1759 
L 2194 1759 
z
M 3341 1997 
L 3341 0 
L 2766 0 
L 2766 531 
Q 2569 213 2275 61 
Q 1981 -91 1556 -91 
Q 1019 -91 701 211 
Q 384 513 384 1019 
Q 384 1609 779 1909 
Q 1175 2209 1959 2209 
L 2766 2209 
L 2766 2266 
Q 2766 2663 2505 2880 
Q 2244 3097 1772 3097 
Q 1472 3097 1187 3025 
Q 903 2953 641 2809 
L 641 3341 
Q 956 3463 1253 3523 
Q 1550 3584 1831 3584 
Q 2591 3584 2966 3190 
Q 3341 2797 3341 1997 
z
" transform="scale(0.015625)"/>
      </defs>
      <use xlink:href="#DejaVuSans-73"/>
      <use xlink:href="#DejaVuSans-74" x="52.099609"/>
      <use xlink:href="#DejaVuSans-61" x="91.308594"/>
      <use xlink:href="#DejaVuSans-72" x="152.587891"/>
     </g>
    </g>
    <g id="line2d_38">
     <path d="M 815.08 343.176562 
L 825.08 343.176562 
L 835.08 343.176562 
" style="fill: none; stroke: #ff7f0e; stroke-width: 1.5; stroke-linecap: square"/>
    </g>
    <g id="text_20">
     <!-- fork -->
     <g style="fill: #a9a9a9" transform="translate(843.08 346.676562) scale(0.1 -0.1)">
      <defs>
       <path id="DejaVuSans-66" d="M 2375 4863 
L 2375 4384 
L 1825 4384 
Q 1516 4384 1395 4259 
Q 1275 4134 1275 3809 
L 1275 3500 
L 2222 3500 
L 2222 3053 
L 1275 3053 
L 1275 0 
L 697 0 
L 697 3053 
L 147 3053 
L 147 3500 
L 697 3500 
L 697 3744 
Q 697 4328 969 4595 
Q 1241 4863 1831 4863 
L 2375 4863 
z
" transform="scale(0.015625)"/>
       <path id="DejaVuSans-6b" d="M 581 4863 
L 1159 4863 
L 1159 1991 
L 2875 3500 
L 3609 3500 
L 1753 1863 
L 3688 0 
L 2938 0 
L 1159 1709 
L 1159 0 
L 581 0 
L 581 4863 
z
" transform="scale(0.015625)"/>
      </defs>
      <use xlink:href="#DejaVuSans-66"/>
      <use xlink:href="#DejaVuSans-6f" x="35.205078"/>
      <use xlink:href="#DejaVuSans-72" x="96.386719"/>
      <use xlink:href="#DejaVuSans-6b" x="137.5"/>
     </g>
    </g>
   </g>
  </g>
 </g>
 <defs>
  <clipPath id="p744fc7e142">
   <rect x="108" y="43.2" width="669.6" height="277.2"/>
  </clipPath>
 </defs>
</svg>
