<?xml version="1.0" encoding="utf-8" standalone="no"?>
<!DOCTYPE svg PUBLIC "-//W3C//DTD SVG 1.1//EN"
  "http://www.w3.org/Graphics/SVG/1.1/DTD/svg11.dtd">
<svg xmlns:xlink="http://www.w3.org/1999/xlink" width="864pt" height="360pt" viewBox="0 0 864 360" xmlns="http://www.w3.org/2000/svg" version="1.1">
 <metadata>
  <rdf:RDF xmlns:dc="http://purl.org/dc/elements/1.1/" xmlns:cc="http://creativecommons.org/ns#" xmlns:rdf="http://www.w3.org/1999/02/22-rdf-syntax-ns#">
   <cc:Work>
    <dc:type rdf:resource="http://purl.org/dc/dcmitype/StillImage"/>
    <dc:date>2024-05-03T20:04:46.500865</dc:date>
    <dc:format>image/svg+xml</dc:format>
    <dc:creator>
     <cc:Agent>
      <dc:title>Matplotlib v3.8.4, https://matplotlib.org/</dc:title>
     </cc:Agent>
    </dc:creator>
   </cc:Work>
  </rdf:RDF>
 </metadata>
 <defs>
  <style type="text/css">*{stroke-linejoin: round; stroke-linecap: butt}</style>
 </defs>
 <g id="figure_1">
  <g id="patch_1">
   <path d="M 0 360 
L 864 360 
L 864 0 
L 0 0 
L 0 360 
z
" style="fill: none; opacity: 0"/>
  </g>
  <g id="axes_1">
   <g id="patch_2">
    <path d="M 108 320.4 
L 777.6 320.4 
L 777.6 43.2 
L 108 43.2 
L 108 320.4 
z
" style="fill: none; opacity: 0"/>
   </g>
   <g id="matplotlib.axis_1">
    <g id="xtick_1">
     <g id="line2d_1">
      <path d="M 161.848951 320.4 
L 161.848951 43.2 
" clip-path="url(#pc9e69cc00a)" style="fill: none; stroke-dasharray: 5.12,1.28,0.8,1.28; stroke-dashoffset: 0; stroke: #b0b0b0; stroke-width: 0.8"/>
     </g>
     <g id="line2d_2">
      <defs>
       <path id="mbcbe2ef9a2" d="M 0 0 
L 0 3.5 
" style="stroke: #a9a9a9; stroke-width: 0.8"/>
      </defs>
      <g>
       <use xlink:href="#mbcbe2ef9a2" x="161.848951" y="320.4" style="fill: #a9a9a9; stroke: #a9a9a9; stroke-width: 0.8"/>
      </g>
     </g>
     <g id="text_1">
      <!-- 2021-09 -->
      <g style="fill: #a9a9a9" transform="translate(140.957545 334.998438) scale(0.1 -0.1)">
       <defs>
        <path id="DejaVuSans-32" d="M 1228 531 
L 3431 531 
L 3431 0 
L 469 0 
L 469 531 
Q 828 903 1448 1529 
Q 2069 2156 2228 2338 
Q 2531 2678 2651 2914 
Q 2772 3150 2772 3378 
Q 2772 3750 2511 3984 
Q 2250 4219 1831 4219 
Q 1534 4219 1204 4116 
Q 875 4013 500 3803 
L 500 4441 
Q 881 4594 1212 4672 
Q 1544 4750 1819 4750 
Q 2544 4750 2975 4387 
Q 3406 4025 3406 3419 
Q 3406 3131 3298 2873 
Q 3191 2616 2906 2266 
Q 2828 2175 2409 1742 
Q 1991 1309 1228 531 
z
" transform="scale(0.015625)"/>
        <path id="DejaVuSans-30" d="M 2034 4250 
Q 1547 4250 1301 3770 
Q 1056 3291 1056 2328 
Q 1056 1369 1301 889 
Q 1547 409 2034 409 
Q 2525 409 2770 889 
Q 3016 1369 3016 2328 
Q 3016 3291 2770 3770 
Q 2525 4250 2034 4250 
z
M 2034 4750 
Q 2819 4750 3233 4129 
Q 3647 3509 3647 2328 
Q 3647 1150 3233 529 
Q 2819 -91 2034 -91 
Q 1250 -91 836 529 
Q 422 1150 422 2328 
Q 422 3509 836 4129 
Q 1250 4750 2034 4750 
z
" transform="scale(0.015625)"/>
        <path id="DejaVuSans-31" d="M 794 531 
L 1825 531 
L 1825 4091 
L 703 3866 
L 703 4441 
L 1819 4666 
L 2450 4666 
L 2450 531 
L 3481 531 
L 3481 0 
L 794 0 
L 794 531 
z
" transform="scale(0.015625)"/>
        <path id="DejaVuSans-2d" d="M 313 2009 
L 1997 2009 
L 1997 1497 
L 313 1497 
L 313 2009 
z
" transform="scale(0.015625)"/>
        <path id="DejaVuSans-39" d="M 703 97 
L 703 672 
Q 941 559 1184 500 
Q 1428 441 1663 441 
Q 2288 441 2617 861 
Q 2947 1281 2994 2138 
Q 2813 1869 2534 1725 
Q 2256 1581 1919 1581 
Q 1219 1581 811 2004 
Q 403 2428 403 3163 
Q 403 3881 828 4315 
Q 1253 4750 1959 4750 
Q 2769 4750 3195 4129 
Q 3622 3509 3622 2328 
Q 3622 1225 3098 567 
Q 2575 -91 1691 -91 
Q 1453 -91 1209 -44 
Q 966 3 703 97 
z
M 1959 2075 
Q 2384 2075 2632 2365 
Q 2881 2656 2881 3163 
Q 2881 3666 2632 3958 
Q 2384 4250 1959 4250 
Q 1534 4250 1286 3958 
Q 1038 3666 1038 3163 
Q 1038 2656 1286 2365 
Q 1534 2075 1959 2075 
z
" transform="scale(0.015625)"/>
       </defs>
       <use xlink:href="#DejaVuSans-32"/>
       <use xlink:href="#DejaVuSans-30" x="63.623047"/>
       <use xlink:href="#DejaVuSans-32" x="127.246094"/>
       <use xlink:href="#DejaVuSans-31" x="190.869141"/>
       <use xlink:href="#DejaVuSans-2d" x="254.492188"/>
       <use xlink:href="#DejaVuSans-30" x="290.576172"/>
       <use xlink:href="#DejaVuSans-39" x="354.199219"/>
      </g>
     </g>
    </g>
    <g id="xtick_2">
     <g id="line2d_3">
      <path d="M 235.088327 320.4 
L 235.088327 43.2 
" clip-path="url(#pc9e69cc00a)" style="fill: none; stroke-dasharray: 5.12,1.28,0.8,1.28; stroke-dashoffset: 0; stroke: #b0b0b0; stroke-width: 0.8"/>
     </g>
     <g id="line2d_4">
      <g>
       <use xlink:href="#mbcbe2ef9a2" x="235.088327" y="320.4" style="fill: #a9a9a9; stroke: #a9a9a9; stroke-width: 0.8"/>
      </g>
     </g>
     <g id="text_2">
      <!-- 2022-01 -->
      <g style="fill: #a9a9a9" transform="translate(214.196921 334.998438) scale(0.1 -0.1)">
       <use xlink:href="#DejaVuSans-32"/>
       <use xlink:href="#DejaVuSans-30" x="63.623047"/>
       <use xlink:href="#DejaVuSans-32" x="127.246094"/>
       <use xlink:href="#DejaVuSans-32" x="190.869141"/>
       <use xlink:href="#DejaVuSans-2d" x="254.492188"/>
       <use xlink:href="#DejaVuSans-30" x="290.576172"/>
       <use xlink:href="#DejaVuSans-31" x="354.199219"/>
      </g>
     </g>
    </g>
    <g id="xtick_3">
     <g id="line2d_5">
      <path d="M 307.127058 320.4 
L 307.127058 43.2 
" clip-path="url(#pc9e69cc00a)" style="fill: none; stroke-dasharray: 5.12,1.28,0.8,1.28; stroke-dashoffset: 0; stroke: #b0b0b0; stroke-width: 0.8"/>
     </g>
     <g id="line2d_6">
      <g>
       <use xlink:href="#mbcbe2ef9a2" x="307.127058" y="320.4" style="fill: #a9a9a9; stroke: #a9a9a9; stroke-width: 0.8"/>
      </g>
     </g>
     <g id="text_3">
      <!-- 2022-05 -->
      <g style="fill: #a9a9a9" transform="translate(286.235651 334.998438) scale(0.1 -0.1)">
       <defs>
        <path id="DejaVuSans-35" d="M 691 4666 
L 3169 4666 
L 3169 4134 
L 1269 4134 
L 1269 2991 
Q 1406 3038 1543 3061 
Q 1681 3084 1819 3084 
Q 2600 3084 3056 2656 
Q 3513 2228 3513 1497 
Q 3513 744 3044 326 
Q 2575 -91 1722 -91 
Q 1428 -91 1123 -41 
Q 819 9 494 109 
L 494 744 
Q 775 591 1075 516 
Q 1375 441 1709 441 
Q 2250 441 2565 725 
Q 2881 1009 2881 1497 
Q 2881 1984 2565 2268 
Q 2250 2553 1709 2553 
Q 1456 2553 1204 2497 
Q 953 2441 691 2322 
L 691 4666 
z
" transform="scale(0.015625)"/>
       </defs>
       <use xlink:href="#DejaVuSans-32"/>
       <use xlink:href="#DejaVuSans-30" x="63.623047"/>
       <use xlink:href="#DejaVuSans-32" x="127.246094"/>
       <use xlink:href="#DejaVuSans-32" x="190.869141"/>
       <use xlink:href="#DejaVuSans-2d" x="254.492188"/>
       <use xlink:href="#DejaVuSans-30" x="290.576172"/>
       <use xlink:href="#DejaVuSans-35" x="354.199219"/>
      </g>
     </g>
    </g>
    <g id="xtick_4">
     <g id="line2d_7">
      <path d="M 380.966756 320.4 
L 380.966756 43.2 
" clip-path="url(#pc9e69cc00a)" style="fill: none; stroke-dasharray: 5.12,1.28,0.8,1.28; stroke-dashoffset: 0; stroke: #b0b0b0; stroke-width: 0.8"/>
     </g>
     <g id="line2d_8">
      <g>
       <use xlink:href="#mbcbe2ef9a2" x="380.966756" y="320.4" style="fill: #a9a9a9; stroke: #a9a9a9; stroke-width: 0.8"/>
      </g>
     </g>
     <g id="text_4">
      <!-- 2022-09 -->
      <g style="fill: #a9a9a9" transform="translate(360.07535 334.998438) scale(0.1 -0.1)">
       <use xlink:href="#DejaVuSans-32"/>
       <use xlink:href="#DejaVuSans-30" x="63.623047"/>
       <use xlink:href="#DejaVuSans-32" x="127.246094"/>
       <use xlink:href="#DejaVuSans-32" x="190.869141"/>
       <use xlink:href="#DejaVuSans-2d" x="254.492188"/>
       <use xlink:href="#DejaVuSans-30" x="290.576172"/>
       <use xlink:href="#DejaVuSans-39" x="354.199219"/>
      </g>
     </g>
    </g>
    <g id="xtick_5">
     <g id="line2d_9">
      <path d="M 454.206132 320.4 
L 454.206132 43.2 
" clip-path="url(#pc9e69cc00a)" style="fill: none; stroke-dasharray: 5.12,1.28,0.8,1.28; stroke-dashoffset: 0; stroke: #b0b0b0; stroke-width: 0.8"/>
     </g>
     <g id="line2d_10">
      <g>
       <use xlink:href="#mbcbe2ef9a2" x="454.206132" y="320.4" style="fill: #a9a9a9; stroke: #a9a9a9; stroke-width: 0.8"/>
      </g>
     </g>
     <g id="text_5">
      <!-- 2023-01 -->
      <g style="fill: #a9a9a9" transform="translate(433.314726 334.998438) scale(0.1 -0.1)">
       <defs>
        <path id="DejaVuSans-33" d="M 2597 2516 
Q 3050 2419 3304 2112 
Q 3559 1806 3559 1356 
Q 3559 666 3084 287 
Q 2609 -91 1734 -91 
Q 1441 -91 1130 -33 
Q 819 25 488 141 
L 488 750 
Q 750 597 1062 519 
Q 1375 441 1716 441 
Q 2309 441 2620 675 
Q 2931 909 2931 1356 
Q 2931 1769 2642 2001 
Q 2353 2234 1838 2234 
L 1294 2234 
L 1294 2753 
L 1863 2753 
Q 2328 2753 2575 2939 
Q 2822 3125 2822 3475 
Q 2822 3834 2567 4026 
Q 2313 4219 1838 4219 
Q 1578 4219 1281 4162 
Q 984 4106 628 3988 
L 628 4550 
Q 988 4650 1302 4700 
Q 1616 4750 1894 4750 
Q 2613 4750 3031 4423 
Q 3450 4097 3450 3541 
Q 3450 3153 3228 2886 
Q 3006 2619 2597 2516 
z
" transform="scale(0.015625)"/>
       </defs>
       <use xlink:href="#DejaVuSans-32"/>
       <use xlink:href="#DejaVuSans-30" x="63.623047"/>
       <use xlink:href="#DejaVuSans-32" x="127.246094"/>
       <use xlink:href="#DejaVuSans-33" x="190.869141"/>
       <use xlink:href="#DejaVuSans-2d" x="254.492188"/>
       <use xlink:href="#DejaVuSans-30" x="290.576172"/>
       <use xlink:href="#DejaVuSans-31" x="354.199219"/>
      </g>
     </g>
    </g>
    <g id="xtick_6">
     <g id="line2d_11">
      <path d="M 526.244863 320.4 
L 526.244863 43.2 
" clip-path="url(#pc9e69cc00a)" style="fill: none; stroke-dasharray: 5.12,1.28,0.8,1.28; stroke-dashoffset: 0; stroke: #b0b0b0; stroke-width: 0.8"/>
     </g>
     <g id="line2d_12">
      <g>
       <use xlink:href="#mbcbe2ef9a2" x="526.244863" y="320.4" style="fill: #a9a9a9; stroke: #a9a9a9; stroke-width: 0.8"/>
      </g>
     </g>
     <g id="text_6">
      <!-- 2023-05 -->
      <g style="fill: #a9a9a9" transform="translate(505.353457 334.998438) scale(0.1 -0.1)">
       <use xlink:href="#DejaVuSans-32"/>
       <use xlink:href="#DejaVuSans-30" x="63.623047"/>
       <use xlink:href="#DejaVuSans-32" x="127.246094"/>
       <use xlink:href="#DejaVuSans-33" x="190.869141"/>
       <use xlink:href="#DejaVuSans-2d" x="254.492188"/>
       <use xlink:href="#DejaVuSans-30" x="290.576172"/>
       <use xlink:href="#DejaVuSans-35" x="354.199219"/>
      </g>
     </g>
    </g>
    <g id="xtick_7">
     <g id="line2d_13">
      <path d="M 600.084562 320.4 
L 600.084562 43.2 
" clip-path="url(#pc9e69cc00a)" style="fill: none; stroke-dasharray: 5.12,1.28,0.8,1.28; stroke-dashoffset: 0; stroke: #b0b0b0; stroke-width: 0.8"/>
     </g>
     <g id="line2d_14">
      <g>
       <use xlink:href="#mbcbe2ef9a2" x="600.084562" y="320.4" style="fill: #a9a9a9; stroke: #a9a9a9; stroke-width: 0.8"/>
      </g>
     </g>
     <g id="text_7">
      <!-- 2023-09 -->
      <g style="fill: #a9a9a9" transform="translate(579.193155 334.998438) scale(0.1 -0.1)">
       <use xlink:href="#DejaVuSans-32"/>
       <use xlink:href="#DejaVuSans-30" x="63.623047"/>
       <use xlink:href="#DejaVuSans-32" x="127.246094"/>
       <use xlink:href="#DejaVuSans-33" x="190.869141"/>
       <use xlink:href="#DejaVuSans-2d" x="254.492188"/>
       <use xlink:href="#DejaVuSans-30" x="290.576172"/>
       <use xlink:href="#DejaVuSans-39" x="354.199219"/>
      </g>
     </g>
    </g>
    <g id="xtick_8">
     <g id="line2d_15">
      <path d="M 673.323938 320.4 
L 673.323938 43.2 
" clip-path="url(#pc9e69cc00a)" style="fill: none; stroke-dasharray: 5.12,1.28,0.8,1.28; stroke-dashoffset: 0; stroke: #b0b0b0; stroke-width: 0.8"/>
     </g>
     <g id="line2d_16">
      <g>
       <use xlink:href="#mbcbe2ef9a2" x="673.323938" y="320.4" style="fill: #a9a9a9; stroke: #a9a9a9; stroke-width: 0.8"/>
      </g>
     </g>
     <g id="text_8">
      <!-- 2024-01 -->
      <g style="fill: #a9a9a9" transform="translate(652.432531 334.998438) scale(0.1 -0.1)">
       <defs>
        <path id="DejaVuSans-34" d="M 2419 4116 
L 825 1625 
L 2419 1625 
L 2419 4116 
z
M 2253 4666 
L 3047 4666 
L 3047 1625 
L 3713 1625 
L 3713 1100 
L 3047 1100 
L 3047 0 
L 2419 0 
L 2419 1100 
L 313 1100 
L 313 1709 
L 2253 4666 
z
" transform="scale(0.015625)"/>
       </defs>
       <use xlink:href="#DejaVuSans-32"/>
       <use xlink:href="#DejaVuSans-30" x="63.623047"/>
       <use xlink:href="#DejaVuSans-32" x="127.246094"/>
       <use xlink:href="#DejaVuSans-34" x="190.869141"/>
       <use xlink:href="#DejaVuSans-2d" x="254.492188"/>
       <use xlink:href="#DejaVuSans-30" x="290.576172"/>
       <use xlink:href="#DejaVuSans-31" x="354.199219"/>
      </g>
     </g>
    </g>
    <g id="xtick_9">
     <g id="line2d_17">
      <path d="M 745.962991 320.4 
L 745.962991 43.2 
" clip-path="url(#pc9e69cc00a)" style="fill: none; stroke-dasharray: 5.12,1.28,0.8,1.28; stroke-dashoffset: 0; stroke: #b0b0b0; stroke-width: 0.8"/>
     </g>
     <g id="line2d_18">
      <g>
       <use xlink:href="#mbcbe2ef9a2" x="745.962991" y="320.4" style="fill: #a9a9a9; stroke: #a9a9a9; stroke-width: 0.8"/>
      </g>
     </g>
     <g id="text_9">
      <!-- 2024-05 -->
      <g style="fill: #a9a9a9" transform="translate(725.071585 334.998438) scale(0.1 -0.1)">
       <use xlink:href="#DejaVuSans-32"/>
       <use xlink:href="#DejaVuSans-30" x="63.623047"/>
       <use xlink:href="#DejaVuSans-32" x="127.246094"/>
       <use xlink:href="#DejaVuSans-34" x="190.869141"/>
       <use xlink:href="#DejaVuSans-2d" x="254.492188"/>
       <use xlink:href="#DejaVuSans-30" x="290.576172"/>
       <use xlink:href="#DejaVuSans-35" x="354.199219"/>
      </g>
     </g>
    </g>
   </g>
   <g id="matplotlib.axis_2">
    <g id="ytick_1">
     <g id="line2d_19">
      <path d="M 108 307.841763 
L 777.6 307.841763 
" clip-path="url(#pc9e69cc00a)" style="fill: none; stroke-dasharray: 5.12,1.28,0.8,1.28; stroke-dashoffset: 0; stroke: #b0b0b0; stroke-width: 0.8"/>
     </g>
     <g id="line2d_20">
      <defs>
       <path id="m0f1d92c8ba" d="M 0 0 
L -3.5 0 
" style="stroke: #a9a9a9; stroke-width: 0.8"/>
      </defs>
      <g>
       <use xlink:href="#m0f1d92c8ba" x="108" y="307.841763" style="fill: #a9a9a9; stroke: #a9a9a9; stroke-width: 0.8"/>
      </g>
     </g>
     <g id="text_10">
      <!-- 0 -->
      <g style="fill: #a9a9a9" transform="translate(94.6375 311.640982) scale(0.1 -0.1)">
       <use xlink:href="#DejaVuSans-30"/>
      </g>
     </g>
    </g>
    <g id="ytick_2">
     <g id="line2d_21">
      <path d="M 108 274.43109 
L 777.6 274.43109 
" clip-path="url(#pc9e69cc00a)" style="fill: none; stroke-dasharray: 5.12,1.28,0.8,1.28; stroke-dashoffset: 0; stroke: #b0b0b0; stroke-width: 0.8"/>
     </g>
     <g id="line2d_22">
      <g>
       <use xlink:href="#m0f1d92c8ba" x="108" y="274.43109" style="fill: #a9a9a9; stroke: #a9a9a9; stroke-width: 0.8"/>
      </g>
     </g>
     <g id="text_11">
      <!-- 800 -->
      <g style="fill: #a9a9a9" transform="translate(81.9125 278.230309) scale(0.1 -0.1)">
       <defs>
        <path id="DejaVuSans-38" d="M 2034 2216 
Q 1584 2216 1326 1975 
Q 1069 1734 1069 1313 
Q 1069 891 1326 650 
Q 1584 409 2034 409 
Q 2484 409 2743 651 
Q 3003 894 3003 1313 
Q 3003 1734 2745 1975 
Q 2488 2216 2034 2216 
z
M 1403 2484 
Q 997 2584 770 2862 
Q 544 3141 544 3541 
Q 544 4100 942 4425 
Q 1341 4750 2034 4750 
Q 2731 4750 3128 4425 
Q 3525 4100 3525 3541 
Q 3525 3141 3298 2862 
Q 3072 2584 2669 2484 
Q 3125 2378 3379 2068 
Q 3634 1759 3634 1313 
Q 3634 634 3220 271 
Q 2806 -91 2034 -91 
Q 1263 -91 848 271 
Q 434 634 434 1313 
Q 434 1759 690 2068 
Q 947 2378 1403 2484 
z
M 1172 3481 
Q 1172 3119 1398 2916 
Q 1625 2713 2034 2713 
Q 2441 2713 2670 2916 
Q 2900 3119 2900 3481 
Q 2900 3844 2670 4047 
Q 2441 4250 2034 4250 
Q 1625 4250 1398 4047 
Q 1172 3844 1172 3481 
z
" transform="scale(0.015625)"/>
       </defs>
       <use xlink:href="#DejaVuSans-38"/>
       <use xlink:href="#DejaVuSans-30" x="63.623047"/>
       <use xlink:href="#DejaVuSans-30" x="127.246094"/>
      </g>
     </g>
    </g>
    <g id="ytick_3">
     <g id="line2d_23">
      <path d="M 108 241.020418 
L 777.6 241.020418 
" clip-path="url(#pc9e69cc00a)" style="fill: none; stroke-dasharray: 5.12,1.28,0.8,1.28; stroke-dashoffset: 0; stroke: #b0b0b0; stroke-width: 0.8"/>
     </g>
     <g id="line2d_24">
      <g>
       <use xlink:href="#m0f1d92c8ba" x="108" y="241.020418" style="fill: #a9a9a9; stroke: #a9a9a9; stroke-width: 0.8"/>
      </g>
     </g>
     <g id="text_12">
      <!-- 1600 -->
      <g style="fill: #a9a9a9" transform="translate(75.55 244.819636) scale(0.1 -0.1)">
       <defs>
        <path id="DejaVuSans-36" d="M 2113 2584 
Q 1688 2584 1439 2293 
Q 1191 2003 1191 1497 
Q 1191 994 1439 701 
Q 1688 409 2113 409 
Q 2538 409 2786 701 
Q 3034 994 3034 1497 
Q 3034 2003 2786 2293 
Q 2538 2584 2113 2584 
z
M 3366 4563 
L 3366 3988 
Q 3128 4100 2886 4159 
Q 2644 4219 2406 4219 
Q 1781 4219 1451 3797 
Q 1122 3375 1075 2522 
Q 1259 2794 1537 2939 
Q 1816 3084 2150 3084 
Q 2853 3084 3261 2657 
Q 3669 2231 3669 1497 
Q 3669 778 3244 343 
Q 2819 -91 2113 -91 
Q 1303 -91 875 529 
Q 447 1150 447 2328 
Q 447 3434 972 4092 
Q 1497 4750 2381 4750 
Q 2619 4750 2861 4703 
Q 3103 4656 3366 4563 
z
" transform="scale(0.015625)"/>
       </defs>
       <use xlink:href="#DejaVuSans-31"/>
       <use xlink:href="#DejaVuSans-36" x="63.623047"/>
       <use xlink:href="#DejaVuSans-30" x="127.246094"/>
       <use xlink:href="#DejaVuSans-30" x="190.869141"/>
      </g>
     </g>
    </g>
    <g id="ytick_4">
     <g id="line2d_25">
      <path d="M 108 207.609745 
L 777.6 207.609745 
" clip-path="url(#pc9e69cc00a)" style="fill: none; stroke-dasharray: 5.12,1.28,0.8,1.28; stroke-dashoffset: 0; stroke: #b0b0b0; stroke-width: 0.8"/>
     </g>
     <g id="line2d_26">
      <g>
       <use xlink:href="#m0f1d92c8ba" x="108" y="207.609745" style="fill: #a9a9a9; stroke: #a9a9a9; stroke-width: 0.8"/>
      </g>
     </g>
     <g id="text_13">
      <!-- 2400 -->
      <g style="fill: #a9a9a9" transform="translate(75.55 211.408964) scale(0.1 -0.1)">
       <use xlink:href="#DejaVuSans-32"/>
       <use xlink:href="#DejaVuSans-34" x="63.623047"/>
       <use xlink:href="#DejaVuSans-30" x="127.246094"/>
       <use xlink:href="#DejaVuSans-30" x="190.869141"/>
      </g>
     </g>
    </g>
    <g id="ytick_5">
     <g id="line2d_27">
      <path d="M 108 174.199072 
L 777.6 174.199072 
" clip-path="url(#pc9e69cc00a)" style="fill: none; stroke-dasharray: 5.12,1.28,0.8,1.28; stroke-dashoffset: 0; stroke: #b0b0b0; stroke-width: 0.8"/>
     </g>
     <g id="line2d_28">
      <g>
       <use xlink:href="#m0f1d92c8ba" x="108" y="174.199072" style="fill: #a9a9a9; stroke: #a9a9a9; stroke-width: 0.8"/>
      </g>
     </g>
     <g id="text_14">
      <!-- 3200 -->
      <g style="fill: #a9a9a9" transform="translate(75.55 177.998291) scale(0.1 -0.1)">
       <use xlink:href="#DejaVuSans-33"/>
       <use xlink:href="#DejaVuSans-32" x="63.623047"/>
       <use xlink:href="#DejaVuSans-30" x="127.246094"/>
       <use xlink:href="#DejaVuSans-30" x="190.869141"/>
      </g>
     </g>
    </g>
    <g id="ytick_6">
     <g id="line2d_29">
      <path d="M 108 140.788399 
L 777.6 140.788399 
" clip-path="url(#pc9e69cc00a)" style="fill: none; stroke-dasharray: 5.12,1.28,0.8,1.28; stroke-dashoffset: 0; stroke: #b0b0b0; stroke-width: 0.8"/>
     </g>
     <g id="line2d_30">
      <g>
       <use xlink:href="#m0f1d92c8ba" x="108" y="140.788399" style="fill: #a9a9a9; stroke: #a9a9a9; stroke-width: 0.8"/>
      </g>
     </g>
     <g id="text_15">
      <!-- 4000 -->
      <g style="fill: #a9a9a9" transform="translate(75.55 144.587618) scale(0.1 -0.1)">
       <use xlink:href="#DejaVuSans-34"/>
       <use xlink:href="#DejaVuSans-30" x="63.623047"/>
       <use xlink:href="#DejaVuSans-30" x="127.246094"/>
       <use xlink:href="#DejaVuSans-30" x="190.869141"/>
      </g>
     </g>
    </g>
    <g id="ytick_7">
     <g id="line2d_31">
      <path d="M 108 107.377726 
L 777.6 107.377726 
" clip-path="url(#pc9e69cc00a)" style="fill: none; stroke-dasharray: 5.12,1.28,0.8,1.28; stroke-dashoffset: 0; stroke: #b0b0b0; stroke-width: 0.8"/>
     </g>
     <g id="line2d_32">
      <g>
       <use xlink:href="#m0f1d92c8ba" x="108" y="107.377726" style="fill: #a9a9a9; stroke: #a9a9a9; stroke-width: 0.8"/>
      </g>
     </g>
     <g id="text_16">
      <!-- 4800 -->
      <g style="fill: #a9a9a9" transform="translate(75.55 111.176945) scale(0.1 -0.1)">
       <use xlink:href="#DejaVuSans-34"/>
       <use xlink:href="#DejaVuSans-38" x="63.623047"/>
       <use xlink:href="#DejaVuSans-30" x="127.246094"/>
       <use xlink:href="#DejaVuSans-30" x="190.869141"/>
      </g>
     </g>
    </g>
    <g id="ytick_8">
     <g id="line2d_33">
      <path d="M 108 73.967053 
L 777.6 73.967053 
" clip-path="url(#pc9e69cc00a)" style="fill: none; stroke-dasharray: 5.12,1.28,0.8,1.28; stroke-dashoffset: 0; stroke: #b0b0b0; stroke-width: 0.8"/>
     </g>
     <g id="line2d_34">
      <g>
       <use xlink:href="#m0f1d92c8ba" x="108" y="73.967053" style="fill: #a9a9a9; stroke: #a9a9a9; stroke-width: 0.8"/>
      </g>
     </g>
     <g id="text_17">
      <!-- 5600 -->
      <g style="fill: #a9a9a9" transform="translate(75.55 77.766272) scale(0.1 -0.1)">
       <use xlink:href="#DejaVuSans-35"/>
       <use xlink:href="#DejaVuSans-36" x="63.623047"/>
       <use xlink:href="#DejaVuSans-30" x="127.246094"/>
       <use xlink:href="#DejaVuSans-30" x="190.869141"/>
      </g>
     </g>
    </g>
   </g>
   <g id="line2d_35">
    <path d="M 138.436364 307.716473 
L 142.0383 307.42413 
L 142.638623 307.17355 
L 144.439591 306.964733 
L 148.041528 306.254756 
L 151.643464 305.962413 
L 152.243787 305.67007 
L 152.84411 305.503016 
L 153.444432 304.751276 
L 154.044755 304.333643 
L 154.645078 303.038979 
L 155.245401 302.955452 
L 155.845724 302.496056 
L 157.046369 301.911369 
L 159.44766 300.073782 
L 160.648306 299.572622 
L 161.248628 299.154988 
L 163.649919 298.110905 
L 164.250242 297.192111 
L 165.450888 296.356845 
L 166.05121 296.064501 
L 172.054438 295.229234 
L 172.654761 294.936891 
L 176.85702 294.602784 
L 178.657988 294.143387 
L 184.060893 293.433411 
L 184.661216 293.099304 
L 185.261538 293.015777 
L 185.861861 292.765197 
L 187.062507 292.556381 
L 187.662829 292.514617 
L 188.863475 292.264037 
L 189.463798 292.222274 
L 191.865089 291.637587 
L 193.666057 291.470534 
L 194.866703 291.345244 
L 195.467025 291.17819 
L 196.067348 291.136427 
L 197.868316 290.593503 
L 199.068962 290.509977 
L 200.269607 290.342923 
L 201.470253 290.092343 
L 202.070576 289.92529 
L 202.670898 289.131787 
L 204.471867 288.463573 
L 206.272835 288.004176 
L 206.873158 287.711833 
L 207.47348 287.67007 
L 210.475094 286.834803 
L 211.67574 286.751276 
L 212.276062 286.667749 
L 214.077031 286.124826 
L 216.478322 285.540139 
L 217.078644 285.289559 
L 217.678967 285.206032 
L 218.27929 284.913689 
L 224.282517 284.036659 
L 227.284131 283.201392 
L 227.884454 282.825522 
L 230.285745 282.199072 
L 232.687036 280.987935 
L 234.488004 280.570302 
L 235.088327 280.486775 
L 235.68865 280.194432 
L 236.889295 279.985615 
L 238.089941 279.442691 
L 241.091555 278.690951 
L 242.892523 278.231555 
L 243.492846 277.980974 
L 244.093168 277.855684 
L 244.693491 277.605104 
L 245.293814 277.521578 
L 245.894137 277.229234 
L 246.494459 277.062181 
L 247.695105 276.978654 
L 248.89575 276.561021 
L 250.096396 276.477494 
L 250.696719 276.185151 
L 251.897364 276.018097 
L 252.497687 275.809281 
L 253.698332 275.767517 
L 256.099623 275.475174 
L 257.300269 274.890487 
L 263.903819 272.092343 
L 264.504142 271.758237 
L 265.104465 271.131787 
L 266.30511 269.377726 
L 266.905433 269.210673 
L 267.505756 269.210673 
L 268.706401 268.333643 
L 269.306724 268.166589 
L 269.907047 267.874246 
L 270.50737 267.748956 
L 271.107692 267.206032 
L 271.708015 267.038979 
L 273.508983 266.161949 
L 274.709629 264.491415 
L 275.309952 264.115545 
L 275.910274 263.113225 
L 276.510597 262.486775 
L 277.11092 262.194432 
L 277.711243 262.027378 
L 280.112534 260.607425 
L 281.313179 259.646868 
L 281.913502 259.270998 
L 282.513825 258.393968 
L 283.114147 257.057541 
L 283.71447 256.18051 
L 284.314793 255.721114 
L 284.915116 255.470534 
L 287.316407 253.382367 
L 288.517052 252.42181 
L 289.117375 251.92065 
L 289.717698 251.127146 
L 290.918343 250.083063 
L 293.319634 248.537819 
L 293.919957 248.036659 
L 294.52028 247.911369 
L 295.120602 247.660789 
L 296.921571 246.658469 
L 298.722539 245.530858 
L 300.523507 243.776798 
L 301.12383 243.400928 
L 301.724153 243.233875 
L 302.324476 242.941531 
L 303.525121 242.148028 
L 304.125444 241.813921 
L 304.725767 241.730394 
L 309.528349 238.848724 
L 311.329317 237.888167 
L 311.92964 237.345244 
L 314.330931 236.593503 
L 314.931253 236.17587 
L 315.531576 236.05058 
L 316.732222 235.632947 
L 318.53319 234.92297 
L 320.334158 234.254756 
L 321.534804 234.04594 
L 322.735449 233.001856 
L 324.536417 232.166589 
L 325.737063 231.456613 
L 326.937708 231.122506 
L 327.538031 230.746636 
L 328.138354 230.579582 
L 329.939322 229.451972 
L 332.940936 228.741995 
L 334.741904 227.697912 
L 335.342227 227.614385 
L 335.94255 227.405568 
L 337.143195 227.154988 
L 338.944164 225.818561 
L 340.745132 225.400928 
L 341.345455 225.192111 
L 341.945777 224.732715 
L 345.547714 223.563341 
L 346.148037 223.521578 
L 346.748359 223.354524 
L 347.949005 222.853364 
L 352.151264 221.391647 
L 353.35191 221.224594 
L 353.952232 221.057541 
L 354.552555 220.765197 
L 355.152878 220.639907 
L 356.953846 219.80464 
L 358.754814 218.92761 
L 359.355137 218.509977 
L 359.95546 218.342923 
L 361.756428 217.382367 
L 362.957074 217.090023 
L 364.157719 216.463573 
L 365.358365 216.129466 
L 365.958687 216.04594 
L 367.159333 215.335963 
L 367.759656 215.210673 
L 368.960301 214.709513 
L 369.560624 214.584223 
L 370.160947 214.250116 
L 372.562238 213.874246 
L 373.762883 213.289559 
L 374.363206 212.788399 
L 374.963529 211.744316 
L 376.764497 211.410209 
L 379.165788 210.157309 
L 379.766111 210.032019 
L 383.96837 208.027378 
L 385.169016 207.693271 
L 386.369661 207.442691 
L 387.570307 206.858005 
L 388.170629 206.607425 
L 388.770952 206.523898 
L 391.172243 205.479814 
L 392.973211 204.352204 
L 393.573534 204.268677 
L 394.173857 204.059861 
L 394.77418 204.018097 
L 397.175471 203.349884 
L 397.775793 203.308121 
L 398.376116 202.848724 
L 399.576762 202.43109 
L 401.37773 201.846404 
L 401.978053 201.470534 
L 402.578375 201.30348 
L 403.178698 200.885847 
L 403.779021 200.635267 
L 404.979666 200.008817 
L 407.380958 199.29884 
L 407.98128 199.006497 
L 409.782249 197.628306 
L 410.382571 197.503016 
L 411.583217 196.584223 
L 412.18354 196.458933 
L 412.783862 195.540139 
L 413.384185 195.289559 
L 413.984508 194.830162 
L 414.584831 194.746636 
L 415.785476 194.036659 
L 416.385799 193.911369 
L 416.986122 193.660789 
L 417.586444 193.201392 
L 418.186767 192.992575 
L 419.987735 191.781439 
L 422.389026 190.570302 
L 422.989349 190.486775 
L 424.189995 189.943852 
L 424.790317 189.609745 
L 425.39064 188.607425 
L 425.990963 188.064501 
L 426.591286 187.730394 
L 427.191608 187.605104 
L 428.392254 186.853364 
L 428.992577 186.728074 
L 430.193222 186.143387 
L 431.99419 185.391647 
L 433.194836 184.556381 
L 434.395481 183.30348 
L 437.397095 181.131787 
L 438.597741 180.17123 
L 439.198063 179.92065 
L 439.798386 179.252436 
L 440.398709 178.793039 
L 441.599354 178.375406 
L 442.8 177.581903 
L 443.400323 177.289559 
L 444.000646 177.122506 
L 444.600968 176.704872 
L 445.201291 176.621346 
L 447.002259 175.660789 
L 448.202905 174.950812 
L 454.206132 172.820882 
L 454.806455 172.277958 
L 456.607423 171.609745 
L 457.808069 171.233875 
L 458.408392 170.774478 
L 460.809683 169.521578 
L 461.410005 169.187471 
L 462.610651 166.848724 
L 463.811296 165.42877 
L 465.011942 164.718794 
L 466.81291 164.008817 
L 467.413233 163.92529 
L 468.013556 163.591183 
L 469.814524 163.04826 
L 472.215815 161.962413 
L 472.816138 161.586543 
L 474.016783 161.16891 
L 477.61872 159.080742 
L 478.219042 158.454292 
L 479.419688 157.827842 
L 483.021625 155.948492 
L 483.621947 155.697912 
L 484.22227 155.322042 
L 484.822593 155.196752 
L 485.422916 154.737355 
L 488.424529 153.776798 
L 489.024852 153.609745 
L 489.625175 153.317401 
L 490.225498 152.899768 
L 491.426143 152.565661 
L 492.626789 152.106265 
L 493.227111 151.646868 
L 494.427757 151.270998 
L 495.02808 150.978654 
L 495.628402 150.811601 
L 496.829048 149.976334 
L 498.029693 149.475174 
L 499.230339 148.556381 
L 500.430984 148.138747 
L 501.031307 147.637587 
L 501.63163 147.55406 
L 502.832275 146.67703 
L 504.032921 146.092343 
L 504.633244 145.841763 
L 505.233566 145.257077 
L 508.835503 143.962413 
L 510.636471 143.16891 
L 512.437439 142.625986 
L 513.638085 142.458933 
L 514.238408 142.208353 
L 514.838731 142.124826 
L 516.039376 141.623666 
L 516.639699 141.581903 
L 519.04099 140.704872 
L 520.841958 139.493735 
L 521.442281 139.243155 
L 522.642926 138.616705 
L 523.243249 138.407889 
L 526.845186 136.445012 
L 527.445508 136.319722 
L 529.246477 135.317401 
L 531.047445 134.732715 
L 531.647768 134.482135 
L 532.848413 134.189791 
L 535.850027 133.229234 
L 537.650995 132.936891 
L 540.052286 132.185151 
L 540.652609 131.934571 
L 541.252932 131.851044 
L 541.853254 131.558701 
L 543.0539 131.308121 
L 544.254545 130.890487 
L 544.854868 130.681671 
L 546.055514 130.556381 
L 547.256159 130.264037 
L 549.057127 129.971694 
L 549.65745 129.762877 
L 550.858096 129.637587 
L 553.85971 128.885847 
L 555.060355 128.593503 
L 555.660678 128.259397 
L 558.662292 127.507657 
L 559.262614 127.382367 
L 560.46326 126.964733 
L 562.264228 126.338283 
L 562.864551 126.254756 
L 564.665519 125.628306 
L 565.265842 125.628306 
L 566.466487 125.210673 
L 567.06681 124.625986 
L 567.667133 124.333643 
L 568.867778 123.957773 
L 571.269069 123.038979 
L 571.869392 122.913689 
L 572.469715 122.537819 
L 573.070038 122.412529 
L 573.67036 122.078422 
L 576.671974 121.201392 
L 577.272297 120.825522 
L 577.87262 120.700232 
L 578.472942 120.199072 
L 580.273911 119.864965 
L 581.474556 119.196752 
L 582.074879 118.528538 
L 583.275524 118.277958 
L 587.477784 117.317401 
L 588.078107 117.150348 
L 589.278752 117.108585 
L 589.879075 116.858005 
L 592.280366 116.440371 
L 592.880689 116.189791 
L 594.681657 115.939211 
L 597.082948 115.187471 
L 598.883916 114.769838 
L 600.684884 114.310441 
L 602.485853 113.767517 
L 605.487466 112.890487 
L 606.688112 112.347564 
L 607.888757 111.92993 
L 608.48908 111.470534 
L 609.689726 111.136427 
L 610.290048 110.885847 
L 611.490694 110.55174 
L 613.891985 109.465893 
L 615.692953 109.340603 
L 618.094244 108.67239 
L 618.694567 108.29652 
L 619.895212 107.962413 
L 621.696181 107.043619 
L 622.296503 106.918329 
L 622.896826 106.625986 
L 623.497149 106.584223 
L 630.100699 104.370766 
L 632.50199 103.786079 
L 633.102313 103.619026 
L 634.302959 103.076102 
L 634.903281 102.992575 
L 636.103927 102.658469 
L 636.70425 102.199072 
L 637.304572 101.906729 
L 637.904895 101.196752 
L 638.505218 100.779118 
L 639.705863 100.403248 
L 640.306186 99.943852 
L 645.108768 97.980974 
L 645.709091 97.813921 
L 646.309414 97.438051 
L 648.710705 96.728074 
L 649.91135 96.143387 
L 651.111996 95.433411 
L 651.712318 95.308121 
L 652.912964 94.598144 
L 653.513287 94.347564 
L 654.713932 93.595824 
L 656.5149 92.760557 
L 657.115223 92.342923 
L 658.315869 91.92529 
L 659.516514 91.215313 
L 660.116837 91.006497 
L 660.71716 90.588863 
L 661.917805 90.17123 
L 662.518128 90.04594 
L 664.919419 88.960093 
L 667.921033 87.916009 
L 668.521356 87.874246 
L 669.121678 87.707193 
L 669.722001 87.331323 
L 670.322324 87.247796 
L 670.922647 87.038979 
L 672.723615 86.704872 
L 676.925874 84.574942 
L 677.526197 84.491415 
L 679.327165 83.530858 
L 681.128133 82.862645 
L 682.929102 82.069142 
L 685.330393 81.108585 
L 685.930715 80.941531 
L 686.531038 80.565661 
L 687.731684 80.398608 
L 688.332006 80.022738 
L 688.932329 79.980974 
L 690.132975 79.605104 
L 691.33362 79.020418 
L 691.933943 78.936891 
L 692.534266 78.686311 
L 693.134588 78.561021 
L 694.935557 77.767517 
L 695.53588 77.642227 
L 696.136202 77.391647 
L 699.137816 76.681671 
L 700.938784 76.013457 
L 703.340075 74.635267 
L 704.540721 74.17587 
L 705.141044 73.8 
L 706.341689 73.54942 
L 706.942012 73.215313 
L 707.542335 73.090023 
L 708.74298 72.42181 
L 712.344917 70.751276 
L 714.145885 70.166589 
L 715.34653 69.748956 
L 715.946853 69.540139 
L 717.147499 68.955452 
L 718.348144 68.579582 
L 718.948467 68.454292 
L 720.149112 67.911369 
L 720.749435 67.702552 
L 721.349758 67.368445 
L 721.950081 67.284919 
L 722.550403 67.076102 
L 723.751049 66.407889 
L 726.15234 65.322042 
L 727.352985 64.904408 
L 728.553631 64.277958 
L 729.153954 64.194432 
L 732.155568 62.899768 
L 732.75589 62.482135 
L 735.157181 61.688631 
L 735.757504 61.688631 
L 736.95815 61.145708 
L 737.558472 60.686311 
L 738.158795 60.018097 
L 738.759118 59.516937 
L 739.359441 59.224594 
L 739.959763 59.057541 
L 740.560086 58.681671 
L 741.160409 58.556381 
L 741.760732 58.264037 
L 742.361054 58.18051 
L 742.961377 57.762877 
L 743.5617 57.637587 
L 744.162023 57.345244 
L 745.962991 56.134107 
L 747.163636 55.8 
L 747.163636 55.8 
" clip-path="url(#pc9e69cc00a)" style="fill: none; stroke: #1f77b4; stroke-width: 1.5; stroke-linecap: square"/>
   </g>
   <g id="line2d_36">
    <path d="M 139.036686 307.8 
L 140.837655 307.716473 
L 142.638623 307.67471 
L 146.240559 307.591183 
L 149.242173 307.465893 
L 151.643464 307.465893 
L 152.243787 307.29884 
L 154.645078 307.215313 
L 156.446046 307.006497 
L 158.247015 306.839443 
L 161.848951 306.67239 
L 162.449274 306.67239 
L 163.049597 306.5471 
L 165.450888 306.463573 
L 166.651533 306.380046 
L 171.454115 306.29652 
L 174.455729 306.17123 
L 181.659602 306.087703 
L 184.661216 305.962413 
L 188.263152 305.878886 
L 190.664443 305.79536 
L 196.067348 305.711833 
L 197.868316 305.67007 
L 199.669285 305.628306 
L 201.470253 305.41949 
L 205.072189 305.377726 
L 206.272835 305.2942 
L 210.475094 305.210673 
L 217.078644 304.834803 
L 221.280904 304.751276 
L 222.481549 304.667749 
L 224.282517 304.584223 
L 227.884454 304.417169 
L 230.285745 304.375406 
L 232.086713 304.208353 
L 239.890909 303.748956 
L 242.892523 303.665429 
L 248.295428 303.373086 
L 250.096396 303.289559 
L 256.099623 302.955452 
L 262.703174 302.871926 
L 265.104465 302.621346 
L 266.30511 302.537819 
L 274.109306 301.911369 
L 277.711243 301.451972 
L 280.112534 301.368445 
L 284.915116 300.741995 
L 288.517052 300.658469 
L 290.31802 300.491415 
L 291.518666 300.449652 
L 292.719311 300.324362 
L 294.52028 300.240835 
L 295.720925 300.073782 
L 298.722539 299.739675 
L 301.12383 299.656148 
L 302.324476 299.572622 
L 304.725767 299.489095 
L 305.926412 299.405568 
L 308.928026 299.113225 
L 309.528349 298.946172 
L 313.130285 298.779118 
L 316.131899 298.695592 
L 323.936095 298.236195 
L 325.737063 298.152668 
L 333.541259 297.693271 
L 337.743518 297.609745 
L 338.343841 297.484455 
L 343.146423 297.400928 
L 347.348682 297.192111 
L 353.952232 297.108585 
L 358.154492 296.899768 
L 362.957074 296.816241 
L 367.759656 296.565661 
L 371.961915 296.482135 
L 383.368047 295.772158 
L 388.170629 295.688631 
L 403.779021 294.686311 
L 407.380958 294.602784 
L 409.181926 294.561021 
L 410.982894 294.519258 
L 412.783862 294.352204 
L 417.586444 294.268677 
L 418.78709 294.059861 
L 419.987735 293.976334 
L 422.989349 293.851044 
L 424.189995 293.767517 
L 425.39064 293.683991 
L 430.793545 293.600464 
L 431.99419 293.475174 
L 434.395481 293.433411 
L 434.995804 293.308121 
L 436.19645 293.224594 
L 436.796772 293.099304 
L 438.597741 293.015777 
L 448.202905 292.43109 
L 450.604196 292.347564 
L 453.60581 292.222274 
L 462.010328 292.138747 
L 466.212587 291.92993 
L 471.015169 291.846404 
L 473.41646 291.762877 
L 475.817751 291.721114 
L 477.018397 291.595824 
L 479.419688 291.512297 
L 485.422916 291.17819 
L 489.024852 291.136427 
L 490.82582 290.969374 
L 492.626789 290.92761 
L 496.829048 290.844084 
L 499.230339 290.760557 
L 506.434212 290.67703 
L 509.435826 290.55174 
L 513.037762 290.468213 
L 514.838731 290.259397 
L 518.440667 290.217633 
L 520.241635 290.05058 
L 522.642926 289.967053 
L 529.846799 289.883527 
L 532.848413 289.758237 
L 543.0539 289.716473 
L 544.254545 289.632947 
L 546.055514 289.591183 
L 553.85971 289.507657 
L 555.060355 289.42413 
L 561.663905 289.340603 
L 564.065196 289.257077 
L 571.269069 289.215313 
L 572.469715 289.131787 
L 581.474556 289.090023 
L 583.275524 288.92297 
L 598.283593 288.839443 
L 600.084562 288.79768 
L 616.293276 288.714153 
L 618.694567 288.630626 
L 628.900054 288.5471 
L 630.100699 288.463573 
L 633.102313 288.380046 
L 634.903281 288.212993 
L 637.904895 288.129466 
L 640.306186 288.04594 
L 643.908123 287.962413 
L 645.709091 287.92065 
L 648.110382 287.837123 
L 649.91135 287.79536 
L 652.912964 287.711833 
L 654.113609 287.628306 
L 657.715546 287.54478 
L 660.71716 287.41949 
L 661.917805 287.377726 
L 663.118451 287.2942 
L 664.919419 287.252436 
L 667.32071 287.16891 
L 669.722001 287.085383 
L 677.526197 287.001856 
L 679.927488 286.918329 
L 684.73007 286.834803 
L 688.932329 286.625986 
L 694.335234 286.542459 
L 695.53588 286.458933 
L 706.341689 286.375406 
L 708.142657 286.333643 
L 711.144271 286.291879 
L 713.545562 286.041299 
L 715.34653 285.999536 
L 718.948467 285.916009 
L 725.552017 285.540139 
L 727.953308 285.456613 
L 730.354599 285.373086 
L 733.956536 285.289559 
L 735.157181 285.206032 
L 737.558472 285.122506 
L 739.959763 284.871926 
L 742.361054 284.788399 
L 746.563314 284.704872 
L 747.163636 284.621346 
L 747.163636 284.621346 
" clip-path="url(#pc9e69cc00a)" style="fill: none; stroke: #ff7f0e; stroke-width: 1.5; stroke-linecap: square"/>
   </g>
   <g id="patch_3">
    <path d="M 108 320.4 
L 108 43.2 
" style="fill: none; stroke: #a9a9a9; stroke-width: 0.8; stroke-linejoin: miter; stroke-linecap: square"/>
   </g>
   <g id="patch_4">
    <path d="M 777.6 320.4 
L 777.6 43.2 
" style="fill: none"/>
   </g>
   <g id="patch_5">
    <path d="M 108 320.4 
L 777.6 320.4 
" style="fill: none; stroke: #a9a9a9; stroke-width: 0.8; stroke-linejoin: miter; stroke-linecap: square"/>
   </g>
   <g id="patch_6">
    <path d="M 108 43.2 
L 777.6 43.2 
" style="fill: none"/>
   </g>
   <g id="text_18">
    <!-- get_subscribe history -->
    <g style="fill: #a9a9a9" transform="translate(378.6075 37.2) scale(0.12 -0.12)">
     <defs>
      <path id="DejaVuSans-67" d="M 2906 1791 
Q 2906 2416 2648 2759 
Q 2391 3103 1925 3103 
Q 1463 3103 1205 2759 
Q 947 2416 947 1791 
Q 947 1169 1205 825 
Q 1463 481 1925 481 
Q 2391 481 2648 825 
Q 2906 1169 2906 1791 
z
M 3481 434 
Q 3481 -459 3084 -895 
Q 2688 -1331 1869 -1331 
Q 1566 -1331 1297 -1286 
Q 1028 -1241 775 -1147 
L 775 -588 
Q 1028 -725 1275 -790 
Q 1522 -856 1778 -856 
Q 2344 -856 2625 -561 
Q 2906 -266 2906 331 
L 2906 616 
Q 2728 306 2450 153 
Q 2172 0 1784 0 
Q 1141 0 747 490 
Q 353 981 353 1791 
Q 353 2603 747 3093 
Q 1141 3584 1784 3584 
Q 2172 3584 2450 3431 
Q 2728 3278 2906 2969 
L 2906 3500 
L 3481 3500 
L 3481 434 
z
" transform="scale(0.015625)"/>
      <path id="DejaVuSans-65" d="M 3597 1894 
L 3597 1613 
L 953 1613 
Q 991 1019 1311 708 
Q 1631 397 2203 397 
Q 2534 397 2845 478 
Q 3156 559 3463 722 
L 3463 178 
Q 3153 47 2828 -22 
Q 2503 -91 2169 -91 
Q 1331 -91 842 396 
Q 353 884 353 1716 
Q 353 2575 817 3079 
Q 1281 3584 2069 3584 
Q 2775 3584 3186 3129 
Q 3597 2675 3597 1894 
z
M 3022 2063 
Q 3016 2534 2758 2815 
Q 2500 3097 2075 3097 
Q 1594 3097 1305 2825 
Q 1016 2553 972 2059 
L 3022 2063 
z
" transform="scale(0.015625)"/>
      <path id="DejaVuSans-74" d="M 1172 4494 
L 1172 3500 
L 2356 3500 
L 2356 3053 
L 1172 3053 
L 1172 1153 
Q 1172 725 1289 603 
Q 1406 481 1766 481 
L 2356 481 
L 2356 0 
L 1766 0 
Q 1100 0 847 248 
Q 594 497 594 1153 
L 594 3053 
L 172 3053 
L 172 3500 
L 594 3500 
L 594 4494 
L 1172 4494 
z
" transform="scale(0.015625)"/>
      <path id="DejaVuSans-5f" d="M 3263 -1063 
L 3263 -1509 
L -63 -1509 
L -63 -1063 
L 3263 -1063 
z
" transform="scale(0.015625)"/>
      <path id="DejaVuSans-73" d="M 2834 3397 
L 2834 2853 
Q 2591 2978 2328 3040 
Q 2066 3103 1784 3103 
Q 1356 3103 1142 2972 
Q 928 2841 928 2578 
Q 928 2378 1081 2264 
Q 1234 2150 1697 2047 
L 1894 2003 
Q 2506 1872 2764 1633 
Q 3022 1394 3022 966 
Q 3022 478 2636 193 
Q 2250 -91 1575 -91 
Q 1294 -91 989 -36 
Q 684 19 347 128 
L 347 722 
Q 666 556 975 473 
Q 1284 391 1588 391 
Q 1994 391 2212 530 
Q 2431 669 2431 922 
Q 2431 1156 2273 1281 
Q 2116 1406 1581 1522 
L 1381 1569 
Q 847 1681 609 1914 
Q 372 2147 372 2553 
Q 372 3047 722 3315 
Q 1072 3584 1716 3584 
Q 2034 3584 2315 3537 
Q 2597 3491 2834 3397 
z
" transform="scale(0.015625)"/>
      <path id="DejaVuSans-75" d="M 544 1381 
L 544 3500 
L 1119 3500 
L 1119 1403 
Q 1119 906 1312 657 
Q 1506 409 1894 409 
Q 2359 409 2629 706 
Q 2900 1003 2900 1516 
L 2900 3500 
L 3475 3500 
L 3475 0 
L 2900 0 
L 2900 538 
Q 2691 219 2414 64 
Q 2138 -91 1772 -91 
Q 1169 -91 856 284 
Q 544 659 544 1381 
z
M 1991 3584 
L 1991 3584 
z
" transform="scale(0.015625)"/>
      <path id="DejaVuSans-62" d="M 3116 1747 
Q 3116 2381 2855 2742 
Q 2594 3103 2138 3103 
Q 1681 3103 1420 2742 
Q 1159 2381 1159 1747 
Q 1159 1113 1420 752 
Q 1681 391 2138 391 
Q 2594 391 2855 752 
Q 3116 1113 3116 1747 
z
M 1159 2969 
Q 1341 3281 1617 3432 
Q 1894 3584 2278 3584 
Q 2916 3584 3314 3078 
Q 3713 2572 3713 1747 
Q 3713 922 3314 415 
Q 2916 -91 2278 -91 
Q 1894 -91 1617 61 
Q 1341 213 1159 525 
L 1159 0 
L 581 0 
L 581 4863 
L 1159 4863 
L 1159 2969 
z
" transform="scale(0.015625)"/>
      <path id="DejaVuSans-63" d="M 3122 3366 
L 3122 2828 
Q 2878 2963 2633 3030 
Q 2388 3097 2138 3097 
Q 1578 3097 1268 2742 
Q 959 2388 959 1747 
Q 959 1106 1268 751 
Q 1578 397 2138 397 
Q 2388 397 2633 464 
Q 2878 531 3122 666 
L 3122 134 
Q 2881 22 2623 -34 
Q 2366 -91 2075 -91 
Q 1284 -91 818 406 
Q 353 903 353 1747 
Q 353 2603 823 3093 
Q 1294 3584 2113 3584 
Q 2378 3584 2631 3529 
Q 2884 3475 3122 3366 
z
" transform="scale(0.015625)"/>
      <path id="DejaVuSans-72" d="M 2631 2963 
Q 2534 3019 2420 3045 
Q 2306 3072 2169 3072 
Q 1681 3072 1420 2755 
Q 1159 2438 1159 1844 
L 1159 0 
L 581 0 
L 581 3500 
L 1159 3500 
L 1159 2956 
Q 1341 3275 1631 3429 
Q 1922 3584 2338 3584 
Q 2397 3584 2469 3576 
Q 2541 3569 2628 3553 
L 2631 2963 
z
" transform="scale(0.015625)"/>
      <path id="DejaVuSans-69" d="M 603 3500 
L 1178 3500 
L 1178 0 
L 603 0 
L 603 3500 
z
M 603 4863 
L 1178 4863 
L 1178 4134 
L 603 4134 
L 603 4863 
z
" transform="scale(0.015625)"/>
      <path id="DejaVuSans-20" transform="scale(0.015625)"/>
      <path id="DejaVuSans-68" d="M 3513 2113 
L 3513 0 
L 2938 0 
L 2938 2094 
Q 2938 2591 2744 2837 
Q 2550 3084 2163 3084 
Q 1697 3084 1428 2787 
Q 1159 2491 1159 1978 
L 1159 0 
L 581 0 
L 581 4863 
L 1159 4863 
L 1159 2956 
Q 1366 3272 1645 3428 
Q 1925 3584 2291 3584 
Q 2894 3584 3203 3211 
Q 3513 2838 3513 2113 
z
" transform="scale(0.015625)"/>
      <path id="DejaVuSans-6f" d="M 1959 3097 
Q 1497 3097 1228 2736 
Q 959 2375 959 1747 
Q 959 1119 1226 758 
Q 1494 397 1959 397 
Q 2419 397 2687 759 
Q 2956 1122 2956 1747 
Q 2956 2369 2687 2733 
Q 2419 3097 1959 3097 
z
M 1959 3584 
Q 2709 3584 3137 3096 
Q 3566 2609 3566 1747 
Q 3566 888 3137 398 
Q 2709 -91 1959 -91 
Q 1206 -91 779 398 
Q 353 888 353 1747 
Q 353 2609 779 3096 
Q 1206 3584 1959 3584 
z
" transform="scale(0.015625)"/>
      <path id="DejaVuSans-79" d="M 2059 -325 
Q 1816 -950 1584 -1140 
Q 1353 -1331 966 -1331 
L 506 -1331 
L 506 -850 
L 844 -850 
Q 1081 -850 1212 -737 
Q 1344 -625 1503 -206 
L 1606 56 
L 191 3500 
L 800 3500 
L 1894 763 
L 2988 3500 
L 3597 3500 
L 2059 -325 
z
" transform="scale(0.015625)"/>
     </defs>
     <use xlink:href="#DejaVuSans-67"/>
     <use xlink:href="#DejaVuSans-65" x="63.476562"/>
     <use xlink:href="#DejaVuSans-74" x="125"/>
     <use xlink:href="#DejaVuSans-5f" x="164.208984"/>
     <use xlink:href="#DejaVuSans-73" x="214.208984"/>
     <use xlink:href="#DejaVuSans-75" x="266.308594"/>
     <use xlink:href="#DejaVuSans-62" x="329.6875"/>
     <use xlink:href="#DejaVuSans-73" x="393.164062"/>
     <use xlink:href="#DejaVuSans-63" x="445.263672"/>
     <use xlink:href="#DejaVuSans-72" x="500.244141"/>
     <use xlink:href="#DejaVuSans-69" x="541.357422"/>
     <use xlink:href="#DejaVuSans-62" x="569.140625"/>
     <use xlink:href="#DejaVuSans-65" x="632.617188"/>
     <use xlink:href="#DejaVuSans-20" x="694.140625"/>
     <use xlink:href="#DejaVuSans-68" x="725.927734"/>
     <use xlink:href="#DejaVuSans-69" x="789.306641"/>
     <use xlink:href="#DejaVuSans-73" x="817.089844"/>
     <use xlink:href="#DejaVuSans-74" x="869.189453"/>
     <use xlink:href="#DejaVuSans-6f" x="908.398438"/>
     <use xlink:href="#DejaVuSans-72" x="969.580078"/>
     <use xlink:href="#DejaVuSans-79" x="1010.693359"/>
    </g>
   </g>
   <g id="legend_1">
    <g id="line2d_37">
     <path d="M 815.08 328.498438 
L 825.08 328.498438 
L 835.08 328.498438 
" style="fill: none; stroke: #1f77b4; stroke-width: 1.5; stroke-linecap: square"/>
    </g>
    <g id="text_19">
     <!-- star -->
     <g style="fill: #a9a9a9" transform="translate(843.08 331.998438) scale(0.1 -0.1)">
      <defs>
       <path id="DejaVuSans-61" d="M 2194 1759 
Q 1497 1759 1228 1600 
Q 959 1441 959 1056 
Q 959 750 1161 570 
Q 1363 391 1709 391 
Q 2188 391 2477 730 
Q 2766 1069 2766 1631 
L 2766 1759 
L 2194 1759 
z
M 3341 1997 
L 3341 0 
L 2766 0 
L 2766 531 
Q 2569 213 2275 61 
Q 1981 -91 1556 -91 
Q 1019 -91 701 211 
Q 384 513 384 1019 
Q 384 1609 779 1909 
Q 1175 2209 1959 2209 
L 2766 2209 
L 2766 2266 
Q 2766 2663 2505 2880 
Q 2244 3097 1772 3097 
Q 1472 3097 1187 3025 
Q 903 2953 641 2809 
L 641 3341 
Q 956 3463 1253 3523 
Q 1550 3584 1831 3584 
Q 2591 3584 2966 3190 
Q 3341 2797 3341 1997 
z
" transform="scale(0.015625)"/>
      </defs>
      <use xlink:href="#DejaVuSans-73"/>
      <use xlink:href="#DejaVuSans-74" x="52.099609"/>
      <use xlink:href="#DejaVuSans-61" x="91.308594"/>
      <use xlink:href="#DejaVuSans-72" x="152.587891"/>
     </g>
    </g>
    <g id="line2d_38">
     <path d="M 815.08 343.176562 
L 825.08 343.176562 
L 835.08 343.176562 
" style="fill: none; stroke: #ff7f0e; stroke-width: 1.5; stroke-linecap: square"/>
    </g>
    <g id="text_20">
     <!-- fork -->
     <g style="fill: #a9a9a9" transform="translate(843.08 346.676562) scale(0.1 -0.1)">
      <defs>
       <path id="DejaVuSans-66" d="M 2375 4863 
L 2375 4384 
L 1825 4384 
Q 1516 4384 1395 4259 
Q 1275 4134 1275 3809 
L 1275 3500 
L 2222 3500 
L 2222 3053 
L 1275 3053 
L 1275 0 
L 697 0 
L 697 3053 
L 147 3053 
L 147 3500 
L 697 3500 
L 697 3744 
Q 697 4328 969 4595 
Q 1241 4863 1831 4863 
L 2375 4863 
z
" transform="scale(0.015625)"/>
       <path id="DejaVuSans-6b" d="M 581 4863 
L 1159 4863 
L 1159 1991 
L 2875 3500 
L 3609 3500 
L 1753 1863 
L 3688 0 
L 2938 0 
L 1159 1709 
L 1159 0 
L 581 0 
L 581 4863 
z
" transform="scale(0.015625)"/>
      </defs>
      <use xlink:href="#DejaVuSans-66"/>
      <use xlink:href="#DejaVuSans-6f" x="35.205078"/>
      <use xlink:href="#DejaVuSans-72" x="96.386719"/>
      <use xlink:href="#DejaVuSans-6b" x="137.5"/>
     </g>
    </g>
   </g>
  </g>
 </g>
 <defs>
  <clipPath id="pc9e69cc00a">
   <rect x="108" y="43.2" width="669.6" height="277.2"/>
  </clipPath>
 </defs>
</svg>
