<?xml version="1.0" encoding="utf-8" standalone="no"?>
<!DOCTYPE svg PUBLIC "-//W3C//DTD SVG 1.1//EN"
  "http://www.w3.org/Graphics/SVG/1.1/DTD/svg11.dtd">
<svg xmlns:xlink="http://www.w3.org/1999/xlink" width="864pt" height="360pt" viewBox="0 0 864 360" xmlns="http://www.w3.org/2000/svg" version="1.1">
 <metadata>
  <rdf:RDF xmlns:dc="http://purl.org/dc/elements/1.1/" xmlns:cc="http://creativecommons.org/ns#" xmlns:rdf="http://www.w3.org/1999/02/22-rdf-syntax-ns#">
   <cc:Work>
    <dc:type rdf:resource="http://purl.org/dc/dcmitype/StillImage"/>
    <dc:date>2024-05-03T08:11:46.755122</dc:date>
    <dc:format>image/svg+xml</dc:format>
    <dc:creator>
     <cc:Agent>
      <dc:title>Matplotlib v3.8.4, https://matplotlib.org/</dc:title>
     </cc:Agent>
    </dc:creator>
   </cc:Work>
  </rdf:RDF>
 </metadata>
 <defs>
  <style type="text/css">*{stroke-linejoin: round; stroke-linecap: butt}</style>
 </defs>
 <g id="figure_1">
  <g id="patch_1">
   <path d="M 0 360 
L 864 360 
L 864 0 
L 0 0 
L 0 360 
z
" style="fill: none; opacity: 0"/>
  </g>
  <g id="axes_1">
   <g id="patch_2">
    <path d="M 108 320.4 
L 777.6 320.4 
L 777.6 43.2 
L 108 43.2 
L 108 320.4 
z
" style="fill: none; opacity: 0"/>
   </g>
   <g id="matplotlib.axis_1">
    <g id="xtick_1">
     <g id="line2d_1">
      <path d="M 161.848951 320.4 
L 161.848951 43.2 
" clip-path="url(#p3646f39f34)" style="fill: none; stroke-dasharray: 5.12,1.28,0.8,1.28; stroke-dashoffset: 0; stroke: #b0b0b0; stroke-width: 0.8"/>
     </g>
     <g id="line2d_2">
      <defs>
       <path id="mc315454df7" d="M 0 0 
L 0 3.5 
" style="stroke: #a9a9a9; stroke-width: 0.8"/>
      </defs>
      <g>
       <use xlink:href="#mc315454df7" x="161.848951" y="320.4" style="fill: #a9a9a9; stroke: #a9a9a9; stroke-width: 0.8"/>
      </g>
     </g>
     <g id="text_1">
      <!-- 2021-09 -->
      <g style="fill: #a9a9a9" transform="translate(140.957545 334.998438) scale(0.1 -0.1)">
       <defs>
        <path id="DejaVuSans-32" d="M 1228 531 
L 3431 531 
L 3431 0 
L 469 0 
L 469 531 
Q 828 903 1448 1529 
Q 2069 2156 2228 2338 
Q 2531 2678 2651 2914 
Q 2772 3150 2772 3378 
Q 2772 3750 2511 3984 
Q 2250 4219 1831 4219 
Q 1534 4219 1204 4116 
Q 875 4013 500 3803 
L 500 4441 
Q 881 4594 1212 4672 
Q 1544 4750 1819 4750 
Q 2544 4750 2975 4387 
Q 3406 4025 3406 3419 
Q 3406 3131 3298 2873 
Q 3191 2616 2906 2266 
Q 2828 2175 2409 1742 
Q 1991 1309 1228 531 
z
" transform="scale(0.015625)"/>
        <path id="DejaVuSans-30" d="M 2034 4250 
Q 1547 4250 1301 3770 
Q 1056 3291 1056 2328 
Q 1056 1369 1301 889 
Q 1547 409 2034 409 
Q 2525 409 2770 889 
Q 3016 1369 3016 2328 
Q 3016 3291 2770 3770 
Q 2525 4250 2034 4250 
z
M 2034 4750 
Q 2819 4750 3233 4129 
Q 3647 3509 3647 2328 
Q 3647 1150 3233 529 
Q 2819 -91 2034 -91 
Q 1250 -91 836 529 
Q 422 1150 422 2328 
Q 422 3509 836 4129 
Q 1250 4750 2034 4750 
z
" transform="scale(0.015625)"/>
        <path id="DejaVuSans-31" d="M 794 531 
L 1825 531 
L 1825 4091 
L 703 3866 
L 703 4441 
L 1819 4666 
L 2450 4666 
L 2450 531 
L 3481 531 
L 3481 0 
L 794 0 
L 794 531 
z
" transform="scale(0.015625)"/>
        <path id="DejaVuSans-2d" d="M 313 2009 
L 1997 2009 
L 1997 1497 
L 313 1497 
L 313 2009 
z
" transform="scale(0.015625)"/>
        <path id="DejaVuSans-39" d="M 703 97 
L 703 672 
Q 941 559 1184 500 
Q 1428 441 1663 441 
Q 2288 441 2617 861 
Q 2947 1281 2994 2138 
Q 2813 1869 2534 1725 
Q 2256 1581 1919 1581 
Q 1219 1581 811 2004 
Q 403 2428 403 3163 
Q 403 3881 828 4315 
Q 1253 4750 1959 4750 
Q 2769 4750 3195 4129 
Q 3622 3509 3622 2328 
Q 3622 1225 3098 567 
Q 2575 -91 1691 -91 
Q 1453 -91 1209 -44 
Q 966 3 703 97 
z
M 1959 2075 
Q 2384 2075 2632 2365 
Q 2881 2656 2881 3163 
Q 2881 3666 2632 3958 
Q 2384 4250 1959 4250 
Q 1534 4250 1286 3958 
Q 1038 3666 1038 3163 
Q 1038 2656 1286 2365 
Q 1534 2075 1959 2075 
z
" transform="scale(0.015625)"/>
       </defs>
       <use xlink:href="#DejaVuSans-32"/>
       <use xlink:href="#DejaVuSans-30" x="63.623047"/>
       <use xlink:href="#DejaVuSans-32" x="127.246094"/>
       <use xlink:href="#DejaVuSans-31" x="190.869141"/>
       <use xlink:href="#DejaVuSans-2d" x="254.492188"/>
       <use xlink:href="#DejaVuSans-30" x="290.576172"/>
       <use xlink:href="#DejaVuSans-39" x="354.199219"/>
      </g>
     </g>
    </g>
    <g id="xtick_2">
     <g id="line2d_3">
      <path d="M 235.088327 320.4 
L 235.088327 43.2 
" clip-path="url(#p3646f39f34)" style="fill: none; stroke-dasharray: 5.12,1.28,0.8,1.28; stroke-dashoffset: 0; stroke: #b0b0b0; stroke-width: 0.8"/>
     </g>
     <g id="line2d_4">
      <g>
       <use xlink:href="#mc315454df7" x="235.088327" y="320.4" style="fill: #a9a9a9; stroke: #a9a9a9; stroke-width: 0.8"/>
      </g>
     </g>
     <g id="text_2">
      <!-- 2022-01 -->
      <g style="fill: #a9a9a9" transform="translate(214.196921 334.998438) scale(0.1 -0.1)">
       <use xlink:href="#DejaVuSans-32"/>
       <use xlink:href="#DejaVuSans-30" x="63.623047"/>
       <use xlink:href="#DejaVuSans-32" x="127.246094"/>
       <use xlink:href="#DejaVuSans-32" x="190.869141"/>
       <use xlink:href="#DejaVuSans-2d" x="254.492188"/>
       <use xlink:href="#DejaVuSans-30" x="290.576172"/>
       <use xlink:href="#DejaVuSans-31" x="354.199219"/>
      </g>
     </g>
    </g>
    <g id="xtick_3">
     <g id="line2d_5">
      <path d="M 307.127058 320.4 
L 307.127058 43.2 
" clip-path="url(#p3646f39f34)" style="fill: none; stroke-dasharray: 5.12,1.28,0.8,1.28; stroke-dashoffset: 0; stroke: #b0b0b0; stroke-width: 0.8"/>
     </g>
     <g id="line2d_6">
      <g>
       <use xlink:href="#mc315454df7" x="307.127058" y="320.4" style="fill: #a9a9a9; stroke: #a9a9a9; stroke-width: 0.8"/>
      </g>
     </g>
     <g id="text_3">
      <!-- 2022-05 -->
      <g style="fill: #a9a9a9" transform="translate(286.235651 334.998438) scale(0.1 -0.1)">
       <defs>
        <path id="DejaVuSans-35" d="M 691 4666 
L 3169 4666 
L 3169 4134 
L 1269 4134 
L 1269 2991 
Q 1406 3038 1543 3061 
Q 1681 3084 1819 3084 
Q 2600 3084 3056 2656 
Q 3513 2228 3513 1497 
Q 3513 744 3044 326 
Q 2575 -91 1722 -91 
Q 1428 -91 1123 -41 
Q 819 9 494 109 
L 494 744 
Q 775 591 1075 516 
Q 1375 441 1709 441 
Q 2250 441 2565 725 
Q 2881 1009 2881 1497 
Q 2881 1984 2565 2268 
Q 2250 2553 1709 2553 
Q 1456 2553 1204 2497 
Q 953 2441 691 2322 
L 691 4666 
z
" transform="scale(0.015625)"/>
       </defs>
       <use xlink:href="#DejaVuSans-32"/>
       <use xlink:href="#DejaVuSans-30" x="63.623047"/>
       <use xlink:href="#DejaVuSans-32" x="127.246094"/>
       <use xlink:href="#DejaVuSans-32" x="190.869141"/>
       <use xlink:href="#DejaVuSans-2d" x="254.492188"/>
       <use xlink:href="#DejaVuSans-30" x="290.576172"/>
       <use xlink:href="#DejaVuSans-35" x="354.199219"/>
      </g>
     </g>
    </g>
    <g id="xtick_4">
     <g id="line2d_7">
      <path d="M 380.966756 320.4 
L 380.966756 43.2 
" clip-path="url(#p3646f39f34)" style="fill: none; stroke-dasharray: 5.12,1.28,0.8,1.28; stroke-dashoffset: 0; stroke: #b0b0b0; stroke-width: 0.8"/>
     </g>
     <g id="line2d_8">
      <g>
       <use xlink:href="#mc315454df7" x="380.966756" y="320.4" style="fill: #a9a9a9; stroke: #a9a9a9; stroke-width: 0.8"/>
      </g>
     </g>
     <g id="text_4">
      <!-- 2022-09 -->
      <g style="fill: #a9a9a9" transform="translate(360.07535 334.998438) scale(0.1 -0.1)">
       <use xlink:href="#DejaVuSans-32"/>
       <use xlink:href="#DejaVuSans-30" x="63.623047"/>
       <use xlink:href="#DejaVuSans-32" x="127.246094"/>
       <use xlink:href="#DejaVuSans-32" x="190.869141"/>
       <use xlink:href="#DejaVuSans-2d" x="254.492188"/>
       <use xlink:href="#DejaVuSans-30" x="290.576172"/>
       <use xlink:href="#DejaVuSans-39" x="354.199219"/>
      </g>
     </g>
    </g>
    <g id="xtick_5">
     <g id="line2d_9">
      <path d="M 454.206132 320.4 
L 454.206132 43.2 
" clip-path="url(#p3646f39f34)" style="fill: none; stroke-dasharray: 5.12,1.28,0.8,1.28; stroke-dashoffset: 0; stroke: #b0b0b0; stroke-width: 0.8"/>
     </g>
     <g id="line2d_10">
      <g>
       <use xlink:href="#mc315454df7" x="454.206132" y="320.4" style="fill: #a9a9a9; stroke: #a9a9a9; stroke-width: 0.8"/>
      </g>
     </g>
     <g id="text_5">
      <!-- 2023-01 -->
      <g style="fill: #a9a9a9" transform="translate(433.314726 334.998438) scale(0.1 -0.1)">
       <defs>
        <path id="DejaVuSans-33" d="M 2597 2516 
Q 3050 2419 3304 2112 
Q 3559 1806 3559 1356 
Q 3559 666 3084 287 
Q 2609 -91 1734 -91 
Q 1441 -91 1130 -33 
Q 819 25 488 141 
L 488 750 
Q 750 597 1062 519 
Q 1375 441 1716 441 
Q 2309 441 2620 675 
Q 2931 909 2931 1356 
Q 2931 1769 2642 2001 
Q 2353 2234 1838 2234 
L 1294 2234 
L 1294 2753 
L 1863 2753 
Q 2328 2753 2575 2939 
Q 2822 3125 2822 3475 
Q 2822 3834 2567 4026 
Q 2313 4219 1838 4219 
Q 1578 4219 1281 4162 
Q 984 4106 628 3988 
L 628 4550 
Q 988 4650 1302 4700 
Q 1616 4750 1894 4750 
Q 2613 4750 3031 4423 
Q 3450 4097 3450 3541 
Q 3450 3153 3228 2886 
Q 3006 2619 2597 2516 
z
" transform="scale(0.015625)"/>
       </defs>
       <use xlink:href="#DejaVuSans-32"/>
       <use xlink:href="#DejaVuSans-30" x="63.623047"/>
       <use xlink:href="#DejaVuSans-32" x="127.246094"/>
       <use xlink:href="#DejaVuSans-33" x="190.869141"/>
       <use xlink:href="#DejaVuSans-2d" x="254.492188"/>
       <use xlink:href="#DejaVuSans-30" x="290.576172"/>
       <use xlink:href="#DejaVuSans-31" x="354.199219"/>
      </g>
     </g>
    </g>
    <g id="xtick_6">
     <g id="line2d_11">
      <path d="M 526.244863 320.4 
L 526.244863 43.2 
" clip-path="url(#p3646f39f34)" style="fill: none; stroke-dasharray: 5.12,1.28,0.8,1.28; stroke-dashoffset: 0; stroke: #b0b0b0; stroke-width: 0.8"/>
     </g>
     <g id="line2d_12">
      <g>
       <use xlink:href="#mc315454df7" x="526.244863" y="320.4" style="fill: #a9a9a9; stroke: #a9a9a9; stroke-width: 0.8"/>
      </g>
     </g>
     <g id="text_6">
      <!-- 2023-05 -->
      <g style="fill: #a9a9a9" transform="translate(505.353457 334.998438) scale(0.1 -0.1)">
       <use xlink:href="#DejaVuSans-32"/>
       <use xlink:href="#DejaVuSans-30" x="63.623047"/>
       <use xlink:href="#DejaVuSans-32" x="127.246094"/>
       <use xlink:href="#DejaVuSans-33" x="190.869141"/>
       <use xlink:href="#DejaVuSans-2d" x="254.492188"/>
       <use xlink:href="#DejaVuSans-30" x="290.576172"/>
       <use xlink:href="#DejaVuSans-35" x="354.199219"/>
      </g>
     </g>
    </g>
    <g id="xtick_7">
     <g id="line2d_13">
      <path d="M 600.084562 320.4 
L 600.084562 43.2 
" clip-path="url(#p3646f39f34)" style="fill: none; stroke-dasharray: 5.12,1.28,0.8,1.28; stroke-dashoffset: 0; stroke: #b0b0b0; stroke-width: 0.8"/>
     </g>
     <g id="line2d_14">
      <g>
       <use xlink:href="#mc315454df7" x="600.084562" y="320.4" style="fill: #a9a9a9; stroke: #a9a9a9; stroke-width: 0.8"/>
      </g>
     </g>
     <g id="text_7">
      <!-- 2023-09 -->
      <g style="fill: #a9a9a9" transform="translate(579.193155 334.998438) scale(0.1 -0.1)">
       <use xlink:href="#DejaVuSans-32"/>
       <use xlink:href="#DejaVuSans-30" x="63.623047"/>
       <use xlink:href="#DejaVuSans-32" x="127.246094"/>
       <use xlink:href="#DejaVuSans-33" x="190.869141"/>
       <use xlink:href="#DejaVuSans-2d" x="254.492188"/>
       <use xlink:href="#DejaVuSans-30" x="290.576172"/>
       <use xlink:href="#DejaVuSans-39" x="354.199219"/>
      </g>
     </g>
    </g>
    <g id="xtick_8">
     <g id="line2d_15">
      <path d="M 673.323938 320.4 
L 673.323938 43.2 
" clip-path="url(#p3646f39f34)" style="fill: none; stroke-dasharray: 5.12,1.28,0.8,1.28; stroke-dashoffset: 0; stroke: #b0b0b0; stroke-width: 0.8"/>
     </g>
     <g id="line2d_16">
      <g>
       <use xlink:href="#mc315454df7" x="673.323938" y="320.4" style="fill: #a9a9a9; stroke: #a9a9a9; stroke-width: 0.8"/>
      </g>
     </g>
     <g id="text_8">
      <!-- 2024-01 -->
      <g style="fill: #a9a9a9" transform="translate(652.432531 334.998438) scale(0.1 -0.1)">
       <defs>
        <path id="DejaVuSans-34" d="M 2419 4116 
L 825 1625 
L 2419 1625 
L 2419 4116 
z
M 2253 4666 
L 3047 4666 
L 3047 1625 
L 3713 1625 
L 3713 1100 
L 3047 1100 
L 3047 0 
L 2419 0 
L 2419 1100 
L 313 1100 
L 313 1709 
L 2253 4666 
z
" transform="scale(0.015625)"/>
       </defs>
       <use xlink:href="#DejaVuSans-32"/>
       <use xlink:href="#DejaVuSans-30" x="63.623047"/>
       <use xlink:href="#DejaVuSans-32" x="127.246094"/>
       <use xlink:href="#DejaVuSans-34" x="190.869141"/>
       <use xlink:href="#DejaVuSans-2d" x="254.492188"/>
       <use xlink:href="#DejaVuSans-30" x="290.576172"/>
       <use xlink:href="#DejaVuSans-31" x="354.199219"/>
      </g>
     </g>
    </g>
    <g id="xtick_9">
     <g id="line2d_17">
      <path d="M 745.962991 320.4 
L 745.962991 43.2 
" clip-path="url(#p3646f39f34)" style="fill: none; stroke-dasharray: 5.12,1.28,0.8,1.28; stroke-dashoffset: 0; stroke: #b0b0b0; stroke-width: 0.8"/>
     </g>
     <g id="line2d_18">
      <g>
       <use xlink:href="#mc315454df7" x="745.962991" y="320.4" style="fill: #a9a9a9; stroke: #a9a9a9; stroke-width: 0.8"/>
      </g>
     </g>
     <g id="text_9">
      <!-- 2024-05 -->
      <g style="fill: #a9a9a9" transform="translate(725.071585 334.998438) scale(0.1 -0.1)">
       <use xlink:href="#DejaVuSans-32"/>
       <use xlink:href="#DejaVuSans-30" x="63.623047"/>
       <use xlink:href="#DejaVuSans-32" x="127.246094"/>
       <use xlink:href="#DejaVuSans-34" x="190.869141"/>
       <use xlink:href="#DejaVuSans-2d" x="254.492188"/>
       <use xlink:href="#DejaVuSans-30" x="290.576172"/>
       <use xlink:href="#DejaVuSans-35" x="354.199219"/>
      </g>
     </g>
    </g>
   </g>
   <g id="matplotlib.axis_2">
    <g id="ytick_1">
     <g id="line2d_19">
      <path d="M 108 307.841784 
L 777.6 307.841784 
" clip-path="url(#p3646f39f34)" style="fill: none; stroke-dasharray: 5.12,1.28,0.8,1.28; stroke-dashoffset: 0; stroke: #b0b0b0; stroke-width: 0.8"/>
     </g>
     <g id="line2d_20">
      <defs>
       <path id="m1f6ad79afd" d="M 0 0 
L -3.5 0 
" style="stroke: #a9a9a9; stroke-width: 0.8"/>
      </defs>
      <g>
       <use xlink:href="#m1f6ad79afd" x="108" y="307.841784" style="fill: #a9a9a9; stroke: #a9a9a9; stroke-width: 0.8"/>
      </g>
     </g>
     <g id="text_10">
      <!-- 0 -->
      <g style="fill: #a9a9a9" transform="translate(94.6375 311.641003) scale(0.1 -0.1)">
       <use xlink:href="#DejaVuSans-30"/>
      </g>
     </g>
    </g>
    <g id="ytick_2">
     <g id="line2d_21">
      <path d="M 108 274.414492 
L 777.6 274.414492 
" clip-path="url(#p3646f39f34)" style="fill: none; stroke-dasharray: 5.12,1.28,0.8,1.28; stroke-dashoffset: 0; stroke: #b0b0b0; stroke-width: 0.8"/>
     </g>
     <g id="line2d_22">
      <g>
       <use xlink:href="#m1f6ad79afd" x="108" y="274.414492" style="fill: #a9a9a9; stroke: #a9a9a9; stroke-width: 0.8"/>
      </g>
     </g>
     <g id="text_11">
      <!-- 800 -->
      <g style="fill: #a9a9a9" transform="translate(81.9125 278.213711) scale(0.1 -0.1)">
       <defs>
        <path id="DejaVuSans-38" d="M 2034 2216 
Q 1584 2216 1326 1975 
Q 1069 1734 1069 1313 
Q 1069 891 1326 650 
Q 1584 409 2034 409 
Q 2484 409 2743 651 
Q 3003 894 3003 1313 
Q 3003 1734 2745 1975 
Q 2488 2216 2034 2216 
z
M 1403 2484 
Q 997 2584 770 2862 
Q 544 3141 544 3541 
Q 544 4100 942 4425 
Q 1341 4750 2034 4750 
Q 2731 4750 3128 4425 
Q 3525 4100 3525 3541 
Q 3525 3141 3298 2862 
Q 3072 2584 2669 2484 
Q 3125 2378 3379 2068 
Q 3634 1759 3634 1313 
Q 3634 634 3220 271 
Q 2806 -91 2034 -91 
Q 1263 -91 848 271 
Q 434 634 434 1313 
Q 434 1759 690 2068 
Q 947 2378 1403 2484 
z
M 1172 3481 
Q 1172 3119 1398 2916 
Q 1625 2713 2034 2713 
Q 2441 2713 2670 2916 
Q 2900 3119 2900 3481 
Q 2900 3844 2670 4047 
Q 2441 4250 2034 4250 
Q 1625 4250 1398 4047 
Q 1172 3844 1172 3481 
z
" transform="scale(0.015625)"/>
       </defs>
       <use xlink:href="#DejaVuSans-38"/>
       <use xlink:href="#DejaVuSans-30" x="63.623047"/>
       <use xlink:href="#DejaVuSans-30" x="127.246094"/>
      </g>
     </g>
    </g>
    <g id="ytick_3">
     <g id="line2d_23">
      <path d="M 108 240.987199 
L 777.6 240.987199 
" clip-path="url(#p3646f39f34)" style="fill: none; stroke-dasharray: 5.12,1.28,0.8,1.28; stroke-dashoffset: 0; stroke: #b0b0b0; stroke-width: 0.8"/>
     </g>
     <g id="line2d_24">
      <g>
       <use xlink:href="#m1f6ad79afd" x="108" y="240.987199" style="fill: #a9a9a9; stroke: #a9a9a9; stroke-width: 0.8"/>
      </g>
     </g>
     <g id="text_12">
      <!-- 1600 -->
      <g style="fill: #a9a9a9" transform="translate(75.55 244.786418) scale(0.1 -0.1)">
       <defs>
        <path id="DejaVuSans-36" d="M 2113 2584 
Q 1688 2584 1439 2293 
Q 1191 2003 1191 1497 
Q 1191 994 1439 701 
Q 1688 409 2113 409 
Q 2538 409 2786 701 
Q 3034 994 3034 1497 
Q 3034 2003 2786 2293 
Q 2538 2584 2113 2584 
z
M 3366 4563 
L 3366 3988 
Q 3128 4100 2886 4159 
Q 2644 4219 2406 4219 
Q 1781 4219 1451 3797 
Q 1122 3375 1075 2522 
Q 1259 2794 1537 2939 
Q 1816 3084 2150 3084 
Q 2853 3084 3261 2657 
Q 3669 2231 3669 1497 
Q 3669 778 3244 343 
Q 2819 -91 2113 -91 
Q 1303 -91 875 529 
Q 447 1150 447 2328 
Q 447 3434 972 4092 
Q 1497 4750 2381 4750 
Q 2619 4750 2861 4703 
Q 3103 4656 3366 4563 
z
" transform="scale(0.015625)"/>
       </defs>
       <use xlink:href="#DejaVuSans-31"/>
       <use xlink:href="#DejaVuSans-36" x="63.623047"/>
       <use xlink:href="#DejaVuSans-30" x="127.246094"/>
       <use xlink:href="#DejaVuSans-30" x="190.869141"/>
      </g>
     </g>
    </g>
    <g id="ytick_4">
     <g id="line2d_25">
      <path d="M 108 207.559907 
L 777.6 207.559907 
" clip-path="url(#p3646f39f34)" style="fill: none; stroke-dasharray: 5.12,1.28,0.8,1.28; stroke-dashoffset: 0; stroke: #b0b0b0; stroke-width: 0.8"/>
     </g>
     <g id="line2d_26">
      <g>
       <use xlink:href="#m1f6ad79afd" x="108" y="207.559907" style="fill: #a9a9a9; stroke: #a9a9a9; stroke-width: 0.8"/>
      </g>
     </g>
     <g id="text_13">
      <!-- 2400 -->
      <g style="fill: #a9a9a9" transform="translate(75.55 211.359126) scale(0.1 -0.1)">
       <use xlink:href="#DejaVuSans-32"/>
       <use xlink:href="#DejaVuSans-34" x="63.623047"/>
       <use xlink:href="#DejaVuSans-30" x="127.246094"/>
       <use xlink:href="#DejaVuSans-30" x="190.869141"/>
      </g>
     </g>
    </g>
    <g id="ytick_5">
     <g id="line2d_27">
      <path d="M 108 174.132615 
L 777.6 174.132615 
" clip-path="url(#p3646f39f34)" style="fill: none; stroke-dasharray: 5.12,1.28,0.8,1.28; stroke-dashoffset: 0; stroke: #b0b0b0; stroke-width: 0.8"/>
     </g>
     <g id="line2d_28">
      <g>
       <use xlink:href="#m1f6ad79afd" x="108" y="174.132615" style="fill: #a9a9a9; stroke: #a9a9a9; stroke-width: 0.8"/>
      </g>
     </g>
     <g id="text_14">
      <!-- 3200 -->
      <g style="fill: #a9a9a9" transform="translate(75.55 177.931834) scale(0.1 -0.1)">
       <use xlink:href="#DejaVuSans-33"/>
       <use xlink:href="#DejaVuSans-32" x="63.623047"/>
       <use xlink:href="#DejaVuSans-30" x="127.246094"/>
       <use xlink:href="#DejaVuSans-30" x="190.869141"/>
      </g>
     </g>
    </g>
    <g id="ytick_6">
     <g id="line2d_29">
      <path d="M 108 140.705323 
L 777.6 140.705323 
" clip-path="url(#p3646f39f34)" style="fill: none; stroke-dasharray: 5.12,1.28,0.8,1.28; stroke-dashoffset: 0; stroke: #b0b0b0; stroke-width: 0.8"/>
     </g>
     <g id="line2d_30">
      <g>
       <use xlink:href="#m1f6ad79afd" x="108" y="140.705323" style="fill: #a9a9a9; stroke: #a9a9a9; stroke-width: 0.8"/>
      </g>
     </g>
     <g id="text_15">
      <!-- 4000 -->
      <g style="fill: #a9a9a9" transform="translate(75.55 144.504541) scale(0.1 -0.1)">
       <use xlink:href="#DejaVuSans-34"/>
       <use xlink:href="#DejaVuSans-30" x="63.623047"/>
       <use xlink:href="#DejaVuSans-30" x="127.246094"/>
       <use xlink:href="#DejaVuSans-30" x="190.869141"/>
      </g>
     </g>
    </g>
    <g id="ytick_7">
     <g id="line2d_31">
      <path d="M 108 107.27803 
L 777.6 107.27803 
" clip-path="url(#p3646f39f34)" style="fill: none; stroke-dasharray: 5.12,1.28,0.8,1.28; stroke-dashoffset: 0; stroke: #b0b0b0; stroke-width: 0.8"/>
     </g>
     <g id="line2d_32">
      <g>
       <use xlink:href="#m1f6ad79afd" x="108" y="107.27803" style="fill: #a9a9a9; stroke: #a9a9a9; stroke-width: 0.8"/>
      </g>
     </g>
     <g id="text_16">
      <!-- 4800 -->
      <g style="fill: #a9a9a9" transform="translate(75.55 111.077249) scale(0.1 -0.1)">
       <use xlink:href="#DejaVuSans-34"/>
       <use xlink:href="#DejaVuSans-38" x="63.623047"/>
       <use xlink:href="#DejaVuSans-30" x="127.246094"/>
       <use xlink:href="#DejaVuSans-30" x="190.869141"/>
      </g>
     </g>
    </g>
    <g id="ytick_8">
     <g id="line2d_33">
      <path d="M 108 73.850738 
L 777.6 73.850738 
" clip-path="url(#p3646f39f34)" style="fill: none; stroke-dasharray: 5.12,1.28,0.8,1.28; stroke-dashoffset: 0; stroke: #b0b0b0; stroke-width: 0.8"/>
     </g>
     <g id="line2d_34">
      <g>
       <use xlink:href="#m1f6ad79afd" x="108" y="73.850738" style="fill: #a9a9a9; stroke: #a9a9a9; stroke-width: 0.8"/>
      </g>
     </g>
     <g id="text_17">
      <!-- 5600 -->
      <g style="fill: #a9a9a9" transform="translate(75.55 77.649957) scale(0.1 -0.1)">
       <use xlink:href="#DejaVuSans-35"/>
       <use xlink:href="#DejaVuSans-36" x="63.623047"/>
       <use xlink:href="#DejaVuSans-30" x="127.246094"/>
       <use xlink:href="#DejaVuSans-30" x="190.869141"/>
      </g>
     </g>
    </g>
   </g>
   <g id="line2d_35">
    <path d="M 138.436364 307.716432 
L 142.0383 307.423943 
L 142.638623 307.173238 
L 144.439591 306.964318 
L 148.041528 306.253988 
L 151.643464 305.961499 
L 152.243787 305.66901 
L 152.84411 305.501874 
L 153.444432 304.74976 
L 154.044755 304.331918 
L 154.645078 303.036611 
L 155.245401 302.953043 
L 155.845724 302.493417 
L 157.046369 301.90844 
L 159.44766 300.069939 
L 160.648306 299.568529 
L 161.248628 299.150688 
L 163.649919 298.106085 
L 164.250242 297.186835 
L 165.450888 296.351152 
L 166.05121 296.058664 
L 172.054438 295.222981 
L 172.654761 294.930492 
L 176.85702 294.59622 
L 178.657988 294.136594 
L 184.060893 293.426264 
L 184.661216 293.091991 
L 185.261538 293.008423 
L 185.861861 292.757718 
L 187.062507 292.548798 
L 187.662829 292.507014 
L 188.863475 292.256309 
L 189.463798 292.214525 
L 191.865089 291.629547 
L 193.666057 291.462411 
L 194.866703 291.337059 
L 195.467025 291.169922 
L 196.067348 291.128138 
L 197.868316 290.584944 
L 199.068962 290.501376 
L 200.269607 290.33424 
L 201.470253 290.083535 
L 202.070576 289.916399 
L 202.670898 289.1225 
L 204.471867 288.453955 
L 206.272835 287.994329 
L 206.873158 287.70184 
L 207.47348 287.660056 
L 210.475094 286.824374 
L 211.67574 286.740806 
L 212.276062 286.657238 
L 214.077031 286.114044 
L 216.478322 285.529066 
L 217.078644 285.278362 
L 217.678967 285.194794 
L 218.27929 284.902305 
L 224.282517 284.024838 
L 227.284131 283.189156 
L 227.884454 282.813099 
L 230.285745 282.186337 
L 232.687036 280.974598 
L 234.488004 280.556757 
L 235.088327 280.473189 
L 235.68865 280.1807 
L 236.889295 279.971779 
L 238.089941 279.428586 
L 241.091555 278.676472 
L 242.892523 278.216846 
L 243.492846 277.966142 
L 244.093168 277.840789 
L 244.693491 277.590085 
L 245.293814 277.506516 
L 245.894137 277.214028 
L 246.494459 277.046891 
L 247.695105 276.963323 
L 248.89575 276.545482 
L 250.096396 276.461913 
L 250.696719 276.169425 
L 251.897364 276.002288 
L 252.497687 275.793368 
L 253.698332 275.751583 
L 256.099623 275.459095 
L 257.300269 274.874117 
L 263.903819 272.074581 
L 264.504142 271.740308 
L 265.104465 271.113547 
L 266.30511 269.358614 
L 266.905433 269.191477 
L 267.505756 269.191477 
L 268.706401 268.314011 
L 269.306724 268.146874 
L 269.907047 267.854386 
L 270.50737 267.729033 
L 271.107692 267.18584 
L 271.708015 267.018703 
L 273.508983 266.141237 
L 274.709629 264.469872 
L 275.309952 264.093815 
L 275.910274 263.090997 
L 276.510597 262.464235 
L 277.11092 262.171746 
L 277.711243 262.00461 
L 280.112534 260.58395 
L 281.313179 259.622915 
L 281.913502 259.246858 
L 282.513825 258.369391 
L 283.114147 257.0323 
L 283.71447 256.154833 
L 284.314793 255.695208 
L 284.915116 255.444503 
L 287.316407 253.355298 
L 288.517052 252.394263 
L 289.117375 251.892854 
L 289.717698 251.098955 
L 290.918343 250.054353 
L 293.319634 248.50834 
L 293.919957 248.006931 
L 294.52028 247.881579 
L 295.120602 247.630874 
L 296.921571 246.628055 
L 298.722539 245.499884 
L 300.523507 243.744951 
L 301.12383 243.368894 
L 301.724153 243.201758 
L 302.324476 242.909269 
L 303.525121 242.115371 
L 304.125444 241.781098 
L 304.725767 241.697529 
L 309.528349 238.814425 
L 311.329317 237.853391 
L 311.92964 237.310197 
L 314.330931 236.558083 
L 314.931253 236.140242 
L 315.531576 236.01489 
L 316.732222 235.597049 
L 318.53319 234.886719 
L 320.334158 234.218173 
L 321.534804 234.009252 
L 322.735449 232.964649 
L 324.536417 232.128967 
L 325.737063 231.418637 
L 326.937708 231.084364 
L 327.538031 230.708307 
L 328.138354 230.541171 
L 329.939322 229.413 
L 332.940936 228.70267 
L 334.741904 227.658067 
L 335.342227 227.574498 
L 335.94255 227.365578 
L 337.143195 227.114873 
L 338.944164 225.777781 
L 340.745132 225.35994 
L 341.345455 225.15102 
L 341.945777 224.691394 
L 345.547714 223.521439 
L 346.148037 223.479655 
L 346.748359 223.312519 
L 347.949005 222.811109 
L 352.151264 221.348665 
L 353.35191 221.181529 
L 353.952232 221.014392 
L 354.552555 220.721903 
L 355.152878 220.596551 
L 356.953846 219.760869 
L 358.754814 218.883402 
L 359.355137 218.465561 
L 359.95546 218.298425 
L 361.756428 217.33739 
L 362.957074 217.044901 
L 364.157719 216.41814 
L 365.358365 216.083867 
L 365.958687 216.000298 
L 367.159333 215.289968 
L 367.759656 215.164616 
L 368.960301 214.663207 
L 369.560624 214.537854 
L 370.160947 214.203581 
L 372.562238 213.827524 
L 373.762883 213.242547 
L 374.363206 212.741137 
L 374.963529 211.696535 
L 376.764497 211.362262 
L 379.165788 210.108738 
L 379.766111 209.983386 
L 383.96837 207.977748 
L 385.169016 207.643475 
L 386.369661 207.392771 
L 387.570307 206.807793 
L 388.170629 206.557088 
L 388.770952 206.47352 
L 391.172243 205.428917 
L 392.973211 204.300746 
L 393.573534 204.217178 
L 394.173857 204.008257 
L 394.77418 203.966473 
L 397.175471 203.297927 
L 397.775793 203.256143 
L 398.376116 202.796518 
L 399.576762 202.378677 
L 401.37773 201.793699 
L 401.978053 201.417642 
L 402.578375 201.250506 
L 403.178698 200.832665 
L 403.779021 200.58196 
L 404.979666 199.955198 
L 407.380958 199.244868 
L 407.98128 198.952379 
L 409.782249 197.573504 
L 410.382571 197.448151 
L 411.583217 196.528901 
L 412.18354 196.403548 
L 412.783862 195.484298 
L 413.384185 195.233593 
L 413.984508 194.773968 
L 414.584831 194.6904 
L 415.785476 193.98007 
L 416.385799 193.854717 
L 416.986122 193.604013 
L 417.586444 193.144387 
L 418.186767 192.935467 
L 419.987735 191.723727 
L 422.389026 190.511988 
L 422.989349 190.42842 
L 424.189995 189.885226 
L 424.790317 189.550953 
L 425.39064 188.548135 
L 425.990963 188.004941 
L 426.591286 187.670668 
L 427.191608 187.545316 
L 428.392254 186.793202 
L 428.992577 186.667849 
L 430.193222 186.082872 
L 431.99419 185.330758 
L 433.194836 184.495075 
L 434.395481 183.241552 
L 437.397095 181.068778 
L 438.597741 180.107743 
L 439.198063 179.857039 
L 439.798386 179.188493 
L 440.398709 178.728868 
L 441.599354 178.311026 
L 442.8 177.517128 
L 443.400323 177.224639 
L 444.000646 177.057503 
L 444.600968 176.639662 
L 445.201291 176.556094 
L 447.002259 175.595059 
L 448.202905 174.884729 
L 454.206132 172.753739 
L 454.806455 172.210546 
L 456.607423 171.542 
L 457.808069 171.165943 
L 458.408392 170.706317 
L 460.809683 169.452794 
L 461.410005 169.118521 
L 462.610651 166.778611 
L 463.811296 165.357951 
L 465.011942 164.647621 
L 466.81291 163.937291 
L 467.413233 163.853722 
L 468.013556 163.51945 
L 469.814524 162.976256 
L 472.215815 161.889869 
L 472.816138 161.513812 
L 474.016783 161.095971 
L 477.61872 159.006765 
L 478.219042 158.380003 
L 479.419688 157.753242 
L 483.021625 155.872956 
L 483.621947 155.622252 
L 484.22227 155.246195 
L 484.822593 155.120842 
L 485.422916 154.661217 
L 488.424529 153.700182 
L 489.024852 153.533046 
L 489.625175 153.240557 
L 490.225498 152.822716 
L 491.426143 152.488443 
L 492.626789 152.028818 
L 493.227111 151.569193 
L 494.427757 151.193135 
L 495.02808 150.900647 
L 495.628402 150.73351 
L 496.829048 149.897828 
L 498.029693 149.396419 
L 499.230339 148.477168 
L 500.430984 148.059327 
L 501.031307 147.557917 
L 501.63163 147.474349 
L 502.832275 146.596883 
L 504.032921 146.011905 
L 504.633244 145.7612 
L 505.233566 145.176223 
L 508.835503 143.880915 
L 510.636471 143.087017 
L 512.437439 142.543824 
L 513.638085 142.376687 
L 514.238408 142.125982 
L 514.838731 142.042414 
L 516.039376 141.541005 
L 516.639699 141.499221 
L 519.04099 140.621754 
L 520.841958 139.410015 
L 521.442281 139.15931 
L 522.642926 138.532548 
L 523.243249 138.323628 
L 526.845186 136.359774 
L 527.445508 136.234422 
L 529.246477 135.231603 
L 531.047445 134.646626 
L 531.647768 134.395921 
L 532.848413 134.103432 
L 535.850027 133.142398 
L 537.650995 132.849909 
L 540.052286 132.097795 
L 540.652609 131.84709 
L 541.252932 131.763522 
L 541.853254 131.471033 
L 543.0539 131.220328 
L 544.254545 130.802487 
L 544.854868 130.593567 
L 546.055514 130.468214 
L 547.256159 130.175725 
L 549.057127 129.883237 
L 549.65745 129.674316 
L 550.858096 129.548964 
L 553.85971 128.79685 
L 555.060355 128.504361 
L 555.660678 128.170088 
L 558.662292 127.417974 
L 559.262614 127.292621 
L 560.46326 126.87478 
L 562.264228 126.248019 
L 562.864551 126.16445 
L 564.665519 125.537689 
L 565.265842 125.537689 
L 566.466487 125.119847 
L 567.06681 124.53487 
L 567.667133 124.242381 
L 568.867778 123.866324 
L 571.269069 122.947073 
L 571.869392 122.821721 
L 572.469715 122.445664 
L 573.070038 122.320312 
L 573.67036 121.986039 
L 576.671974 121.108572 
L 577.272297 120.732515 
L 577.87262 120.607163 
L 578.472942 120.105754 
L 580.273911 119.771481 
L 581.474556 119.102935 
L 582.074879 118.434389 
L 583.275524 118.183684 
L 587.477784 117.22265 
L 588.078107 117.055513 
L 589.278752 117.013729 
L 589.879075 116.763024 
L 592.280366 116.345183 
L 592.880689 116.094479 
L 594.681657 115.843774 
L 597.082948 115.09166 
L 598.883916 114.673819 
L 600.684884 114.214193 
L 602.485853 113.671 
L 605.487466 112.793533 
L 606.688112 112.25034 
L 607.888757 111.832499 
L 608.48908 111.372873 
L 609.689726 111.038601 
L 610.290048 110.787896 
L 611.490694 110.453623 
L 613.891985 109.367236 
L 615.692953 109.241884 
L 618.094244 108.573338 
L 618.694567 108.197281 
L 619.895212 107.863008 
L 621.696181 106.943757 
L 622.296503 106.818405 
L 622.896826 106.525916 
L 623.497149 106.484132 
L 630.100699 104.269574 
L 632.50199 103.684596 
L 633.102313 103.51746 
L 634.302959 102.974266 
L 634.903281 102.890698 
L 636.103927 102.556425 
L 636.70425 102.0968 
L 637.304572 101.804311 
L 637.904895 101.093981 
L 638.505218 100.67614 
L 639.705863 100.300083 
L 640.306186 99.840458 
L 645.108768 97.876604 
L 645.709091 97.709468 
L 646.309414 97.333411 
L 648.710705 96.623081 
L 649.91135 96.038103 
L 651.111996 95.327773 
L 651.712318 95.202421 
L 652.912964 94.492091 
L 653.513287 94.241386 
L 654.713932 93.489272 
L 656.5149 92.65359 
L 657.115223 92.235749 
L 658.315869 91.817907 
L 659.516514 91.107578 
L 660.116837 90.898657 
L 660.71716 90.480816 
L 661.917805 90.062975 
L 662.518128 89.937622 
L 664.919419 88.851235 
L 667.921033 87.806632 
L 668.521356 87.764848 
L 669.121678 87.597712 
L 669.722001 87.221655 
L 670.322324 87.138087 
L 670.922647 86.929166 
L 672.723615 86.594893 
L 676.925874 84.463903 
L 677.526197 84.380335 
L 679.327165 83.4193 
L 681.128133 82.750754 
L 682.929102 81.956856 
L 685.330393 80.995822 
L 685.930715 80.828685 
L 686.531038 80.452628 
L 687.731684 80.285492 
L 688.332006 79.909435 
L 688.932329 79.86765 
L 690.132975 79.491593 
L 691.33362 78.906616 
L 691.933943 78.823048 
L 692.534266 78.572343 
L 693.134588 78.446991 
L 694.935557 77.653092 
L 695.53588 77.52774 
L 696.136202 77.277035 
L 699.137816 76.566705 
L 700.938784 75.89816 
L 703.340075 74.519284 
L 704.540721 74.059658 
L 705.141044 73.683601 
L 706.341689 73.432897 
L 706.942012 73.098624 
L 707.542335 72.973271 
L 708.74298 72.304726 
L 712.344917 70.633361 
L 714.145885 70.048383 
L 715.34653 69.630542 
L 715.946853 69.421622 
L 717.147499 68.836644 
L 718.348144 68.460587 
L 718.948467 68.335235 
L 720.149112 67.792041 
L 720.749435 67.583121 
L 721.349758 67.248848 
L 721.950081 67.165279 
L 722.550403 66.956359 
L 723.751049 66.287813 
L 726.15234 65.201426 
L 727.352985 64.783585 
L 728.553631 64.156823 
L 729.153954 64.073255 
L 732.155568 62.777947 
L 732.75589 62.360106 
L 735.157181 61.566208 
L 735.757504 61.566208 
L 736.95815 61.023014 
L 737.558472 60.563389 
L 738.158795 59.894843 
L 738.759118 59.393434 
L 739.359441 59.100945 
L 739.959763 58.933809 
L 740.560086 58.557752 
L 741.160409 58.432399 
L 741.760732 58.13991 
L 742.361054 58.056342 
L 742.961377 57.638501 
L 743.5617 57.513149 
L 744.162023 57.22066 
L 745.962991 56.008921 
L 746.563314 55.8 
L 747.163636 55.8 
L 747.163636 55.8 
" clip-path="url(#p3646f39f34)" style="fill: none; stroke: #1f77b4; stroke-width: 1.5; stroke-linecap: square"/>
   </g>
   <g id="line2d_36">
    <path d="M 139.036686 307.8 
L 140.837655 307.716432 
L 142.638623 307.674648 
L 146.240559 307.591079 
L 149.242173 307.465727 
L 151.643464 307.465727 
L 152.243787 307.298591 
L 154.645078 307.215022 
L 156.446046 307.006102 
L 158.247015 306.838965 
L 161.848951 306.671829 
L 162.449274 306.671829 
L 163.049597 306.546477 
L 165.450888 306.462908 
L 166.651533 306.37934 
L 171.454115 306.295772 
L 174.455729 306.170419 
L 181.659602 306.086851 
L 184.661216 305.961499 
L 188.263152 305.877931 
L 190.664443 305.794362 
L 196.067348 305.710794 
L 197.868316 305.66901 
L 199.669285 305.627226 
L 201.470253 305.418305 
L 205.072189 305.376521 
L 206.272835 305.292953 
L 210.475094 305.209385 
L 217.078644 304.833328 
L 221.280904 304.74976 
L 222.481549 304.666191 
L 224.282517 304.582623 
L 227.884454 304.415487 
L 230.285745 304.373703 
L 232.086713 304.206566 
L 239.890909 303.746941 
L 242.892523 303.663373 
L 248.295428 303.370884 
L 250.096396 303.287316 
L 256.099623 302.953043 
L 262.703174 302.869474 
L 265.104465 302.61877 
L 266.30511 302.535201 
L 274.109306 301.90844 
L 277.711243 301.448814 
L 280.112534 301.365246 
L 284.915116 300.738484 
L 288.517052 300.654916 
L 290.31802 300.48778 
L 291.518666 300.445996 
L 292.719311 300.320643 
L 294.52028 300.237075 
L 295.720925 300.069939 
L 298.722539 299.735666 
L 301.12383 299.652097 
L 302.324476 299.568529 
L 304.725767 299.484961 
L 305.926412 299.401393 
L 308.928026 299.108904 
L 309.528349 298.941768 
L 313.130285 298.774631 
L 316.131899 298.691063 
L 323.936095 298.231438 
L 325.737063 298.147869 
L 333.541259 297.688244 
L 337.743518 297.604676 
L 338.343841 297.479323 
L 343.146423 297.395755 
L 347.348682 297.186835 
L 353.952232 297.103266 
L 358.154492 296.894346 
L 362.957074 296.810778 
L 367.759656 296.560073 
L 371.961915 296.476505 
L 383.368047 295.766175 
L 388.170629 295.682607 
L 403.779021 294.679788 
L 407.380958 294.59622 
L 409.181926 294.554435 
L 410.982894 294.512651 
L 412.783862 294.345515 
L 417.586444 294.261947 
L 418.78709 294.053026 
L 419.987735 293.969458 
L 422.989349 293.844105 
L 424.189995 293.760537 
L 425.39064 293.676969 
L 430.793545 293.593401 
L 431.99419 293.468048 
L 434.395481 293.426264 
L 434.995804 293.300912 
L 436.19645 293.217344 
L 436.796772 293.091991 
L 438.597741 293.008423 
L 448.202905 292.423446 
L 450.604196 292.339877 
L 453.60581 292.214525 
L 462.010328 292.130957 
L 466.212587 291.922036 
L 471.015169 291.838468 
L 473.41646 291.7549 
L 475.817751 291.713116 
L 477.018397 291.587763 
L 479.419688 291.504195 
L 485.422916 291.169922 
L 489.024852 291.128138 
L 490.82582 290.961001 
L 492.626789 290.919217 
L 496.829048 290.835649 
L 499.230339 290.752081 
L 506.434212 290.668513 
L 509.435826 290.54316 
L 513.037762 290.459592 
L 514.838731 290.250672 
L 518.440667 290.208887 
L 520.241635 290.041751 
L 522.642926 289.958183 
L 529.846799 289.874614 
L 532.848413 289.749262 
L 543.0539 289.707478 
L 544.254545 289.62391 
L 546.055514 289.582126 
L 553.85971 289.498557 
L 555.060355 289.414989 
L 561.663905 289.331421 
L 564.065196 289.247853 
L 571.269069 289.206069 
L 572.469715 289.1225 
L 581.474556 289.080716 
L 583.275524 288.91358 
L 598.283593 288.830012 
L 600.084562 288.788227 
L 616.293276 288.704659 
L 618.694567 288.621091 
L 628.900054 288.537523 
L 630.100699 288.453955 
L 633.102313 288.370386 
L 634.903281 288.20325 
L 637.904895 288.119682 
L 640.306186 288.036113 
L 643.908123 287.952545 
L 645.709091 287.910761 
L 648.110382 287.827193 
L 649.91135 287.785409 
L 652.912964 287.70184 
L 654.113609 287.618272 
L 657.715546 287.534704 
L 660.71716 287.409352 
L 661.917805 287.367568 
L 663.118451 287.283999 
L 664.919419 287.242215 
L 667.32071 287.158647 
L 669.722001 287.075079 
L 677.526197 286.991511 
L 679.927488 286.907942 
L 684.73007 286.824374 
L 688.932329 286.615453 
L 694.335234 286.531885 
L 695.53588 286.448317 
L 706.341689 286.364749 
L 708.142657 286.322965 
L 711.144271 286.281181 
L 713.545562 286.030476 
L 715.34653 285.988692 
L 718.948467 285.905124 
L 725.552017 285.529066 
L 727.953308 285.445498 
L 730.354599 285.36193 
L 733.956536 285.278362 
L 735.157181 285.194794 
L 737.558472 285.111225 
L 739.959763 284.860521 
L 742.361054 284.776952 
L 744.762345 284.735168 
L 745.962991 284.6516 
L 747.163636 284.6516 
L 747.163636 284.6516 
" clip-path="url(#p3646f39f34)" style="fill: none; stroke: #ff7f0e; stroke-width: 1.5; stroke-linecap: square"/>
   </g>
   <g id="patch_3">
    <path d="M 108 320.4 
L 108 43.2 
" style="fill: none; stroke: #a9a9a9; stroke-width: 0.8; stroke-linejoin: miter; stroke-linecap: square"/>
   </g>
   <g id="patch_4">
    <path d="M 777.6 320.4 
L 777.6 43.2 
" style="fill: none"/>
   </g>
   <g id="patch_5">
    <path d="M 108 320.4 
L 777.6 320.4 
" style="fill: none; stroke: #a9a9a9; stroke-width: 0.8; stroke-linejoin: miter; stroke-linecap: square"/>
   </g>
   <g id="patch_6">
    <path d="M 108 43.2 
L 777.6 43.2 
" style="fill: none"/>
   </g>
   <g id="text_18">
    <!-- get_subscribe history -->
    <g style="fill: #a9a9a9" transform="translate(378.6075 37.2) scale(0.12 -0.12)">
     <defs>
      <path id="DejaVuSans-67" d="M 2906 1791 
Q 2906 2416 2648 2759 
Q 2391 3103 1925 3103 
Q 1463 3103 1205 2759 
Q 947 2416 947 1791 
Q 947 1169 1205 825 
Q 1463 481 1925 481 
Q 2391 481 2648 825 
Q 2906 1169 2906 1791 
z
M 3481 434 
Q 3481 -459 3084 -895 
Q 2688 -1331 1869 -1331 
Q 1566 -1331 1297 -1286 
Q 1028 -1241 775 -1147 
L 775 -588 
Q 1028 -725 1275 -790 
Q 1522 -856 1778 -856 
Q 2344 -856 2625 -561 
Q 2906 -266 2906 331 
L 2906 616 
Q 2728 306 2450 153 
Q 2172 0 1784 0 
Q 1141 0 747 490 
Q 353 981 353 1791 
Q 353 2603 747 3093 
Q 1141 3584 1784 3584 
Q 2172 3584 2450 3431 
Q 2728 3278 2906 2969 
L 2906 3500 
L 3481 3500 
L 3481 434 
z
" transform="scale(0.015625)"/>
      <path id="DejaVuSans-65" d="M 3597 1894 
L 3597 1613 
L 953 1613 
Q 991 1019 1311 708 
Q 1631 397 2203 397 
Q 2534 397 2845 478 
Q 3156 559 3463 722 
L 3463 178 
Q 3153 47 2828 -22 
Q 2503 -91 2169 -91 
Q 1331 -91 842 396 
Q 353 884 353 1716 
Q 353 2575 817 3079 
Q 1281 3584 2069 3584 
Q 2775 3584 3186 3129 
Q 3597 2675 3597 1894 
z
M 3022 2063 
Q 3016 2534 2758 2815 
Q 2500 3097 2075 3097 
Q 1594 3097 1305 2825 
Q 1016 2553 972 2059 
L 3022 2063 
z
" transform="scale(0.015625)"/>
      <path id="DejaVuSans-74" d="M 1172 4494 
L 1172 3500 
L 2356 3500 
L 2356 3053 
L 1172 3053 
L 1172 1153 
Q 1172 725 1289 603 
Q 1406 481 1766 481 
L 2356 481 
L 2356 0 
L 1766 0 
Q 1100 0 847 248 
Q 594 497 594 1153 
L 594 3053 
L 172 3053 
L 172 3500 
L 594 3500 
L 594 4494 
L 1172 4494 
z
" transform="scale(0.015625)"/>
      <path id="DejaVuSans-5f" d="M 3263 -1063 
L 3263 -1509 
L -63 -1509 
L -63 -1063 
L 3263 -1063 
z
" transform="scale(0.015625)"/>
      <path id="DejaVuSans-73" d="M 2834 3397 
L 2834 2853 
Q 2591 2978 2328 3040 
Q 2066 3103 1784 3103 
Q 1356 3103 1142 2972 
Q 928 2841 928 2578 
Q 928 2378 1081 2264 
Q 1234 2150 1697 2047 
L 1894 2003 
Q 2506 1872 2764 1633 
Q 3022 1394 3022 966 
Q 3022 478 2636 193 
Q 2250 -91 1575 -91 
Q 1294 -91 989 -36 
Q 684 19 347 128 
L 347 722 
Q 666 556 975 473 
Q 1284 391 1588 391 
Q 1994 391 2212 530 
Q 2431 669 2431 922 
Q 2431 1156 2273 1281 
Q 2116 1406 1581 1522 
L 1381 1569 
Q 847 1681 609 1914 
Q 372 2147 372 2553 
Q 372 3047 722 3315 
Q 1072 3584 1716 3584 
Q 2034 3584 2315 3537 
Q 2597 3491 2834 3397 
z
" transform="scale(0.015625)"/>
      <path id="DejaVuSans-75" d="M 544 1381 
L 544 3500 
L 1119 3500 
L 1119 1403 
Q 1119 906 1312 657 
Q 1506 409 1894 409 
Q 2359 409 2629 706 
Q 2900 1003 2900 1516 
L 2900 3500 
L 3475 3500 
L 3475 0 
L 2900 0 
L 2900 538 
Q 2691 219 2414 64 
Q 2138 -91 1772 -91 
Q 1169 -91 856 284 
Q 544 659 544 1381 
z
M 1991 3584 
L 1991 3584 
z
" transform="scale(0.015625)"/>
      <path id="DejaVuSans-62" d="M 3116 1747 
Q 3116 2381 2855 2742 
Q 2594 3103 2138 3103 
Q 1681 3103 1420 2742 
Q 1159 2381 1159 1747 
Q 1159 1113 1420 752 
Q 1681 391 2138 391 
Q 2594 391 2855 752 
Q 3116 1113 3116 1747 
z
M 1159 2969 
Q 1341 3281 1617 3432 
Q 1894 3584 2278 3584 
Q 2916 3584 3314 3078 
Q 3713 2572 3713 1747 
Q 3713 922 3314 415 
Q 2916 -91 2278 -91 
Q 1894 -91 1617 61 
Q 1341 213 1159 525 
L 1159 0 
L 581 0 
L 581 4863 
L 1159 4863 
L 1159 2969 
z
" transform="scale(0.015625)"/>
      <path id="DejaVuSans-63" d="M 3122 3366 
L 3122 2828 
Q 2878 2963 2633 3030 
Q 2388 3097 2138 3097 
Q 1578 3097 1268 2742 
Q 959 2388 959 1747 
Q 959 1106 1268 751 
Q 1578 397 2138 397 
Q 2388 397 2633 464 
Q 2878 531 3122 666 
L 3122 134 
Q 2881 22 2623 -34 
Q 2366 -91 2075 -91 
Q 1284 -91 818 406 
Q 353 903 353 1747 
Q 353 2603 823 3093 
Q 1294 3584 2113 3584 
Q 2378 3584 2631 3529 
Q 2884 3475 3122 3366 
z
" transform="scale(0.015625)"/>
      <path id="DejaVuSans-72" d="M 2631 2963 
Q 2534 3019 2420 3045 
Q 2306 3072 2169 3072 
Q 1681 3072 1420 2755 
Q 1159 2438 1159 1844 
L 1159 0 
L 581 0 
L 581 3500 
L 1159 3500 
L 1159 2956 
Q 1341 3275 1631 3429 
Q 1922 3584 2338 3584 
Q 2397 3584 2469 3576 
Q 2541 3569 2628 3553 
L 2631 2963 
z
" transform="scale(0.015625)"/>
      <path id="DejaVuSans-69" d="M 603 3500 
L 1178 3500 
L 1178 0 
L 603 0 
L 603 3500 
z
M 603 4863 
L 1178 4863 
L 1178 4134 
L 603 4134 
L 603 4863 
z
" transform="scale(0.015625)"/>
      <path id="DejaVuSans-20" transform="scale(0.015625)"/>
      <path id="DejaVuSans-68" d="M 3513 2113 
L 3513 0 
L 2938 0 
L 2938 2094 
Q 2938 2591 2744 2837 
Q 2550 3084 2163 3084 
Q 1697 3084 1428 2787 
Q 1159 2491 1159 1978 
L 1159 0 
L 581 0 
L 581 4863 
L 1159 4863 
L 1159 2956 
Q 1366 3272 1645 3428 
Q 1925 3584 2291 3584 
Q 2894 3584 3203 3211 
Q 3513 2838 3513 2113 
z
" transform="scale(0.015625)"/>
      <path id="DejaVuSans-6f" d="M 1959 3097 
Q 1497 3097 1228 2736 
Q 959 2375 959 1747 
Q 959 1119 1226 758 
Q 1494 397 1959 397 
Q 2419 397 2687 759 
Q 2956 1122 2956 1747 
Q 2956 2369 2687 2733 
Q 2419 3097 1959 3097 
z
M 1959 3584 
Q 2709 3584 3137 3096 
Q 3566 2609 3566 1747 
Q 3566 888 3137 398 
Q 2709 -91 1959 -91 
Q 1206 -91 779 398 
Q 353 888 353 1747 
Q 353 2609 779 3096 
Q 1206 3584 1959 3584 
z
" transform="scale(0.015625)"/>
      <path id="DejaVuSans-79" d="M 2059 -325 
Q 1816 -950 1584 -1140 
Q 1353 -1331 966 -1331 
L 506 -1331 
L 506 -850 
L 844 -850 
Q 1081 -850 1212 -737 
Q 1344 -625 1503 -206 
L 1606 56 
L 191 3500 
L 800 3500 
L 1894 763 
L 2988 3500 
L 3597 3500 
L 2059 -325 
z
" transform="scale(0.015625)"/>
     </defs>
     <use xlink:href="#DejaVuSans-67"/>
     <use xlink:href="#DejaVuSans-65" x="63.476562"/>
     <use xlink:href="#DejaVuSans-74" x="125"/>
     <use xlink:href="#DejaVuSans-5f" x="164.208984"/>
     <use xlink:href="#DejaVuSans-73" x="214.208984"/>
     <use xlink:href="#DejaVuSans-75" x="266.308594"/>
     <use xlink:href="#DejaVuSans-62" x="329.6875"/>
     <use xlink:href="#DejaVuSans-73" x="393.164062"/>
     <use xlink:href="#DejaVuSans-63" x="445.263672"/>
     <use xlink:href="#DejaVuSans-72" x="500.244141"/>
     <use xlink:href="#DejaVuSans-69" x="541.357422"/>
     <use xlink:href="#DejaVuSans-62" x="569.140625"/>
     <use xlink:href="#DejaVuSans-65" x="632.617188"/>
     <use xlink:href="#DejaVuSans-20" x="694.140625"/>
     <use xlink:href="#DejaVuSans-68" x="725.927734"/>
     <use xlink:href="#DejaVuSans-69" x="789.306641"/>
     <use xlink:href="#DejaVuSans-73" x="817.089844"/>
     <use xlink:href="#DejaVuSans-74" x="869.189453"/>
     <use xlink:href="#DejaVuSans-6f" x="908.398438"/>
     <use xlink:href="#DejaVuSans-72" x="969.580078"/>
     <use xlink:href="#DejaVuSans-79" x="1010.693359"/>
    </g>
   </g>
   <g id="legend_1">
    <g id="line2d_37">
     <path d="M 815.08 328.498438 
L 825.08 328.498438 
L 835.08 328.498438 
" style="fill: none; stroke: #1f77b4; stroke-width: 1.5; stroke-linecap: square"/>
    </g>
    <g id="text_19">
     <!-- star -->
     <g style="fill: #a9a9a9" transform="translate(843.08 331.998438) scale(0.1 -0.1)">
      <defs>
       <path id="DejaVuSans-61" d="M 2194 1759 
Q 1497 1759 1228 1600 
Q 959 1441 959 1056 
Q 959 750 1161 570 
Q 1363 391 1709 391 
Q 2188 391 2477 730 
Q 2766 1069 2766 1631 
L 2766 1759 
L 2194 1759 
z
M 3341 1997 
L 3341 0 
L 2766 0 
L 2766 531 
Q 2569 213 2275 61 
Q 1981 -91 1556 -91 
Q 1019 -91 701 211 
Q 384 513 384 1019 
Q 384 1609 779 1909 
Q 1175 2209 1959 2209 
L 2766 2209 
L 2766 2266 
Q 2766 2663 2505 2880 
Q 2244 3097 1772 3097 
Q 1472 3097 1187 3025 
Q 903 2953 641 2809 
L 641 3341 
Q 956 3463 1253 3523 
Q 1550 3584 1831 3584 
Q 2591 3584 2966 3190 
Q 3341 2797 3341 1997 
z
" transform="scale(0.015625)"/>
      </defs>
      <use xlink:href="#DejaVuSans-73"/>
      <use xlink:href="#DejaVuSans-74" x="52.099609"/>
      <use xlink:href="#DejaVuSans-61" x="91.308594"/>
      <use xlink:href="#DejaVuSans-72" x="152.587891"/>
     </g>
    </g>
    <g id="line2d_38">
     <path d="M 815.08 343.176562 
L 825.08 343.176562 
L 835.08 343.176562 
" style="fill: none; stroke: #ff7f0e; stroke-width: 1.5; stroke-linecap: square"/>
    </g>
    <g id="text_20">
     <!-- fork -->
     <g style="fill: #a9a9a9" transform="translate(843.08 346.676562) scale(0.1 -0.1)">
      <defs>
       <path id="DejaVuSans-66" d="M 2375 4863 
L 2375 4384 
L 1825 4384 
Q 1516 4384 1395 4259 
Q 1275 4134 1275 3809 
L 1275 3500 
L 2222 3500 
L 2222 3053 
L 1275 3053 
L 1275 0 
L 697 0 
L 697 3053 
L 147 3053 
L 147 3500 
L 697 3500 
L 697 3744 
Q 697 4328 969 4595 
Q 1241 4863 1831 4863 
L 2375 4863 
z
" transform="scale(0.015625)"/>
       <path id="DejaVuSans-6b" d="M 581 4863 
L 1159 4863 
L 1159 1991 
L 2875 3500 
L 3609 3500 
L 1753 1863 
L 3688 0 
L 2938 0 
L 1159 1709 
L 1159 0 
L 581 0 
L 581 4863 
z
" transform="scale(0.015625)"/>
      </defs>
      <use xlink:href="#DejaVuSans-66"/>
      <use xlink:href="#DejaVuSans-6f" x="35.205078"/>
      <use xlink:href="#DejaVuSans-72" x="96.386719"/>
      <use xlink:href="#DejaVuSans-6b" x="137.5"/>
     </g>
    </g>
   </g>
  </g>
 </g>
 <defs>
  <clipPath id="p3646f39f34">
   <rect x="108" y="43.2" width="669.6" height="277.2"/>
  </clipPath>
 </defs>
</svg>
