<?xml version="1.0" encoding="utf-8" standalone="no"?>
<!DOCTYPE svg PUBLIC "-//W3C//DTD SVG 1.1//EN"
  "http://www.w3.org/Graphics/SVG/1.1/DTD/svg11.dtd">
<svg xmlns:xlink="http://www.w3.org/1999/xlink" width="864pt" height="360pt" viewBox="0 0 864 360" xmlns="http://www.w3.org/2000/svg" version="1.1">
 <metadata>
  <rdf:RDF xmlns:dc="http://purl.org/dc/elements/1.1/" xmlns:cc="http://creativecommons.org/ns#" xmlns:rdf="http://www.w3.org/1999/02/22-rdf-syntax-ns#">
   <cc:Work>
    <dc:type rdf:resource="http://purl.org/dc/dcmitype/StillImage"/>
    <dc:date>2024-05-01T20:05:33.209207</dc:date>
    <dc:format>image/svg+xml</dc:format>
    <dc:creator>
     <cc:Agent>
      <dc:title>Matplotlib v3.8.4, https://matplotlib.org/</dc:title>
     </cc:Agent>
    </dc:creator>
   </cc:Work>
  </rdf:RDF>
 </metadata>
 <defs>
  <style type="text/css">*{stroke-linejoin: round; stroke-linecap: butt}</style>
 </defs>
 <g id="figure_1">
  <g id="patch_1">
   <path d="M 0 360 
L 864 360 
L 864 0 
L 0 0 
L 0 360 
z
" style="fill: none; opacity: 0"/>
  </g>
  <g id="axes_1">
   <g id="patch_2">
    <path d="M 108 320.4 
L 777.6 320.4 
L 777.6 43.2 
L 108 43.2 
L 108 320.4 
z
" style="fill: none; opacity: 0"/>
   </g>
   <g id="matplotlib.axis_1">
    <g id="xtick_1">
     <g id="line2d_1">
      <path d="M 161.895221 320.4 
L 161.895221 43.2 
" clip-path="url(#p3967beaa85)" style="fill: none; stroke-dasharray: 5.12,1.28,0.8,1.28; stroke-dashoffset: 0; stroke: #b0b0b0; stroke-width: 0.8"/>
     </g>
     <g id="line2d_2">
      <defs>
       <path id="m203413a1ab" d="M 0 0 
L 0 3.5 
" style="stroke: #a9a9a9; stroke-width: 0.8"/>
      </defs>
      <g>
       <use xlink:href="#m203413a1ab" x="161.895221" y="320.4" style="fill: #a9a9a9; stroke: #a9a9a9; stroke-width: 0.8"/>
      </g>
     </g>
     <g id="text_1">
      <!-- 2021-09 -->
      <g style="fill: #a9a9a9" transform="translate(141.003815 334.998438) scale(0.1 -0.1)">
       <defs>
        <path id="DejaVuSans-32" d="M 1228 531 
L 3431 531 
L 3431 0 
L 469 0 
L 469 531 
Q 828 903 1448 1529 
Q 2069 2156 2228 2338 
Q 2531 2678 2651 2914 
Q 2772 3150 2772 3378 
Q 2772 3750 2511 3984 
Q 2250 4219 1831 4219 
Q 1534 4219 1204 4116 
Q 875 4013 500 3803 
L 500 4441 
Q 881 4594 1212 4672 
Q 1544 4750 1819 4750 
Q 2544 4750 2975 4387 
Q 3406 4025 3406 3419 
Q 3406 3131 3298 2873 
Q 3191 2616 2906 2266 
Q 2828 2175 2409 1742 
Q 1991 1309 1228 531 
z
" transform="scale(0.015625)"/>
        <path id="DejaVuSans-30" d="M 2034 4250 
Q 1547 4250 1301 3770 
Q 1056 3291 1056 2328 
Q 1056 1369 1301 889 
Q 1547 409 2034 409 
Q 2525 409 2770 889 
Q 3016 1369 3016 2328 
Q 3016 3291 2770 3770 
Q 2525 4250 2034 4250 
z
M 2034 4750 
Q 2819 4750 3233 4129 
Q 3647 3509 3647 2328 
Q 3647 1150 3233 529 
Q 2819 -91 2034 -91 
Q 1250 -91 836 529 
Q 422 1150 422 2328 
Q 422 3509 836 4129 
Q 1250 4750 2034 4750 
z
" transform="scale(0.015625)"/>
        <path id="DejaVuSans-31" d="M 794 531 
L 1825 531 
L 1825 4091 
L 703 3866 
L 703 4441 
L 1819 4666 
L 2450 4666 
L 2450 531 
L 3481 531 
L 3481 0 
L 794 0 
L 794 531 
z
" transform="scale(0.015625)"/>
        <path id="DejaVuSans-2d" d="M 313 2009 
L 1997 2009 
L 1997 1497 
L 313 1497 
L 313 2009 
z
" transform="scale(0.015625)"/>
        <path id="DejaVuSans-39" d="M 703 97 
L 703 672 
Q 941 559 1184 500 
Q 1428 441 1663 441 
Q 2288 441 2617 861 
Q 2947 1281 2994 2138 
Q 2813 1869 2534 1725 
Q 2256 1581 1919 1581 
Q 1219 1581 811 2004 
Q 403 2428 403 3163 
Q 403 3881 828 4315 
Q 1253 4750 1959 4750 
Q 2769 4750 3195 4129 
Q 3622 3509 3622 2328 
Q 3622 1225 3098 567 
Q 2575 -91 1691 -91 
Q 1453 -91 1209 -44 
Q 966 3 703 97 
z
M 1959 2075 
Q 2384 2075 2632 2365 
Q 2881 2656 2881 3163 
Q 2881 3666 2632 3958 
Q 2384 4250 1959 4250 
Q 1534 4250 1286 3958 
Q 1038 3666 1038 3163 
Q 1038 2656 1286 2365 
Q 1534 2075 1959 2075 
z
" transform="scale(0.015625)"/>
       </defs>
       <use xlink:href="#DejaVuSans-32"/>
       <use xlink:href="#DejaVuSans-30" x="63.623047"/>
       <use xlink:href="#DejaVuSans-32" x="127.246094"/>
       <use xlink:href="#DejaVuSans-31" x="190.869141"/>
       <use xlink:href="#DejaVuSans-2d" x="254.492188"/>
       <use xlink:href="#DejaVuSans-30" x="290.576172"/>
       <use xlink:href="#DejaVuSans-39" x="354.199219"/>
      </g>
     </g>
    </g>
    <g id="xtick_2">
     <g id="line2d_3">
      <path d="M 235.279339 320.4 
L 235.279339 43.2 
" clip-path="url(#p3967beaa85)" style="fill: none; stroke-dasharray: 5.12,1.28,0.8,1.28; stroke-dashoffset: 0; stroke: #b0b0b0; stroke-width: 0.8"/>
     </g>
     <g id="line2d_4">
      <g>
       <use xlink:href="#m203413a1ab" x="235.279339" y="320.4" style="fill: #a9a9a9; stroke: #a9a9a9; stroke-width: 0.8"/>
      </g>
     </g>
     <g id="text_2">
      <!-- 2022-01 -->
      <g style="fill: #a9a9a9" transform="translate(214.387933 334.998438) scale(0.1 -0.1)">
       <use xlink:href="#DejaVuSans-32"/>
       <use xlink:href="#DejaVuSans-30" x="63.623047"/>
       <use xlink:href="#DejaVuSans-32" x="127.246094"/>
       <use xlink:href="#DejaVuSans-32" x="190.869141"/>
       <use xlink:href="#DejaVuSans-2d" x="254.492188"/>
       <use xlink:href="#DejaVuSans-30" x="290.576172"/>
       <use xlink:href="#DejaVuSans-31" x="354.199219"/>
      </g>
     </g>
    </g>
    <g id="xtick_3">
     <g id="line2d_5">
      <path d="M 307.460438 320.4 
L 307.460438 43.2 
" clip-path="url(#p3967beaa85)" style="fill: none; stroke-dasharray: 5.12,1.28,0.8,1.28; stroke-dashoffset: 0; stroke: #b0b0b0; stroke-width: 0.8"/>
     </g>
     <g id="line2d_6">
      <g>
       <use xlink:href="#m203413a1ab" x="307.460438" y="320.4" style="fill: #a9a9a9; stroke: #a9a9a9; stroke-width: 0.8"/>
      </g>
     </g>
     <g id="text_3">
      <!-- 2022-05 -->
      <g style="fill: #a9a9a9" transform="translate(286.569032 334.998438) scale(0.1 -0.1)">
       <defs>
        <path id="DejaVuSans-35" d="M 691 4666 
L 3169 4666 
L 3169 4134 
L 1269 4134 
L 1269 2991 
Q 1406 3038 1543 3061 
Q 1681 3084 1819 3084 
Q 2600 3084 3056 2656 
Q 3513 2228 3513 1497 
Q 3513 744 3044 326 
Q 2575 -91 1722 -91 
Q 1428 -91 1123 -41 
Q 819 9 494 109 
L 494 744 
Q 775 591 1075 516 
Q 1375 441 1709 441 
Q 2250 441 2565 725 
Q 2881 1009 2881 1497 
Q 2881 1984 2565 2268 
Q 2250 2553 1709 2553 
Q 1456 2553 1204 2497 
Q 953 2441 691 2322 
L 691 4666 
z
" transform="scale(0.015625)"/>
       </defs>
       <use xlink:href="#DejaVuSans-32"/>
       <use xlink:href="#DejaVuSans-30" x="63.623047"/>
       <use xlink:href="#DejaVuSans-32" x="127.246094"/>
       <use xlink:href="#DejaVuSans-32" x="190.869141"/>
       <use xlink:href="#DejaVuSans-2d" x="254.492188"/>
       <use xlink:href="#DejaVuSans-30" x="290.576172"/>
       <use xlink:href="#DejaVuSans-35" x="354.199219"/>
      </g>
     </g>
    </g>
    <g id="xtick_4">
     <g id="line2d_7">
      <path d="M 381.446065 320.4 
L 381.446065 43.2 
" clip-path="url(#p3967beaa85)" style="fill: none; stroke-dasharray: 5.12,1.28,0.8,1.28; stroke-dashoffset: 0; stroke: #b0b0b0; stroke-width: 0.8"/>
     </g>
     <g id="line2d_8">
      <g>
       <use xlink:href="#m203413a1ab" x="381.446065" y="320.4" style="fill: #a9a9a9; stroke: #a9a9a9; stroke-width: 0.8"/>
      </g>
     </g>
     <g id="text_4">
      <!-- 2022-09 -->
      <g style="fill: #a9a9a9" transform="translate(360.554659 334.998438) scale(0.1 -0.1)">
       <use xlink:href="#DejaVuSans-32"/>
       <use xlink:href="#DejaVuSans-30" x="63.623047"/>
       <use xlink:href="#DejaVuSans-32" x="127.246094"/>
       <use xlink:href="#DejaVuSans-32" x="190.869141"/>
       <use xlink:href="#DejaVuSans-2d" x="254.492188"/>
       <use xlink:href="#DejaVuSans-30" x="290.576172"/>
       <use xlink:href="#DejaVuSans-39" x="354.199219"/>
      </g>
     </g>
    </g>
    <g id="xtick_5">
     <g id="line2d_9">
      <path d="M 454.830183 320.4 
L 454.830183 43.2 
" clip-path="url(#p3967beaa85)" style="fill: none; stroke-dasharray: 5.12,1.28,0.8,1.28; stroke-dashoffset: 0; stroke: #b0b0b0; stroke-width: 0.8"/>
     </g>
     <g id="line2d_10">
      <g>
       <use xlink:href="#m203413a1ab" x="454.830183" y="320.4" style="fill: #a9a9a9; stroke: #a9a9a9; stroke-width: 0.8"/>
      </g>
     </g>
     <g id="text_5">
      <!-- 2023-01 -->
      <g style="fill: #a9a9a9" transform="translate(433.938777 334.998438) scale(0.1 -0.1)">
       <defs>
        <path id="DejaVuSans-33" d="M 2597 2516 
Q 3050 2419 3304 2112 
Q 3559 1806 3559 1356 
Q 3559 666 3084 287 
Q 2609 -91 1734 -91 
Q 1441 -91 1130 -33 
Q 819 25 488 141 
L 488 750 
Q 750 597 1062 519 
Q 1375 441 1716 441 
Q 2309 441 2620 675 
Q 2931 909 2931 1356 
Q 2931 1769 2642 2001 
Q 2353 2234 1838 2234 
L 1294 2234 
L 1294 2753 
L 1863 2753 
Q 2328 2753 2575 2939 
Q 2822 3125 2822 3475 
Q 2822 3834 2567 4026 
Q 2313 4219 1838 4219 
Q 1578 4219 1281 4162 
Q 984 4106 628 3988 
L 628 4550 
Q 988 4650 1302 4700 
Q 1616 4750 1894 4750 
Q 2613 4750 3031 4423 
Q 3450 4097 3450 3541 
Q 3450 3153 3228 2886 
Q 3006 2619 2597 2516 
z
" transform="scale(0.015625)"/>
       </defs>
       <use xlink:href="#DejaVuSans-32"/>
       <use xlink:href="#DejaVuSans-30" x="63.623047"/>
       <use xlink:href="#DejaVuSans-32" x="127.246094"/>
       <use xlink:href="#DejaVuSans-33" x="190.869141"/>
       <use xlink:href="#DejaVuSans-2d" x="254.492188"/>
       <use xlink:href="#DejaVuSans-30" x="290.576172"/>
       <use xlink:href="#DejaVuSans-31" x="354.199219"/>
      </g>
     </g>
    </g>
    <g id="xtick_6">
     <g id="line2d_11">
      <path d="M 527.011283 320.4 
L 527.011283 43.2 
" clip-path="url(#p3967beaa85)" style="fill: none; stroke-dasharray: 5.12,1.28,0.8,1.28; stroke-dashoffset: 0; stroke: #b0b0b0; stroke-width: 0.8"/>
     </g>
     <g id="line2d_12">
      <g>
       <use xlink:href="#m203413a1ab" x="527.011283" y="320.4" style="fill: #a9a9a9; stroke: #a9a9a9; stroke-width: 0.8"/>
      </g>
     </g>
     <g id="text_6">
      <!-- 2023-05 -->
      <g style="fill: #a9a9a9" transform="translate(506.119877 334.998438) scale(0.1 -0.1)">
       <use xlink:href="#DejaVuSans-32"/>
       <use xlink:href="#DejaVuSans-30" x="63.623047"/>
       <use xlink:href="#DejaVuSans-32" x="127.246094"/>
       <use xlink:href="#DejaVuSans-33" x="190.869141"/>
       <use xlink:href="#DejaVuSans-2d" x="254.492188"/>
       <use xlink:href="#DejaVuSans-30" x="290.576172"/>
       <use xlink:href="#DejaVuSans-35" x="354.199219"/>
      </g>
     </g>
    </g>
    <g id="xtick_7">
     <g id="line2d_13">
      <path d="M 600.99691 320.4 
L 600.99691 43.2 
" clip-path="url(#p3967beaa85)" style="fill: none; stroke-dasharray: 5.12,1.28,0.8,1.28; stroke-dashoffset: 0; stroke: #b0b0b0; stroke-width: 0.8"/>
     </g>
     <g id="line2d_14">
      <g>
       <use xlink:href="#m203413a1ab" x="600.99691" y="320.4" style="fill: #a9a9a9; stroke: #a9a9a9; stroke-width: 0.8"/>
      </g>
     </g>
     <g id="text_7">
      <!-- 2023-09 -->
      <g style="fill: #a9a9a9" transform="translate(580.105504 334.998438) scale(0.1 -0.1)">
       <use xlink:href="#DejaVuSans-32"/>
       <use xlink:href="#DejaVuSans-30" x="63.623047"/>
       <use xlink:href="#DejaVuSans-32" x="127.246094"/>
       <use xlink:href="#DejaVuSans-33" x="190.869141"/>
       <use xlink:href="#DejaVuSans-2d" x="254.492188"/>
       <use xlink:href="#DejaVuSans-30" x="290.576172"/>
       <use xlink:href="#DejaVuSans-39" x="354.199219"/>
      </g>
     </g>
    </g>
    <g id="xtick_8">
     <g id="line2d_15">
      <path d="M 674.381028 320.4 
L 674.381028 43.2 
" clip-path="url(#p3967beaa85)" style="fill: none; stroke-dasharray: 5.12,1.28,0.8,1.28; stroke-dashoffset: 0; stroke: #b0b0b0; stroke-width: 0.8"/>
     </g>
     <g id="line2d_16">
      <g>
       <use xlink:href="#m203413a1ab" x="674.381028" y="320.4" style="fill: #a9a9a9; stroke: #a9a9a9; stroke-width: 0.8"/>
      </g>
     </g>
     <g id="text_8">
      <!-- 2024-01 -->
      <g style="fill: #a9a9a9" transform="translate(653.489621 334.998438) scale(0.1 -0.1)">
       <defs>
        <path id="DejaVuSans-34" d="M 2419 4116 
L 825 1625 
L 2419 1625 
L 2419 4116 
z
M 2253 4666 
L 3047 4666 
L 3047 1625 
L 3713 1625 
L 3713 1100 
L 3047 1100 
L 3047 0 
L 2419 0 
L 2419 1100 
L 313 1100 
L 313 1709 
L 2253 4666 
z
" transform="scale(0.015625)"/>
       </defs>
       <use xlink:href="#DejaVuSans-32"/>
       <use xlink:href="#DejaVuSans-30" x="63.623047"/>
       <use xlink:href="#DejaVuSans-32" x="127.246094"/>
       <use xlink:href="#DejaVuSans-34" x="190.869141"/>
       <use xlink:href="#DejaVuSans-2d" x="254.492188"/>
       <use xlink:href="#DejaVuSans-30" x="290.576172"/>
       <use xlink:href="#DejaVuSans-31" x="354.199219"/>
      </g>
     </g>
    </g>
    <g id="xtick_9">
     <g id="line2d_17">
      <path d="M 747.163636 320.4 
L 747.163636 43.2 
" clip-path="url(#p3967beaa85)" style="fill: none; stroke-dasharray: 5.12,1.28,0.8,1.28; stroke-dashoffset: 0; stroke: #b0b0b0; stroke-width: 0.8"/>
     </g>
     <g id="line2d_18">
      <g>
       <use xlink:href="#m203413a1ab" x="747.163636" y="320.4" style="fill: #a9a9a9; stroke: #a9a9a9; stroke-width: 0.8"/>
      </g>
     </g>
     <g id="text_9">
      <!-- 2024-05 -->
      <g style="fill: #a9a9a9" transform="translate(726.27223 334.998438) scale(0.1 -0.1)">
       <use xlink:href="#DejaVuSans-32"/>
       <use xlink:href="#DejaVuSans-30" x="63.623047"/>
       <use xlink:href="#DejaVuSans-32" x="127.246094"/>
       <use xlink:href="#DejaVuSans-34" x="190.869141"/>
       <use xlink:href="#DejaVuSans-2d" x="254.492188"/>
       <use xlink:href="#DejaVuSans-30" x="290.576172"/>
       <use xlink:href="#DejaVuSans-35" x="354.199219"/>
      </g>
     </g>
    </g>
   </g>
   <g id="matplotlib.axis_2">
    <g id="ytick_1">
     <g id="line2d_19">
      <path d="M 108 307.841847 
L 777.6 307.841847 
" clip-path="url(#p3967beaa85)" style="fill: none; stroke-dasharray: 5.12,1.28,0.8,1.28; stroke-dashoffset: 0; stroke: #b0b0b0; stroke-width: 0.8"/>
     </g>
     <g id="line2d_20">
      <defs>
       <path id="mc7ebf9c1a8" d="M 0 0 
L -3.5 0 
" style="stroke: #a9a9a9; stroke-width: 0.8"/>
      </defs>
      <g>
       <use xlink:href="#mc7ebf9c1a8" x="108" y="307.841847" style="fill: #a9a9a9; stroke: #a9a9a9; stroke-width: 0.8"/>
      </g>
     </g>
     <g id="text_10">
      <!-- 0 -->
      <g style="fill: #a9a9a9" transform="translate(94.6375 311.641065) scale(0.1 -0.1)">
       <use xlink:href="#DejaVuSans-30"/>
      </g>
     </g>
    </g>
    <g id="ytick_2">
     <g id="line2d_21">
      <path d="M 108 274.364596 
L 777.6 274.364596 
" clip-path="url(#p3967beaa85)" style="fill: none; stroke-dasharray: 5.12,1.28,0.8,1.28; stroke-dashoffset: 0; stroke: #b0b0b0; stroke-width: 0.8"/>
     </g>
     <g id="line2d_22">
      <g>
       <use xlink:href="#mc7ebf9c1a8" x="108" y="274.364596" style="fill: #a9a9a9; stroke: #a9a9a9; stroke-width: 0.8"/>
      </g>
     </g>
     <g id="text_11">
      <!-- 800 -->
      <g style="fill: #a9a9a9" transform="translate(81.9125 278.163815) scale(0.1 -0.1)">
       <defs>
        <path id="DejaVuSans-38" d="M 2034 2216 
Q 1584 2216 1326 1975 
Q 1069 1734 1069 1313 
Q 1069 891 1326 650 
Q 1584 409 2034 409 
Q 2484 409 2743 651 
Q 3003 894 3003 1313 
Q 3003 1734 2745 1975 
Q 2488 2216 2034 2216 
z
M 1403 2484 
Q 997 2584 770 2862 
Q 544 3141 544 3541 
Q 544 4100 942 4425 
Q 1341 4750 2034 4750 
Q 2731 4750 3128 4425 
Q 3525 4100 3525 3541 
Q 3525 3141 3298 2862 
Q 3072 2584 2669 2484 
Q 3125 2378 3379 2068 
Q 3634 1759 3634 1313 
Q 3634 634 3220 271 
Q 2806 -91 2034 -91 
Q 1263 -91 848 271 
Q 434 634 434 1313 
Q 434 1759 690 2068 
Q 947 2378 1403 2484 
z
M 1172 3481 
Q 1172 3119 1398 2916 
Q 1625 2713 2034 2713 
Q 2441 2713 2670 2916 
Q 2900 3119 2900 3481 
Q 2900 3844 2670 4047 
Q 2441 4250 2034 4250 
Q 1625 4250 1398 4047 
Q 1172 3844 1172 3481 
z
" transform="scale(0.015625)"/>
       </defs>
       <use xlink:href="#DejaVuSans-38"/>
       <use xlink:href="#DejaVuSans-30" x="63.623047"/>
       <use xlink:href="#DejaVuSans-30" x="127.246094"/>
      </g>
     </g>
    </g>
    <g id="ytick_3">
     <g id="line2d_23">
      <path d="M 108 240.887346 
L 777.6 240.887346 
" clip-path="url(#p3967beaa85)" style="fill: none; stroke-dasharray: 5.12,1.28,0.8,1.28; stroke-dashoffset: 0; stroke: #b0b0b0; stroke-width: 0.8"/>
     </g>
     <g id="line2d_24">
      <g>
       <use xlink:href="#mc7ebf9c1a8" x="108" y="240.887346" style="fill: #a9a9a9; stroke: #a9a9a9; stroke-width: 0.8"/>
      </g>
     </g>
     <g id="text_12">
      <!-- 1600 -->
      <g style="fill: #a9a9a9" transform="translate(75.55 244.686565) scale(0.1 -0.1)">
       <defs>
        <path id="DejaVuSans-36" d="M 2113 2584 
Q 1688 2584 1439 2293 
Q 1191 2003 1191 1497 
Q 1191 994 1439 701 
Q 1688 409 2113 409 
Q 2538 409 2786 701 
Q 3034 994 3034 1497 
Q 3034 2003 2786 2293 
Q 2538 2584 2113 2584 
z
M 3366 4563 
L 3366 3988 
Q 3128 4100 2886 4159 
Q 2644 4219 2406 4219 
Q 1781 4219 1451 3797 
Q 1122 3375 1075 2522 
Q 1259 2794 1537 2939 
Q 1816 3084 2150 3084 
Q 2853 3084 3261 2657 
Q 3669 2231 3669 1497 
Q 3669 778 3244 343 
Q 2819 -91 2113 -91 
Q 1303 -91 875 529 
Q 447 1150 447 2328 
Q 447 3434 972 4092 
Q 1497 4750 2381 4750 
Q 2619 4750 2861 4703 
Q 3103 4656 3366 4563 
z
" transform="scale(0.015625)"/>
       </defs>
       <use xlink:href="#DejaVuSans-31"/>
       <use xlink:href="#DejaVuSans-36" x="63.623047"/>
       <use xlink:href="#DejaVuSans-30" x="127.246094"/>
       <use xlink:href="#DejaVuSans-30" x="190.869141"/>
      </g>
     </g>
    </g>
    <g id="ytick_4">
     <g id="line2d_25">
      <path d="M 108 207.410096 
L 777.6 207.410096 
" clip-path="url(#p3967beaa85)" style="fill: none; stroke-dasharray: 5.12,1.28,0.8,1.28; stroke-dashoffset: 0; stroke: #b0b0b0; stroke-width: 0.8"/>
     </g>
     <g id="line2d_26">
      <g>
       <use xlink:href="#mc7ebf9c1a8" x="108" y="207.410096" style="fill: #a9a9a9; stroke: #a9a9a9; stroke-width: 0.8"/>
      </g>
     </g>
     <g id="text_13">
      <!-- 2400 -->
      <g style="fill: #a9a9a9" transform="translate(75.55 211.209315) scale(0.1 -0.1)">
       <use xlink:href="#DejaVuSans-32"/>
       <use xlink:href="#DejaVuSans-34" x="63.623047"/>
       <use xlink:href="#DejaVuSans-30" x="127.246094"/>
       <use xlink:href="#DejaVuSans-30" x="190.869141"/>
      </g>
     </g>
    </g>
    <g id="ytick_5">
     <g id="line2d_27">
      <path d="M 108 173.932846 
L 777.6 173.932846 
" clip-path="url(#p3967beaa85)" style="fill: none; stroke-dasharray: 5.12,1.28,0.8,1.28; stroke-dashoffset: 0; stroke: #b0b0b0; stroke-width: 0.8"/>
     </g>
     <g id="line2d_28">
      <g>
       <use xlink:href="#mc7ebf9c1a8" x="108" y="173.932846" style="fill: #a9a9a9; stroke: #a9a9a9; stroke-width: 0.8"/>
      </g>
     </g>
     <g id="text_14">
      <!-- 3200 -->
      <g style="fill: #a9a9a9" transform="translate(75.55 177.732065) scale(0.1 -0.1)">
       <use xlink:href="#DejaVuSans-33"/>
       <use xlink:href="#DejaVuSans-32" x="63.623047"/>
       <use xlink:href="#DejaVuSans-30" x="127.246094"/>
       <use xlink:href="#DejaVuSans-30" x="190.869141"/>
      </g>
     </g>
    </g>
    <g id="ytick_6">
     <g id="line2d_29">
      <path d="M 108 140.455596 
L 777.6 140.455596 
" clip-path="url(#p3967beaa85)" style="fill: none; stroke-dasharray: 5.12,1.28,0.8,1.28; stroke-dashoffset: 0; stroke: #b0b0b0; stroke-width: 0.8"/>
     </g>
     <g id="line2d_30">
      <g>
       <use xlink:href="#mc7ebf9c1a8" x="108" y="140.455596" style="fill: #a9a9a9; stroke: #a9a9a9; stroke-width: 0.8"/>
      </g>
     </g>
     <g id="text_15">
      <!-- 4000 -->
      <g style="fill: #a9a9a9" transform="translate(75.55 144.254815) scale(0.1 -0.1)">
       <use xlink:href="#DejaVuSans-34"/>
       <use xlink:href="#DejaVuSans-30" x="63.623047"/>
       <use xlink:href="#DejaVuSans-30" x="127.246094"/>
       <use xlink:href="#DejaVuSans-30" x="190.869141"/>
      </g>
     </g>
    </g>
    <g id="ytick_7">
     <g id="line2d_31">
      <path d="M 108 106.978346 
L 777.6 106.978346 
" clip-path="url(#p3967beaa85)" style="fill: none; stroke-dasharray: 5.12,1.28,0.8,1.28; stroke-dashoffset: 0; stroke: #b0b0b0; stroke-width: 0.8"/>
     </g>
     <g id="line2d_32">
      <g>
       <use xlink:href="#mc7ebf9c1a8" x="108" y="106.978346" style="fill: #a9a9a9; stroke: #a9a9a9; stroke-width: 0.8"/>
      </g>
     </g>
     <g id="text_16">
      <!-- 4800 -->
      <g style="fill: #a9a9a9" transform="translate(75.55 110.777565) scale(0.1 -0.1)">
       <use xlink:href="#DejaVuSans-34"/>
       <use xlink:href="#DejaVuSans-38" x="63.623047"/>
       <use xlink:href="#DejaVuSans-30" x="127.246094"/>
       <use xlink:href="#DejaVuSans-30" x="190.869141"/>
      </g>
     </g>
    </g>
    <g id="ytick_8">
     <g id="line2d_33">
      <path d="M 108 73.501096 
L 777.6 73.501096 
" clip-path="url(#p3967beaa85)" style="fill: none; stroke-dasharray: 5.12,1.28,0.8,1.28; stroke-dashoffset: 0; stroke: #b0b0b0; stroke-width: 0.8"/>
     </g>
     <g id="line2d_34">
      <g>
       <use xlink:href="#mc7ebf9c1a8" x="108" y="73.501096" style="fill: #a9a9a9; stroke: #a9a9a9; stroke-width: 0.8"/>
      </g>
     </g>
     <g id="text_17">
      <!-- 5600 -->
      <g style="fill: #a9a9a9" transform="translate(75.55 77.300315) scale(0.1 -0.1)">
       <use xlink:href="#DejaVuSans-35"/>
       <use xlink:href="#DejaVuSans-36" x="63.623047"/>
       <use xlink:href="#DejaVuSans-30" x="127.246094"/>
       <use xlink:href="#DejaVuSans-30" x="190.869141"/>
      </g>
     </g>
    </g>
   </g>
   <g id="line2d_35">
    <path d="M 138.436364 307.716307 
L 142.045419 307.423381 
L 142.646928 307.172302 
L 144.451455 306.963069 
L 148.06051 306.251677 
L 151.669565 305.958751 
L 152.271074 305.665825 
L 152.872584 305.498439 
L 153.474093 304.745201 
L 154.075602 304.326735 
L 154.677111 303.029492 
L 155.27862 302.945799 
L 155.880129 302.485487 
L 157.083148 301.899635 
L 159.489184 300.058386 
L 160.692203 299.556227 
L 161.293712 299.137762 
L 163.699748 298.091597 
L 164.301258 297.170973 
L 165.504276 296.334042 
L 166.105785 296.041116 
L 172.120877 295.204185 
L 172.722386 294.911259 
L 176.93295 294.576486 
L 178.737478 294.116174 
L 184.15106 293.404782 
L 184.752569 293.07001 
L 185.354078 292.986317 
L 185.955587 292.735237 
L 187.158606 292.526005 
L 187.760115 292.484158 
L 188.963133 292.233079 
L 189.564642 292.191232 
L 191.970679 291.60538 
L 193.775207 291.437994 
L 194.978225 291.312454 
L 195.579734 291.145068 
L 196.181243 291.103222 
L 197.985771 290.559216 
L 199.188789 290.475523 
L 200.391807 290.308137 
L 201.594826 290.057057 
L 202.196335 289.889671 
L 202.797844 289.094587 
L 204.602372 288.425042 
L 206.406899 287.964729 
L 207.008408 287.671803 
L 207.609917 287.629957 
L 210.617463 286.793026 
L 211.820481 286.709332 
L 212.421991 286.625639 
L 214.226518 286.081634 
L 216.632555 285.495782 
L 217.234064 285.244703 
L 217.835573 285.16101 
L 218.437082 284.868084 
L 224.452174 283.989306 
L 227.45972 283.152375 
L 228.061229 282.775756 
L 230.467266 282.148057 
L 232.873302 280.934507 
L 234.67783 280.516041 
L 235.279339 280.432348 
L 235.880848 280.139422 
L 237.083866 279.930189 
L 238.286885 279.386184 
L 241.29443 278.632946 
L 243.098958 278.172634 
L 243.700467 277.921554 
L 244.301976 277.796015 
L 244.903485 277.544935 
L 245.504995 277.461242 
L 246.106504 277.168316 
L 246.708013 277.00093 
L 247.911031 276.917237 
L 249.11405 276.498771 
L 250.317068 276.415078 
L 250.918577 276.122152 
L 252.121595 275.954766 
L 252.723105 275.745533 
L 253.926123 275.703686 
L 256.33216 275.410761 
L 257.535178 274.824909 
L 264.151779 272.021189 
L 264.753288 271.686416 
L 265.354797 271.058718 
L 266.557815 269.301162 
L 267.159324 269.133776 
L 267.760834 269.133776 
L 268.963852 268.254998 
L 269.565361 268.087612 
L 270.16687 267.794686 
L 270.768379 267.669146 
L 271.369889 267.125141 
L 271.971398 266.957755 
L 273.775925 266.078977 
L 274.978944 264.405115 
L 275.580453 264.028496 
L 276.181962 263.024178 
L 276.783471 262.39648 
L 277.38498 262.103554 
L 277.986489 261.936167 
L 280.392526 260.513384 
L 281.595544 259.550913 
L 282.197054 259.174294 
L 282.798563 258.295516 
L 283.400072 256.956426 
L 284.001581 256.077649 
L 284.60309 255.617336 
L 285.204599 255.366257 
L 287.610636 253.273929 
L 288.813654 252.311458 
L 289.415163 251.809299 
L 290.016673 251.014215 
L 291.219691 249.96805 
L 293.625728 248.419728 
L 294.227237 247.917569 
L 294.828746 247.792029 
L 295.430255 247.54095 
L 297.234783 246.536632 
L 299.03931 245.406775 
L 300.843838 243.64922 
L 301.445347 243.2726 
L 302.046856 243.105214 
L 302.648365 242.812288 
L 303.851383 242.017204 
L 304.452893 241.682431 
L 305.054402 241.598738 
L 309.866475 238.711325 
L 311.671003 237.748854 
L 312.272512 237.204849 
L 314.678548 236.451611 
L 315.280057 236.033145 
L 315.881567 235.907605 
L 317.084585 235.48914 
L 318.889112 234.777748 
L 320.69364 234.108203 
L 321.896658 233.89897 
L 323.099677 232.852806 
L 324.904204 232.015875 
L 326.107222 231.304484 
L 327.310241 230.969711 
L 327.91175 230.593092 
L 328.513259 230.425706 
L 330.317787 229.295849 
L 333.325332 228.584457 
L 335.12986 227.538293 
L 335.731369 227.4546 
L 336.332878 227.245367 
L 337.535897 226.994288 
L 339.340424 225.655198 
L 341.144951 225.236732 
L 341.746461 225.027499 
L 342.34797 224.567187 
L 345.957025 223.395483 
L 346.558534 223.353637 
L 347.160043 223.18625 
L 348.363061 222.684092 
L 352.573626 221.219462 
L 353.776644 221.052076 
L 354.378153 220.884689 
L 354.979662 220.591764 
L 355.581171 220.466224 
L 357.385699 219.629293 
L 359.190226 218.750515 
L 359.791736 218.332049 
L 360.393245 218.164663 
L 362.197772 217.202192 
L 363.400791 216.909266 
L 364.603809 216.281568 
L 365.806827 215.946795 
L 366.408336 215.863102 
L 367.611355 215.15171 
L 368.212864 215.026171 
L 369.415882 214.524012 
L 370.017391 214.398472 
L 370.6189 214.0637 
L 373.024937 213.687081 
L 374.227955 213.101229 
L 374.829465 212.59907 
L 375.430974 211.552906 
L 377.235501 211.218134 
L 379.641538 209.962737 
L 380.243047 209.837197 
L 384.453611 207.828562 
L 385.65663 207.493789 
L 386.859648 207.24271 
L 388.062666 206.656858 
L 388.664175 206.405779 
L 389.265685 206.322086 
L 391.671721 205.275922 
L 393.476249 204.146064 
L 394.077758 204.062371 
L 394.679267 203.853138 
L 395.280776 203.811292 
L 397.686813 203.141747 
L 398.288322 203.0999 
L 398.889831 202.639588 
L 400.092849 202.221123 
L 401.897377 201.635271 
L 402.498886 201.258652 
L 403.100395 201.091265 
L 403.701904 200.6728 
L 404.303414 200.42172 
L 405.506432 199.794022 
L 407.912469 199.08263 
L 408.513978 198.789704 
L 410.318505 197.408768 
L 410.920014 197.283228 
L 412.123033 196.362604 
L 412.724542 196.237064 
L 413.326051 195.31644 
L 413.92756 195.06536 
L 414.529069 194.605048 
L 415.130579 194.521355 
L 416.333597 193.809963 
L 416.935106 193.684424 
L 417.536615 193.433344 
L 418.138124 192.973032 
L 418.739633 192.763799 
L 420.544161 191.550249 
L 422.950198 190.336699 
L 423.551707 190.253006 
L 424.754725 189.709 
L 425.356234 189.374228 
L 425.957743 188.36991 
L 426.559253 187.825905 
L 427.160762 187.491133 
L 427.762271 187.365593 
L 428.965289 186.612355 
L 429.566798 186.486815 
L 430.769817 185.900963 
L 432.574344 185.147725 
L 433.777363 184.310794 
L 434.980381 183.055397 
L 437.987927 180.879376 
L 439.190945 179.916905 
L 439.792454 179.665825 
L 440.393963 178.99628 
L 440.995473 178.535968 
L 442.198491 178.117502 
L 443.401509 177.322418 
L 444.003018 177.029492 
L 444.604527 176.862106 
L 445.206037 176.44364 
L 445.807546 176.359947 
L 447.612073 175.397476 
L 448.815092 174.686084 
L 454.830183 172.55191 
L 455.431692 172.007904 
L 457.23622 171.338359 
L 458.439238 170.96174 
L 459.040747 170.501428 
L 461.446784 169.246031 
L 462.048293 168.911259 
L 463.251312 166.567851 
L 464.45433 165.145068 
L 465.657348 164.433677 
L 467.461876 163.722285 
L 468.063385 163.638592 
L 468.664894 163.303819 
L 470.469421 162.759814 
L 472.875458 161.671803 
L 473.476967 161.295184 
L 474.679986 160.876719 
L 478.289041 158.784391 
L 478.89055 158.156692 
L 480.093568 157.528994 
L 483.702623 155.645898 
L 484.304132 155.394819 
L 484.905641 155.0182 
L 485.507151 154.89266 
L 486.10866 154.432348 
L 489.116206 153.469877 
L 489.717715 153.302491 
L 490.319224 153.009565 
L 490.920733 152.591099 
L 492.123751 152.256327 
L 493.32677 151.796015 
L 493.928279 151.335702 
L 495.131297 150.959083 
L 495.732806 150.666157 
L 496.334315 150.498771 
L 497.537334 149.66184 
L 498.740352 149.159681 
L 499.94337 148.239057 
L 501.146389 147.820591 
L 501.747898 147.318432 
L 502.349407 147.234739 
L 503.552425 146.355961 
L 504.755444 145.77011 
L 505.356953 145.51903 
L 505.958462 144.933178 
L 509.567517 143.635935 
L 511.372045 142.84085 
L 513.176572 142.296845 
L 514.37959 142.129459 
L 514.9811 141.878379 
L 515.582609 141.794686 
L 516.785627 141.292527 
L 517.387136 141.250681 
L 519.793173 140.371903 
L 521.5977 139.158353 
L 522.199209 138.907273 
L 523.402228 138.279575 
L 524.003737 138.070342 
L 527.612792 136.103554 
L 528.214301 135.978014 
L 530.018829 134.973696 
L 531.823356 134.387845 
L 532.424865 134.136765 
L 533.627884 133.843839 
L 536.635429 132.881368 
L 538.439957 132.588442 
L 540.845994 131.835204 
L 541.447503 131.584125 
L 542.049012 131.500432 
L 542.650521 131.207506 
L 543.853539 130.956426 
L 545.056558 130.537961 
L 545.658067 130.328728 
L 546.861085 130.203188 
L 548.064103 129.910262 
L 549.868631 129.617336 
L 550.47014 129.408104 
L 551.673158 129.282564 
L 554.680704 128.529326 
L 555.883723 128.2364 
L 556.485232 127.901627 
L 559.492778 127.148389 
L 560.094287 127.02285 
L 561.297305 126.604384 
L 563.101833 125.976685 
L 563.703342 125.892992 
L 565.507869 125.265294 
L 566.109378 125.265294 
L 567.312397 124.846828 
L 567.913906 124.260976 
L 568.515415 123.96805 
L 569.718433 123.591431 
L 572.12447 122.670807 
L 572.725979 122.545267 
L 573.327488 122.168648 
L 573.928997 122.043109 
L 574.530507 121.708336 
L 577.538052 120.829558 
L 578.139562 120.452939 
L 578.741071 120.3274 
L 579.34258 119.825241 
L 581.147107 119.490468 
L 582.350126 118.820923 
L 582.951635 118.151378 
L 584.154653 117.900299 
L 588.365217 116.937828 
L 588.966727 116.770442 
L 590.169745 116.728595 
L 590.771254 116.477516 
L 593.177291 116.05905 
L 593.7788 115.807971 
L 595.583327 115.556891 
L 597.989364 114.803653 
L 599.793891 114.385188 
L 601.598419 113.924875 
L 603.402946 113.38087 
L 606.410492 112.502092 
L 607.613511 111.958087 
L 608.816529 111.539621 
L 609.418038 111.079309 
L 610.621056 110.744537 
L 611.222566 110.493457 
L 612.425584 110.158685 
L 614.831621 109.070674 
L 616.636148 108.945135 
L 619.042185 108.27559 
L 619.643694 107.89897 
L 620.846712 107.564198 
L 622.65124 106.643574 
L 623.252749 106.518034 
L 623.854258 106.225108 
L 624.455767 106.183261 
L 631.072368 103.965394 
L 633.478405 103.379542 
L 634.079914 103.212155 
L 635.282932 102.66815 
L 635.884441 102.584457 
L 637.08746 102.249684 
L 637.688969 101.789372 
L 638.290478 101.496446 
L 638.891987 100.785055 
L 639.493496 100.366589 
L 640.696515 99.98997 
L 641.298024 99.529658 
L 646.110097 97.562869 
L 646.711606 97.395483 
L 647.313115 97.018864 
L 649.719152 96.307473 
L 650.92217 95.721621 
L 652.125189 95.010229 
L 652.726698 94.884689 
L 653.929716 94.173298 
L 654.531225 93.922219 
L 655.734244 93.16898 
L 657.538771 92.332049 
L 658.14028 91.913584 
L 659.343299 91.495118 
L 660.546317 90.783726 
L 661.147826 90.574494 
L 661.749335 90.156028 
L 662.952354 89.737562 
L 663.553863 89.612023 
L 665.959899 88.524012 
L 668.967445 87.477848 
L 669.568954 87.436001 
L 670.170464 87.268615 
L 670.771973 86.891996 
L 671.373482 86.808303 
L 671.974991 86.59907 
L 673.779519 86.264298 
L 677.990083 84.130123 
L 678.591592 84.04643 
L 680.396119 83.083959 
L 682.200647 82.414414 
L 684.005174 81.619329 
L 686.411211 80.656858 
L 687.01272 80.489472 
L 687.614229 80.112853 
L 688.817248 79.945467 
L 689.418757 79.568848 
L 690.020266 79.527001 
L 691.223284 79.150382 
L 692.426303 78.56453 
L 693.027812 78.480837 
L 693.629321 78.229758 
L 694.23083 78.104218 
L 696.035358 77.309133 
L 696.636867 77.183593 
L 697.238376 76.932514 
L 700.245922 76.221123 
L 702.050449 75.551578 
L 704.456486 74.170641 
L 705.659504 73.710329 
L 706.261013 73.33371 
L 707.464032 73.08263 
L 708.065541 72.747858 
L 708.66705 72.622318 
L 709.870068 71.952773 
L 713.479123 70.278911 
L 715.283651 69.693059 
L 716.486669 69.274593 
L 717.088178 69.06536 
L 718.291197 68.479508 
L 719.494215 68.102889 
L 720.095724 67.97735 
L 721.298742 67.433344 
L 721.900252 67.224112 
L 722.501761 66.889339 
L 723.10327 66.805646 
L 723.704779 66.596413 
L 724.907797 65.926868 
L 727.313834 64.838858 
L 728.516852 64.420392 
L 729.719871 63.792693 
L 730.32138 63.709 
L 733.328926 62.411757 
L 733.930435 61.993291 
L 736.336471 61.198207 
L 736.937981 61.198207 
L 738.140999 60.654201 
L 738.742508 60.193889 
L 739.344017 59.524344 
L 739.945526 59.022185 
L 740.547036 58.729259 
L 741.148545 58.561873 
L 741.750054 58.185254 
L 742.351563 58.059714 
L 742.953072 57.766788 
L 743.554581 57.683095 
L 744.156091 57.26463 
L 744.7576 57.13909 
L 745.359109 56.846164 
L 746.562127 56.009233 
L 747.163636 55.8 
L 747.163636 55.8 
" clip-path="url(#p3967beaa85)" style="fill: none; stroke: #1f77b4; stroke-width: 1.5; stroke-linecap: square"/>
   </g>
   <g id="line2d_36">
    <path d="M 139.037873 307.8 
L 140.8424 307.716307 
L 142.646928 307.67446 
L 146.255983 307.590767 
L 149.263529 307.465227 
L 151.669565 307.465227 
L 152.271074 307.297841 
L 154.677111 307.214148 
L 156.481639 307.004915 
L 158.286166 306.837529 
L 161.895221 306.670143 
L 162.49673 306.670143 
L 163.098239 306.544603 
L 165.504276 306.46091 
L 166.707294 306.377217 
L 171.519368 306.293524 
L 174.526913 306.167984 
L 181.745023 306.084291 
L 184.752569 305.958751 
L 188.361624 305.875058 
L 190.767661 305.791365 
L 196.181243 305.707672 
L 197.985771 305.665825 
L 199.790298 305.623979 
L 201.594826 305.414746 
L 205.203881 305.372899 
L 206.406899 305.289206 
L 210.617463 305.205513 
L 217.234064 304.828894 
L 221.444628 304.745201 
L 222.647646 304.661508 
L 224.452174 304.577815 
L 228.061229 304.410428 
L 230.467266 304.368582 
L 232.271793 304.201196 
L 240.091412 303.740883 
L 243.098958 303.65719 
L 248.51254 303.364264 
L 250.317068 303.280571 
L 256.33216 302.945799 
L 262.94876 302.862106 
L 265.354797 302.611026 
L 266.557815 302.527333 
L 274.377434 301.899635 
L 277.986489 301.439322 
L 280.392526 301.355629 
L 285.204599 300.727931 
L 288.813654 300.644238 
L 290.618182 300.476852 
L 291.8212 300.435005 
L 293.024218 300.309465 
L 294.828746 300.225772 
L 296.031764 300.058386 
L 299.03931 299.723613 
L 301.445347 299.63992 
L 302.648365 299.556227 
L 305.054402 299.472534 
L 306.25742 299.388841 
L 309.264966 299.095915 
L 309.866475 298.928529 
L 313.47553 298.761142 
L 316.483076 298.677449 
L 324.302695 298.217137 
L 326.107222 298.133444 
L 333.926842 297.673132 
L 338.137406 297.589439 
L 338.738915 297.463899 
L 343.550988 297.380206 
L 347.761552 297.170973 
L 354.378153 297.08728 
L 358.588717 296.878047 
L 363.400791 296.794354 
L 368.212864 296.543275 
L 372.423428 296.459582 
L 383.852102 295.74819 
L 388.664175 295.664497 
L 404.303414 294.660179 
L 407.912469 294.576486 
L 409.716996 294.53464 
L 411.521524 294.492793 
L 413.326051 294.325407 
L 418.138124 294.241714 
L 419.341143 294.032481 
L 420.544161 293.948788 
L 423.551707 293.823248 
L 424.754725 293.739555 
L 425.957743 293.655862 
L 431.371326 293.572169 
L 432.574344 293.446629 
L 434.980381 293.404782 
L 435.58189 293.279243 
L 436.784908 293.19555 
L 437.386418 293.07001 
L 439.190945 292.986317 
L 448.815092 292.400465 
L 451.221128 292.316772 
L 454.228674 292.191232 
L 462.649802 292.107539 
L 466.860367 291.898306 
L 471.67244 291.814613 
L 474.078476 291.73092 
L 476.484513 291.689073 
L 477.687531 291.563534 
L 480.093568 291.479841 
L 486.10866 291.145068 
L 489.717715 291.103222 
L 491.522242 290.935835 
L 493.32677 290.893989 
L 497.537334 290.810296 
L 499.94337 290.726602 
L 507.16148 290.642909 
L 510.169026 290.51737 
L 513.778081 290.433677 
L 515.582609 290.224444 
L 519.191664 290.182597 
L 520.996191 290.015211 
L 523.402228 289.931518 
L 530.620338 289.847825 
L 533.627884 289.722285 
L 543.853539 289.680438 
L 545.056558 289.596745 
L 546.861085 289.554899 
L 554.680704 289.471206 
L 555.883723 289.387512 
L 562.500323 289.303819 
L 564.90636 289.220126 
L 572.12447 289.17828 
L 573.327488 289.094587 
L 582.350126 289.05274 
L 584.154653 288.885354 
L 599.192382 288.801661 
L 600.99691 288.759814 
L 617.237657 288.676121 
L 619.643694 288.592428 
L 629.86935 288.508735 
L 631.072368 288.425042 
L 634.079914 288.341348 
L 635.884441 288.173962 
L 638.891987 288.090269 
L 641.298024 288.006576 
L 644.907079 287.922883 
L 646.711606 287.881036 
L 649.117643 287.797343 
L 650.92217 287.755497 
L 653.929716 287.671803 
L 655.132734 287.58811 
L 658.741789 287.504417 
L 661.749335 287.378877 
L 662.952354 287.337031 
L 664.155372 287.253338 
L 665.959899 287.211491 
L 668.365936 287.127798 
L 670.771973 287.044105 
L 678.591592 286.960412 
L 680.997628 286.876719 
L 685.809702 286.793026 
L 690.020266 286.583793 
L 695.433848 286.5001 
L 696.636867 286.416407 
L 707.464032 286.332713 
L 709.268559 286.290867 
L 712.276105 286.24902 
L 714.682142 285.997941 
L 716.486669 285.956094 
L 720.095724 285.872401 
L 726.712325 285.495782 
L 729.118361 285.412089 
L 731.524398 285.328396 
L 735.133453 285.244703 
L 736.336471 285.16101 
L 738.742508 285.077317 
L 741.148545 284.826237 
L 743.554581 284.742544 
L 745.960618 284.700697 
L 747.163636 284.617004 
L 747.163636 284.617004 
" clip-path="url(#p3967beaa85)" style="fill: none; stroke: #ff7f0e; stroke-width: 1.5; stroke-linecap: square"/>
   </g>
   <g id="patch_3">
    <path d="M 108 320.4 
L 108 43.2 
" style="fill: none; stroke: #a9a9a9; stroke-width: 0.8; stroke-linejoin: miter; stroke-linecap: square"/>
   </g>
   <g id="patch_4">
    <path d="M 777.6 320.4 
L 777.6 43.2 
" style="fill: none"/>
   </g>
   <g id="patch_5">
    <path d="M 108 320.4 
L 777.6 320.4 
" style="fill: none; stroke: #a9a9a9; stroke-width: 0.8; stroke-linejoin: miter; stroke-linecap: square"/>
   </g>
   <g id="patch_6">
    <path d="M 108 43.2 
L 777.6 43.2 
" style="fill: none"/>
   </g>
   <g id="text_18">
    <!-- get_subscribe history -->
    <g style="fill: #a9a9a9" transform="translate(378.6075 37.2) scale(0.12 -0.12)">
     <defs>
      <path id="DejaVuSans-67" d="M 2906 1791 
Q 2906 2416 2648 2759 
Q 2391 3103 1925 3103 
Q 1463 3103 1205 2759 
Q 947 2416 947 1791 
Q 947 1169 1205 825 
Q 1463 481 1925 481 
Q 2391 481 2648 825 
Q 2906 1169 2906 1791 
z
M 3481 434 
Q 3481 -459 3084 -895 
Q 2688 -1331 1869 -1331 
Q 1566 -1331 1297 -1286 
Q 1028 -1241 775 -1147 
L 775 -588 
Q 1028 -725 1275 -790 
Q 1522 -856 1778 -856 
Q 2344 -856 2625 -561 
Q 2906 -266 2906 331 
L 2906 616 
Q 2728 306 2450 153 
Q 2172 0 1784 0 
Q 1141 0 747 490 
Q 353 981 353 1791 
Q 353 2603 747 3093 
Q 1141 3584 1784 3584 
Q 2172 3584 2450 3431 
Q 2728 3278 2906 2969 
L 2906 3500 
L 3481 3500 
L 3481 434 
z
" transform="scale(0.015625)"/>
      <path id="DejaVuSans-65" d="M 3597 1894 
L 3597 1613 
L 953 1613 
Q 991 1019 1311 708 
Q 1631 397 2203 397 
Q 2534 397 2845 478 
Q 3156 559 3463 722 
L 3463 178 
Q 3153 47 2828 -22 
Q 2503 -91 2169 -91 
Q 1331 -91 842 396 
Q 353 884 353 1716 
Q 353 2575 817 3079 
Q 1281 3584 2069 3584 
Q 2775 3584 3186 3129 
Q 3597 2675 3597 1894 
z
M 3022 2063 
Q 3016 2534 2758 2815 
Q 2500 3097 2075 3097 
Q 1594 3097 1305 2825 
Q 1016 2553 972 2059 
L 3022 2063 
z
" transform="scale(0.015625)"/>
      <path id="DejaVuSans-74" d="M 1172 4494 
L 1172 3500 
L 2356 3500 
L 2356 3053 
L 1172 3053 
L 1172 1153 
Q 1172 725 1289 603 
Q 1406 481 1766 481 
L 2356 481 
L 2356 0 
L 1766 0 
Q 1100 0 847 248 
Q 594 497 594 1153 
L 594 3053 
L 172 3053 
L 172 3500 
L 594 3500 
L 594 4494 
L 1172 4494 
z
" transform="scale(0.015625)"/>
      <path id="DejaVuSans-5f" d="M 3263 -1063 
L 3263 -1509 
L -63 -1509 
L -63 -1063 
L 3263 -1063 
z
" transform="scale(0.015625)"/>
      <path id="DejaVuSans-73" d="M 2834 3397 
L 2834 2853 
Q 2591 2978 2328 3040 
Q 2066 3103 1784 3103 
Q 1356 3103 1142 2972 
Q 928 2841 928 2578 
Q 928 2378 1081 2264 
Q 1234 2150 1697 2047 
L 1894 2003 
Q 2506 1872 2764 1633 
Q 3022 1394 3022 966 
Q 3022 478 2636 193 
Q 2250 -91 1575 -91 
Q 1294 -91 989 -36 
Q 684 19 347 128 
L 347 722 
Q 666 556 975 473 
Q 1284 391 1588 391 
Q 1994 391 2212 530 
Q 2431 669 2431 922 
Q 2431 1156 2273 1281 
Q 2116 1406 1581 1522 
L 1381 1569 
Q 847 1681 609 1914 
Q 372 2147 372 2553 
Q 372 3047 722 3315 
Q 1072 3584 1716 3584 
Q 2034 3584 2315 3537 
Q 2597 3491 2834 3397 
z
" transform="scale(0.015625)"/>
      <path id="DejaVuSans-75" d="M 544 1381 
L 544 3500 
L 1119 3500 
L 1119 1403 
Q 1119 906 1312 657 
Q 1506 409 1894 409 
Q 2359 409 2629 706 
Q 2900 1003 2900 1516 
L 2900 3500 
L 3475 3500 
L 3475 0 
L 2900 0 
L 2900 538 
Q 2691 219 2414 64 
Q 2138 -91 1772 -91 
Q 1169 -91 856 284 
Q 544 659 544 1381 
z
M 1991 3584 
L 1991 3584 
z
" transform="scale(0.015625)"/>
      <path id="DejaVuSans-62" d="M 3116 1747 
Q 3116 2381 2855 2742 
Q 2594 3103 2138 3103 
Q 1681 3103 1420 2742 
Q 1159 2381 1159 1747 
Q 1159 1113 1420 752 
Q 1681 391 2138 391 
Q 2594 391 2855 752 
Q 3116 1113 3116 1747 
z
M 1159 2969 
Q 1341 3281 1617 3432 
Q 1894 3584 2278 3584 
Q 2916 3584 3314 3078 
Q 3713 2572 3713 1747 
Q 3713 922 3314 415 
Q 2916 -91 2278 -91 
Q 1894 -91 1617 61 
Q 1341 213 1159 525 
L 1159 0 
L 581 0 
L 581 4863 
L 1159 4863 
L 1159 2969 
z
" transform="scale(0.015625)"/>
      <path id="DejaVuSans-63" d="M 3122 3366 
L 3122 2828 
Q 2878 2963 2633 3030 
Q 2388 3097 2138 3097 
Q 1578 3097 1268 2742 
Q 959 2388 959 1747 
Q 959 1106 1268 751 
Q 1578 397 2138 397 
Q 2388 397 2633 464 
Q 2878 531 3122 666 
L 3122 134 
Q 2881 22 2623 -34 
Q 2366 -91 2075 -91 
Q 1284 -91 818 406 
Q 353 903 353 1747 
Q 353 2603 823 3093 
Q 1294 3584 2113 3584 
Q 2378 3584 2631 3529 
Q 2884 3475 3122 3366 
z
" transform="scale(0.015625)"/>
      <path id="DejaVuSans-72" d="M 2631 2963 
Q 2534 3019 2420 3045 
Q 2306 3072 2169 3072 
Q 1681 3072 1420 2755 
Q 1159 2438 1159 1844 
L 1159 0 
L 581 0 
L 581 3500 
L 1159 3500 
L 1159 2956 
Q 1341 3275 1631 3429 
Q 1922 3584 2338 3584 
Q 2397 3584 2469 3576 
Q 2541 3569 2628 3553 
L 2631 2963 
z
" transform="scale(0.015625)"/>
      <path id="DejaVuSans-69" d="M 603 3500 
L 1178 3500 
L 1178 0 
L 603 0 
L 603 3500 
z
M 603 4863 
L 1178 4863 
L 1178 4134 
L 603 4134 
L 603 4863 
z
" transform="scale(0.015625)"/>
      <path id="DejaVuSans-20" transform="scale(0.015625)"/>
      <path id="DejaVuSans-68" d="M 3513 2113 
L 3513 0 
L 2938 0 
L 2938 2094 
Q 2938 2591 2744 2837 
Q 2550 3084 2163 3084 
Q 1697 3084 1428 2787 
Q 1159 2491 1159 1978 
L 1159 0 
L 581 0 
L 581 4863 
L 1159 4863 
L 1159 2956 
Q 1366 3272 1645 3428 
Q 1925 3584 2291 3584 
Q 2894 3584 3203 3211 
Q 3513 2838 3513 2113 
z
" transform="scale(0.015625)"/>
      <path id="DejaVuSans-6f" d="M 1959 3097 
Q 1497 3097 1228 2736 
Q 959 2375 959 1747 
Q 959 1119 1226 758 
Q 1494 397 1959 397 
Q 2419 397 2687 759 
Q 2956 1122 2956 1747 
Q 2956 2369 2687 2733 
Q 2419 3097 1959 3097 
z
M 1959 3584 
Q 2709 3584 3137 3096 
Q 3566 2609 3566 1747 
Q 3566 888 3137 398 
Q 2709 -91 1959 -91 
Q 1206 -91 779 398 
Q 353 888 353 1747 
Q 353 2609 779 3096 
Q 1206 3584 1959 3584 
z
" transform="scale(0.015625)"/>
      <path id="DejaVuSans-79" d="M 2059 -325 
Q 1816 -950 1584 -1140 
Q 1353 -1331 966 -1331 
L 506 -1331 
L 506 -850 
L 844 -850 
Q 1081 -850 1212 -737 
Q 1344 -625 1503 -206 
L 1606 56 
L 191 3500 
L 800 3500 
L 1894 763 
L 2988 3500 
L 3597 3500 
L 2059 -325 
z
" transform="scale(0.015625)"/>
     </defs>
     <use xlink:href="#DejaVuSans-67"/>
     <use xlink:href="#DejaVuSans-65" x="63.476562"/>
     <use xlink:href="#DejaVuSans-74" x="125"/>
     <use xlink:href="#DejaVuSans-5f" x="164.208984"/>
     <use xlink:href="#DejaVuSans-73" x="214.208984"/>
     <use xlink:href="#DejaVuSans-75" x="266.308594"/>
     <use xlink:href="#DejaVuSans-62" x="329.6875"/>
     <use xlink:href="#DejaVuSans-73" x="393.164062"/>
     <use xlink:href="#DejaVuSans-63" x="445.263672"/>
     <use xlink:href="#DejaVuSans-72" x="500.244141"/>
     <use xlink:href="#DejaVuSans-69" x="541.357422"/>
     <use xlink:href="#DejaVuSans-62" x="569.140625"/>
     <use xlink:href="#DejaVuSans-65" x="632.617188"/>
     <use xlink:href="#DejaVuSans-20" x="694.140625"/>
     <use xlink:href="#DejaVuSans-68" x="725.927734"/>
     <use xlink:href="#DejaVuSans-69" x="789.306641"/>
     <use xlink:href="#DejaVuSans-73" x="817.089844"/>
     <use xlink:href="#DejaVuSans-74" x="869.189453"/>
     <use xlink:href="#DejaVuSans-6f" x="908.398438"/>
     <use xlink:href="#DejaVuSans-72" x="969.580078"/>
     <use xlink:href="#DejaVuSans-79" x="1010.693359"/>
    </g>
   </g>
   <g id="legend_1">
    <g id="line2d_37">
     <path d="M 815.08 328.498438 
L 825.08 328.498438 
L 835.08 328.498438 
" style="fill: none; stroke: #1f77b4; stroke-width: 1.5; stroke-linecap: square"/>
    </g>
    <g id="text_19">
     <!-- star -->
     <g style="fill: #a9a9a9" transform="translate(843.08 331.998438) scale(0.1 -0.1)">
      <defs>
       <path id="DejaVuSans-61" d="M 2194 1759 
Q 1497 1759 1228 1600 
Q 959 1441 959 1056 
Q 959 750 1161 570 
Q 1363 391 1709 391 
Q 2188 391 2477 730 
Q 2766 1069 2766 1631 
L 2766 1759 
L 2194 1759 
z
M 3341 1997 
L 3341 0 
L 2766 0 
L 2766 531 
Q 2569 213 2275 61 
Q 1981 -91 1556 -91 
Q 1019 -91 701 211 
Q 384 513 384 1019 
Q 384 1609 779 1909 
Q 1175 2209 1959 2209 
L 2766 2209 
L 2766 2266 
Q 2766 2663 2505 2880 
Q 2244 3097 1772 3097 
Q 1472 3097 1187 3025 
Q 903 2953 641 2809 
L 641 3341 
Q 956 3463 1253 3523 
Q 1550 3584 1831 3584 
Q 2591 3584 2966 3190 
Q 3341 2797 3341 1997 
z
" transform="scale(0.015625)"/>
      </defs>
      <use xlink:href="#DejaVuSans-73"/>
      <use xlink:href="#DejaVuSans-74" x="52.099609"/>
      <use xlink:href="#DejaVuSans-61" x="91.308594"/>
      <use xlink:href="#DejaVuSans-72" x="152.587891"/>
     </g>
    </g>
    <g id="line2d_38">
     <path d="M 815.08 343.176562 
L 825.08 343.176562 
L 835.08 343.176562 
" style="fill: none; stroke: #ff7f0e; stroke-width: 1.5; stroke-linecap: square"/>
    </g>
    <g id="text_20">
     <!-- fork -->
     <g style="fill: #a9a9a9" transform="translate(843.08 346.676562) scale(0.1 -0.1)">
      <defs>
       <path id="DejaVuSans-66" d="M 2375 4863 
L 2375 4384 
L 1825 4384 
Q 1516 4384 1395 4259 
Q 1275 4134 1275 3809 
L 1275 3500 
L 2222 3500 
L 2222 3053 
L 1275 3053 
L 1275 0 
L 697 0 
L 697 3053 
L 147 3053 
L 147 3500 
L 697 3500 
L 697 3744 
Q 697 4328 969 4595 
Q 1241 4863 1831 4863 
L 2375 4863 
z
" transform="scale(0.015625)"/>
       <path id="DejaVuSans-6b" d="M 581 4863 
L 1159 4863 
L 1159 1991 
L 2875 3500 
L 3609 3500 
L 1753 1863 
L 3688 0 
L 2938 0 
L 1159 1709 
L 1159 0 
L 581 0 
L 581 4863 
z
" transform="scale(0.015625)"/>
      </defs>
      <use xlink:href="#DejaVuSans-66"/>
      <use xlink:href="#DejaVuSans-6f" x="35.205078"/>
      <use xlink:href="#DejaVuSans-72" x="96.386719"/>
      <use xlink:href="#DejaVuSans-6b" x="137.5"/>
     </g>
    </g>
   </g>
  </g>
 </g>
 <defs>
  <clipPath id="p3967beaa85">
   <rect x="108" y="43.2" width="669.6" height="277.2"/>
  </clipPath>
 </defs>
</svg>
